#compressed
#unkc
#track 5
#inst 2
#unk6 7
#volume 6e
..|A-4.v3|......
..|......|......
..|......|......
..|......|......
..|......|......
..|......|......
..|......|......
..|......|......
..|......|......
..|......|......
..|......|......
..|......|......
..|......|......
..|......|......
..|......|......
..|......|......
..|......|......
..|......|......
..|......|......
..|......|......
..|......|......
..|......|......
..|......|......
..|......|......
..|===...|A-4.v3
..|......|......
..|......|......
..|......|......
..|......|......
..|......|......
..|......|......
..|......|......
..|......|......
..|......|......
..|......|......
..|......|......
..|......|A-4.v2
..|......|......
..|......|......
..|......|......
..|......|......
..|......|......
..|......|......
..|......|......
..|......|......
..|......|......
..|......|......
..|......|......
..|......|G#4.v3
..|......|......
..|......|......
..|......|......
..|......|......
..|......|......
..|......|......
..|......|......
..|......|......
..|......|......
..|......|......
..|......|......
..|......|A-4.v3
..|......|......
..|......|......
..|......|......
..|......|......
..|......|......
..|......|......
..|......|......
..|......|......
..|......|......
..|......|......
..|......|......
..|......|A-4.v3
..|......|......
..|......|......
..|......|......
..|......|......
..|......|......
..|......|......
..|......|......
..|......|......
..|......|......
..|......|......
..|......|......
..|......|G#4.v3
..|......|......
..|......|......
..|......|......
..|......|......
..|......|......
..|......|......
..|......|......
..|......|......
..|......|......
..|......|......
..|......|......
..|......|A-4.v3
..|......|......
..|......|......
..|......|......
..|......|......
..|......|......
..|......|......
..|......|......
..|......|......
..|......|......
..|......|......
..|......|......
..|......|B-4.v3
..|......|......
..|......|......
..|......|......
..|......|......
..|......|......
..|......|......
..|......|......
..|......|......
..|......|......
..|......|......
..|......|......
..|......|B-4.v3
..|......|......
..|......|......
..|......|......
..|......|......
..|......|......
..|......|......
..|......|......
..|......|......
..|......|......
..|......|......
..|......|......
..|......|B-4.v3
..|......|......
..|......|......
..|......|......
..|......|......
..|......|......
..|......|......
..|......|......
..|......|......
..|......|......
..|......|......
..|......|......
..|......|B-4.v3
..|......|......
..|......|......
..|......|......
..|......|......
..|......|......
..|......|......
..|......|......
..|......|......
..|......|......
..|......|......
..|......|......
..|......|B-4.v3
..|......|......
..|......|......
..|......|......
..|......|......
..|......|......
..|......|......
..|......|......
..|......|......
..|......|......
..|......|......
..|......|......
..|......|B-4.v3
..|......|......
..|......|......
..|......|......
..|......|......
..|......|......
..|......|......
..|......|......
..|......|......
..|......|......
..|......|......
..|......|......
..|......|C#5.v3
..|......|......
..|......|......
..|......|......
..|......|......
..|......|......
..|......|......
..|......|......
..|......|......
..|......|......
..|......|......
..|......|......
..|......|D-5.v3
..|......|......
..|......|......
..|......|......
..|......|......
..|......|......
..|......|......
..|......|......
..|......|......
..|......|......
..|......|......
..|......|......
..|......|......
..|......|......
..|......|......
..|......|......
..|......|......
..|......|......
..|......|......
..|......|......
..|......|......
..|......|......
..|......|......
..|......|......
..|......|D-5.v3
..|......|......
..|......|......
..|......|......
..|......|......
..|......|......
..|......|......
..|......|......
..|......|......
..|......|......
..|......|......
..|......|......
..|......|D-5.v3
..|......|......
..|......|......
..|......|......
..|......|......
..|......|......
..|......|......
..|......|......
..|......|......
..|......|......
..|......|......
..|......|......
..|......|D-5.v3
..|......|......
..|......|......
..|......|......
..|......|......
..|......|......
..|......|......
..|......|......
..|......|......
..|......|......
..|......|......
..|......|......
..|......|D-5.v3
..|......|......
..|......|......
..|......|......
..|......|......
..|......|......
..|......|......
..|......|......
..|......|......
..|......|......
..|......|......
..|......|......
..|......|C#5.v3
..|......|......
..|......|......
..|......|......
..|......|......
..|......|......
..|......|......
..|......|......
..|......|......
..|......|......
..|......|......
..|......|......
..|......|B-4.v3
..|......|......
..|......|......
..|......|......
..|......|......
..|......|......
..|......|......
..|......|......
..|......|......
..|......|......
..|......|......
..|......|......
..|......|A-4.v3
..|......|......
..|......|......
..|......|......
..|......|......
..|......|......
..|......|......
..|......|......
..|......|......
..|......|......
..|......|......
..|......|......
..|......|......
..|......|......
..|......|......
..|......|......
..|......|......
..|......|......
..|......|......
..|......|......
..|......|......
..|......|......
..|......|......
..|......|......
..|......|A-4.v3
..|......|......
..|......|......
..|......|......
..|......|......
..|......|......
..|......|......
..|......|......
..|......|......
..|......|......
..|......|......
..|......|......
..|......|A-4.v3
..|......|......
..|......|......
..|......|......
..|......|......
..|......|......
..|......|......
..|......|......
..|......|......
..|......|......
..|......|......
..|......|......
..|......|A-4.v3
..|......|......
..|......|......
..|......|......
..|......|......
..|......|......
..|......|......
..|......|......
..|......|......
..|......|......
..|......|......
..|......|......
..|......|A-5.v3
..|......|......
..|......|......
..|......|......
..|......|......
..|......|......
..|......|......
..|......|......
..|......|......
..|......|......
..|......|......
..|......|......
..|......|G-5.v3
..|......|......
..|......|......
..|......|......
..|......|......
..|......|......
..|......|......
..|......|......
..|......|......
..|......|......
..|......|......
..|......|......
..|......|E-5.v3
..|......|......
..|......|......
..|......|......
..|......|......
..|......|......
..|......|......
..|......|......
..|......|......
..|......|......
..|......|......
..|......|......
..|......|===...
#halt
#halt
