#compressed
#unkc
#track 3
#inst 5
#unk6 10
#unk6 7
#pan 40
#volume 6e
..|C#5.v3|A-5.v3|......|......
..|......|......|......|......
..|......|......|......|......
..|......|......|......|......
..|......|......|......|......
..|......|......|......|......
..|......|......|......|......
..|......|......|......|......
..|......|......|......|......
..|......|......|......|......
..|......|......|......|......
..|......|......|......|......
..|......|......|A-5.v3|C#5.v3
..|......|......|......|......
..|......|......|......|......
..|......|......|......|......
..|......|......|......|......
..|......|......|......|......
..|......|......|......|......
..|......|......|......|......
..|......|......|......|......
..|......|......|......|......
..|......|......|......|......
..|......|......|......|......
..|===...|===...|===...|===...
..|......|......|......|......
..|......|......|......|......
..|......|......|......|......
..|......|......|......|......
..|......|......|......|......
..|......|......|......|......
..|......|......|......|......
..|......|......|......|......
..|......|......|......|......
..|......|......|......|......
..|......|......|......|......
..|C#6.v3|A-5.v3|......|......
..|......|......|......|......
..|......|......|......|......
..|......|......|......|......
..|......|......|......|......
..|......|......|......|......
..|===...|===...|......|......
..|......|......|......|......
..|......|......|......|......
..|......|......|......|......
..|......|......|......|......
..|......|......|......|......
..|......|......|......|......
..|......|......|......|......
..|......|......|......|......
..|......|......|......|......
..|......|......|......|......
..|......|......|......|......
..|......|......|......|......
..|......|......|......|......
..|......|......|......|......
..|......|......|......|......
..|......|......|......|......
..|......|......|......|......
..|B-5.v3|G#5.v2|......|......
..|......|......|......|......
..|......|......|......|......
..|......|......|......|......
..|......|......|......|......
..|......|......|......|......
..|......|......|......|......
..|......|......|......|......
..|......|......|......|......
..|......|......|......|......
..|......|......|......|......
..|......|......|......|......
..|C#6.v3|A-5.v3|......|......
..|......|......|......|......
..|......|......|......|......
..|......|......|......|......
..|......|......|......|......
..|......|......|......|......
..|===...|===...|......|......
..|......|......|......|......
..|......|......|......|......
..|......|......|......|......
..|......|......|......|......
..|......|......|......|......
..|......|......|......|......
..|......|......|......|......
..|......|......|......|......
..|......|......|......|......
..|......|......|......|......
..|......|......|......|......
..|......|......|......|......
..|......|......|......|......
..|......|......|......|......
..|......|......|......|......
..|......|......|......|......
..|......|......|......|......
..|B-5.v3|G#5.v2|......|......
..|......|......|......|......
..|......|......|......|......
..|......|......|......|......
..|......|......|......|......
..|......|......|......|......
..|===...|===...|......|......
..|......|......|......|......
..|......|......|......|......
..|......|......|......|......
..|......|......|......|......
..|......|......|......|......
..|......|......|......|......
..|......|......|......|......
..|......|......|......|......
..|......|......|......|......
..|......|......|......|......
..|......|......|......|......
..|......|......|......|......
..|......|......|......|......
..|......|......|......|......
..|......|......|......|......
..|......|......|......|......
..|......|......|......|......
..|......|......|......|......
..|......|......|......|......
..|......|......|......|......
..|......|......|......|......
..|......|......|......|......
..|......|......|......|......
..|......|......|......|......
..|......|......|......|......
..|......|......|......|......
..|......|......|......|......
..|......|......|......|......
..|......|......|......|......
..|C#6.v3|A-5.v3|......|......
..|......|......|......|......
..|......|......|......|......
..|......|......|......|......
..|......|......|......|......
..|......|......|......|......
..|===...|===...|......|......
..|......|......|......|......
..|......|......|......|......
..|......|......|......|......
..|......|......|......|......
..|......|......|......|......
..|......|......|......|......
..|......|......|......|......
..|......|......|......|......
..|......|......|......|......
..|......|......|......|......
..|......|......|......|......
..|......|......|......|......
..|......|......|......|......
..|......|......|......|......
..|......|......|......|......
..|......|......|......|......
..|......|......|......|......
..|B-5.v3|G#5.v2|......|......
..|......|......|......|......
..|......|......|......|......
..|......|......|......|......
..|......|......|......|......
..|......|......|......|......
..|......|......|......|......
..|......|......|......|......
..|......|......|......|......
..|......|......|......|......
..|......|......|......|......
..|......|......|......|......
..|C#6.v3|A-5.v3|......|......
..|......|......|......|......
..|......|......|......|......
..|......|......|......|......
..|......|......|......|......
..|......|......|......|......
..|===...|===...|......|......
..|......|......|......|......
..|......|......|......|......
..|......|......|......|......
..|......|......|......|......
..|......|......|......|......
..|......|......|......|......
..|......|......|......|......
..|......|......|......|......
..|......|......|......|......
..|......|......|......|......
..|......|......|......|......
..|......|......|......|......
..|......|......|......|......
..|......|......|......|......
..|......|......|......|......
..|......|......|......|......
..|......|......|......|......
..|B-5.v3|G#5.v2|......|......
..|......|......|......|......
..|......|......|......|......
..|......|......|......|......
..|......|......|......|......
..|......|......|......|......
..|===...|===...|......|......
..|......|......|......|......
..|......|......|......|......
..|......|......|......|......
..|......|......|......|......
..|......|......|......|......
..|......|......|......|......
..|......|......|......|......
..|......|......|......|......
..|......|......|......|......
..|......|......|......|......
..|......|......|......|......
..|......|......|......|......
..|......|......|......|......
..|......|......|......|......
..|......|......|......|......
..|......|......|......|......
..|......|......|......|......
..|......|......|......|......
..|......|......|......|......
..|......|......|......|......
..|......|......|......|......
..|......|......|......|......
..|......|......|......|......
..|......|......|......|......
..|......|......|......|......
..|......|......|......|......
..|......|......|......|......
..|......|......|......|......
..|......|......|......|......
..|A-5.v3|F#5.v3|......|......
..|......|......|......|......
..|......|......|......|......
..|......|......|......|......
..|......|......|......|......
..|......|......|......|......
..|===...|===...|......|......
..|......|......|......|......
..|......|......|......|......
..|......|......|......|......
..|......|......|......|......
..|......|......|......|......
..|......|......|......|......
..|......|......|......|......
..|......|......|......|......
..|......|......|......|......
..|......|......|......|......
..|......|......|......|......
..|......|......|......|......
..|......|......|......|......
..|......|......|......|......
..|......|......|......|......
..|......|......|......|......
..|......|......|......|......
..|A-5.v3|F#5.v3|......|......
..|......|......|......|......
..|......|......|......|......
..|......|......|......|......
..|......|......|......|......
..|......|......|......|......
..|......|......|......|......
..|......|......|......|......
..|......|......|......|......
..|......|......|......|......
..|......|......|......|......
..|......|......|......|......
..|G#5.v3|E-5.v3|......|......
..|......|......|......|......
..|......|......|......|......
..|......|......|......|......
..|......|......|......|......
..|......|......|......|......
..|===...|===...|......|......
..|......|......|......|......
..|......|......|......|......
..|......|......|......|......
..|......|......|......|......
..|......|......|......|......
..|F#5.v3|D-5.v3|......|......
..|......|......|......|......
..|......|......|......|......
..|......|......|......|......
..|......|......|......|......
..|......|......|......|......
..|......|......|......|......
..|......|......|......|......
..|......|......|......|......
..|......|......|......|......
..|......|......|......|......
..|......|......|......|......
..|E-5.v3|C#5.v3|......|......
..|......|......|......|......
..|......|......|......|......
..|......|......|......|......
..|......|......|......|......
..|......|......|......|......
..|===...|===...|......|......
..|......|......|......|......
..|......|......|......|......
..|......|......|......|......
..|......|......|......|......
..|......|......|......|......
..|......|......|......|......
..|......|......|......|......
..|......|......|......|......
..|......|......|......|......
..|......|......|......|......
..|......|......|......|......
..|......|......|......|......
..|......|......|......|......
..|......|......|......|......
..|......|......|......|......
..|......|......|......|......
..|......|......|......|......
..|E-6.v3|A-5.v3|......|......
..|......|......|......|......
..|......|......|......|......
..|......|......|......|......
..|......|......|......|......
..|......|......|......|......
..|===...|===...|......|......
..|......|......|......|......
..|......|......|......|......
..|......|......|......|......
..|......|......|......|......
..|......|......|......|......
..|E-6.v3|A-5.v3|......|......
..|......|......|......|......
..|......|......|......|......
..|......|......|......|......
..|......|......|......|......
..|......|......|......|......
..|......|......|......|......
..|......|......|......|......
..|......|......|......|......
..|......|......|......|......
..|......|......|......|......
..|......|......|......|......
..|E-6.v3|A-5.v3|......|......
..|......|......|......|......
..|......|......|......|......
..|......|......|......|......
..|......|......|......|......
..|......|......|......|......
..|===...|===...|......|......
..|......|......|......|......
..|......|......|......|......
..|......|......|......|......
..|......|......|......|......
..|......|......|......|......
..|D-6.v3|F#5.v3|......|......
..|......|......|......|......
..|......|......|......|......
..|......|......|......|......
..|......|......|......|......
..|......|......|......|......
..|......|......|......|......
..|......|......|......|......
..|......|......|......|......
..|......|......|......|......
..|......|......|......|......
..|......|......|......|......
..|C#6.v3|E-5.v3|......|......
..|......|......|......|......
..|......|......|......|......
..|......|......|......|......
..|......|......|......|......
..|......|......|......|......
..|===...|===...|......|......
..|......|......|......|......
..|......|......|......|......
..|......|......|......|......
..|......|......|......|......
..|......|......|......|......
..|B-5.v3|D-5.v3|......|......
..|......|......|......|......
..|......|......|......|......
..|......|......|......|......
..|......|......|......|......
..|......|......|......|......
..|......|......|......|......
..|......|......|......|......
..|......|......|......|......
..|......|......|......|......
..|......|......|......|......
..|......|......|......|......
..|===...|===...|......|......
#join
..|......|......|......|......
#join
#unk6 6
#song 19
#halt
#halt
