#compressed
#unkc
#track 5
#inst 2
#unk6 7
#volume 6e
..|G-4.v2|......
..|......|......
..|......|......
..|......|......
..|......|......
..|......|......
..|......|......
..|......|......
..|......|......
..|......|......
..|......|......
..|......|......
..|......|......
..|......|......
..|......|......
..|......|......
..|......|......
..|......|......
..|......|......
..|......|......
..|......|......
..|......|......
..|......|......
..|......|......
..|......|......
..|......|......
..|......|......
..|......|......
..|......|......
..|......|......
..|......|......
..|......|......
..|......|......
..|......|......
..|......|......
..|......|......
..|......|......
..|......|......
..|......|......
..|......|......
..|......|......
..|......|......
..|......|......
..|......|......
..|......|......
..|......|......
..|......|......
..|......|......
..|......|......
..|......|......
..|......|......
..|......|......
..|......|......
..|......|......
..|......|......
..|......|......
..|......|......
..|......|......
..|......|......
..|......|......
..|===...|D-5.v2
..|......|......
..|......|......
..|......|......
..|......|......
..|......|......
..|......|......
..|......|......
..|......|......
..|......|......
..|......|......
..|......|......
..|......|......
..|......|......
..|......|......
..|......|......
..|......|......
..|......|......
..|......|......
..|......|......
..|......|......
..|......|......
..|......|......
..|......|......
..|......|G-4.v2
..|......|......
..|......|......
..|......|......
..|......|......
..|......|......
..|......|......
..|......|......
..|......|......
..|......|......
..|......|......
..|......|......
..|......|A-4.v2
..|......|......
..|......|......
..|......|......
..|......|......
..|......|......
..|......|......
..|......|......
..|......|......
..|......|......
..|......|......
..|......|......
..|......|......
..|......|......
..|......|......
..|......|......
..|......|......
..|......|......
..|......|......
..|......|......
..|......|......
..|......|......
..|......|......
..|......|......
..|......|C-5.v2
..|......|......
..|......|......
..|......|......
..|......|......
..|......|......
..|......|B-4.v2
..|......|......
..|......|......
..|......|......
..|......|......
..|......|......
..|......|C-5.v2
..|......|......
..|......|......
..|......|......
..|......|......
..|......|......
..|......|......
..|......|......
..|......|......
..|......|......
..|......|......
..|......|......
..|......|......
..|......|......
..|......|......
..|......|......
..|......|......
..|......|......
..|......|......
..|......|......
..|......|......
..|......|......
..|......|......
..|......|......
..|......|......
..|......|......
..|......|......
..|......|......
..|......|......
..|......|......
..|......|......
..|......|......
..|......|......
..|......|......
..|......|......
..|......|......
..|......|......
..|......|......
..|......|......
..|......|......
..|......|......
..|......|......
..|......|......
..|......|......
..|......|......
..|......|......
..|......|......
..|......|......
..|......|......
..|......|......
..|......|......
..|......|......
..|......|......
..|......|......
..|......|......
..|......|......
..|......|......
..|......|......
..|......|......
..|......|......
..|......|G-4.v2
..|......|......
..|......|......
..|......|......
..|......|......
..|......|......
..|......|......
..|......|......
..|......|......
..|......|......
..|......|......
..|......|......
..|......|......
..|......|......
..|......|......
..|......|......
..|......|......
..|......|......
..|......|......
..|......|......
..|......|......
..|......|......
..|......|......
..|......|......
..|......|......
..|......|......
..|......|......
..|......|......
..|......|......
..|......|......
..|......|......
..|......|......
..|......|......
..|......|......
..|......|......
..|......|......
..|......|D-5.v2
..|......|......
..|......|......
..|......|......
..|......|......
..|......|......
..|......|......
..|......|......
..|......|......
..|......|......
..|......|......
..|......|......
..|......|......
..|......|......
..|......|......
..|......|......
..|......|......
..|......|......
..|......|......
..|......|......
..|......|......
..|......|......
..|......|......
..|......|......
..|......|......
..|......|......
..|......|......
..|......|......
..|......|......
..|......|......
..|......|......
..|......|......
..|......|......
..|......|......
..|......|......
..|......|......
..|......|F#4.v2
..|......|......
..|......|......
..|......|......
..|......|......
..|......|......
..|......|......
..|......|......
..|......|......
..|......|......
..|......|......
..|......|......
..|......|G-4.v2
..|......|......
..|......|......
..|......|......
..|......|......
..|......|......
..|......|......
..|......|......
..|......|......
..|......|......
..|......|......
..|......|......
..|......|A-4.v2
..|......|......
..|......|......
..|......|......
..|......|......
..|......|......
..|......|......
..|......|......
..|......|......
..|......|......
..|......|......
..|......|......
..|......|......
..|......|......
..|......|......
..|......|......
..|......|......
..|......|......
..|......|......
..|......|......
..|......|......
..|......|......
..|......|......
..|......|......
..|......|......
..|......|......
..|......|......
..|......|......
..|......|......
..|......|......
..|......|......
..|......|......
..|......|......
..|......|......
..|......|......
..|......|......
..|......|......
..|......|......
..|......|......
..|......|......
..|......|......
..|......|......
..|......|......
..|......|......
..|......|......
..|......|......
..|......|......
..|......|......
..|......|G-4.v2
..|......|......
..|......|......
..|......|......
..|......|......
..|......|......
..|......|......
..|......|......
..|......|......
..|......|......
..|......|......
..|......|......
..|......|......
..|......|......
..|......|......
..|......|......
..|......|......
..|......|......
..|......|......
..|......|......
..|......|......
..|......|......
..|......|......
..|......|......
..|......|E-4.v3
..|......|......
..|......|......
..|......|......
..|......|......
..|......|......
..|......|......
..|......|......
..|......|......
..|......|......
..|......|......
..|......|......
..|......|......
..|......|......
..|......|......
..|......|......
..|......|......
..|......|......
..|......|......
..|......|......
..|......|......
..|......|......
..|......|......
..|......|......
..|......|G-4.v3
..|......|......
..|......|......
..|......|......
..|......|......
..|......|......
..|......|......
..|......|......
..|......|......
..|......|......
..|......|......
..|......|......
..|......|......
..|......|......
..|......|......
..|......|......
..|......|......
..|......|......
..|......|......
..|......|......
..|......|......
..|......|......
..|......|......
..|......|......
..|......|......
..|......|......
..|......|......
..|......|......
..|......|......
..|......|......
..|......|......
..|......|......
..|......|......
..|......|......
..|......|......
..|......|......
..|......|......
..|......|......
..|......|......
..|......|......
..|......|......
..|......|......
..|......|......
..|......|......
..|......|......
..|......|......
..|......|......
..|......|......
..|......|......
..|......|......
..|......|......
..|......|......
..|......|......
..|......|......
..|......|......
..|......|......
..|......|......
..|......|......
..|......|......
..|......|......
..|......|......
..|......|......
..|......|......
..|......|......
..|......|......
..|......|......
..|......|......
..|......|......
..|......|......
..|......|......
..|......|......
..|......|......
..|......|......
..|......|......
..|......|......
..|......|......
..|......|......
..|......|......
..|......|......
..|......|......
..|......|......
..|......|......
..|......|......
..|......|......
..|......|E-4.v2
..|......|......
..|......|......
..|......|......
..|......|......
..|......|......
..|......|......
..|......|......
..|......|......
..|......|......
..|......|......
..|......|......
..|......|A-4.v2
..|......|......
..|......|......
..|......|......
..|......|......
..|......|......
..|......|......
..|......|......
..|......|......
..|......|......
..|......|......
..|......|......
..|......|......
..|......|......
..|......|......
..|......|......
..|......|......
..|......|......
..|......|......
..|......|......
..|......|......
..|......|......
..|......|......
..|......|......
..|......|......
..|......|......
..|......|......
..|......|......
..|......|......
..|......|......
..|......|......
..|......|......
..|......|......
..|......|......
..|......|......
..|......|......
..|......|......
..|......|......
..|......|......
..|......|......
..|......|......
..|......|......
..|......|......
..|......|......
..|......|......
..|......|......
..|......|......
..|......|......
..|......|......
..|......|......
..|......|......
..|......|......
..|......|......
..|......|......
..|......|......
..|......|......
..|......|......
..|......|......
..|......|......
..|......|......
..|......|......
..|......|......
..|......|......
..|......|......
..|......|......
..|......|......
..|......|......
..|......|......
..|......|......
..|......|......
..|......|......
..|......|......
..|......|A-4.v2
..|......|......
..|......|......
..|......|......
..|......|......
..|......|......
..|......|......
..|......|......
..|......|......
..|......|......
..|......|......
..|......|......
..|......|A#4.v2
..|......|......
..|......|......
..|......|......
..|......|......
..|......|......
..|......|......
..|......|......
..|......|......
..|......|......
..|......|......
..|......|......
..|......|B-4.v2
..|......|......
..|......|......
..|......|......
..|......|......
..|......|......
..|......|......
..|......|......
..|......|......
..|......|......
..|......|......
..|......|......
..|......|......
..|......|......
..|......|......
..|......|......
..|......|......
..|......|......
..|......|......
..|......|......
..|......|......
..|......|......
..|......|......
..|......|......
..|......|......
..|......|......
..|......|......
..|......|......
..|......|......
..|......|......
..|......|......
..|......|......
..|......|......
..|......|......
..|......|......
..|......|......
..|......|......
..|......|......
..|......|......
..|......|......
..|......|......
..|......|......
..|......|......
..|......|......
..|......|......
..|......|......
..|......|......
..|......|......
..|......|......
..|......|......
..|......|......
..|......|......
..|......|......
..|......|......
..|......|......
..|......|......
..|......|......
..|......|......
..|......|......
..|......|......
..|......|F#5.v2
..|......|......
..|......|......
..|......|......
..|......|......
..|......|......
..|......|......
..|......|......
..|......|......
..|......|......
..|......|......
..|......|......
..|......|......
..|......|......
..|......|......
..|......|......
..|......|......
..|......|......
..|......|......
..|......|......
..|......|......
..|......|......
..|......|......
..|......|......
..|......|B-4.v2
..|......|......
..|......|......
..|......|......
..|......|......
..|......|......
..|......|......
..|......|......
..|......|......
..|......|......
..|......|......
..|......|......
..|......|A#4.v2
..|......|......
..|......|......
..|......|......
..|......|......
..|......|......
..|......|......
..|......|......
..|......|......
..|......|......
..|......|......
..|......|......
..|......|......
..|......|......
..|......|......
..|......|......
..|......|......
..|......|......
..|......|......
..|......|......
..|......|......
..|......|......
..|......|......
..|......|......
..|......|......
..|......|......
..|......|......
..|......|......
..|......|......
..|......|......
..|......|......
..|......|......
..|......|......
..|......|......
..|......|......
..|......|......
..|......|......
..|......|......
..|......|......
..|......|......
..|......|......
..|......|......
..|......|......
..|......|......
..|......|......
..|......|......
..|......|......
..|......|......
..|......|......
..|......|......
..|......|......
..|......|......
..|......|......
..|......|......
..|......|......
..|......|......
..|......|......
..|......|......
..|......|......
..|......|......
..|......|F-5.v2
..|......|......
..|......|......
..|......|......
..|......|......
..|......|......
..|......|......
..|......|......
..|......|......
..|......|......
..|......|......
..|......|......
..|......|......
..|......|......
..|......|......
..|......|......
..|......|......
..|......|......
..|......|......
..|......|......
..|......|......
..|......|......
..|......|......
..|......|......
..|......|A#4.v2
..|......|......
..|......|......
..|......|......
..|......|......
..|......|......
..|......|......
..|......|......
..|......|......
..|......|......
..|......|......
..|......|......
..|......|D-5.v2
..|......|......
..|......|......
..|......|......
..|......|......
..|......|......
..|......|......
..|......|......
..|......|......
..|......|......
..|......|......
..|......|......
..|......|......
..|......|......
..|......|......
..|......|......
..|......|......
..|......|......
..|......|......
..|......|......
..|......|......
..|......|......
..|......|......
..|......|......
..|......|......
..|......|......
..|......|......
..|......|......
..|......|......
..|......|......
..|......|......
..|......|......
..|......|......
..|......|......
..|......|......
..|......|......
..|......|A-4.v2
..|......|......
..|......|......
..|......|......
..|......|......
..|......|......
..|......|......
..|......|......
..|......|......
..|......|......
..|......|......
..|......|......
..|......|......
..|......|......
..|......|......
..|......|......
..|......|......
..|......|......
..|......|......
..|......|......
..|......|......
..|......|......
..|......|......
..|......|......
..|......|......
..|......|......
..|......|......
..|......|......
..|......|......
..|......|......
..|......|......
..|......|......
..|......|......
..|......|......
..|......|......
..|......|......
..|......|......
..|......|......
..|......|......
..|......|......
..|......|......
..|......|......
..|......|......
..|......|......
..|......|......
..|......|......
..|......|......
..|......|......
..|......|......
..|......|......
..|......|......
..|......|......
..|......|......
..|......|......
..|......|......
..|......|......
..|......|......
..|......|......
..|......|......
..|......|......
..|......|D-5.v2
..|......|......
..|......|......
..|......|......
..|......|......
..|......|......
..|......|......
..|......|......
..|......|......
..|......|......
..|......|......
..|......|......
..|......|......
..|......|......
..|......|......
..|......|......
..|......|......
..|......|......
..|......|......
..|......|......
..|......|......
..|......|......
..|......|......
..|......|......
..|......|......
..|......|......
..|......|......
..|......|......
..|......|......
..|......|......
..|......|......
..|......|......
..|......|......
..|......|......
..|......|......
..|......|......
..|......|......
..|......|......
..|......|......
..|......|......
..|......|......
..|......|......
..|......|......
..|......|......
..|......|......
..|......|......
..|......|......
..|......|......
..|......|......
..|......|......
..|......|......
..|......|......
..|......|......
..|......|......
..|......|......
..|......|......
..|......|......
..|......|......
..|......|......
..|......|......
..|......|......
..|......|......
..|......|......
..|......|......
..|......|......
..|......|......
..|......|......
..|......|......
..|......|......
..|......|......
..|......|......
..|......|......
..|......|......
..|......|......
..|......|......
..|......|......
..|......|......
..|......|......
..|......|......
..|......|......
..|......|......
..|......|......
..|......|......
..|......|......
..|......|......
..|......|......
..|......|......
..|......|......
..|......|......
..|......|......
..|......|......
..|......|......
..|......|......
..|......|......
..|......|......
..|......|......
..|......|G-4.v2
..|......|......
..|......|......
..|......|......
..|......|......
..|......|......
..|......|......
..|......|......
..|......|......
..|......|......
..|......|......
..|......|......
..|......|......
..|......|......
..|......|......
..|......|......
..|......|......
..|......|......
..|......|......
..|......|......
..|......|......
..|......|......
..|......|......
..|......|......
..|......|......
..|......|......
..|......|......
..|......|......
..|......|......
..|......|......
..|......|......
..|......|......
..|......|......
..|......|......
..|......|......
..|......|......
..|......|......
..|......|......
..|......|......
..|......|......
..|......|......
..|......|......
..|......|......
..|......|......
..|......|......
..|......|......
..|......|......
..|......|......
..|......|......
..|......|......
..|......|......
..|......|......
..|......|......
..|......|......
..|......|......
..|......|......
..|......|......
..|......|......
..|......|......
..|......|......
..|......|D-5.v2
..|......|......
..|......|......
..|......|......
..|......|......
..|......|......
..|......|......
..|......|......
..|......|......
..|......|......
..|......|......
..|......|......
..|......|......
..|......|......
..|......|......
..|......|......
..|......|......
..|......|......
..|......|......
..|......|......
..|......|......
..|......|......
..|......|......
..|......|......
..|......|G-4.v2
..|......|......
..|......|......
..|......|......
..|......|......
..|......|......
..|......|......
..|......|......
..|......|......
..|......|......
..|......|......
..|......|......
..|......|A-4.v2
..|......|......
..|......|......
..|......|......
..|......|......
..|......|......
..|......|......
..|......|......
..|......|......
..|......|......
..|......|......
..|......|......
..|......|......
..|......|......
..|......|......
..|......|......
..|......|......
..|......|......
..|......|......
..|......|......
..|......|......
..|......|......
..|......|......
..|......|......
..|......|C-5.v2
..|......|......
..|......|......
..|......|......
..|......|......
..|......|......
..|......|B-4.v2
..|......|......
..|......|......
..|......|......
..|......|......
..|......|......
..|......|C-5.v2
..|......|......
..|......|......
..|......|......
..|......|......
..|......|......
..|......|......
..|......|......
..|......|......
..|......|......
..|......|......
..|......|......
..|......|......
..|......|......
..|......|......
..|......|......
..|......|......
..|......|......
..|......|......
..|......|......
..|......|......
..|......|......
..|......|......
..|......|......
..|......|......
..|......|......
..|......|......
..|......|......
..|......|......
..|......|......
..|......|......
..|......|......
..|......|......
..|......|......
..|......|......
..|......|......
..|......|......
..|......|......
..|......|......
..|......|......
..|......|......
..|......|......
..|......|......
..|......|......
..|......|......
..|......|......
..|......|......
..|......|......
..|......|......
..|......|......
..|......|......
..|......|......
..|......|......
..|......|......
..|......|......
..|......|......
..|......|......
..|......|......
..|......|......
..|......|......
..|......|G-4.v2
..|......|......
..|......|......
..|......|......
..|......|......
..|......|......
..|......|......
..|......|......
..|......|......
..|......|......
..|......|......
..|......|......
..|......|......
..|......|......
..|......|......
..|......|......
..|......|......
..|......|......
..|......|......
..|......|......
..|......|......
..|......|......
..|......|......
..|......|......
..|......|......
..|......|......
..|......|......
..|......|......
..|......|......
..|......|......
..|......|......
..|......|......
..|......|......
..|......|......
..|......|......
..|......|......
..|......|D-5.v2
..|......|......
..|......|......
..|......|......
..|......|......
..|......|......
..|......|......
..|......|......
..|......|......
..|......|......
..|......|......
..|......|......
..|......|......
..|......|......
..|......|......
..|......|......
..|......|......
..|......|......
..|......|......
..|......|......
..|......|......
..|......|......
..|......|......
..|......|......
..|......|......
..|......|......
..|......|......
..|......|......
..|......|......
..|......|......
..|......|......
..|......|......
..|......|......
..|......|......
..|......|......
..|......|......
..|......|F#4.v2
..|......|......
..|......|......
..|......|......
..|......|......
..|......|......
..|......|......
..|......|......
..|......|......
..|......|......
..|......|......
..|......|......
..|......|G-4.v2
..|......|......
..|......|......
..|......|......
..|......|......
..|......|......
..|......|......
..|......|......
..|......|......
..|......|......
..|......|......
..|......|......
..|......|A-4.v2
..|......|......
..|......|......
..|......|......
..|......|......
..|......|......
..|......|......
..|......|......
..|......|......
..|......|......
..|......|......
..|......|......
..|......|......
..|......|......
..|......|......
..|......|......
..|......|......
..|......|......
..|......|......
..|......|......
..|......|......
..|......|......
..|......|......
..|......|......
..|......|......
..|......|......
..|......|......
..|......|......
..|......|......
..|......|......
..|......|......
..|......|......
..|......|......
..|......|......
..|......|......
..|......|......
..|......|......
..|......|......
..|......|......
..|......|......
..|......|......
..|......|......
..|......|......
..|......|......
..|......|......
..|......|......
..|......|......
..|......|......
..|......|G-4.v2
..|......|......
..|......|......
..|......|......
..|......|......
..|......|......
..|......|......
..|......|......
..|......|......
..|......|......
..|......|......
..|......|......
..|......|......
..|......|......
..|......|......
..|......|......
..|......|......
..|......|......
..|......|......
..|......|......
..|......|......
..|......|......
..|......|......
..|......|......
..|......|E-4.v3
..|......|......
..|......|......
..|......|......
..|......|......
..|......|......
..|......|......
..|......|......
..|......|......
..|......|......
..|......|......
..|......|......
..|......|......
..|......|......
..|......|......
..|......|......
..|......|......
..|......|......
..|......|......
..|......|......
..|......|......
..|......|......
..|......|......
..|......|......
..|......|G-4.v3
..|......|......
..|......|......
..|......|......
..|......|......
..|......|......
..|......|......
..|......|......
..|......|......
..|......|......
..|......|......
..|......|......
..|......|......
..|......|......
..|......|......
..|......|......
..|......|......
..|......|......
..|......|......
..|......|......
..|......|......
..|......|......
..|......|......
..|......|......
..|......|......
..|......|......
..|......|......
..|......|......
..|......|......
..|......|......
..|......|......
..|......|......
..|......|......
..|......|......
..|......|......
..|......|......
..|......|......
..|......|......
..|......|......
..|......|......
..|......|......
..|......|......
..|......|......
..|......|......
..|......|......
..|......|......
..|......|......
..|......|......
..|......|......
..|......|......
..|......|......
..|......|......
..|......|......
..|......|......
..|......|......
..|......|......
..|......|......
..|......|......
..|......|......
..|......|......
..|......|......
..|......|......
..|......|......
..|......|......
..|......|......
..|......|......
..|......|......
..|......|......
..|......|......
..|......|......
..|......|......
..|......|......
..|......|......
..|......|......
..|......|......
..|......|......
..|......|......
..|......|......
..|......|......
..|......|......
..|......|......
..|......|......
..|......|......
..|......|......
..|......|E-4.v2
..|......|......
..|......|......
..|......|......
..|......|......
..|......|......
..|......|......
..|......|......
..|......|......
..|......|......
..|......|......
..|......|......
..|......|A-4.v2
..|......|......
..|......|......
..|......|......
..|......|......
..|......|......
..|......|......
..|......|......
..|......|......
..|......|......
..|......|......
..|......|......
..|......|......
..|......|......
..|......|......
..|......|......
..|......|......
..|......|......
..|......|......
..|......|......
..|......|......
..|......|......
..|......|......
..|......|......
..|......|......
..|......|......
..|......|......
..|......|......
..|......|......
..|......|......
..|......|......
..|......|......
..|......|......
..|......|......
..|......|......
..|......|......
..|......|......
..|......|......
..|......|......
..|......|......
..|......|......
..|......|......
..|......|......
..|......|......
..|......|......
..|......|......
..|......|......
..|......|......
..|......|......
..|......|......
..|......|......
..|......|......
..|......|......
..|......|......
..|......|......
..|......|......
..|......|......
..|......|......
..|......|......
..|......|......
..|......|......
..|......|......
..|......|......
..|......|......
..|......|......
..|......|......
..|......|......
..|......|......
..|......|......
..|......|......
..|......|......
..|......|......
..|......|A-4.v2
..|......|......
..|......|......
..|......|......
..|......|......
..|......|......
..|......|......
..|......|......
..|......|......
..|......|......
..|......|......
..|......|......
..|......|A#4.v2
..|......|......
..|......|......
..|......|......
..|......|......
..|......|......
..|......|......
..|......|......
..|......|......
..|......|......
..|......|......
..|......|......
..|......|B-4.v2
..|......|......
..|......|......
..|......|......
..|......|......
..|......|......
..|......|......
..|......|......
..|......|......
..|......|......
..|......|......
..|......|......
..|......|......
..|......|......
..|......|......
..|......|......
..|......|......
..|......|......
..|......|......
..|......|......
..|......|......
..|......|......
..|......|......
..|......|......
..|......|......
..|......|......
..|......|......
..|......|......
..|......|......
..|......|......
..|......|......
..|......|......
..|......|......
..|......|......
..|......|......
..|......|......
..|......|......
..|......|......
..|......|......
..|......|......
..|......|......
..|......|......
..|......|......
..|......|......
..|......|......
..|......|......
..|......|......
..|......|......
..|......|......
..|......|......
..|......|......
..|......|......
..|......|......
..|......|......
..|......|......
..|......|......
..|......|......
..|......|......
..|......|......
..|......|......
..|......|F#5.v2
..|......|......
..|......|......
..|......|......
..|......|......
..|......|......
..|......|......
..|......|......
..|......|......
..|......|......
..|......|......
..|......|......
..|......|......
..|......|......
..|......|......
..|......|......
..|......|......
..|......|......
..|......|......
..|......|......
..|......|......
..|......|......
..|......|......
..|......|......
..|......|B-4.v2
..|......|......
..|......|......
..|......|......
..|......|......
..|......|......
..|......|......
..|......|......
..|......|......
..|......|......
..|......|......
..|......|......
..|......|A#4.v2
..|......|......
..|......|......
..|......|......
..|......|......
..|......|......
..|......|......
..|......|......
..|......|......
..|......|......
..|......|......
..|......|......
..|......|......
..|......|......
..|......|......
..|......|......
..|......|......
..|......|......
..|......|......
..|......|......
..|......|......
..|......|......
..|......|......
..|......|......
..|......|......
..|......|......
..|......|......
..|......|......
..|......|......
..|......|......
..|......|......
..|......|......
..|......|......
..|......|......
..|......|......
..|......|......
..|......|......
..|......|......
..|......|......
..|......|......
..|......|......
..|......|......
..|......|......
..|......|......
..|......|......
..|......|......
..|......|......
..|......|......
..|......|......
..|......|......
..|......|......
..|......|......
..|......|......
..|......|......
..|......|......
..|......|......
..|......|......
..|......|......
..|......|......
..|......|......
..|......|F-5.v2
..|......|......
..|......|......
..|......|......
..|......|......
..|......|......
..|......|......
..|......|......
..|......|......
..|......|......
..|......|......
..|......|......
..|......|......
..|......|......
..|......|......
..|......|......
..|......|......
..|......|......
..|......|......
..|......|......
..|......|......
..|......|......
..|......|......
..|......|......
..|......|A#4.v2
..|......|......
..|......|......
..|......|......
..|......|......
..|......|......
..|......|......
..|......|......
..|......|......
..|......|......
..|......|......
..|......|......
..|......|D-5.v2
..|......|......
..|......|......
..|......|......
..|......|......
..|......|......
..|......|......
..|......|......
..|......|......
..|......|......
..|......|......
..|......|......
..|......|......
..|......|......
..|......|......
..|......|......
..|......|......
..|......|......
..|......|......
..|......|......
..|......|......
..|......|......
..|......|......
..|......|......
..|......|......
..|......|......
..|......|......
..|......|......
..|......|......
..|......|......
..|......|......
..|......|......
..|......|......
..|......|......
..|......|......
..|......|......
..|......|A-4.v2
..|......|......
..|......|......
..|......|......
..|......|......
..|......|......
..|......|......
..|......|......
..|......|......
..|......|......
..|......|......
..|......|......
..|......|......
..|......|......
..|......|......
..|......|......
..|......|......
..|......|......
..|......|......
..|......|......
..|......|......
..|......|......
..|......|......
..|......|......
..|......|......
..|......|......
..|......|......
..|......|......
..|......|......
..|......|......
..|......|......
..|......|......
..|......|......
..|......|......
..|......|......
..|......|......
..|......|......
..|......|......
..|......|......
..|......|......
..|......|......
..|......|......
..|......|......
..|......|......
..|......|......
..|......|......
..|......|......
..|......|......
..|......|......
..|......|......
..|......|......
..|......|......
..|......|......
..|......|......
..|......|......
..|......|......
..|......|......
..|......|......
..|......|......
..|......|......
..|......|D-5.v2
..|......|......
..|......|......
..|......|......
..|......|......
..|......|......
..|......|......
..|......|......
..|......|......
..|......|......
..|......|......
..|......|......
..|......|......
..|......|......
..|......|......
..|......|......
..|......|......
..|......|......
..|......|......
..|......|......
..|......|......
..|......|......
..|......|......
..|......|......
..|......|......
..|......|......
..|......|......
..|......|......
..|......|......
..|......|......
..|......|......
..|......|......
..|......|......
..|......|......
..|......|......
..|......|......
..|......|......
..|......|......
..|......|......
..|......|......
..|......|......
..|......|......
..|......|......
..|......|......
..|......|......
..|......|......
..|......|......
..|......|......
..|......|......
..|......|......
..|......|......
..|......|......
..|......|......
..|......|......
..|......|......
..|......|......
..|......|......
..|......|......
..|......|......
..|......|......
..|......|......
..|......|......
..|......|......
..|......|......
..|......|......
..|......|......
..|......|......
..|......|......
..|......|......
..|......|......
..|......|......
..|......|......
..|......|......
..|......|......
..|......|......
..|......|......
..|......|......
..|......|......
..|......|......
..|......|......
..|......|......
..|......|......
..|......|......
..|......|......
..|......|......
..|......|......
..|......|......
..|......|......
..|......|......
..|......|......
..|......|......
..|......|......
..|......|......
..|......|......
..|......|......
..|......|......
..|......|===...
#halt
#halt
