#compressed
#unkc
#track 6
#inst 0
#unk6 10
#unk6 7
#pan 70
#volume 78
..|G-4.v1|......
..|......|......
..|......|......
..|......|......
..|......|......
..|......|......
..|......|......
..|......|......
..|......|......
..|......|......
..|......|......
..|......|......
..|......|......
..|......|......
..|......|......
..|......|......
..|......|......
..|......|......
..|......|......
..|......|......
..|......|......
..|......|......
..|......|......
..|......|......
..|......|......
..|......|......
..|......|......
..|......|......
..|......|......
..|......|......
..|......|......
..|......|......
..|......|......
..|......|......
..|......|......
..|......|......
..|......|......
..|......|......
..|......|......
..|......|......
..|......|......
..|......|......
..|......|......
..|......|......
..|......|......
..|......|......
..|......|......
..|......|......
..|===...|F#4.v1
..|......|......
..|......|......
..|......|......
..|......|......
..|......|......
..|......|......
..|......|......
..|......|......
..|......|......
..|......|......
..|......|......
..|......|......
..|......|......
..|......|......
..|......|......
..|......|......
..|......|......
..|......|......
..|......|......
..|......|......
..|......|......
..|......|......
..|......|......
..|......|......
..|......|......
..|......|......
..|......|......
..|......|......
..|......|......
..|......|......
..|......|......
..|......|......
..|......|......
..|......|......
..|......|......
..|......|......
..|......|......
..|......|......
..|......|......
..|......|......
..|......|......
..|......|......
..|......|......
..|......|......
..|......|......
..|......|......
..|......|......
..|......|G-4.v1
..|......|......
..|......|......
..|......|......
..|......|......
..|......|......
..|......|......
..|......|......
..|......|......
..|......|......
..|......|......
..|......|......
..|......|......
..|......|......
..|......|......
..|......|......
..|......|......
..|......|......
..|......|......
..|......|......
..|......|......
..|......|......
..|......|......
..|......|......
..|......|......
..|......|......
..|......|......
..|......|......
..|......|......
..|......|......
..|......|......
..|......|......
..|......|......
..|......|......
..|......|......
..|......|......
..|......|......
..|......|......
..|......|......
..|......|......
..|......|......
..|......|......
..|......|......
..|......|......
..|......|......
..|......|......
..|......|......
..|......|......
..|......|E-4.v1
..|......|......
..|......|......
..|......|......
..|......|......
..|......|......
..|......|......
..|......|......
..|......|......
..|......|......
..|......|......
..|......|......
..|......|......
..|......|......
..|......|......
..|......|......
..|......|......
..|......|......
..|......|......
..|......|......
..|......|......
..|......|......
..|......|......
..|......|......
..|......|......
..|......|......
..|......|......
..|......|......
..|......|......
..|......|......
..|......|......
..|......|......
..|......|......
..|......|......
..|......|......
..|......|......
..|......|......
..|......|......
..|......|......
..|......|......
..|......|......
..|......|......
..|......|......
..|......|......
..|......|......
..|......|......
..|......|......
..|......|......
..|......|G-4.v1
..|......|......
..|......|......
..|......|......
..|......|......
..|......|......
..|......|......
..|......|......
..|......|......
..|......|......
..|......|......
..|......|......
..|......|......
..|......|......
..|......|......
..|......|......
..|......|......
..|......|......
..|......|......
..|......|......
..|......|......
..|......|......
..|......|......
..|......|......
..|......|......
..|......|......
..|......|......
..|......|......
..|......|......
..|......|......
..|......|......
..|......|......
..|......|......
..|......|......
..|......|......
..|......|......
..|......|......
..|......|......
..|......|......
..|......|......
..|......|......
..|......|......
..|......|......
..|......|......
..|......|......
..|......|......
..|......|......
..|......|......
..|......|B-4.v1
..|......|......
..|......|......
..|......|......
..|......|......
..|......|......
..|......|......
..|......|......
..|......|......
..|......|......
..|......|......
..|......|......
..|......|......
..|......|......
..|......|......
..|......|......
..|......|......
..|......|......
..|......|......
..|......|......
..|......|......
..|......|......
..|......|......
..|......|......
..|......|......
..|......|......
..|......|......
..|......|......
..|......|......
..|......|......
..|......|......
..|......|......
..|......|......
..|......|......
..|......|......
..|......|......
..|......|C-5.v1
..|......|......
..|......|......
..|......|......
..|......|......
..|......|......
..|......|......
..|......|......
..|......|......
..|......|......
..|......|......
..|......|......
..|......|A-4.v1
..|......|......
..|......|......
..|......|......
..|......|......
..|......|......
..|......|......
..|......|......
..|......|......
..|......|......
..|......|......
..|......|......
..|......|......
..|......|......
..|......|......
..|......|......
..|......|......
..|......|......
..|......|......
..|......|......
..|......|......
..|......|......
..|......|......
..|......|......
..|......|......
..|......|......
..|......|......
..|......|......
..|......|......
..|......|......
..|......|......
..|......|......
..|......|......
..|......|......
..|......|......
..|......|......
..|......|......
..|......|......
..|......|......
..|......|......
..|......|......
..|......|......
..|......|......
..|......|......
..|......|......
..|......|......
..|......|......
..|......|......
..|......|......
..|......|......
..|......|......
..|......|......
..|......|......
..|......|......
..|......|......
..|......|......
..|......|......
..|......|......
..|......|......
..|......|......
..|......|......
..|......|......
..|......|......
..|......|......
..|......|......
..|......|......
..|......|......
..|......|......
..|......|......
..|......|......
..|......|......
..|......|......
..|......|......
..|......|......
..|......|......
..|......|......
..|......|......
..|......|......
..|......|......
..|......|......
..|......|......
..|......|......
..|......|......
..|......|......
..|......|......
..|......|......
..|......|......
..|......|......
..|......|......
..|......|......
..|......|......
..|......|......
..|......|......
..|......|......
..|......|......
..|......|......
..|......|G-4.v1
..|......|......
..|......|......
..|......|......
..|......|......
..|......|......
..|......|......
..|......|......
..|......|......
..|......|......
..|......|......
..|......|......
..|......|......
..|......|......
..|......|......
..|......|......
..|......|......
..|......|......
..|......|......
..|......|......
..|......|......
..|......|......
..|......|......
..|......|......
..|......|......
..|......|......
..|......|......
..|......|......
..|......|......
..|......|......
..|......|......
..|......|......
..|......|......
..|......|......
..|......|......
..|......|......
..|......|......
..|......|......
..|......|......
..|......|......
..|......|......
..|......|......
..|......|......
..|......|......
..|......|......
..|......|......
..|......|......
..|......|......
..|......|F#4.v1
..|......|......
..|......|......
..|......|......
..|......|......
..|......|......
..|......|......
..|......|......
..|......|......
..|......|......
..|......|......
..|......|......
..|......|......
..|......|......
..|......|......
..|......|......
..|......|......
..|......|......
..|......|......
..|......|......
..|......|......
..|......|......
..|......|......
..|......|......
..|......|......
..|......|......
..|......|......
..|......|......
..|......|......
..|......|......
..|......|......
..|......|......
..|......|......
..|......|......
..|......|......
..|......|......
..|......|......
..|......|......
..|......|......
..|......|......
..|......|......
..|......|......
..|......|......
..|......|......
..|......|......
..|......|......
..|......|......
..|......|......
..|......|A-4.v1
..|......|......
..|......|......
..|......|......
..|......|......
..|......|......
..|......|......
..|......|......
..|......|......
..|......|......
..|......|......
..|......|......
..|......|......
..|......|......
..|......|......
..|......|......
..|......|......
..|......|......
..|......|......
..|......|......
..|......|......
..|......|......
..|......|......
..|......|......
..|......|......
..|......|......
..|......|......
..|......|......
..|......|......
..|......|......
..|......|......
..|......|......
..|......|......
..|......|......
..|......|......
..|......|......
..|......|......
..|......|......
..|......|......
..|......|......
..|......|......
..|......|......
..|......|......
..|......|......
..|......|......
..|......|......
..|......|......
..|......|......
..|......|E-4.v1
..|......|......
..|......|......
..|......|......
..|......|......
..|......|......
..|......|......
..|......|......
..|......|......
..|......|......
..|......|......
..|......|......
..|......|......
..|......|......
..|......|......
..|......|......
..|......|......
..|......|......
..|......|......
..|......|......
..|......|......
..|......|......
..|......|......
..|......|......
..|......|......
..|......|......
..|......|......
..|......|......
..|......|......
..|......|......
..|......|......
..|......|......
..|......|......
..|......|......
..|......|......
..|......|......
..|......|......
..|......|......
..|......|......
..|......|......
..|......|......
..|......|......
..|......|......
..|......|......
..|......|......
..|......|......
..|......|......
..|......|......
..|......|F#4.v1
..|......|......
..|......|......
..|......|......
..|......|......
..|......|......
..|......|......
..|......|......
..|......|......
..|......|......
..|......|......
..|......|......
..|......|......
..|......|......
..|......|......
..|......|......
..|......|......
..|......|......
..|......|......
..|......|......
..|......|......
..|......|......
..|......|......
..|......|......
..|......|......
..|......|......
..|......|......
..|......|......
..|......|......
..|......|......
..|......|......
..|......|......
..|......|......
..|......|......
..|......|......
..|......|......
..|......|......
..|......|......
..|......|......
..|......|......
..|......|......
..|......|......
..|......|......
..|......|......
..|......|......
..|......|......
..|......|......
..|......|......
..|......|......
..|......|......
..|......|......
..|......|......
..|......|......
..|......|......
..|......|......
..|......|......
..|......|......
..|......|......
..|......|......
..|......|......
..|......|......
..|......|......
..|......|......
..|......|......
..|......|......
..|......|......
..|......|......
..|......|......
..|......|......
..|......|......
..|......|......
..|......|......
..|......|......
..|......|......
..|......|......
..|......|......
..|......|......
..|......|......
..|......|......
..|......|......
..|......|......
..|......|......
..|......|......
..|......|......
..|......|......
..|......|......
..|......|......
..|......|......
..|......|......
..|......|......
..|......|......
..|......|......
..|......|......
..|......|......
..|......|......
..|......|......
..|......|F-4.v1
..|......|......
..|......|......
..|......|......
..|......|......
..|......|......
..|......|......
..|......|......
..|......|......
..|......|......
..|......|......
..|......|......
..|......|......
..|......|......
..|......|......
..|......|......
..|......|......
..|......|......
..|......|......
..|......|......
..|......|......
..|......|......
..|......|......
..|......|......
..|......|......
..|......|......
..|......|......
..|......|......
..|......|......
..|......|......
..|......|......
..|......|......
..|......|......
..|......|......
..|......|......
..|......|......
..|......|......
..|......|......
..|......|......
..|......|......
..|......|......
..|......|......
..|......|......
..|......|......
..|......|......
..|......|......
..|......|......
..|......|......
..|......|C#4.v1
..|......|......
..|......|......
..|......|......
..|......|......
..|......|......
..|......|......
..|......|......
..|......|......
..|......|......
..|......|......
..|......|......
..|......|......
..|......|......
..|......|......
..|......|......
..|......|......
..|......|......
..|......|......
..|......|......
..|......|......
..|......|......
..|......|......
..|......|......
..|......|......
..|......|......
..|......|......
..|......|......
..|......|......
..|......|......
..|......|......
..|......|......
..|......|......
..|......|......
..|......|......
..|......|......
..|......|......
..|......|......
..|......|......
..|......|......
..|......|......
..|......|......
..|......|......
..|......|......
..|......|......
..|......|......
..|......|......
..|......|......
..|......|D-4.v1
..|......|......
..|......|......
..|......|......
..|......|......
..|......|......
..|......|......
..|......|......
..|......|......
..|......|......
..|......|......
..|......|......
..|......|......
..|......|......
..|......|......
..|......|......
..|......|......
..|......|......
..|......|......
..|......|......
..|......|......
..|......|......
..|......|......
..|......|......
..|......|......
..|......|......
..|......|......
..|......|......
..|......|......
..|......|......
..|......|......
..|......|......
..|......|......
..|......|......
..|......|......
..|......|......
..|......|......
..|......|......
..|......|......
..|......|......
..|......|......
..|......|......
..|......|......
..|......|......
..|......|......
..|......|......
..|......|......
..|......|......
..|......|......
..|......|......
..|......|......
..|......|......
..|......|......
..|......|......
..|......|......
..|......|......
..|......|......
..|......|......
..|......|......
..|......|......
..|......|......
..|......|......
..|......|......
..|......|......
..|......|......
..|......|......
..|......|......
..|......|......
..|......|......
..|......|......
..|......|......
..|......|......
..|......|......
..|......|......
..|......|......
..|......|......
..|......|......
..|......|......
..|......|......
..|......|......
..|......|......
..|......|......
..|......|......
..|......|......
..|......|......
..|......|......
..|......|......
..|......|......
..|......|......
..|......|......
..|......|......
..|......|......
..|......|......
..|......|......
..|......|......
..|......|......
..|......|F#4.v1
..|......|......
..|......|......
..|......|......
..|......|......
..|......|......
..|......|......
..|......|......
..|......|......
..|......|......
..|......|......
..|......|......
..|......|......
..|......|......
..|......|......
..|......|......
..|......|......
..|......|......
..|......|......
..|......|......
..|......|......
..|......|......
..|......|......
..|......|......
..|......|......
..|......|......
..|......|......
..|......|......
..|......|......
..|......|......
..|......|......
..|......|......
..|......|......
..|......|......
..|......|......
..|......|......
..|......|......
..|......|......
..|......|......
..|......|......
..|......|......
..|......|......
..|......|......
..|......|......
..|......|......
..|......|......
..|......|......
..|......|......
..|......|A-4.v1
..|......|......
..|......|......
..|......|......
..|......|......
..|......|......
..|......|......
..|......|......
..|......|......
..|......|......
..|......|......
..|......|......
..|......|......
..|......|......
..|......|......
..|......|......
..|......|......
..|......|......
..|......|......
..|......|......
..|......|......
..|......|......
..|......|......
..|......|......
..|......|......
..|......|......
..|......|......
..|......|......
..|......|......
..|......|......
..|......|......
..|......|......
..|......|......
..|......|......
..|......|......
..|......|......
..|......|......
..|......|......
..|......|......
..|......|......
..|......|......
..|......|......
..|......|......
..|......|......
..|......|......
..|......|......
..|......|......
..|......|......
..|......|G-4.v1
..|......|......
..|......|......
..|......|......
..|......|......
..|......|......
..|......|......
..|......|......
..|......|......
..|......|......
..|......|......
..|......|......
..|......|......
..|......|......
..|......|......
..|......|......
..|......|......
..|......|......
..|......|......
..|......|......
..|......|......
..|......|......
..|......|......
..|......|......
..|......|......
..|......|......
..|......|......
..|......|......
..|......|......
..|......|......
..|......|......
..|......|......
..|......|......
..|......|......
..|......|......
..|......|......
..|......|......
..|......|......
..|......|......
..|......|......
..|......|......
..|......|......
..|......|......
..|......|......
..|......|......
..|......|......
..|......|......
..|......|......
..|......|F#4.v1
..|......|......
..|......|......
..|......|......
..|......|......
..|......|......
..|......|......
..|......|......
..|......|......
..|......|......
..|......|......
..|......|......
..|......|......
..|......|......
..|......|......
..|......|......
..|......|......
..|......|......
..|......|......
..|......|......
..|......|......
..|......|......
..|......|......
..|......|......
..|......|......
..|......|......
..|......|......
..|......|......
..|......|......
..|......|......
..|......|......
..|......|......
..|......|......
..|......|......
..|......|......
..|......|......
..|......|......
..|......|......
..|......|......
..|......|......
..|......|......
..|......|......
..|......|......
..|......|......
..|......|......
..|......|......
..|......|......
..|......|......
..|......|G-4.v1
..|......|......
..|......|......
..|......|......
..|......|......
..|......|......
..|......|......
..|......|......
..|......|......
..|......|......
..|......|......
..|......|......
..|......|......
..|......|......
..|......|......
..|......|......
..|......|......
..|......|......
..|......|......
..|......|......
..|......|......
..|......|......
..|......|......
..|......|......
..|......|......
..|......|......
..|......|......
..|......|......
..|......|......
..|......|......
..|......|......
..|......|......
..|......|......
..|......|......
..|......|......
..|......|......
..|......|......
..|......|......
..|......|......
..|......|......
..|......|......
..|......|......
..|......|......
..|......|......
..|......|......
..|......|......
..|......|......
..|......|......
..|......|E-4.v1
..|......|......
..|......|......
..|......|......
..|......|......
..|......|......
..|......|......
..|......|......
..|......|......
..|......|......
..|......|......
..|......|......
..|......|......
..|......|......
..|......|......
..|......|......
..|......|......
..|......|......
..|......|......
..|......|......
..|......|......
..|......|......
..|......|......
..|......|......
..|......|......
..|......|......
..|......|......
..|......|......
..|......|......
..|......|......
..|......|......
..|......|......
..|......|......
..|......|......
..|......|......
..|......|......
..|......|......
..|......|......
..|......|......
..|......|......
..|......|......
..|......|......
..|......|......
..|......|......
..|......|......
..|......|......
..|......|......
..|......|......
..|......|G-4.v1
..|......|......
..|......|......
..|......|......
..|......|......
..|......|......
..|......|......
..|......|......
..|......|......
..|......|......
..|......|......
..|......|......
..|......|......
..|......|......
..|......|......
..|......|......
..|......|......
..|......|......
..|......|......
..|......|......
..|......|......
..|......|......
..|......|......
..|......|......
..|......|......
..|......|......
..|......|......
..|......|......
..|......|......
..|......|......
..|......|......
..|......|......
..|......|......
..|......|......
..|......|......
..|......|......
..|......|......
..|......|......
..|......|......
..|......|......
..|......|......
..|......|......
..|......|......
..|......|......
..|......|......
..|......|......
..|......|......
..|......|......
..|......|B-4.v1
..|......|......
..|......|......
..|......|......
..|......|......
..|......|......
..|......|......
..|......|......
..|......|......
..|......|......
..|......|......
..|......|......
..|......|......
..|......|......
..|......|......
..|......|......
..|......|......
..|......|......
..|......|......
..|......|......
..|......|......
..|......|......
..|......|......
..|......|......
..|......|......
..|......|......
..|......|......
..|......|......
..|......|......
..|......|......
..|......|......
..|......|......
..|......|......
..|......|......
..|......|......
..|......|......
..|......|C-5.v1
..|......|......
..|......|......
..|......|......
..|......|......
..|......|......
..|......|......
..|......|......
..|......|......
..|......|......
..|......|......
..|......|......
..|......|A-4.v1
..|......|......
..|......|......
..|......|......
..|......|......
..|......|......
..|......|......
..|......|......
..|......|......
..|......|......
..|......|......
..|......|......
..|......|......
..|......|......
..|......|......
..|......|......
..|......|......
..|......|......
..|......|......
..|......|......
..|......|......
..|......|......
..|......|......
..|......|......
..|......|......
..|......|......
..|......|......
..|......|......
..|......|......
..|......|......
..|......|......
..|......|......
..|......|......
..|......|......
..|......|......
..|......|......
..|......|......
..|......|......
..|......|......
..|......|......
..|......|......
..|......|......
..|......|......
..|......|......
..|......|......
..|......|......
..|......|......
..|......|......
..|......|......
..|......|......
..|......|......
..|......|......
..|......|......
..|......|......
..|......|......
..|......|......
..|......|......
..|......|......
..|......|......
..|......|......
..|......|......
..|......|......
..|......|......
..|......|......
..|......|......
..|......|......
..|......|......
..|......|......
..|......|......
..|......|......
..|......|......
..|......|......
..|......|......
..|......|......
..|......|......
..|......|......
..|......|......
..|......|......
..|......|......
..|......|......
..|......|......
..|......|......
..|......|......
..|......|......
..|......|......
..|......|......
..|......|......
..|......|......
..|......|......
..|......|......
..|......|......
..|......|......
..|......|......
..|......|......
..|......|......
..|......|......
..|......|G-4.v1
..|......|......
..|......|......
..|......|......
..|......|......
..|......|......
..|......|......
..|......|......
..|......|......
..|......|......
..|......|......
..|......|......
..|......|......
..|......|......
..|......|......
..|......|......
..|......|......
..|......|......
..|......|......
..|......|......
..|......|......
..|......|......
..|......|......
..|......|......
..|......|......
..|......|......
..|......|......
..|......|......
..|......|......
..|......|......
..|......|......
..|......|......
..|......|......
..|......|......
..|......|......
..|......|......
..|......|......
..|......|......
..|......|......
..|......|......
..|......|......
..|......|......
..|......|......
..|......|......
..|......|......
..|......|......
..|......|......
..|......|......
..|......|F#4.v1
..|......|......
..|......|......
..|......|......
..|......|......
..|......|......
..|......|......
..|......|......
..|......|......
..|......|......
..|......|......
..|......|......
..|......|......
..|......|......
..|......|......
..|......|......
..|......|......
..|......|......
..|......|......
..|......|......
..|......|......
..|......|......
..|......|......
..|......|......
..|......|......
..|......|......
..|......|......
..|......|......
..|......|......
..|......|......
..|......|......
..|......|......
..|......|......
..|......|......
..|......|......
..|......|......
..|......|......
..|......|......
..|......|......
..|......|......
..|......|......
..|......|......
..|......|......
..|......|......
..|......|......
..|......|......
..|......|......
..|......|......
..|......|A-4.v1
..|......|......
..|......|......
..|......|......
..|......|......
..|......|......
..|......|......
..|......|......
..|......|......
..|......|......
..|......|......
..|......|......
..|......|......
..|......|......
..|......|......
..|......|......
..|......|......
..|......|......
..|......|......
..|......|......
..|......|......
..|......|......
..|......|......
..|......|......
..|......|......
..|......|......
..|......|......
..|......|......
..|......|......
..|......|......
..|......|......
..|......|......
..|......|......
..|......|......
..|......|......
..|......|......
..|......|......
..|......|......
..|......|......
..|......|......
..|......|......
..|......|......
..|......|......
..|......|......
..|......|......
..|......|......
..|......|......
..|......|......
..|......|E-4.v1
..|......|......
..|......|......
..|......|......
..|......|......
..|......|......
..|......|......
..|......|......
..|......|......
..|......|......
..|......|......
..|......|......
..|......|......
..|......|......
..|......|......
..|......|......
..|......|......
..|......|......
..|......|......
..|......|......
..|......|......
..|......|......
..|......|......
..|......|......
..|......|......
..|......|......
..|......|......
..|......|......
..|......|......
..|......|......
..|......|......
..|......|......
..|......|......
..|......|......
..|......|......
..|......|......
..|......|......
..|......|......
..|......|......
..|......|......
..|......|......
..|......|......
..|......|......
..|......|......
..|......|......
..|......|......
..|......|......
..|......|......
..|......|F#4.v1
..|......|......
..|......|......
..|......|......
..|......|......
..|......|......
..|......|......
..|......|......
..|......|......
..|......|......
..|......|......
..|......|......
..|......|......
..|......|......
..|......|......
..|......|......
..|......|......
..|......|......
..|......|......
..|......|......
..|......|......
..|......|......
..|......|......
..|......|......
..|......|......
..|......|......
..|......|......
..|......|......
..|......|......
..|......|......
..|......|......
..|......|......
..|......|......
..|......|......
..|......|......
..|......|......
..|......|......
..|......|......
..|......|......
..|......|......
..|......|......
..|......|......
..|......|......
..|......|......
..|......|......
..|......|......
..|......|......
..|......|......
..|......|......
..|......|......
..|......|......
..|......|......
..|......|......
..|......|......
..|......|......
..|......|......
..|......|......
..|......|......
..|......|......
..|......|......
..|......|......
..|......|......
..|......|......
..|......|......
..|......|......
..|......|......
..|......|......
..|......|......
..|......|......
..|......|......
..|......|......
..|......|......
..|......|......
..|......|......
..|......|......
..|......|......
..|......|......
..|......|......
..|......|......
..|......|......
..|......|......
..|......|......
..|......|......
..|......|......
..|......|......
..|......|......
..|......|......
..|......|......
..|......|......
..|......|......
..|......|......
..|......|......
..|......|......
..|......|......
..|......|......
..|......|......
..|......|F-4.v1
..|......|......
..|......|......
..|......|......
..|......|......
..|......|......
..|......|......
..|......|......
..|......|......
..|......|......
..|......|......
..|......|......
..|......|......
..|......|......
..|......|......
..|......|......
..|......|......
..|......|......
..|......|......
..|......|......
..|......|......
..|......|......
..|......|......
..|......|......
..|......|......
..|......|......
..|......|......
..|......|......
..|......|......
..|......|......
..|......|......
..|......|......
..|......|......
..|......|......
..|......|......
..|......|......
..|......|......
..|......|......
..|......|......
..|......|......
..|......|......
..|......|......
..|......|......
..|......|......
..|......|......
..|......|......
..|......|......
..|......|......
..|......|C#4.v1
..|......|......
..|......|......
..|......|......
..|......|......
..|......|......
..|......|......
..|......|......
..|......|......
..|......|......
..|......|......
..|......|......
..|......|......
..|......|......
..|......|......
..|......|......
..|......|......
..|......|......
..|......|......
..|......|......
..|......|......
..|......|......
..|......|......
..|......|......
..|......|......
..|......|......
..|......|......
..|......|......
..|......|......
..|......|......
..|......|......
..|......|......
..|......|......
..|......|......
..|......|......
..|......|......
..|......|......
..|......|......
..|......|......
..|......|......
..|......|......
..|......|......
..|......|......
..|......|......
..|......|......
..|......|......
..|......|......
..|......|......
..|......|D-4.v1
..|......|......
..|......|......
..|......|......
..|......|......
..|......|......
..|......|......
..|......|......
..|......|......
..|......|......
..|......|......
..|......|......
..|......|......
..|......|......
..|......|......
..|......|......
..|......|......
..|......|......
..|......|......
..|......|......
..|......|......
..|......|......
..|......|......
..|......|......
..|......|......
..|......|......
..|......|......
..|......|......
..|......|......
..|......|......
..|......|......
..|......|......
..|......|......
..|......|......
..|......|......
..|......|......
..|......|......
..|......|......
..|......|......
..|......|......
..|......|......
..|......|......
..|......|......
..|......|......
..|......|......
..|......|......
..|......|......
..|......|......
..|......|......
..|......|......
..|......|......
..|......|......
..|......|......
..|......|......
..|......|......
..|......|......
..|......|......
..|......|......
..|......|......
..|......|......
..|......|......
..|......|......
..|......|......
..|......|......
..|......|......
..|......|......
..|......|......
..|......|......
..|......|......
..|......|......
..|......|......
..|......|......
..|......|......
..|......|......
..|......|......
..|......|......
..|......|......
..|......|......
..|......|......
..|......|......
..|......|......
..|......|......
..|......|......
..|......|......
..|......|......
..|......|......
..|......|......
..|......|......
..|......|......
..|......|......
..|......|......
..|......|......
..|......|......
..|......|......
..|......|......
..|......|......
..|......|F#4.v1
..|......|......
..|......|......
..|......|......
..|......|......
..|......|......
..|......|......
..|......|......
..|......|......
..|......|......
..|......|......
..|......|......
..|......|......
..|......|......
..|......|......
..|......|......
..|......|......
..|......|......
..|......|......
..|......|......
..|......|......
..|......|......
..|......|......
..|......|......
..|......|......
..|......|......
..|......|......
..|......|......
..|......|......
..|......|......
..|......|......
..|......|......
..|......|......
..|......|......
..|......|......
..|......|......
..|......|......
..|......|......
..|......|......
..|......|......
..|......|......
..|......|......
..|......|......
..|......|......
..|......|......
..|......|......
..|......|......
..|......|......
..|......|A-4.v1
..|......|......
..|......|......
..|......|......
..|......|......
..|......|......
..|......|......
..|......|......
..|......|......
..|......|......
..|......|......
..|......|......
..|......|......
..|......|......
..|......|......
..|......|......
..|......|......
..|......|......
..|......|......
..|......|......
..|......|......
..|......|......
..|......|......
..|......|......
..|......|......
..|......|......
..|......|......
..|......|......
..|......|......
..|......|......
..|......|......
..|......|......
..|......|......
..|......|......
..|......|......
..|......|......
..|......|......
..|......|......
..|......|......
..|......|......
..|......|......
..|......|......
..|......|......
..|......|......
..|......|......
..|......|......
..|......|......
..|......|......
..|......|===...
#halt
#halt
