#compressed
#unkc
#inst 2
#unk6 7
#volume 64
..|G-4.v3
..|......
..|......
..|......
..|......
..|......
..|......
..|......
..|......
..|......
..|......
..|......
..|===...
..|......
..|......
..|......
..|......
..|......
..|G-4.v3
..|......
..|......
..|......
..|......
..|......
..|D-5.v3
..|......
..|......
..|......
..|......
..|......
..|G-5.v3
..|......
..|......
..|......
..|......
..|......
..|F-5.v3
..|......
..|......
..|......
..|......
..|......
..|G-5.v3
..|......
..|......
..|......
..|......
..|......
..|C-6.v3
..|......
..|......
..|......
..|......
..|......
..|===...
..|......
..|......
..|......
..|......
..|......
..|C-6.v3
..|......
..|......
..|......
..|......
..|......
..|===...
..|......
..|......
..|......
..|......
..|......
..|B-5.v3
..|......
..|......
..|......
..|......
..|......
..|......
..|......
..|......
..|......
..|......
..|......
..|......
..|......
..|......
..|......
..|......
..|......
..|......
..|......
..|......
..|......
..|......
..|......
..|F-4.v3
..|......
..|......
..|......
..|......
..|......
..|F-4.v3
..|......
..|......
..|......
..|......
..|......
..|C-5.v3
..|......
..|......
..|......
..|......
..|......
..|F-4.v3
..|......
..|......
..|......
..|......
..|......
..|F-5.v3
..|......
..|......
..|......
..|......
..|......
..|......
..|......
..|......
..|......
..|......
..|......
..|E-5.v3
..|......
..|......
..|......
..|......
..|......
..|F-5.v3
..|......
..|......
..|......
..|......
..|......
..|A#5.v3
..|......
..|......
..|......
..|......
..|......
..|===...
..|......
..|......
..|......
..|......
..|......
..|A-5.v3
..|......
..|......
..|......
..|......
..|......
..|===...
..|......
..|......
..|......
..|......
..|......
..|G-5.v3
..|......
..|......
..|......
..|......
..|......
..|A-5.v3
..|......
..|......
..|......
..|......
..|......
..|......
..|......
..|......
..|......
..|......
..|......
..|F-5.v3
..|......
..|......
..|......
..|......
..|......
..|G-4.v3
..|......
..|......
..|......
..|......
..|......
..|......
..|......
..|......
..|......
..|......
..|......
..|===...
..|......
..|......
..|......
..|......
..|......
..|G-4.v3
..|......
..|......
..|......
..|......
..|......
..|D-5.v3
..|......
..|......
..|......
..|......
..|......
..|G-5.v3
..|......
..|......
..|......
..|......
..|......
..|F-5.v3
..|......
..|......
..|......
..|......
..|......
..|G-5.v3
..|......
..|......
..|......
..|......
..|......
..|C-6.v3
..|......
..|......
..|......
..|......
..|......
..|===...
..|......
..|......
..|......
..|......
..|......
..|C-6.v3
..|......
..|......
..|......
..|......
..|......
..|===...
..|......
..|......
..|......
..|......
..|......
..|B-5.v3
..|......
..|......
..|......
..|......
..|......
..|......
..|......
..|......
..|......
..|......
..|......
..|......
..|......
..|......
..|......
..|......
..|......
..|......
..|......
..|......
..|......
..|......
..|......
..|C-6.v3
..|......
..|......
..|......
..|......
..|......
..|C-6.v3
..|......
..|......
..|......
..|......
..|......
..|F-5.v3
..|......
..|......
..|......
..|......
..|......
..|F-4.v3
..|......
..|......
..|......
..|......
..|......
..|C-5.v3
..|......
..|......
..|......
..|......
..|......
..|F-5.v3
..|......
..|......
..|......
..|......
..|......
..|E-5.v3
..|......
..|......
..|......
..|......
..|......
..|F-5.v3
..|......
..|......
..|......
..|......
..|......
..|A#5.v3
..|......
..|......
..|......
..|......
..|......
..|===...
..|......
..|......
..|......
..|......
..|......
..|A-5.v3
..|......
..|......
..|......
..|......
..|......
..|===...
..|......
..|......
..|......
..|......
..|......
..|G-5.v3
..|......
..|......
..|......
..|......
..|......
..|A-5.v3
..|......
..|......
..|......
..|......
..|......
..|......
..|......
..|......
..|......
..|......
..|......
..|F-5.v3
..|......
..|......
..|......
..|......
..|......
..|G-4.v3
..|......
..|......
..|......
..|......
..|......
..|......
..|......
..|......
..|......
..|......
..|......
..|===...
..|......
..|......
..|......
..|......
..|......
..|G-4.v3
..|......
..|......
..|......
..|......
..|......
..|D-5.v3
..|......
..|......
..|......
..|......
..|......
..|G-5.v3
..|......
..|......
..|......
..|......
..|......
..|F-5.v3
..|......
..|......
..|......
..|......
..|......
..|G-5.v3
..|......
..|......
..|......
..|......
..|......
..|C-6.v3
..|......
..|......
..|......
..|......
..|......
..|===...
..|......
..|......
..|......
..|......
..|......
..|C-6.v3
..|......
..|......
..|......
..|......
..|......
..|===...
..|......
..|......
..|......
..|......
..|......
..|B-5.v3
..|......
..|......
..|......
..|......
..|......
..|......
..|......
..|......
..|......
..|......
..|......
..|......
..|......
..|......
..|......
..|......
..|......
..|......
..|......
..|......
..|......
..|......
..|......
..|F-4.v3
..|......
..|......
..|......
..|......
..|......
..|F-4.v3
..|......
..|......
..|......
..|......
..|......
..|C-5.v3
..|......
..|......
..|......
..|......
..|......
..|F-4.v3
..|......
..|......
..|......
..|......
..|......
..|F-5.v3
..|......
..|......
..|......
..|......
..|......
..|......
..|......
..|......
..|......
..|......
..|......
..|E-5.v3
..|......
..|......
..|......
..|......
..|......
..|F-5.v3
..|......
..|......
..|......
..|......
..|......
..|A#5.v3
..|......
..|......
..|......
..|......
..|......
..|===...
..|......
..|......
..|......
..|......
..|......
..|A-5.v3
..|......
..|......
..|......
..|......
..|......
..|===...
..|......
..|......
..|......
..|......
..|......
..|G-5.v3
..|......
..|......
..|......
..|......
..|......
..|A-5.v3
..|......
..|......
..|......
..|......
..|......
..|......
..|......
..|......
..|......
..|......
..|......
..|F-5.v3
..|......
..|......
..|......
..|......
..|......
..|G-4.v3
..|......
..|......
..|......
..|......
..|......
..|......
..|......
..|......
..|......
..|......
..|......
..|===...
..|......
..|......
..|......
..|......
..|......
..|G-4.v3
..|......
..|......
..|......
..|......
..|......
..|D-5.v3
..|......
..|......
..|......
..|......
..|......
..|G-5.v3
..|......
..|......
..|......
..|......
..|......
..|F-5.v3
..|......
..|......
..|......
..|......
..|......
..|G-5.v3
..|......
..|......
..|......
..|......
..|......
..|C-6.v3
..|......
..|......
..|......
..|......
..|......
..|===...
..|......
..|......
..|......
..|......
..|......
..|C-6.v3
..|......
..|......
..|......
..|......
..|......
..|===...
..|......
..|......
..|......
..|......
..|......
..|B-5.v3
..|......
..|......
..|......
..|......
..|......
..|......
..|......
..|......
..|......
..|......
..|......
..|......
..|......
..|......
..|......
..|......
..|......
..|......
..|......
..|......
..|......
..|......
..|......
..|C-6.v3
..|......
..|......
..|......
..|......
..|......
..|F-6.v3
..|......
..|......
..|......
..|......
..|......
..|F-5.v3
..|......
..|......
..|......
..|......
..|......
..|F-4.v3
..|......
..|......
..|......
..|......
..|......
..|C-5.v3
..|......
..|......
..|......
..|......
..|......
..|F-5.v3
..|......
..|......
..|......
..|......
..|......
..|E-5.v3
..|......
..|......
..|......
..|......
..|......
..|F-5.v3
..|......
..|......
..|......
..|......
..|......
..|A#5.v3
..|......
..|......
..|......
..|......
..|......
..|===...
..|......
..|......
..|......
..|......
..|......
..|A-5.v3
..|......
..|......
..|......
..|......
..|......
..|===...
..|......
..|......
..|......
..|......
..|......
..|G-5.v3
..|......
..|......
..|......
..|......
..|......
..|A-5.v3
..|......
..|......
..|......
..|......
..|......
..|......
..|......
..|......
..|......
..|......
..|......
..|F-5.v3
..|......
..|......
..|......
..|......
..|......
..|G-4.v3
..|......
..|......
..|......
..|......
..|......
..|......
..|......
..|......
..|......
..|......
..|......
..|===...
..|......
..|......
..|......
..|......
..|......
..|G-4.v3
..|......
..|......
..|......
..|......
..|......
..|D-5.v3
..|......
..|......
..|......
..|......
..|......
..|G-5.v3
..|......
..|......
..|......
..|......
..|......
..|F-5.v3
..|......
..|......
..|......
..|......
..|......
..|G-5.v3
..|......
..|......
..|......
..|......
..|......
..|C-6.v3
..|......
..|......
..|......
..|......
..|......
..|===...
..|......
..|......
..|......
..|......
..|......
..|C-6.v3
..|......
..|......
..|......
..|......
..|......
..|===...
..|......
..|......
..|......
..|......
..|......
..|B-5.v3
..|......
..|......
..|......
..|......
..|......
..|......
..|......
..|......
..|......
..|......
..|......
..|......
..|......
..|......
..|......
..|......
..|......
..|......
..|......
..|......
..|......
..|......
..|......
..|F-4.v3
..|......
..|......
..|......
..|......
..|......
..|F-4.v3
..|......
..|......
..|......
..|......
..|......
..|C-5.v3
..|......
..|......
..|......
..|......
..|......
..|F-4.v3
..|......
..|......
..|......
..|......
..|......
..|F-5.v3
..|......
..|......
..|......
..|......
..|......
..|......
..|......
..|......
..|......
..|......
..|......
..|E-5.v3
..|......
..|......
..|......
..|......
..|......
..|F-5.v3
..|......
..|......
..|......
..|......
..|......
..|A#5.v3
..|......
..|......
..|......
..|......
..|......
..|===...
..|......
..|......
..|......
..|......
..|......
..|A-5.v3
..|......
..|......
..|......
..|......
..|......
..|===...
..|......
..|......
..|......
..|......
..|......
..|G-5.v3
..|......
..|......
..|......
..|......
..|......
..|A-5.v3
..|......
..|......
..|......
..|......
..|......
..|......
..|......
..|......
..|......
..|......
..|......
..|F-5.v3
..|......
..|......
..|......
..|......
..|......
..|G-4.v3
..|......
..|......
..|......
..|......
..|......
..|......
..|......
..|......
..|......
..|......
..|......
..|===...
..|......
..|......
..|......
..|......
..|......
..|G-4.v3
..|......
..|......
..|......
..|......
..|......
..|D-5.v3
..|......
..|......
..|......
..|......
..|......
..|G-5.v3
..|......
..|......
..|......
..|......
..|......
..|F-5.v3
..|......
..|......
..|......
..|......
..|......
..|G-5.v3
..|......
..|......
..|......
..|......
..|......
..|C-6.v3
..|......
..|......
..|......
..|......
..|......
..|===...
..|......
..|......
..|......
..|......
..|......
..|C-6.v3
..|......
..|......
..|......
..|......
..|......
..|===...
..|......
..|......
..|......
..|......
..|......
..|B-5.v3
..|......
..|......
..|......
..|......
..|......
..|......
..|......
..|......
..|......
..|......
..|......
..|......
..|......
..|......
..|......
..|......
..|......
..|......
..|......
..|......
..|......
..|......
..|......
..|C-6.v3
..|......
..|......
..|......
..|......
..|......
..|C-6.v3
..|......
..|......
..|......
..|......
..|......
..|F-5.v3
..|......
..|......
..|......
..|......
..|......
..|F-4.v3
..|......
..|......
..|......
..|......
..|......
..|C-5.v3
..|......
..|......
..|......
..|......
..|......
..|F-5.v3
..|......
..|......
..|......
..|......
..|......
..|E-5.v3
..|......
..|......
..|......
..|......
..|......
..|F-5.v3
..|......
..|......
..|......
..|......
..|......
..|A#5.v3
..|......
..|......
..|......
..|......
..|......
..|===...
..|......
..|......
..|......
..|......
..|......
..|A-5.v3
..|......
..|......
..|......
..|......
..|......
..|===...
..|......
..|......
..|......
..|......
..|......
..|G-5.v3
..|......
..|......
..|......
..|......
..|......
..|A-5.v3
..|......
..|......
..|......
..|......
..|......
..|......
..|......
..|......
..|......
..|......
..|......
..|F-5.v3
..|......
..|......
..|......
..|......
..|......
..|G-4.v3
..|......
..|......
..|......
..|......
..|......
..|......
..|......
..|......
..|......
..|......
..|......
..|===...
..|......
..|......
..|......
..|......
..|......
..|G-4.v3
..|......
..|......
..|......
..|......
..|......
..|D-5.v3
..|......
..|......
..|......
..|......
..|......
..|G-5.v3
..|......
..|......
..|......
..|......
..|......
..|F-5.v3
..|......
..|......
..|......
..|......
..|......
..|G-5.v3
..|......
..|......
..|......
..|......
..|......
..|C-6.v3
..|......
..|......
..|......
..|......
..|......
..|===...
..|......
..|......
..|......
..|......
..|......
..|C-6.v3
..|......
..|......
..|......
..|......
..|......
..|===...
..|......
..|......
..|......
..|......
..|......
..|B-5.v3
..|......
..|......
..|......
..|......
..|......
..|......
..|......
..|......
..|......
..|......
..|......
..|......
..|......
..|......
..|......
..|......
..|......
..|......
..|......
..|......
..|......
..|......
..|......
..|F-4.v3
..|......
..|......
..|......
..|......
..|......
..|F-4.v3
..|......
..|......
..|......
..|......
..|......
..|C-5.v3
..|......
..|......
..|......
..|......
..|......
..|F-4.v3
..|......
..|......
..|......
..|......
..|......
..|F-5.v3
..|......
..|......
..|......
..|......
..|......
..|......
..|......
..|......
..|......
..|......
..|......
..|E-5.v3
..|......
..|......
..|......
..|......
..|......
..|F-5.v3
..|......
..|......
..|......
..|......
..|......
..|A#5.v3
..|......
..|......
..|......
..|......
..|......
..|===...
..|......
..|......
..|......
..|......
..|......
..|A-5.v3
..|......
..|......
..|......
..|......
..|......
..|===...
..|......
..|......
..|......
..|......
..|......
..|G-5.v3
..|......
..|......
..|......
..|......
..|......
..|A-5.v3
..|......
..|......
..|......
..|......
..|......
..|......
..|......
..|......
..|......
..|......
..|......
..|F-5.v3
..|......
..|......
..|......
..|......
..|......
..|G-4.v3
..|......
..|......
..|......
..|......
..|......
..|......
..|......
..|......
..|......
..|......
..|......
..|===...
..|......
..|......
..|......
..|......
..|......
..|G-4.v3
..|......
..|......
..|......
..|......
..|......
..|D-5.v3
..|......
..|......
..|......
..|......
..|......
..|G-5.v3
..|......
..|......
..|......
..|......
..|......
..|F-5.v3
..|......
..|......
..|......
..|......
..|......
..|G-5.v3
..|......
..|......
..|......
..|......
..|......
..|C-6.v3
..|......
..|......
..|......
..|......
..|......
..|===...
..|......
..|......
..|......
..|......
..|......
..|C-6.v3
..|......
..|......
..|......
..|......
..|......
..|===...
..|......
..|......
..|......
..|......
..|......
..|B-5.v3
..|......
..|......
..|......
..|......
..|......
..|......
..|......
..|......
..|......
..|......
..|......
..|......
..|......
..|......
..|......
..|......
..|......
..|......
..|......
..|......
..|......
..|......
..|......
..|C-6.v3
..|......
..|......
..|......
..|......
..|......
..|F-6.v3
..|......
..|......
..|......
..|......
..|......
..|F-5.v3
..|......
..|......
..|......
..|......
..|......
..|F-4.v3
..|......
..|......
..|......
..|......
..|......
..|C-5.v3
..|......
..|......
..|......
..|......
..|......
..|F-5.v3
..|......
..|......
..|......
..|......
..|......
..|E-5.v3
..|......
..|......
..|......
..|......
..|......
..|F-5.v3
..|......
..|......
..|......
..|......
..|......
..|A#5.v3
..|......
..|......
..|......
..|......
..|......
..|===...
..|......
..|......
..|......
..|......
..|......
..|A-5.v3
..|......
..|......
..|......
..|......
..|......
..|===...
..|......
..|......
..|......
..|......
..|......
..|G-5.v3
..|......
..|......
..|......
..|......
..|......
..|A-5.v3
..|......
..|......
..|......
..|......
..|......
..|......
..|......
..|......
..|......
..|......
..|......
..|F-5.v3
..|......
..|......
..|......
..|......
..|......
..|G-4.v3
..|......
..|......
..|......
..|......
..|......
..|......
..|......
..|......
..|......
..|......
..|......
..|===...
..|......
..|......
..|......
..|......
..|......
..|G-4.v3
..|......
..|......
..|......
..|......
..|......
..|D-5.v3
..|......
..|......
..|......
..|......
..|......
..|G-5.v3
..|......
..|......
..|......
..|......
..|......
..|F-5.v3
..|......
..|......
..|......
..|......
..|......
..|G-5.v3
..|......
..|......
..|......
..|......
..|......
..|C-6.v3
..|......
..|......
..|......
..|......
..|......
..|===...
..|......
..|......
..|......
..|......
..|......
..|C-6.v3
..|......
..|......
..|......
..|......
..|......
..|===...
..|......
..|......
..|......
..|......
..|......
..|B-5.v3
..|......
..|......
..|......
..|......
..|......
..|......
..|......
..|......
..|......
..|......
..|......
..|......
..|......
..|......
..|......
..|......
..|......
..|......
..|......
..|......
..|......
..|......
..|......
..|F-4.v3
..|......
..|......
..|......
..|......
..|......
..|F-4.v3
..|......
..|......
..|......
..|......
..|......
..|C-5.v3
..|......
..|......
..|......
..|......
..|......
..|F-4.v3
..|......
..|......
..|......
..|......
..|......
..|F-5.v3
..|......
..|......
..|......
..|......
..|......
..|......
..|......
..|......
..|......
..|......
..|......
..|E-5.v3
..|......
..|......
..|......
..|......
..|......
..|F-5.v3
..|......
..|......
..|......
..|......
..|......
..|A#5.v3
..|......
..|......
..|......
..|......
..|......
..|===...
..|......
..|......
..|......
..|......
..|......
..|A-5.v3
..|......
..|......
..|......
..|......
..|......
..|===...
..|......
..|......
..|......
..|......
..|......
..|G-5.v3
..|......
..|......
..|......
..|......
..|......
..|A-5.v3
..|......
..|......
..|......
..|......
..|......
..|......
..|......
..|......
..|......
..|......
..|......
..|F-5.v3
..|......
..|......
..|......
..|......
..|......
..|C-5.v3
..|......
..|......
..|......
..|......
..|......
..|......
..|......
..|......
..|......
..|......
..|......
..|......
..|......
..|......
..|......
..|......
..|......
..|C-5.v3
..|......
..|......
..|......
..|......
..|......
..|===...
..|......
..|......
..|......
..|......
..|......
..|C-5.v3
..|......
..|......
..|......
..|......
..|......
..|......
..|......
..|......
..|......
..|......
..|......
..|......
..|......
..|......
..|......
..|......
..|......
..|D-5.v3
..|......
..|......
..|......
..|......
..|......
..|......
..|......
..|......
..|......
..|......
..|......
..|......
..|......
..|......
..|......
..|......
..|......
..|D-5.v3
..|......
..|......
..|......
..|......
..|......
..|===...
..|......
..|......
..|......
..|......
..|......
..|D-5.v3
..|......
..|......
..|......
..|......
..|......
..|......
..|......
..|......
..|......
..|......
..|......
..|......
..|......
..|......
..|......
..|......
..|......
..|G-4.v3
..|......
..|......
..|......
..|......
..|......
..|G-4.v3
..|......
..|......
..|......
..|......
..|......
..|D-5.v3
..|......
..|......
..|......
..|......
..|......
..|G-4.v3
..|......
..|......
..|......
..|......
..|......
..|B-4.v3
..|......
..|......
..|......
..|......
..|......
..|......
..|......
..|......
..|......
..|......
..|......
..|C#5.v3
..|......
..|......
..|......
..|......
..|......
..|D-5.v3
..|......
..|......
..|......
..|......
..|......
..|G-5.v3
..|......
..|......
..|......
..|......
..|......
..|===...
..|......
..|......
..|......
..|......
..|......
..|G-5.v3
..|......
..|......
..|......
..|......
..|......
..|===...
..|......
..|......
..|......
..|......
..|......
..|F#5.v3
..|......
..|......
..|......
..|......
..|......
..|......
..|......
..|......
..|......
..|......
..|......
..|......
..|......
..|......
..|......
..|......
..|......
..|===...
..|......
..|......
..|......
..|......
..|......
..|C-5.v3
..|......
..|......
..|......
..|......
..|......
..|......
..|......
..|......
..|......
..|......
..|......
..|......
..|......
..|......
..|......
..|......
..|......
..|C-5.v3
..|......
..|......
..|......
..|......
..|......
..|===...
..|......
..|......
..|......
..|......
..|......
..|C-5.v3
..|......
..|......
..|......
..|......
..|......
..|......
..|......
..|......
..|......
..|......
..|......
..|......
..|......
..|......
..|......
..|......
..|......
..|D-5.v3
..|......
..|......
..|......
..|......
..|......
..|......
..|......
..|......
..|......
..|......
..|......
..|......
..|......
..|......
..|......
..|......
..|......
..|D-5.v3
..|......
..|......
..|......
..|......
..|......
..|===...
..|......
..|......
..|......
..|......
..|......
..|D-5.v3
..|......
..|......
..|......
..|......
..|......
..|......
..|......
..|......
..|......
..|......
..|......
..|......
..|......
..|......
..|......
..|......
..|......
..|E-5.v3
..|......
..|......
..|......
..|......
..|......
..|E-5.v3
..|......
..|......
..|......
..|......
..|......
..|D-5.v3
..|......
..|......
..|......
..|......
..|......
..|E-5.v3
..|......
..|......
..|......
..|......
..|......
..|G-5.v3
..|......
..|......
..|......
..|......
..|......
..|......
..|......
..|......
..|......
..|......
..|......
..|F#5.v3
..|......
..|......
..|......
..|......
..|......
..|G-5.v3
..|......
..|......
..|......
..|......
..|......
..|D-6.v3
..|......
..|......
..|......
..|......
..|......
..|===...
..|......
..|......
..|......
..|......
..|......
..|D-6.v3
..|......
..|......
..|......
..|......
..|......
..|===...
..|......
..|......
..|......
..|......
..|......
..|B-5.v3
..|......
..|......
..|......
..|......
..|......
..|......
..|......
..|......
..|......
..|......
..|......
..|......
..|......
..|......
..|......
..|......
..|......
..|===...
..|......
..|......
..|......
..|......
..|......
..|C-5.v3
..|......
..|......
..|......
..|......
..|......
..|......
..|......
..|......
..|......
..|......
..|......
..|......
..|......
..|......
..|......
..|......
..|......
..|C-5.v3
..|......
..|......
..|......
..|......
..|......
..|===...
..|......
..|......
..|......
..|......
..|......
..|C-5.v3
..|......
..|......
..|......
..|......
..|......
..|......
..|......
..|......
..|......
..|......
..|......
..|......
..|......
..|......
..|......
..|......
..|......
..|D-5.v3
..|......
..|......
..|......
..|......
..|......
..|......
..|......
..|......
..|......
..|......
..|......
..|......
..|......
..|......
..|......
..|......
..|......
..|D-5.v3
..|......
..|......
..|......
..|......
..|......
..|===...
..|......
..|......
..|......
..|......
..|......
..|D-5.v3
..|......
..|......
..|......
..|......
..|......
..|......
..|......
..|......
..|......
..|......
..|......
..|......
..|......
..|......
..|......
..|......
..|......
..|G-4.v3
..|......
..|......
..|......
..|......
..|......
..|G-4.v3
..|......
..|......
..|......
..|......
..|......
..|D-5.v3
..|......
..|......
..|......
..|......
..|......
..|G-4.v3
..|......
..|......
..|......
..|......
..|......
..|B-4.v3
..|......
..|......
..|......
..|......
..|......
..|......
..|......
..|......
..|......
..|......
..|......
..|C#5.v3
..|......
..|......
..|......
..|......
..|......
..|D-5.v3
..|......
..|......
..|......
..|......
..|......
..|G-5.v3
..|......
..|......
..|......
..|......
..|......
..|===...
..|......
..|......
..|......
..|......
..|......
..|G-5.v3
..|......
..|......
..|......
..|......
..|......
..|===...
..|......
..|......
..|......
..|......
..|......
..|F#5.v3
..|......
..|......
..|......
..|......
..|......
..|......
..|......
..|......
..|......
..|......
..|......
..|......
..|......
..|......
..|......
..|......
..|......
..|===...
..|......
..|......
..|......
..|......
..|......
..|C-5.v3
..|......
..|......
..|......
..|......
..|......
..|......
..|......
..|......
..|......
..|......
..|......
..|......
..|......
..|......
..|......
..|......
..|......
..|C-5.v3
..|......
..|......
..|......
..|......
..|......
..|===...
..|......
..|......
..|......
..|......
..|......
..|C-5.v3
..|......
..|......
..|......
..|......
..|......
..|......
..|......
..|......
..|......
..|......
..|......
..|......
..|......
..|......
..|......
..|......
..|......
..|D-5.v3
..|......
..|......
..|......
..|......
..|......
..|......
..|......
..|......
..|......
..|......
..|......
..|......
..|......
..|......
..|......
..|......
..|......
..|D-5.v3
..|......
..|......
..|......
..|......
..|......
..|===...
..|......
..|......
..|......
..|......
..|......
..|D-5.v3
..|......
..|......
..|......
..|......
..|......
..|......
..|......
..|......
..|......
..|......
..|......
..|......
..|......
..|......
..|......
..|......
..|......
..|===...
..|......
..|......
..|......
..|......
..|......
..|E-5.v3
..|......
..|......
..|......
..|......
..|......
..|D-5.v3
..|......
..|......
..|......
..|......
..|......
..|E-5.v3
..|......
..|......
..|......
..|......
..|......
..|G-5.v3
..|......
..|......
..|......
..|......
..|......
..|F#5.v3
..|......
..|......
..|......
..|......
..|......
..|E-5.v3
..|......
..|......
..|......
..|......
..|......
..|D-5.v3
..|......
..|......
..|......
..|......
..|......
..|E-5.v3
..|......
..|......
..|......
..|......
..|......
..|===...
..|......
..|......
..|......
..|......
..|......
..|......
..|......
..|......
..|......
..|......
..|......
..|......
..|......
..|......
..|......
..|......
..|......
..|......
..|......
..|......
..|......
..|......
..|......
..|......
..|......
..|......
..|......
..|......
..|......
..|......
..|......
..|......
..|......
..|......
..|......
..|......
..|......
..|......
..|......
..|......
..|......
..|......
#join
#unk6 6
#song 11
#halt
#halt
