#compressed
#unkc
#track 4
#inst 0
#unk6 7
#volume 78
..|......
..|......
..|......
..|......
..|......
..|......
..|......
..|......
..|......
..|......
..|......
..|......
..|......
..|......
..|......
..|......
..|......
..|......
..|......
..|......
..|......
..|......
..|......
..|......
..|......
..|......
..|......
..|......
..|......
..|......
..|......
..|......
..|......
..|......
..|......
..|......
..|......
..|......
..|......
..|......
..|......
..|......
..|......
..|......
..|......
..|......
..|......
..|......
..|......
..|......
..|......
..|......
..|......
..|......
..|......
..|......
..|......
..|......
..|......
..|......
..|......
..|......
..|......
..|......
..|......
..|......
..|......
..|......
..|......
..|......
..|......
..|......
..|......
..|......
..|......
..|......
..|......
..|......
..|......
..|......
..|......
..|......
..|......
..|......
..|......
..|......
..|......
..|......
..|......
..|......
..|......
..|......
..|......
..|......
..|......
..|......
..|......
..|......
..|......
..|......
..|......
..|......
..|......
..|......
..|......
..|......
..|......
..|......
..|......
..|......
..|......
..|......
..|......
..|......
..|......
..|......
..|......
..|......
..|......
..|......
..|......
..|......
..|......
..|......
..|......
..|......
..|......
..|......
..|......
..|......
..|......
..|......
..|......
..|......
..|......
..|......
..|......
..|......
..|......
..|......
..|......
..|......
..|......
..|......
..|......
..|......
..|......
..|......
..|......
..|......
..|......
..|......
..|......
..|......
..|......
..|......
..|......
..|......
..|......
..|......
..|......
..|......
..|......
..|......
..|......
..|......
..|......
..|......
..|......
..|......
..|......
..|......
..|......
..|......
..|......
..|......
..|......
..|......
..|......
..|......
..|......
..|......
..|......
..|......
..|......
..|......
..|......
..|......
..|......
..|......
..|......
..|......
..|B-5.v3
..|......
..|......
..|......
..|......
..|......
..|......
..|......
..|......
..|......
..|......
..|......
..|===...
..|......
..|......
..|......
..|......
..|......
..|......
..|......
..|......
..|......
..|......
..|......
..|D-6.v3
..|......
..|......
..|......
..|......
..|......
..|......
..|......
..|......
..|......
..|......
..|......
..|===...
..|......
..|......
..|......
..|......
..|......
..|......
..|......
..|......
..|......
..|......
..|......
..|G-5.v3
..|......
..|......
..|......
..|......
..|......
..|......
..|......
..|......
..|......
..|......
..|......
..|......
..|......
..|......
..|......
..|......
..|......
..|......
..|......
..|......
..|......
..|......
..|......
..|===...
..|......
..|......
..|......
..|......
..|......
..|......
..|......
..|......
..|......
..|......
..|......
..|......
..|......
..|......
..|......
..|......
..|......
..|......
..|......
..|......
..|......
..|......
..|......
..|......
..|......
..|......
..|......
..|......
..|......
..|F-5.v3
..|......
..|......
..|......
..|......
..|......
..|E-5.v3
..|......
..|......
..|......
..|......
..|......
..|F-5.v3
..|......
..|......
..|......
..|......
..|......
..|A-5.v3
..|......
..|......
..|......
..|......
..|......
..|......
..|......
..|......
..|......
..|......
..|......
..|G-5.v3
..|......
..|......
..|......
..|......
..|......
..|A-5.v3
..|......
..|......
..|......
..|......
..|......
..|C-6.v3
..|......
..|......
..|......
..|......
..|......
..|===...
..|......
..|......
..|......
..|......
..|......
..|C-6.v3
..|......
..|......
..|......
..|......
..|......
..|===...
..|......
..|......
..|......
..|......
..|......
..|B-5.v3
..|......
..|......
..|......
..|......
..|......
..|A-5.v3
..|......
..|......
..|......
..|......
..|......
..|===...
..|......
..|......
..|......
..|......
..|......
..|B-5.v3
..|......
..|......
..|......
..|......
..|......
..|......
..|......
..|......
..|......
..|......
..|......
..|===...
..|......
..|......
..|......
..|......
..|......
..|......
..|......
..|......
..|......
..|......
..|......
..|......
..|......
..|......
..|......
..|......
..|......
..|......
..|......
..|......
..|......
..|......
..|......
..|......
..|......
..|......
..|......
..|......
..|......
..|......
..|......
..|......
..|......
..|......
..|......
..|......
..|......
..|......
..|......
..|......
..|......
..|......
..|......
..|......
..|......
..|......
..|......
..|......
..|......
..|......
..|......
..|......
..|......
..|......
..|......
..|......
..|......
..|......
..|......
..|......
..|......
..|......
..|......
..|......
..|......
..|......
..|......
..|......
..|......
..|......
..|......
..|......
..|......
..|......
..|......
..|......
..|......
..|......
..|......
..|......
..|......
..|......
..|......
..|......
..|......
..|......
..|......
..|......
..|......
..|......
..|......
..|......
..|......
..|......
..|......
..|......
..|......
..|......
..|......
..|......
..|......
..|......
..|......
..|......
..|......
..|......
..|......
..|......
..|......
..|......
..|......
..|......
..|......
..|......
..|......
..|......
..|......
..|......
..|......
..|......
..|......
..|......
..|......
..|......
..|......
..|......
..|......
..|......
..|......
..|......
..|......
..|......
..|......
..|......
..|......
..|......
..|......
..|......
..|......
..|......
..|......
..|......
..|......
..|......
..|......
..|......
..|......
..|......
..|......
..|......
..|......
..|......
..|......
..|......
..|......
..|......
..|......
..|......
..|......
..|......
..|......
..|......
..|......
..|......
..|......
..|......
..|......
..|......
..|......
..|......
..|......
..|......
..|......
..|......
..|......
..|......
..|......
..|......
..|......
..|......
..|......
..|......
..|......
..|......
..|......
..|B-5.v3
..|......
..|......
..|......
..|......
..|......
..|......
..|......
..|......
..|......
..|......
..|......
..|===...
..|......
..|......
..|......
..|......
..|......
..|......
..|......
..|......
..|......
..|......
..|......
..|D-6.v3
..|......
..|......
..|......
..|......
..|......
..|......
..|......
..|......
..|......
..|......
..|......
..|===...
..|......
..|......
..|......
..|......
..|......
..|......
..|......
..|......
..|......
..|......
..|......
..|G-5.v3
..|......
..|......
..|......
..|......
..|......
..|......
..|......
..|......
..|......
..|......
..|......
..|......
..|......
..|......
..|......
..|......
..|......
..|......
..|......
..|......
..|......
..|......
..|......
..|D-6.v3
..|......
..|......
..|......
..|......
..|......
..|E-6.v3
..|......
..|......
..|......
..|......
..|......
..|===...
..|......
..|......
..|......
..|......
..|......
..|F-5.v3
..|......
..|......
..|......
..|......
..|......
..|......
..|......
..|......
..|......
..|......
..|......
..|......
..|......
..|......
..|......
..|......
..|......
..|===...
..|......
..|......
..|......
..|......
..|......
..|E-5.v3
..|......
..|......
..|......
..|......
..|......
..|......
..|......
..|......
..|......
..|......
..|......
..|......
..|......
..|......
..|......
..|......
..|......
..|===...
..|......
..|......
..|......
..|......
..|......
..|D-5.v3
..|......
..|......
..|......
..|......
..|......
..|......
..|......
..|......
..|......
..|......
..|......
..|......
..|......
..|......
..|......
..|......
..|......
..|===...
..|......
..|......
..|......
..|......
..|......
..|......
..|......
..|......
..|......
..|......
..|......
..|D-6.v3
..|......
..|......
..|......
..|......
..|......
..|C-6.v3
..|......
..|......
..|......
..|......
..|......
..|===...
..|......
..|......
..|......
..|......
..|......
..|B-5.v3
..|......
..|......
..|......
..|......
..|......
..|......
..|......
..|......
..|......
..|......
..|......
..|......
..|......
..|......
..|......
..|......
..|......
..|C-6.v3
..|......
..|......
..|......
..|......
..|......
..|===...
..|......
..|......
..|......
..|......
..|......
..|D-6.v3
..|......
..|......
..|......
..|......
..|......
..|===...
..|......
..|......
..|......
..|......
..|......
..|......
..|......
..|......
..|......
..|......
..|......
..|......
..|......
..|......
..|......
..|......
..|......
..|......
..|......
..|......
..|......
..|......
..|......
..|......
..|......
..|......
..|......
..|......
..|......
..|......
..|......
..|......
..|......
..|......
..|......
..|......
..|......
..|......
..|......
..|......
..|......
..|......
..|......
..|......
..|......
..|......
..|......
..|......
..|......
..|......
..|......
..|......
..|......
..|......
..|......
..|......
..|......
..|......
..|......
..|......
..|......
..|......
..|......
..|......
..|......
..|......
..|......
..|......
..|......
..|......
..|......
..|......
..|......
..|......
..|......
..|......
..|......
..|......
..|......
..|......
..|......
..|......
..|......
..|......
..|......
..|......
..|......
..|......
..|......
..|......
..|......
..|......
..|......
..|......
..|......
..|......
..|......
..|......
..|......
..|......
..|......
..|......
..|......
..|......
..|......
..|......
..|......
..|......
..|......
..|......
..|......
..|......
..|......
..|......
..|......
..|......
..|......
..|......
..|......
..|......
..|......
..|......
..|......
..|......
..|......
..|......
..|......
..|......
..|......
..|......
..|......
..|......
..|......
..|......
..|......
..|......
..|......
..|......
..|......
..|......
..|......
..|......
..|......
..|......
..|......
..|......
..|......
..|......
..|......
..|......
..|......
..|......
..|......
..|......
..|......
..|......
..|......
..|......
..|......
..|......
..|......
..|B-5.v3
..|......
..|......
..|......
..|......
..|......
..|......
..|......
..|......
..|......
..|......
..|......
..|===...
..|......
..|......
..|......
..|......
..|......
..|......
..|......
..|......
..|......
..|......
..|......
..|D-6.v3
..|......
..|......
..|......
..|......
..|......
..|......
..|......
..|......
..|......
..|......
..|......
..|===...
..|......
..|......
..|......
..|......
..|......
..|......
..|......
..|......
..|......
..|......
..|......
..|G-5.v3
..|......
..|......
..|......
..|......
..|......
..|......
..|......
..|......
..|......
..|......
..|......
..|......
..|......
..|......
..|......
..|......
..|......
..|......
..|......
..|......
..|......
..|......
..|......
..|===...
..|......
..|......
..|......
..|......
..|......
..|......
..|......
..|......
..|......
..|......
..|......
..|......
..|......
..|......
..|......
..|......
..|......
..|......
..|......
..|......
..|......
..|......
..|......
..|......
..|......
..|......
..|......
..|......
..|......
..|F-5.v3
..|......
..|......
..|......
..|......
..|......
..|E-5.v3
..|......
..|......
..|......
..|......
..|......
..|F-5.v3
..|......
..|......
..|......
..|......
..|......
..|A-5.v3
..|......
..|......
..|......
..|......
..|......
..|......
..|......
..|......
..|......
..|......
..|......
..|G-5.v3
..|......
..|......
..|......
..|......
..|......
..|A-5.v3
..|......
..|......
..|......
..|......
..|......
..|C-6.v3
..|......
..|......
..|......
..|......
..|......
..|===...
..|......
..|......
..|......
..|......
..|......
..|C-6.v3
..|......
..|......
..|......
..|......
..|......
..|===...
..|......
..|......
..|......
..|......
..|......
..|B-5.v3
..|......
..|......
..|......
..|......
..|......
..|A-5.v3
..|......
..|......
..|......
..|......
..|......
..|===...
..|......
..|......
..|......
..|......
..|......
..|B-5.v3
..|......
..|......
..|......
..|......
..|......
..|......
..|......
..|......
..|......
..|......
..|......
..|===...
..|......
..|......
..|......
..|......
..|......
..|......
..|......
..|......
..|......
..|......
..|......
..|......
..|......
..|......
..|......
..|......
..|......
..|......
..|......
..|......
..|......
..|......
..|......
..|......
..|......
..|......
..|......
..|......
..|......
..|......
..|......
..|......
..|......
..|......
..|......
..|......
..|......
..|......
..|......
..|......
..|......
..|......
..|......
..|......
..|......
..|......
..|......
..|......
..|......
..|......
..|......
..|......
..|......
..|......
..|......
..|......
..|......
..|......
..|......
..|......
..|......
..|......
..|......
..|......
..|......
..|......
..|......
..|......
..|......
..|......
..|......
..|......
..|......
..|......
..|......
..|......
..|......
..|......
..|......
..|......
..|......
..|......
..|......
..|......
..|......
..|......
..|......
..|......
..|......
..|......
..|......
..|......
..|......
..|......
..|......
..|......
..|......
..|......
..|......
..|......
..|......
..|......
..|......
..|......
..|......
..|......
..|......
..|......
..|......
..|......
..|......
..|......
..|......
..|......
..|......
..|......
..|......
..|......
..|......
..|......
..|......
..|......
..|......
..|......
..|......
..|......
..|......
..|......
..|......
..|......
..|......
..|......
..|......
..|......
..|......
..|......
..|......
..|......
..|......
..|......
..|......
..|......
..|......
..|......
..|......
..|......
..|......
..|......
..|......
..|......
..|......
..|......
..|......
..|......
..|......
..|......
..|......
..|......
..|......
..|......
..|......
..|......
..|......
..|......
..|......
..|......
..|......
..|......
..|......
..|......
..|......
..|......
..|......
..|......
..|......
..|......
..|......
..|......
..|......
..|......
..|......
..|......
..|......
..|......
..|......
..|B-5.v3
..|......
..|......
..|......
..|......
..|......
..|......
..|......
..|......
..|......
..|......
..|......
..|===...
..|......
..|......
..|......
..|......
..|......
..|......
..|......
..|......
..|......
..|......
..|......
..|D-6.v3
..|......
..|......
..|......
..|......
..|......
..|......
..|......
..|......
..|......
..|......
..|......
..|===...
..|......
..|......
..|......
..|......
..|......
..|......
..|......
..|......
..|......
..|......
..|......
..|G-5.v3
..|......
..|......
..|......
..|......
..|......
..|......
..|......
..|......
..|......
..|......
..|......
..|......
..|......
..|......
..|......
..|......
..|......
..|......
..|......
..|......
..|......
..|......
..|......
..|D-6.v3
..|......
..|......
..|......
..|......
..|......
..|E-6.v3
..|......
..|......
..|......
..|......
..|......
..|===...
..|......
..|......
..|......
..|......
..|......
..|F-5.v3
..|......
..|......
..|......
..|......
..|......
..|......
..|......
..|......
..|......
..|......
..|......
..|......
..|......
..|......
..|......
..|......
..|......
..|===...
..|......
..|......
..|......
..|......
..|......
..|E-5.v3
..|......
..|......
..|......
..|......
..|......
..|......
..|......
..|......
..|......
..|......
..|......
..|......
..|......
..|......
..|......
..|......
..|......
..|===...
..|......
..|......
..|......
..|......
..|......
..|D-5.v3
..|......
..|......
..|......
..|......
..|......
..|......
..|......
..|......
..|......
..|......
..|......
..|......
..|......
..|......
..|......
..|......
..|......
..|===...
..|......
..|......
..|......
..|......
..|......
..|......
..|......
..|......
..|......
..|......
..|......
..|D-6.v3
..|......
..|......
..|......
..|......
..|......
..|C-6.v3
..|......
..|......
..|......
..|......
..|......
..|===...
..|......
..|......
..|......
..|......
..|......
..|B-5.v3
..|......
..|......
..|......
..|......
..|......
..|......
..|......
..|......
..|......
..|......
..|......
..|......
..|......
..|......
..|......
..|......
..|......
..|C-6.v3
..|......
..|......
..|......
..|......
..|......
..|===...
..|......
..|......
..|......
..|......
..|......
..|D-6.v3
..|......
..|......
..|......
..|......
..|......
..|===...
..|......
..|......
..|......
..|......
..|......
..|......
..|......
..|......
..|......
..|......
..|......
..|......
..|......
..|......
..|......
..|......
..|......
..|......
..|......
..|......
..|......
..|......
..|......
..|......
..|......
..|......
..|......
..|......
..|......
..|......
..|......
..|......
..|......
..|......
..|......
..|......
..|......
..|......
..|......
..|......
..|......
..|......
..|......
..|......
..|......
..|......
..|......
..|......
..|......
..|......
..|......
..|......
..|......
..|......
..|......
..|......
..|......
..|......
..|......
..|......
..|......
..|......
..|......
..|......
..|......
..|......
..|......
..|......
..|......
..|......
..|......
..|......
..|......
..|......
..|......
..|......
..|......
..|......
..|......
..|......
..|......
..|......
..|......
..|......
..|......
..|......
..|......
..|......
..|......
..|......
..|......
..|......
..|......
..|......
..|......
..|......
..|......
..|......
..|......
..|......
..|......
..|......
..|......
..|......
..|......
..|......
..|......
..|......
..|......
..|......
..|......
..|......
..|......
..|......
..|......
..|......
..|......
..|......
..|......
..|......
..|......
..|......
..|......
..|......
..|......
..|......
..|......
..|......
..|......
..|......
..|......
..|......
..|......
..|......
..|......
..|......
..|......
..|......
..|......
..|......
..|......
..|......
..|......
..|......
..|......
..|......
..|......
..|......
..|......
..|......
..|......
..|......
..|......
..|......
..|......
..|......
..|......
..|......
..|......
..|......
..|......
#inst 5
..|C-6.v3
..|......
..|......
..|......
..|......
..|......
..|......
..|......
..|......
..|......
..|......
..|......
..|......
..|......
..|......
..|......
..|......
..|......
..|......
..|......
..|......
..|......
..|......
..|......
..|===...
..|......
..|......
..|......
..|......
..|......
..|C-6.v3
..|......
..|......
..|......
..|......
..|......
..|B-5.v3
..|......
..|......
..|......
..|......
..|......
..|C-6.v3
..|......
..|......
..|......
..|......
..|......
..|D-6.v3
..|......
..|......
..|......
..|......
..|......
..|......
..|......
..|......
..|......
..|......
..|......
..|......
..|......
..|......
..|......
..|......
..|......
..|......
..|......
..|......
..|......
..|......
..|......
..|D-6.v3
..|......
..|......
..|......
..|......
..|......
..|D-6.v3
..|......
..|......
..|......
..|......
..|......
..|===...
..|......
..|......
..|......
..|......
..|......
..|......
..|......
..|......
..|......
..|......
..|......
..|G-5.v3
..|......
..|......
..|......
..|......
..|......
..|G-5.v3
..|......
..|......
..|......
..|......
..|......
..|D-6.v3
..|......
..|......
..|......
..|......
..|......
..|G-5.v3
..|......
..|......
..|......
..|......
..|......
..|B-5.v3
..|......
..|......
..|......
..|......
..|......
..|......
..|......
..|......
..|......
..|......
..|......
..|C#6.v3
..|......
..|......
..|......
..|......
..|......
..|D-6.v3
..|......
..|......
..|......
..|......
..|......
..|G-6.v3
..|......
..|......
..|......
..|......
..|......
..|===...
..|......
..|......
..|......
..|......
..|......
..|G-6.v3
..|......
..|......
..|......
..|......
..|......
..|===...
..|......
..|......
..|......
..|......
..|......
..|F#6.v3
..|......
..|......
..|......
..|......
..|......
..|......
..|......
..|......
..|......
..|......
..|......
..|......
..|......
..|......
..|......
..|......
..|......
..|===...
..|......
..|......
..|......
..|......
..|......
..|C-6.v3
..|......
..|......
..|......
..|......
..|......
..|......
..|......
..|......
..|......
..|......
..|......
..|......
..|......
..|......
..|......
..|......
..|......
..|......
..|......
..|......
..|......
..|......
..|......
..|===...
..|......
..|......
..|......
..|......
..|......
..|C-6.v3
..|......
..|......
..|......
..|......
..|......
..|B-5.v3
..|......
..|......
..|......
..|......
..|......
..|C-6.v3
..|......
..|......
..|......
..|......
..|......
..|D-6.v3
..|......
..|......
..|......
..|......
..|......
..|......
..|......
..|......
..|......
..|......
..|......
..|......
..|......
..|......
..|......
..|......
..|......
..|......
..|......
..|......
..|......
..|......
..|......
..|D-6.v3
..|......
..|......
..|......
..|......
..|......
..|D-6.v3
..|......
..|......
..|......
..|......
..|......
..|===...
..|......
..|......
..|......
..|......
..|......
..|......
..|......
..|......
..|......
..|......
..|......
..|E-5.v3
..|......
..|......
..|......
..|......
..|......
..|E-5.v3
..|......
..|......
..|......
..|......
..|......
..|D-5.v3
..|......
..|......
..|......
..|......
..|......
..|E-5.v3
..|......
..|......
..|......
..|......
..|......
..|G-5.v3
..|......
..|......
..|......
..|......
..|......
..|......
..|......
..|......
..|......
..|......
..|......
..|F#5.v3
..|......
..|......
..|......
..|......
..|......
..|G-5.v3
..|......
..|......
..|......
..|......
..|......
..|D-6.v3
..|......
..|......
..|......
..|......
..|......
..|===...
..|......
..|......
..|......
..|......
..|......
..|D-6.v3
..|......
..|......
..|......
..|......
..|......
..|===...
..|......
..|......
..|......
..|......
..|......
..|B-5.v3
..|......
..|......
..|......
..|......
..|......
..|......
..|......
..|......
..|......
..|......
..|......
..|......
..|......
..|......
..|......
..|......
..|......
..|===...
..|......
..|......
..|......
..|......
..|......
..|C-6.v3
..|......
..|......
..|......
..|......
..|......
..|......
..|......
..|......
..|......
..|......
..|......
..|......
..|......
..|......
..|......
..|......
..|......
..|......
..|......
..|......
..|......
..|......
..|......
..|===...
..|......
..|......
..|......
..|......
..|......
..|C-6.v3
..|......
..|......
..|......
..|......
..|......
..|B-5.v3
..|......
..|......
..|......
..|......
..|......
..|C-6.v3
..|......
..|......
..|......
..|......
..|......
..|D-6.v3
..|......
..|......
..|......
..|......
..|......
..|......
..|......
..|......
..|......
..|......
..|......
..|......
..|......
..|......
..|......
..|......
..|......
..|......
..|......
..|......
..|......
..|......
..|......
..|D-6.v3
..|......
..|......
..|......
..|......
..|......
..|D-6.v3
..|......
..|......
..|......
..|......
..|......
..|===...
..|......
..|......
..|......
..|......
..|......
..|......
..|......
..|......
..|......
..|......
..|......
..|G-5.v3
..|......
..|......
..|......
..|......
..|......
..|G-5.v3
..|......
..|......
..|......
..|......
..|......
..|D-6.v3
..|......
..|......
..|......
..|......
..|......
..|G-5.v3
..|......
..|......
..|......
..|......
..|......
..|B-5.v3
..|......
..|......
..|......
..|......
..|......
..|......
..|......
..|......
..|......
..|......
..|......
..|C#6.v3
..|......
..|......
..|......
..|......
..|......
..|D-6.v3
..|......
..|......
..|......
..|......
..|......
..|G-6.v3
..|......
..|......
..|......
..|......
..|......
..|===...
..|......
..|......
..|......
..|......
..|......
..|G-6.v3
..|......
..|......
..|......
..|......
..|......
..|===...
..|......
..|......
..|......
..|......
..|......
..|F#6.v3
..|......
..|......
..|......
..|......
..|......
..|......
..|......
..|......
..|......
..|......
..|......
..|......
..|......
..|......
..|......
..|......
..|......
..|===...
..|......
..|......
..|......
..|......
..|......
..|C-6.v3
..|......
..|......
..|......
..|......
..|......
..|......
..|......
..|......
..|......
..|......
..|......
..|......
..|......
..|......
..|......
..|......
..|......
..|......
..|......
..|......
..|......
..|......
..|......
..|===...
..|......
..|......
..|......
..|......
..|......
..|C-6.v3
..|......
..|......
..|......
..|......
..|......
..|B-5.v3
..|......
..|......
..|......
..|......
..|......
..|C-6.v3
..|......
..|......
..|......
..|......
..|......
..|D-6.v3
..|......
..|......
..|......
..|......
..|......
..|......
..|......
..|......
..|......
..|......
..|......
..|......
..|......
..|......
..|......
..|......
..|......
..|......
..|......
..|......
..|......
..|......
..|......
..|D-6.v3
..|......
..|......
..|......
..|......
..|......
..|D-6.v3
..|......
..|......
..|......
..|......
..|......
..|===...
..|......
..|......
..|......
..|......
..|......
..|......
..|......
..|......
..|......
..|......
..|......
..|E-5.v3
..|......
..|......
..|......
..|......
..|......
..|E-5.v3
..|......
..|......
..|......
..|......
..|......
..|G-5.v3
..|......
..|......
..|......
..|......
..|......
..|E-5.v3
..|......
..|......
..|......
..|......
..|......
..|B-5.v3
..|......
..|......
..|......
..|......
..|......
..|......
..|......
..|......
..|......
..|......
..|......
..|D-6.v3
..|......
..|......
..|......
..|......
..|......
..|D#6.v3
..|......
..|......
..|......
..|......
..|......
..|E-6.v3
..|......
..|......
..|......
..|......
..|......
..|===...
#halt
#halt
