#compressed
#unkc
#track 2
#inst 4
#unk6 10
#unk6 7
#pan 40
#volume 55
..|......|......|......|......
..|......|......|......|......
..|......|......|......|......
..|......|......|......|......
..|......|......|......|......
..|......|......|......|......
..|......|......|......|......
..|......|......|......|......
..|......|......|......|......
..|......|......|......|......
..|......|......|......|......
..|......|......|......|......
..|......|......|......|......
..|......|......|......|......
..|......|......|......|......
..|......|......|......|......
..|......|......|......|......
..|......|......|......|......
..|......|......|......|......
..|......|......|......|......
..|......|......|......|......
..|......|......|......|......
..|......|......|......|......
..|......|......|......|......
..|A-4.v3|F-4.v3|......|......
..|......|......|......|......
..|......|......|......|......
..|......|......|......|......
..|......|......|......|......
..|......|......|......|......
..|===...|===...|......|......
..|......|......|......|......
..|......|......|......|......
..|......|......|......|......
..|......|......|......|......
..|......|......|......|......
..|A-4.v3|F-4.v3|......|......
..|......|......|......|......
..|......|......|......|......
..|......|......|......|......
..|......|......|......|......
..|......|......|......|......
..|===...|===...|......|......
..|......|......|......|......
..|......|......|......|......
..|......|......|......|......
..|......|......|......|......
..|......|......|......|......
..|......|......|......|......
..|......|......|......|......
..|......|......|......|......
..|......|......|......|......
..|......|......|......|......
..|......|......|......|......
..|......|......|......|......
..|......|......|......|......
..|......|......|......|......
..|......|......|......|......
..|......|......|......|......
..|......|......|......|......
..|......|......|......|......
..|......|......|......|......
..|......|......|......|......
..|......|......|......|......
..|......|......|......|......
..|......|......|......|......
..|......|......|......|......
..|......|......|......|......
..|......|......|......|......
..|......|......|......|......
..|......|......|......|......
..|......|......|......|......
..|A-4.v3|F-4.v3|......|......
..|......|......|......|......
..|......|......|......|......
..|......|......|......|......
..|......|......|......|......
..|......|......|......|......
..|......|......|......|......
..|......|......|......|......
..|......|......|......|......
..|......|......|......|......
..|......|......|......|......
..|......|......|......|......
..|B-4.v3|G-4.v3|......|......
..|......|......|......|......
..|......|......|......|......
..|......|......|......|......
..|......|......|......|......
..|......|......|......|......
..|===...|===...|......|......
..|......|......|......|......
..|......|......|......|......
..|......|......|......|......
..|......|......|......|......
..|......|......|......|......
..|......|......|......|......
..|......|......|......|......
..|......|......|......|......
..|......|......|......|......
..|......|......|......|......
..|......|......|......|......
..|......|......|......|......
..|......|......|......|......
..|......|......|......|......
..|......|......|......|......
..|......|......|......|......
..|......|......|......|......
..|......|......|......|......
..|......|......|......|......
..|......|......|......|......
..|......|......|......|......
..|......|......|......|......
..|......|......|......|......
..|......|......|......|......
..|......|......|......|......
..|......|......|......|......
..|......|......|......|......
..|......|......|......|......
..|......|......|......|......
..|A-4.v3|F-4.v3|......|......
..|......|......|......|......
..|......|......|......|......
..|......|......|......|......
..|......|......|......|......
..|......|......|......|......
..|===...|===...|......|......
..|......|......|......|......
..|......|......|......|......
..|......|......|......|......
..|......|......|......|......
..|......|......|......|......
..|A-4.v3|F-4.v3|......|......
..|......|......|......|......
..|......|......|......|......
..|......|......|......|......
..|......|......|......|......
..|......|......|......|......
..|===...|===...|......|......
..|......|......|......|......
..|......|......|......|......
..|......|......|......|......
..|......|......|......|......
..|......|......|......|......
..|......|......|......|......
..|......|......|......|......
..|......|......|......|......
..|......|......|......|......
..|......|......|......|......
..|......|......|......|......
..|......|......|......|......
..|......|......|......|......
..|......|......|......|......
..|......|......|......|......
..|......|......|......|......
..|......|......|......|......
..|......|......|......|......
..|......|......|......|......
..|......|......|......|......
..|......|......|......|......
..|......|......|......|......
..|......|......|......|......
..|......|......|......|......
..|......|......|......|......
..|......|......|......|......
..|......|......|......|......
..|......|......|......|......
..|......|......|......|......
..|A-4.v3|F-4.v3|......|......
..|......|......|......|......
..|......|......|......|......
..|......|......|......|......
..|......|......|......|......
..|......|......|......|......
..|......|......|......|......
..|......|......|......|......
..|......|......|......|......
..|......|......|......|......
..|......|......|......|......
..|......|......|......|......
..|B-4.v3|G-4.v3|......|......
..|......|......|......|......
..|......|......|......|......
..|......|......|......|......
..|......|......|......|......
..|......|......|......|......
..|===...|===...|......|......
..|......|......|......|......
..|......|......|......|......
..|......|......|......|......
..|......|......|......|......
..|......|......|......|......
..|......|......|......|......
..|......|......|......|......
..|......|......|......|......
..|......|......|......|......
..|......|......|......|......
..|......|......|......|......
..|......|......|......|......
..|......|......|......|......
..|......|......|......|......
..|......|......|......|......
..|......|......|......|......
..|......|......|......|......
..|......|......|......|......
..|......|......|......|......
..|......|......|......|......
..|......|......|......|......
..|......|......|......|......
..|......|......|......|......
..|......|......|......|......
..|......|......|......|......
..|......|......|......|......
..|......|......|......|......
..|......|......|......|......
..|......|......|......|......
..|A-4.v3|F-4.v3|......|......
..|......|......|......|......
..|......|......|......|......
..|......|......|......|......
..|......|......|......|......
..|......|......|......|......
..|===...|===...|......|......
..|......|......|......|......
..|......|......|......|......
..|......|......|......|......
..|......|......|......|......
..|......|......|......|......
..|A-4.v3|F-4.v3|......|......
..|......|......|......|......
..|......|......|......|......
..|......|......|......|......
..|......|......|......|......
..|......|......|......|......
..|===...|===...|......|......
..|......|......|......|......
..|......|......|......|......
..|......|......|......|......
..|......|......|......|......
..|......|......|......|......
..|......|......|......|......
..|......|......|......|......
..|......|......|......|......
..|......|......|......|......
..|......|......|......|......
..|......|......|......|......
..|......|......|......|......
..|......|......|......|......
..|......|......|......|......
..|......|......|......|......
..|......|......|......|......
..|......|......|......|......
..|......|......|......|......
..|......|......|......|......
..|......|......|......|......
..|......|......|......|......
..|......|......|......|......
..|......|......|......|......
..|......|......|......|......
..|......|......|......|......
..|......|......|......|......
..|......|......|......|......
..|......|......|......|......
..|......|......|......|......
..|A-4.v3|F-4.v3|......|......
..|......|......|......|......
..|......|......|......|......
..|......|......|......|......
..|......|......|......|......
..|......|......|......|......
..|......|......|......|......
..|......|......|......|......
..|......|......|......|......
..|......|......|......|......
..|......|......|......|......
..|......|......|......|......
..|B-4.v3|G-4.v3|......|......
..|......|......|......|......
..|......|......|......|......
..|......|......|......|......
..|......|......|......|......
..|......|......|......|......
..|===...|===...|......|......
..|......|......|......|......
..|......|......|......|......
..|......|......|......|......
..|......|......|......|......
..|......|......|......|......
#inst 5
..|C-6.v3|A-5.v3|......|......
..|......|......|......|......
..|......|......|......|......
..|......|......|......|......
..|......|......|......|......
..|......|......|......|......
..|===...|===...|C-6.v3|A-5.v3
..|......|......|......|......
..|......|......|......|......
..|......|......|......|......
..|......|......|......|......
..|......|......|......|......
..|......|......|C-7.v3|A-6.v3
..|......|......|......|......
..|......|......|......|......
..|......|......|......|......
..|......|......|......|......
..|......|......|......|......
..|......|......|C-6.v3|A-5.v3
..|......|......|......|......
..|......|......|......|......
..|......|......|......|......
..|......|......|......|......
..|......|......|......|......
..|......|......|B-6.v3|G-6.v3
..|......|......|......|......
..|......|......|......|......
..|......|......|......|......
..|......|......|......|......
..|......|......|......|......
..|......|......|===...|===...
..|......|......|......|......
..|......|......|......|......
..|......|......|......|......
..|......|......|......|......
..|......|......|......|......
..|A-6.v3|F-6.v3|......|......
..|......|......|......|......
..|......|......|......|......
..|......|......|......|......
..|......|......|......|......
..|......|......|......|......
..|B-6.v3|G-6.v3|......|......
..|......|......|......|......
..|......|......|......|......
..|......|......|......|......
..|......|......|......|......
..|......|......|......|......
..|C-6.v3|A-5.v3|......|......
..|......|......|......|......
..|......|......|......|......
..|......|......|......|......
..|......|......|......|......
..|......|......|......|......
..|===...|===...|......|......
..|......|......|......|......
..|......|......|......|......
..|......|......|......|......
..|......|......|......|......
..|......|......|......|......
..|C-7.v3|A-6.v3|......|......
..|......|......|......|......
..|......|......|......|......
..|......|......|......|......
..|......|......|......|......
..|......|......|......|......
..|===...|===...|......|......
..|......|......|......|......
..|......|......|......|......
..|......|......|......|......
..|......|......|......|......
..|......|......|......|......
..|B-6.v3|G-6.v3|......|......
..|......|......|......|......
..|......|......|......|......
..|......|......|......|......
..|......|......|......|......
..|......|......|......|......
..|===...|===...|......|......
..|......|......|......|......
..|......|......|......|......
..|......|......|......|......
..|......|......|......|......
..|......|......|......|......
..|......|......|......|......
..|......|......|......|......
..|......|......|......|......
..|......|......|......|......
..|......|......|......|......
..|......|......|......|......
..|......|......|......|......
..|......|......|......|......
..|......|......|......|......
..|......|......|......|......
..|......|......|......|......
..|......|......|......|......
#inst 4
..|......|......|......|......
..|......|......|......|......
..|......|......|......|......
..|......|......|......|......
..|......|......|......|......
..|......|......|......|......
..|......|......|......|......
..|......|......|......|......
..|......|......|......|......
..|......|......|......|......
..|......|......|......|......
..|......|......|......|......
..|......|......|......|......
..|......|......|......|......
..|......|......|......|......
..|......|......|......|......
..|......|......|......|......
..|......|......|......|......
..|......|......|......|......
..|......|......|......|......
..|......|......|......|......
..|......|......|......|......
..|......|......|......|......
..|......|......|......|......
..|A-4.v3|F-4.v3|......|......
..|......|......|......|......
..|......|......|......|......
..|......|......|......|......
..|......|......|......|......
..|......|......|......|......
..|===...|===...|......|......
..|......|......|......|......
..|......|......|......|......
..|......|......|......|......
..|......|......|......|......
..|......|......|......|......
..|A-4.v3|F-4.v3|......|......
..|......|......|......|......
..|......|......|......|......
..|......|......|......|......
..|......|......|......|......
..|......|......|......|......
..|===...|===...|......|......
..|......|......|......|......
..|......|......|......|......
..|......|......|......|......
..|......|......|......|......
..|......|......|......|......
..|......|......|......|......
..|......|......|......|......
..|......|......|......|......
..|......|......|......|......
..|......|......|......|......
..|......|......|......|......
..|......|......|......|......
..|......|......|......|......
..|......|......|......|......
..|......|......|......|......
..|......|......|......|......
..|......|......|......|......
..|......|......|......|......
..|......|......|......|......
..|......|......|......|......
..|......|......|......|......
..|......|......|......|......
..|......|......|......|......
..|......|......|......|......
..|......|......|......|......
..|......|......|......|......
..|......|......|......|......
..|......|......|......|......
..|......|......|......|......
..|A-4.v3|F-4.v3|......|......
..|......|......|......|......
..|......|......|......|......
..|......|......|......|......
..|......|......|......|......
..|......|......|......|......
..|......|......|......|......
..|......|......|......|......
..|......|......|......|......
..|......|......|......|......
..|......|......|......|......
..|......|......|......|......
..|B-4.v3|G-4.v3|......|......
..|......|......|......|......
..|......|......|......|......
..|......|......|......|......
..|......|......|......|......
..|......|......|......|......
..|===...|===...|......|......
..|......|......|......|......
..|......|......|......|......
..|......|......|......|......
..|......|......|......|......
..|......|......|......|......
..|......|......|......|......
..|......|......|......|......
..|......|......|......|......
..|......|......|......|......
..|......|......|......|......
..|......|......|......|......
..|......|......|......|......
..|......|......|......|......
..|......|......|......|......
..|......|......|......|......
..|......|......|......|......
..|......|......|......|......
..|......|......|......|......
..|......|......|......|......
..|......|......|......|......
..|......|......|......|......
..|......|......|......|......
..|......|......|......|......
..|......|......|......|......
..|......|......|......|......
..|......|......|......|......
..|......|......|......|......
..|......|......|......|......
..|......|......|......|......
..|A-4.v3|F-4.v3|......|......
..|......|......|......|......
..|......|......|......|......
..|......|......|......|......
..|......|......|......|......
..|......|......|......|......
..|===...|===...|......|......
..|......|......|......|......
..|......|......|......|......
..|......|......|......|......
..|......|......|......|......
..|......|......|......|......
..|A-4.v3|F-4.v3|......|......
..|......|......|......|......
..|......|......|......|......
..|......|......|......|......
..|......|......|......|......
..|......|......|......|......
..|===...|===...|......|......
..|......|......|......|......
..|......|......|......|......
..|......|......|......|......
..|......|......|......|......
..|......|......|......|......
..|......|......|......|......
..|......|......|......|......
..|......|......|......|......
..|......|......|......|......
..|......|......|......|......
..|......|......|......|......
..|......|......|......|......
..|......|......|......|......
..|......|......|......|......
..|......|......|......|......
..|......|......|......|......
..|......|......|......|......
..|......|......|......|......
..|......|......|......|......
..|......|......|......|......
..|......|......|......|......
..|......|......|......|......
..|......|......|......|......
..|......|......|......|......
..|......|......|......|......
..|......|......|......|......
..|......|......|......|......
..|......|......|......|......
..|......|......|......|......
..|A-4.v3|F-4.v3|......|......
..|......|......|......|......
..|......|......|......|......
..|......|......|......|......
..|......|......|......|......
..|......|......|......|......
..|......|......|......|......
..|......|......|......|......
..|......|......|......|......
..|......|......|......|......
..|......|......|......|......
..|......|......|......|......
..|B-4.v3|G-4.v3|......|......
..|......|......|......|......
..|......|......|......|......
..|......|......|......|......
..|......|......|......|......
..|......|......|......|......
..|===...|===...|......|......
..|......|......|......|......
..|......|......|......|......
..|......|......|......|......
..|......|......|......|......
..|......|......|......|......
..|......|......|......|......
..|......|......|......|......
..|......|......|......|......
..|......|......|......|......
..|......|......|......|......
..|......|......|......|......
..|......|......|......|......
..|......|......|......|......
..|......|......|......|......
..|......|......|......|......
..|......|......|......|......
..|......|......|......|......
..|......|......|......|......
..|......|......|......|......
..|......|......|......|......
..|......|......|......|......
..|......|......|......|......
..|......|......|......|......
..|......|......|......|......
..|......|......|......|......
..|......|......|......|......
..|......|......|......|......
..|......|......|......|......
..|......|......|......|......
..|A-4.v3|F-4.v3|......|......
..|......|......|......|......
..|......|......|......|......
..|......|......|......|......
..|......|......|......|......
..|......|......|......|......
..|===...|===...|......|......
..|......|......|......|......
..|......|......|......|......
..|......|......|......|......
..|......|......|......|......
..|......|......|......|......
..|A-4.v3|F-4.v3|......|......
..|......|......|......|......
..|......|......|......|......
..|......|......|......|......
..|......|......|......|......
..|......|......|......|......
..|===...|===...|......|......
..|......|......|......|......
..|......|......|......|......
..|......|......|......|......
..|......|......|......|......
..|......|......|......|......
..|......|......|......|......
..|......|......|......|......
..|......|......|......|......
..|......|......|......|......
..|......|......|......|......
..|......|......|......|......
..|......|......|......|......
..|......|......|......|......
..|......|......|......|......
..|......|......|......|......
..|......|......|......|......
..|......|......|......|......
..|......|......|......|......
..|......|......|......|......
..|......|......|......|......
..|......|......|......|......
..|......|......|......|......
..|......|......|......|......
..|......|......|......|......
..|......|......|......|......
..|......|......|......|......
..|......|......|......|......
..|......|......|......|......
..|......|......|......|......
..|A-4.v3|F-4.v3|......|......
..|......|......|......|......
..|......|......|......|......
..|......|......|......|......
..|......|......|......|......
..|......|......|......|......
..|......|......|......|......
..|......|......|......|......
..|......|......|......|......
..|......|......|......|......
..|......|......|......|......
..|......|......|......|......
..|B-4.v3|G-4.v3|......|......
..|......|......|......|......
..|......|......|......|......
..|......|......|......|......
..|......|......|......|......
..|......|......|......|......
..|===...|===...|......|......
..|......|......|......|......
..|......|......|......|......
..|......|......|......|......
..|......|......|......|......
..|......|......|......|......
#inst 5
..|C-6.v3|A-5.v3|......|......
..|......|......|......|......
..|......|......|......|......
..|......|......|......|......
..|......|......|......|......
..|......|......|......|......
..|===...|===...|C-6.v3|A-5.v3
..|......|......|......|......
..|......|......|......|......
..|......|......|......|......
..|......|......|......|......
..|......|......|......|......
..|......|......|C-7.v3|A-6.v3
..|......|......|......|......
..|......|......|......|......
..|......|......|......|......
..|......|......|......|......
..|......|......|......|......
..|......|......|C-6.v3|A-5.v3
..|......|......|......|......
..|......|......|......|......
..|......|......|......|......
..|......|......|......|......
..|......|......|......|......
..|......|......|B-6.v3|G-6.v3
..|......|......|......|......
..|......|......|......|......
..|......|......|......|......
..|......|......|......|......
..|......|......|......|......
..|......|......|===...|===...
..|......|......|......|......
..|......|......|......|......
..|......|......|......|......
..|......|......|......|......
..|......|......|......|......
..|A-6.v3|F-6.v3|......|......
..|......|......|......|......
..|......|......|......|......
..|......|......|......|......
..|......|......|......|......
..|......|......|......|......
..|B-6.v3|G-6.v3|......|......
..|......|......|......|......
..|......|......|......|......
..|......|......|......|......
..|......|......|......|......
..|......|......|......|......
..|C-6.v3|A-5.v3|......|......
..|......|......|......|......
..|......|......|......|......
..|......|......|......|......
..|......|......|......|......
..|......|......|......|......
..|===...|===...|......|......
..|......|......|......|......
..|......|......|......|......
..|......|......|......|......
..|......|......|......|......
..|......|......|......|......
..|C-7.v3|A-6.v3|......|......
..|......|......|......|......
..|......|......|......|......
..|......|......|......|......
..|......|......|......|......
..|......|......|......|......
..|===...|===...|......|......
..|......|......|......|......
..|......|......|......|......
..|......|......|......|......
..|......|......|......|......
..|......|......|......|......
..|B-6.v3|G-6.v3|......|......
..|......|......|......|......
..|......|......|......|......
..|......|......|......|......
..|......|......|......|......
..|......|......|......|......
..|===...|===...|......|......
..|......|......|......|......
..|......|......|......|......
..|......|......|......|......
..|......|......|......|......
..|......|......|......|......
..|......|......|......|......
..|......|......|......|......
..|......|......|......|......
..|......|......|......|......
..|......|......|......|......
..|......|......|......|......
..|......|......|......|......
..|......|......|......|......
..|......|......|......|......
..|......|......|......|......
..|......|......|......|......
..|......|......|......|......
#inst 4
..|......|......|......|......
..|......|......|......|......
..|......|......|......|......
..|......|......|......|......
..|......|......|......|......
..|......|......|......|......
..|......|......|......|......
..|......|......|......|......
..|......|......|......|......
..|......|......|......|......
..|......|......|......|......
..|......|......|......|......
..|......|......|......|......
..|......|......|......|......
..|......|......|......|......
..|......|......|......|......
..|......|......|......|......
..|......|......|......|......
..|......|......|......|......
..|......|......|......|......
..|......|......|......|......
..|......|......|......|......
..|......|......|......|......
..|......|......|......|......
..|G-4.v3|E-4.v3|......|......
..|......|......|......|......
..|......|......|......|......
..|......|......|......|......
..|......|......|......|......
..|......|......|......|......
..|===...|===...|......|......
..|......|......|......|......
..|......|......|......|......
..|......|......|......|......
..|......|......|......|......
..|......|......|......|......
..|G-4.v3|E-4.v3|......|......
..|......|......|......|......
..|......|......|......|......
..|......|......|......|......
..|......|......|......|......
..|......|......|......|......
..|===...|===...|......|......
..|......|......|......|......
..|......|......|......|......
..|......|......|......|......
..|......|......|......|......
..|......|......|......|......
..|......|......|......|......
..|......|......|......|......
..|......|......|......|......
..|......|......|......|......
..|......|......|......|......
..|......|......|......|......
..|......|......|......|......
..|......|......|......|......
..|......|......|......|......
..|......|......|......|......
..|......|......|......|......
..|......|......|......|......
..|......|......|......|......
..|......|......|......|......
..|......|......|......|......
..|......|......|......|......
..|......|......|......|......
..|......|......|......|......
..|......|......|......|......
..|......|......|......|......
..|......|......|......|......
..|......|......|......|......
..|......|......|......|......
..|......|......|......|......
..|G-4.v3|E-4.v3|......|......
..|......|......|......|......
..|......|......|......|......
..|......|......|......|......
..|......|......|......|......
..|......|......|......|......
..|===...|===...|......|......
..|......|......|......|......
..|......|......|......|......
..|......|......|......|......
..|......|......|......|......
..|......|......|......|......
..|G-4.v3|E-4.v3|......|......
..|......|......|......|......
..|......|......|......|......
..|......|......|......|......
..|......|......|......|......
..|......|......|......|......
..|===...|===...|......|......
..|......|......|......|......
..|......|......|......|......
..|......|......|......|......
..|......|......|......|......
..|......|......|......|......
..|......|......|......|......
..|......|......|......|......
..|......|......|......|......
..|......|......|......|......
..|......|......|......|......
..|......|......|......|......
..|......|......|......|......
..|......|......|......|......
..|......|......|......|......
..|......|......|......|......
..|......|......|......|......
..|......|......|......|......
..|......|......|......|......
..|......|......|......|......
..|......|......|......|......
..|......|......|......|......
..|......|......|......|......
..|......|......|......|......
..|......|......|......|......
..|......|......|......|......
..|......|......|......|......
..|......|......|......|......
..|......|......|......|......
..|......|......|......|......
..|F#4.v3|D#4.v3|......|......
..|......|......|......|......
..|......|......|......|......
..|......|......|......|......
..|......|......|......|......
..|......|......|......|......
..|===...|===...|......|......
..|......|......|......|......
..|......|......|......|......
..|......|......|......|......
..|......|......|......|......
..|......|......|......|......
..|F#4.v3|D#4.v3|......|......
..|......|......|......|......
..|......|......|......|......
..|......|......|......|......
..|......|......|......|......
..|......|......|......|......
..|===...|===...|......|......
..|......|......|......|......
..|......|......|......|......
..|......|......|......|......
..|......|......|......|......
..|......|......|......|......
..|......|......|......|......
..|......|......|......|......
..|......|......|......|......
..|......|......|......|......
..|......|......|......|......
..|......|......|......|......
..|......|......|......|......
..|......|......|......|......
..|......|......|......|......
..|......|......|......|......
..|......|......|......|......
..|......|......|......|......
..|......|......|......|......
..|......|......|......|......
..|......|......|......|......
..|......|......|......|......
..|......|......|......|......
..|......|......|......|......
..|......|......|......|......
..|......|......|......|......
..|......|......|......|......
..|......|......|......|......
..|......|......|......|......
..|......|......|......|......
..|F#4.v3|D#4.v3|......|......
..|......|......|......|......
..|......|......|......|......
..|......|......|......|......
..|......|......|......|......
..|......|......|......|......
..|===...|===...|......|......
..|......|......|......|......
..|......|......|......|......
..|......|......|......|......
..|......|......|......|......
..|......|......|......|......
..|F#4.v3|D#4.v3|......|......
..|......|......|......|......
..|......|......|......|......
..|......|......|......|......
..|......|......|......|......
..|......|......|......|......
..|===...|===...|......|......
..|......|......|......|......
..|......|......|......|......
..|......|......|......|......
..|......|......|......|......
..|......|......|......|......
..|......|......|......|......
..|......|......|......|......
..|......|......|......|......
..|......|......|......|......
..|......|......|......|......
..|......|......|......|......
..|......|......|......|......
..|......|......|......|......
..|......|......|......|......
..|......|......|......|......
..|......|......|......|......
..|......|......|......|......
..|......|......|......|......
..|......|......|......|......
..|......|......|......|......
..|......|......|......|......
..|......|......|......|......
..|......|......|......|......
..|......|......|......|......
..|......|......|......|......
..|......|......|......|......
..|......|......|......|......
..|......|......|......|......
..|......|......|......|......
..|F-4.v3|D-4.v3|......|......
..|......|......|......|......
..|......|......|......|......
..|......|......|......|......
..|......|......|......|......
..|......|......|......|......
..|===...|===...|......|......
..|......|......|......|......
..|......|......|......|......
..|......|......|......|......
..|......|......|......|......
..|......|......|......|......
..|F-4.v3|D-4.v3|......|......
..|......|......|......|......
..|......|......|......|......
..|......|......|......|......
..|......|......|......|......
..|......|......|......|......
..|===...|===...|......|......
..|......|......|......|......
..|......|......|......|......
..|......|......|......|......
..|......|......|......|......
..|......|......|......|......
..|......|......|......|......
..|......|......|......|......
..|......|......|......|......
..|......|......|......|......
..|......|......|......|......
..|......|......|......|......
..|......|......|......|......
..|......|......|......|......
..|......|......|......|......
..|......|......|......|......
..|......|......|......|......
..|......|......|......|......
..|......|......|......|......
..|......|......|......|......
..|......|......|......|......
..|......|......|......|......
..|......|......|......|......
..|......|......|......|......
..|......|......|......|......
..|......|......|......|......
..|......|......|......|......
..|......|......|......|......
..|......|......|......|......
..|......|......|......|......
..|F-4.v3|D-4.v3|......|......
..|......|......|......|......
..|......|......|......|......
..|......|......|......|......
..|......|......|......|......
..|......|......|......|......
..|===...|===...|......|......
..|......|......|......|......
..|......|......|......|......
..|......|......|......|......
..|......|......|......|......
..|......|......|......|......
..|F-4.v3|D-4.v3|......|......
..|......|......|......|......
..|......|......|......|......
..|......|......|......|......
..|......|......|......|......
..|......|......|......|......
..|===...|===...|......|......
..|......|......|......|......
..|......|......|......|......
..|......|......|......|......
..|......|......|......|......
..|......|......|......|......
..|......|......|......|......
..|......|......|......|......
..|......|......|......|......
..|......|......|......|......
..|......|......|......|......
..|......|......|......|......
..|......|......|......|......
..|......|......|......|......
..|......|......|......|......
..|......|......|......|......
..|......|......|......|......
..|......|......|......|......
..|......|......|......|......
..|......|......|......|......
..|......|......|......|......
..|......|......|......|......
..|......|......|......|......
..|......|......|......|......
..|......|......|......|......
..|......|......|......|......
..|......|......|......|......
..|......|......|......|......
..|......|......|......|......
..|......|......|......|......
..|E-4.v3|C#4.v3|......|......
..|......|......|......|......
..|......|......|......|......
..|......|......|......|......
..|......|......|......|......
..|......|......|......|......
..|===...|===...|......|......
..|......|......|......|......
..|......|......|......|......
..|......|......|......|......
..|......|......|......|......
..|......|......|......|......
..|......|......|......|......
..|......|......|......|......
..|......|......|......|......
..|......|......|......|......
..|......|......|......|......
..|......|......|......|......
..|......|......|......|......
..|......|......|......|......
..|......|......|......|......
..|......|......|......|......
..|......|......|......|......
..|......|......|......|......
..|E-4.v3|C#4.v3|......|......
..|......|......|......|......
..|......|......|......|......
..|......|......|......|......
..|......|......|......|......
..|......|......|......|......
..|......|......|......|......
..|......|......|......|......
..|......|......|......|......
..|......|......|......|......
..|......|......|......|......
..|......|......|......|......
..|......|......|......|......
..|......|......|......|......
..|......|......|......|......
..|......|......|......|......
..|......|......|......|......
..|......|......|......|......
..|......|......|......|......
..|......|......|......|......
..|......|......|......|......
..|......|......|......|......
..|......|......|......|......
..|......|......|......|......
..|......|......|......|......
..|......|......|......|......
..|......|......|......|......
..|......|......|......|......
..|......|......|......|......
..|......|......|......|......
..|......|......|......|......
..|......|......|......|......
..|......|......|......|......
..|......|......|......|......
..|......|......|......|......
..|......|......|......|......
..|......|......|......|......
..|......|......|......|......
..|......|......|......|......
..|......|......|......|......
..|......|......|......|......
..|......|......|......|......
..|......|......|......|......
..|......|......|......|......
..|......|......|......|......
..|......|......|......|......
..|......|......|......|......
..|......|......|......|......
..|===...|===...|......|......
..|......|......|......|......
..|......|......|......|......
..|......|......|......|......
..|......|......|......|......
..|......|......|......|......
..|......|......|......|......
..|......|......|......|......
..|......|......|......|......
..|......|......|......|......
..|......|......|......|......
..|......|......|......|......
..|......|......|......|......
..|......|......|......|......
..|......|......|......|......
..|......|......|......|......
..|......|......|......|......
..|......|......|......|......
..|......|......|......|......
..|......|......|......|......
..|......|......|......|......
..|......|......|......|......
..|......|......|......|......
..|......|......|......|......
..|G-4.v3|E-4.v3|......|......
..|......|......|......|......
..|......|......|......|......
..|......|......|......|......
..|......|......|......|......
..|......|......|......|......
..|===...|===...|......|......
..|......|......|......|......
..|......|......|......|......
..|......|......|......|......
..|......|......|......|......
..|......|......|......|......
..|G-4.v3|E-4.v3|......|......
..|......|......|......|......
..|......|......|......|......
..|......|......|......|......
..|......|......|......|......
..|......|......|......|......
..|===...|===...|......|......
..|......|......|......|......
..|......|......|......|......
..|......|......|......|......
..|......|......|......|......
..|......|......|......|......
..|......|......|......|......
..|......|......|......|......
..|......|......|......|......
..|......|......|......|......
..|......|......|......|......
..|......|......|......|......
..|......|......|......|......
..|......|......|......|......
..|......|......|......|......
..|......|......|......|......
..|......|......|......|......
..|......|......|......|......
..|......|......|......|......
..|......|......|......|......
..|......|......|......|......
..|......|......|......|......
..|......|......|......|......
..|......|......|......|......
..|......|......|......|......
..|......|......|......|......
..|......|......|......|......
..|......|......|......|......
..|......|......|......|......
..|......|......|......|......
..|G-4.v3|E-4.v3|......|......
..|......|......|......|......
..|......|......|......|......
..|......|......|......|......
..|......|......|......|......
..|......|......|......|......
..|===...|===...|......|......
..|......|......|......|......
..|......|......|......|......
..|......|......|......|......
..|......|......|......|......
..|......|......|......|......
..|G-4.v3|E-4.v3|......|......
..|......|......|......|......
..|......|......|......|......
..|......|......|......|......
..|......|......|......|......
..|......|......|......|......
..|===...|===...|......|......
..|......|......|......|......
..|......|......|......|......
..|......|......|......|......
..|......|......|......|......
..|......|......|......|......
..|......|......|......|......
..|......|......|......|......
..|......|......|......|......
..|......|......|......|......
..|......|......|......|......
..|......|......|......|......
..|......|......|......|......
..|......|......|......|......
..|......|......|......|......
..|......|......|......|......
..|......|......|......|......
..|......|......|......|......
..|......|......|......|......
..|......|......|......|......
..|......|......|......|......
..|......|......|......|......
..|......|......|......|......
..|......|......|......|......
..|......|......|......|......
..|......|......|......|......
..|......|......|......|......
..|......|......|......|......
..|......|......|......|......
..|......|......|......|......
..|F#4.v3|D#4.v3|......|......
..|......|......|......|......
..|......|......|......|......
..|......|......|......|......
..|......|......|......|......
..|......|......|......|......
..|===...|===...|......|......
..|......|......|......|......
..|......|......|......|......
..|......|......|......|......
..|......|......|......|......
..|......|......|......|......
..|F#4.v3|D#4.v3|......|......
..|......|......|......|......
..|......|......|......|......
..|......|......|......|......
..|......|......|......|......
..|......|......|......|......
..|===...|===...|......|......
..|......|......|......|......
..|......|......|......|......
..|......|......|......|......
..|......|......|......|......
..|......|......|......|......
..|......|......|......|......
..|......|......|......|......
..|......|......|......|......
..|......|......|......|......
..|......|......|......|......
..|......|......|......|......
..|......|......|......|......
..|......|......|......|......
..|......|......|......|......
..|......|......|......|......
..|......|......|......|......
..|......|......|......|......
..|......|......|......|......
..|......|......|......|......
..|......|......|......|......
..|......|......|......|......
..|......|......|......|......
..|......|......|......|......
..|......|......|......|......
..|......|......|......|......
..|......|......|......|......
..|......|......|......|......
..|......|......|......|......
..|......|......|......|......
..|F#4.v3|D#4.v3|......|......
..|......|......|......|......
..|......|......|......|......
..|......|......|......|......
..|......|......|......|......
..|......|......|......|......
..|===...|===...|......|......
..|......|......|......|......
..|......|......|......|......
..|......|......|......|......
..|......|......|......|......
..|......|......|......|......
..|F#4.v3|D#4.v3|......|......
..|......|......|......|......
..|......|......|......|......
..|......|......|......|......
..|......|......|......|......
..|......|......|......|......
..|===...|===...|......|......
..|......|......|......|......
..|......|......|......|......
..|......|......|......|......
..|......|......|......|......
..|......|......|......|......
..|......|......|......|......
..|......|......|......|......
..|......|......|......|......
..|......|......|......|......
..|......|......|......|......
..|......|......|......|......
..|......|......|......|......
..|......|......|......|......
..|......|......|......|......
..|......|......|......|......
..|......|......|......|......
..|......|......|......|......
..|......|......|......|......
..|......|......|......|......
..|......|......|......|......
..|......|......|......|......
..|......|......|......|......
..|......|......|......|......
..|......|......|......|......
..|......|......|......|......
..|......|......|......|......
..|......|......|......|......
..|......|......|......|......
..|......|......|......|......
..|F-4.v3|D-4.v3|......|......
..|......|......|......|......
..|......|......|......|......
..|......|......|......|......
..|......|......|......|......
..|......|......|......|......
..|===...|===...|......|......
..|......|......|......|......
..|......|......|......|......
..|......|......|......|......
..|......|......|......|......
..|......|......|......|......
..|F-4.v3|D-4.v3|......|......
..|......|......|......|......
..|......|......|......|......
..|......|......|......|......
..|......|......|......|......
..|......|......|......|......
..|===...|===...|......|......
..|......|......|......|......
..|......|......|......|......
..|......|......|......|......
..|......|......|......|......
..|......|......|......|......
..|......|......|......|......
..|......|......|......|......
..|......|......|......|......
..|......|......|......|......
..|......|......|......|......
..|......|......|......|......
..|......|......|......|......
..|......|......|......|......
..|......|......|......|......
..|......|......|......|......
..|......|......|......|......
..|......|......|......|......
..|......|......|......|......
..|......|......|......|......
..|......|......|......|......
..|......|......|......|......
..|......|......|......|......
..|......|......|......|......
..|......|......|......|......
..|......|......|......|......
..|......|......|......|......
..|......|......|......|......
..|......|......|......|......
..|......|......|......|......
..|F-4.v3|D-4.v3|......|......
..|......|......|......|......
..|......|......|......|......
..|......|......|......|......
..|......|......|......|......
..|......|......|......|......
..|===...|===...|......|......
..|......|......|......|......
..|......|......|......|......
..|......|......|......|......
..|......|......|......|......
..|......|......|......|......
..|F-4.v3|D-4.v3|......|......
..|......|......|......|......
..|......|......|......|......
..|......|......|......|......
..|......|......|......|......
..|......|......|......|......
..|===...|===...|......|......
..|......|......|......|......
..|......|......|......|......
..|......|......|......|......
..|......|......|......|......
..|......|......|......|......
..|A-5.v3|......|......|......
..|......|......|......|......
..|......|......|......|......
..|......|......|......|......
..|......|......|......|......
..|......|......|......|......
..|A-4.v3|......|......|......
..|......|......|......|......
..|......|......|......|......
..|......|......|......|......
..|......|......|......|......
..|......|......|......|......
..|===...|......|......|......
..|......|......|......|......
..|......|......|......|......
..|......|......|......|......
..|......|......|......|......
..|......|......|......|......
..|A-3.v3|......|......|......
..|......|......|......|......
..|......|......|......|......
..|......|......|......|......
..|......|......|......|......
..|......|......|......|......
..|A-2.v3|......|......|......
..|......|......|......|......
..|......|......|......|......
..|......|......|......|......
..|......|......|......|......
..|......|......|......|......
..|===...|......|......|......
..|......|......|......|......
..|......|......|......|......
..|......|......|......|......
..|......|......|......|......
..|......|......|......|......
..|A-3.v3|......|......|......
..|......|......|......|......
..|......|......|......|......
..|......|......|......|......
..|......|......|......|......
..|......|......|......|......
..|A-2.v3|......|......|......
..|......|......|......|......
..|......|......|......|......
..|......|......|......|......
..|......|......|......|......
..|......|......|......|......
..|===...|......|......|......
..|......|......|......|......
..|......|......|......|......
..|......|......|......|......
..|......|......|......|......
..|......|......|......|......
..|A-2.v3|......|......|......
..|......|......|......|......
..|......|......|......|......
..|......|......|......|......
..|......|......|......|......
..|......|......|......|......
..|A-3.v3|......|......|......
..|......|......|......|......
..|......|......|......|......
..|......|......|......|......
..|......|......|......|......
..|......|......|......|......
..|===...|......|......|......
..|......|......|......|......
..|......|......|......|......
..|......|......|......|......
..|......|......|......|......
..|......|......|......|......
..|A#3.v3|......|......|......
..|......|......|......|......
..|......|......|......|......
..|......|......|......|......
..|......|......|......|......
..|......|......|......|......
..|===...|......|......|......
..|......|......|......|......
..|......|......|......|......
..|......|......|......|......
..|......|......|......|......
..|......|......|......|......
..|......|......|......|......
..|......|......|......|......
..|......|......|......|......
..|......|......|......|......
..|......|......|......|......
..|......|......|......|......
..|......|......|......|......
..|......|......|......|......
..|......|......|......|......
..|......|......|......|......
..|......|......|......|......
..|......|......|......|......
..|......|......|......|......
..|......|......|......|......
..|......|......|......|......
..|......|......|......|......
..|......|......|......|......
..|......|......|......|......
..|......|......|......|......
..|......|......|......|......
..|......|......|......|......
..|......|......|......|......
..|......|......|......|......
..|......|......|......|......
..|C-5.v3|A-4.v3|......|......
..|......|......|......|......
..|......|......|......|......
..|......|......|......|......
..|......|......|......|......
..|......|......|......|......
..|===...|===...|......|......
..|......|......|......|......
..|......|......|......|......
..|......|......|......|......
..|......|......|......|......
..|......|......|......|......
..|......|......|......|......
..|......|......|......|......
..|......|......|......|......
..|......|......|......|......
..|......|......|......|......
..|......|......|......|......
..|......|......|......|......
..|......|......|......|......
..|......|......|......|......
..|......|......|......|......
..|......|......|......|......
..|......|......|......|......
..|C-5.v3|A-4.v3|......|......
..|......|......|......|......
..|......|......|......|......
..|......|......|......|......
..|......|......|......|......
..|......|......|......|......
..|===...|===...|......|......
..|......|......|......|......
..|......|......|......|......
..|......|......|......|......
..|......|......|......|......
..|......|......|......|......
..|......|......|......|......
..|......|......|......|......
..|......|......|......|......
..|......|......|......|......
..|......|......|......|......
..|......|......|......|......
..|......|......|......|......
..|......|......|......|......
..|......|......|......|......
..|......|......|......|......
..|......|......|......|......
..|......|......|......|......
..|C-5.v3|A-4.v3|......|......
..|......|......|......|......
..|......|......|......|......
..|......|......|......|......
..|......|......|......|......
..|......|......|......|......
..|===...|===...|......|......
..|......|......|......|......
..|......|......|......|......
..|......|......|......|......
..|......|......|......|......
..|......|......|......|......
..|B-4.v3|G#4.v3|......|......
..|......|......|......|......
..|......|......|......|......
..|......|......|......|......
..|......|......|......|......
..|......|......|......|......
..|===...|===...|......|......
..|......|......|......|......
..|......|......|......|......
..|......|......|......|......
..|......|......|......|......
..|......|......|......|......
..|......|......|......|......
..|......|......|......|......
..|......|......|......|......
..|......|......|......|......
..|......|......|......|......
..|......|......|......|......
..|......|......|......|......
..|......|......|......|......
..|......|......|......|......
..|......|......|......|......
..|......|......|......|......
..|......|......|......|......
..|......|......|......|......
..|......|......|......|......
..|......|......|......|......
..|......|......|......|......
..|......|......|......|......
..|......|......|......|......
..|......|......|......|......
..|......|......|......|......
..|......|......|......|......
..|......|......|......|......
..|......|......|......|......
..|......|......|......|......
..|A#4.v3|G-4.v3|......|......
..|......|......|......|......
..|......|......|......|......
..|......|......|......|......
..|......|......|......|......
..|......|......|......|......
..|===...|===...|......|......
..|......|......|......|......
..|......|......|......|......
..|......|......|......|......
..|......|......|......|......
..|......|......|......|......
..|......|......|......|......
..|......|......|......|......
..|......|......|......|......
..|......|......|......|......
..|......|......|......|......
..|......|......|......|......
..|......|......|......|......
..|......|......|......|......
..|......|......|......|......
..|......|......|......|......
..|......|......|......|......
..|......|......|......|......
..|A#4.v3|G-4.v3|......|......
..|......|......|......|......
..|......|......|......|......
..|......|......|......|......
..|......|......|......|......
..|......|......|......|......
..|===...|===...|......|......
..|......|......|......|......
..|......|......|......|......
..|......|......|......|......
..|......|......|......|......
..|......|......|......|......
..|......|......|......|......
..|......|......|......|......
..|......|......|......|......
..|......|......|......|......
..|......|......|......|......
..|......|......|......|......
..|......|......|......|......
..|......|......|......|......
..|......|......|......|......
..|......|......|......|......
..|......|......|......|......
..|......|......|......|......
..|A-4.v3|G-4.v3|......|......
..|......|......|......|......
..|......|......|......|......
..|......|......|......|......
..|......|......|......|......
..|......|......|......|......
..|A#4.v3|G-4.v3|......|......
..|......|......|......|......
..|......|......|......|......
..|......|......|......|......
..|......|......|......|......
..|......|......|......|......
..|C-4.v3|C-3.v3|......|......
..|......|......|......|......
..|......|......|......|......
..|......|......|......|......
..|......|......|......|......
..|......|......|......|......
..|B-3.v3|B-2.v2|......|......
..|......|......|......|......
..|......|......|......|......
..|......|......|......|......
..|......|......|......|......
..|......|......|......|......
..|C-4.v3|C-3.v3|......|......
..|......|......|......|......
..|......|......|......|......
..|......|......|......|......
..|......|......|......|......
..|......|......|......|......
..|===...|===...|......|......
..|......|......|......|......
..|......|......|......|......
..|......|......|......|......
..|......|......|......|......
..|......|......|......|......
..|......|......|......|......
..|......|......|......|......
..|......|......|......|......
..|......|......|......|......
..|......|......|......|......
..|......|......|......|......
..|......|......|......|......
..|......|......|......|......
..|......|......|......|......
..|......|......|......|......
..|......|......|......|......
..|......|......|......|......
..|A-4.v3|G-4.v3|......|......
..|......|......|......|......
..|......|......|......|......
..|......|......|......|......
..|......|......|......|......
..|......|......|......|......
..|===...|===...|......|......
..|......|......|......|......
..|......|......|......|......
..|......|......|......|......
..|......|......|......|......
..|......|......|......|......
..|......|......|......|......
..|......|......|......|......
..|......|......|......|......
..|......|......|......|......
..|......|......|......|......
..|......|......|......|......
..|......|......|......|......
..|......|......|......|......
..|......|......|......|......
..|......|......|......|......
..|......|......|......|......
..|......|......|......|......
..|A-4.v3|G-4.v3|......|......
..|......|......|......|......
..|......|......|......|......
..|......|......|......|......
..|......|......|......|......
..|......|......|......|......
..|===...|===...|......|......
..|......|......|......|......
..|......|......|......|......
..|......|......|......|......
..|......|......|......|......
..|......|......|......|......
..|......|......|......|......
..|......|......|......|......
..|......|......|......|......
..|......|......|......|......
..|......|......|......|......
..|......|......|......|......
..|......|......|......|......
..|......|......|......|......
..|......|......|......|......
..|......|......|......|......
..|......|......|......|......
..|......|......|......|......
..|A-4.v3|G-4.v3|......|......
..|......|......|......|......
..|......|......|......|......
..|......|......|......|......
..|......|......|......|......
..|......|......|......|......
..|===...|===...|......|......
..|......|......|......|......
..|......|......|......|......
..|......|......|......|......
..|......|......|......|......
..|......|......|......|......
..|A-4.v3|G-4.v3|......|......
..|......|......|......|......
..|......|......|......|......
..|......|......|......|......
..|......|......|......|......
..|......|......|......|......
..|===...|===...|......|......
..|......|......|......|......
..|......|......|......|......
..|......|......|......|......
..|......|......|......|......
..|......|......|......|......
..|......|......|......|......
..|......|......|......|......
..|......|......|......|......
..|......|......|......|......
..|......|......|......|......
..|......|......|......|......
..|......|......|......|......
..|......|......|......|......
..|......|......|......|......
..|......|......|......|......
..|......|......|......|......
..|......|......|......|......
..|......|......|......|......
..|......|......|......|......
..|......|......|......|......
..|......|......|......|......
..|......|......|......|......
..|......|......|......|......
..|......|......|......|......
..|......|......|......|......
..|......|......|......|......
..|......|......|......|......
..|......|......|......|......
..|......|......|......|......
..|A-4.v3|G-4.v3|......|......
..|......|......|......|......
..|......|......|......|......
..|......|......|......|......
..|......|......|......|......
..|......|......|......|......
..|===...|===...|......|......
..|......|......|......|......
..|......|......|......|......
..|......|......|......|......
..|......|......|......|......
..|......|......|......|......
..|......|......|......|......
..|......|......|......|......
..|......|......|......|......
..|......|......|......|......
..|......|......|......|......
..|......|......|......|......
..|......|......|......|......
..|......|......|......|......
..|......|......|......|......
..|......|......|......|......
..|......|......|......|......
..|......|......|......|......
..|A-4.v3|G-4.v3|......|......
..|......|......|......|......
..|......|......|......|......
..|......|......|......|......
..|......|......|......|......
..|......|......|......|......
..|===...|===...|......|......
..|......|......|......|......
..|......|......|......|......
..|......|......|......|......
..|......|......|......|......
..|......|......|......|......
..|......|......|......|......
..|......|......|......|......
..|......|......|......|......
..|......|......|......|......
..|......|......|......|......
..|......|......|......|......
..|......|......|......|......
..|......|......|......|......
..|......|......|......|......
..|......|......|......|......
..|......|......|......|......
..|......|......|......|......
..|A-4.v3|E-4.v3|......|......
..|......|......|......|......
..|......|......|......|......
..|......|......|......|......
..|......|......|......|......
..|......|......|......|......
..|===...|===...|......|......
..|......|......|......|......
..|......|......|......|......
..|......|......|......|......
..|......|......|......|......
..|......|......|......|......
..|......|......|......|......
..|......|......|......|......
..|......|......|......|......
..|......|......|......|......
..|......|......|......|......
..|......|......|......|......
..|......|......|......|......
..|......|......|......|......
..|......|......|......|......
..|......|......|......|......
..|......|......|......|......
..|......|......|......|......
..|......|......|......|......
..|......|......|......|......
..|......|......|......|......
..|......|......|......|......
..|......|......|......|......
..|......|......|......|......
..|......|......|......|......
..|......|......|......|......
..|......|......|......|......
..|......|......|......|......
..|......|......|......|......
..|......|......|......|......
..|......|......|......|......
..|......|......|......|......
..|......|......|......|......
..|......|......|......|......
..|......|......|......|......
..|......|......|......|......
..|......|......|......|......
..|......|......|......|......
..|......|......|......|......
..|......|......|......|......
..|......|......|......|......
..|......|......|......|......
..|C-5.v3|A-4.v3|......|......
..|......|......|......|......
..|......|......|......|......
..|......|......|......|......
..|......|......|......|......
..|......|......|......|......
..|===...|===...|......|......
..|......|......|......|......
..|......|......|......|......
..|......|......|......|......
..|......|......|......|......
..|......|......|......|......
..|......|......|......|......
..|......|......|......|......
..|......|......|......|......
..|......|......|......|......
..|......|......|......|......
..|......|......|......|......
..|......|......|......|......
..|......|......|......|......
..|......|......|......|......
..|......|......|......|......
..|......|......|......|......
..|......|......|......|......
..|C-5.v3|A-4.v3|......|......
..|......|......|......|......
..|......|......|......|......
..|......|......|......|......
..|......|......|......|......
..|......|......|......|......
..|===...|===...|......|......
..|......|......|......|......
..|......|......|......|......
..|......|......|......|......
..|......|......|......|......
..|......|......|......|......
..|......|......|......|......
..|......|......|......|......
..|......|......|......|......
..|......|......|......|......
..|......|......|......|......
..|......|......|......|......
..|......|......|......|......
..|......|......|......|......
..|......|......|......|......
..|......|......|......|......
..|......|......|......|......
..|......|......|......|......
..|C-5.v3|A-4.v3|......|......
..|......|......|......|......
..|......|......|......|......
..|......|......|......|......
..|......|......|......|......
..|......|......|......|......
..|===...|===...|......|......
..|......|......|......|......
..|......|......|......|......
..|......|......|......|......
..|......|......|......|......
..|......|......|......|......
..|B-4.v3|G#4.v3|......|......
..|......|......|......|......
..|......|......|......|......
..|......|......|......|......
..|......|......|......|......
..|......|......|......|......
..|===...|===...|......|......
..|......|......|......|......
..|......|......|......|......
..|......|......|......|......
..|......|......|......|......
..|......|......|......|......
..|......|......|......|......
..|......|......|......|......
..|......|......|......|......
..|......|......|......|......
..|......|......|......|......
..|......|......|......|......
..|......|......|......|......
..|......|......|......|......
..|......|......|......|......
..|......|......|......|......
..|......|......|......|......
..|......|......|......|......
..|......|......|......|......
..|......|......|......|......
..|......|......|......|......
..|......|......|......|......
..|......|......|......|......
..|......|......|......|......
..|......|......|......|......
..|......|......|......|......
..|......|......|......|......
..|......|......|......|......
..|......|......|......|......
..|......|......|......|......
..|A#4.v3|G-4.v3|......|......
..|......|......|......|......
..|......|......|......|......
..|......|......|......|......
..|......|......|......|......
..|......|......|......|......
..|===...|===...|......|......
..|......|......|......|......
..|......|......|......|......
..|......|......|......|......
..|......|......|......|......
..|......|......|......|......
..|......|......|......|......
..|......|......|......|......
..|......|......|......|......
..|......|......|......|......
..|......|......|......|......
..|......|......|......|......
..|......|......|......|......
..|......|......|......|......
..|......|......|......|......
..|......|......|......|......
..|......|......|......|......
..|......|......|......|......
..|A#4.v3|G-4.v3|......|......
..|......|......|......|......
..|......|......|......|......
..|......|......|......|......
..|......|......|......|......
..|......|......|......|......
..|===...|===...|......|......
..|......|......|......|......
..|......|......|......|......
..|......|......|......|......
..|......|......|......|......
..|......|......|......|......
..|......|......|......|......
..|......|......|......|......
..|......|......|......|......
..|......|......|......|......
..|......|......|......|......
..|......|......|......|......
..|......|......|......|......
..|......|......|......|......
..|......|......|......|......
..|......|......|......|......
..|......|......|......|......
..|......|......|......|......
..|A-4.v3|G-4.v3|......|......
..|......|......|......|......
..|......|......|......|......
..|......|......|......|......
..|......|......|......|......
..|......|......|......|......
..|A#4.v3|G-4.v3|......|......
..|......|......|......|......
..|......|......|......|......
..|......|......|......|......
..|......|......|......|......
..|......|......|......|......
..|C-4.v3|C-3.v3|......|......
..|......|......|......|......
..|......|......|......|......
..|......|......|......|......
..|......|......|......|......
..|......|......|......|......
..|B-3.v3|B-2.v2|......|......
..|......|......|......|......
..|......|......|......|......
..|......|......|......|......
..|......|......|......|......
..|......|......|......|......
..|C-4.v3|C-3.v3|......|......
..|......|......|......|......
..|......|......|......|......
..|......|......|......|......
..|......|......|......|......
..|......|......|......|......
..|===...|===...|......|......
..|......|......|......|......
..|......|......|......|......
..|......|......|......|......
..|......|......|......|......
..|......|......|......|......
..|......|......|......|......
..|......|......|......|......
..|......|......|......|......
..|......|......|......|......
..|......|......|......|......
..|......|......|......|......
..|......|......|......|......
..|......|......|......|......
..|......|......|......|......
..|......|......|......|......
..|......|......|......|......
..|......|......|......|......
..|A-4.v3|G-4.v3|......|......
..|......|......|......|......
..|......|......|......|......
..|......|......|......|......
..|......|......|......|......
..|......|......|......|......
..|===...|===...|......|......
..|......|......|......|......
..|......|......|......|......
..|......|......|......|......
..|......|......|......|......
..|......|......|......|......
..|......|......|......|......
..|......|......|......|......
..|......|......|......|......
..|......|......|......|......
..|......|......|......|......
..|......|......|......|......
..|......|......|......|......
..|......|......|......|......
..|......|......|......|......
..|......|......|......|......
..|......|......|......|......
..|......|......|......|......
..|A-4.v3|G-4.v3|......|......
..|......|......|......|......
..|......|......|......|......
..|......|......|......|......
..|......|......|......|......
..|......|......|......|......
..|===...|===...|......|......
..|......|......|......|......
..|......|......|......|......
..|......|......|......|......
..|......|......|......|......
..|......|......|......|......
..|......|......|......|......
..|......|......|......|......
..|......|......|......|......
..|......|......|......|......
..|......|......|......|......
..|......|......|......|......
..|......|......|......|......
..|......|......|......|......
..|......|......|......|......
..|......|......|......|......
..|......|......|......|......
..|......|......|......|......
..|A-4.v3|G-4.v3|......|......
..|......|......|......|......
..|......|......|......|......
..|......|......|......|......
..|......|......|......|......
..|......|......|......|......
..|===...|===...|......|......
..|......|......|......|......
..|......|......|......|......
..|......|......|......|......
..|......|......|......|......
..|......|......|......|......
..|A-4.v3|G-4.v3|......|......
..|......|......|......|......
..|......|......|......|......
..|......|......|......|......
..|......|......|......|......
..|......|......|......|......
..|===...|===...|......|......
..|......|......|......|......
..|......|......|......|......
..|......|......|......|......
..|......|......|......|......
..|......|......|......|......
..|......|......|......|......
..|......|......|......|......
..|......|......|......|......
..|......|......|......|......
..|......|......|......|......
..|......|......|......|......
..|......|......|......|......
..|......|......|......|......
..|......|......|......|......
..|......|......|......|......
..|......|......|......|......
..|......|......|......|......
..|......|......|......|......
..|......|......|......|......
..|......|......|......|......
..|......|......|......|......
..|......|......|......|......
..|......|......|......|......
..|......|......|......|......
..|......|......|......|......
..|......|......|......|......
..|......|......|......|......
..|......|......|......|......
..|......|......|......|......
..|A-4.v3|E-4.v3|......|......
..|......|......|......|......
..|......|......|......|......
..|......|......|......|......
..|......|......|......|......
..|......|......|......|......
..|===...|===...|......|......
..|......|......|......|......
..|......|......|......|......
..|......|......|......|......
..|......|......|......|......
..|......|......|......|......
..|......|......|......|......
..|......|......|......|......
..|......|......|......|......
..|......|......|......|......
..|......|......|......|......
..|......|......|......|......
..|......|......|......|......
..|......|......|......|......
..|......|......|......|......
..|......|......|......|......
..|......|......|......|......
..|......|......|......|......
..|A-4.v3|E-4.v3|......|......
..|......|......|......|......
..|......|......|......|......
..|......|......|......|......
..|......|......|......|......
..|......|......|......|......
..|===...|===...|......|......
..|......|......|......|......
..|......|......|......|......
..|......|......|......|......
..|......|......|......|......
..|......|......|......|......
..|A-5.v3|A-4.v3|......|......
..|......|......|......|......
..|......|......|......|......
..|......|......|......|......
..|......|......|......|......
..|......|......|......|......
..|A-4.v3|A-3.v3|......|......
..|......|......|......|......
..|......|......|......|......
..|......|......|......|......
..|......|......|......|......
..|......|......|......|......
..|C#4.v3|===...|......|......
..|......|......|......|......
..|......|......|......|......
..|......|......|......|......
..|......|......|......|......
..|......|......|......|......
..|E-4.v3|A-3.v3|......|......
..|......|......|......|......
..|......|......|......|......
..|......|......|......|......
..|......|......|......|......
..|......|......|......|......
..|A-3.v3|A-2.v3|......|......
..|......|......|......|......
..|......|......|......|......
..|......|......|......|......
..|......|......|......|......
..|......|......|......|......
..|......|......|......|......
..|......|......|......|......
..|......|......|......|......
..|......|......|......|......
..|......|......|......|......
..|......|......|......|......
..|......|......|......|......
..|......|......|......|......
..|......|......|......|......
..|......|......|......|......
..|......|......|......|......
..|......|......|......|......
..|......|......|......|......
..|......|......|......|......
..|......|......|......|......
..|......|......|......|......
..|......|......|......|......
..|......|......|......|......
..|===...|===...|......|......
#halt
#halt
