#compressed
#unkc
#track 2
#unk6 10
#unk6 7
#inst 4
#volume 32
#pan 80
..|......|......
..|......|......
..|......|......
..|......|......
..|......|......
..|......|......
..|......|......
..|......|......
..|......|......
..|......|......
..|......|......
..|......|......
..|A-4.v3|......
..|......|......
..|......|......
..|......|......
..|......|......
..|......|......
..|A-4.v3|......
..|......|......
..|......|......
..|......|......
..|......|......
..|......|......
..|D-5.v3|......
..|......|......
..|......|......
..|......|......
..|......|......
..|......|......
..|D-5.v3|......
..|......|......
..|......|......
..|......|......
..|......|......
..|......|......
..|A-5.v3|......
..|......|......
..|......|......
..|......|......
..|......|......
..|......|......
..|A-5.v3|......
..|......|......
..|......|......
..|......|......
..|......|......
..|......|......
..|A-5.v3|......
..|......|......
..|......|......
..|......|......
..|......|......
..|......|......
..|A-5.v3|......
..|......|......
..|......|......
..|......|......
..|......|......
..|......|......
..|A-4.v3|......
..|......|......
..|......|......
..|......|......
..|......|......
..|......|......
..|A-4.v3|......
..|......|......
..|......|......
..|......|......
..|......|......
..|......|......
..|D-5.v3|......
..|......|......
..|......|......
..|......|......
..|......|......
..|......|......
..|D-5.v3|......
..|......|......
..|......|......
..|......|......
..|......|......
..|......|......
..|A-5.v3|......
..|......|......
..|......|......
..|......|......
..|......|......
..|......|......
..|A-5.v3|......
..|......|......
..|......|......
..|......|......
..|......|......
..|......|......
..|G#5.v3|......
..|......|......
..|......|......
..|......|......
..|......|......
..|......|......
..|G#5.v3|......
..|......|......
..|......|......
..|......|......
..|......|......
..|......|......
..|F#5.v3|......
..|......|......
..|......|......
..|......|......
..|......|......
..|......|......
..|F#5.v3|......
..|......|......
..|......|......
..|......|......
..|......|......
..|......|......
..|E-5.v3|......
..|......|......
..|......|......
..|......|......
..|......|......
..|......|......
..|E-5.v3|......
..|......|......
..|......|......
..|......|......
..|......|......
..|......|......
..|B-4.v3|......
..|......|......
..|......|......
..|......|......
..|......|......
..|......|......
..|B-4.v3|......
..|......|......
..|......|......
..|......|......
..|......|......
..|......|......
..|G#4.v3|......
..|......|......
..|......|......
..|......|......
..|......|......
..|......|......
..|G#4.v3|......
..|......|......
..|......|......
..|......|......
..|......|......
..|......|......
..|F#4.v3|......
..|......|......
..|......|......
..|......|......
..|......|......
..|......|......
..|F#4.v3|......
..|......|......
..|......|......
..|......|......
..|......|......
..|......|......
..|E-4.v3|......
..|......|......
..|......|......
..|......|......
..|......|......
..|......|......
..|E-4.v3|......
..|......|......
..|......|......
..|......|......
..|......|......
..|......|......
..|B-3.v3|......
..|......|......
..|......|......
..|......|......
..|......|......
..|......|......
..|B-3.v3|......
..|......|......
..|......|......
..|......|......
..|......|......
..|......|......
..|===...|......
..|......|......
..|......|......
..|......|......
..|......|......
..|......|......
..|......|......
..|......|......
..|......|......
..|......|......
..|......|......
..|......|......
..|D-5.v3|......
..|......|......
..|......|......
..|......|......
..|......|......
..|......|......
..|D-5.v3|......
..|......|......
..|......|......
..|......|......
..|......|......
..|......|......
..|G-5.v3|......
..|......|......
..|......|......
..|......|......
..|......|......
..|......|......
..|G-5.v3|......
..|......|......
..|......|......
..|......|......
..|......|......
..|......|......
..|D-6.v3|......
..|......|......
..|......|......
..|......|......
..|......|......
..|......|......
..|D-6.v3|......
..|......|......
..|......|......
..|......|......
..|......|......
..|......|......
..|D-6.v3|......
..|......|......
..|......|......
..|......|......
..|......|......
..|......|......
..|D-6.v3|......
..|......|......
..|......|......
..|......|......
..|......|......
..|......|......
..|D-5.v3|......
..|......|......
..|......|......
..|......|......
..|......|......
..|......|......
..|D-5.v3|......
..|......|......
..|......|......
..|......|......
..|......|......
..|......|......
..|G-5.v3|......
..|......|......
..|......|......
..|......|......
..|......|......
..|......|......
..|G-5.v3|......
..|......|......
..|......|......
..|......|......
..|......|......
..|......|......
..|D-6.v3|......
..|......|......
..|......|......
..|......|......
..|......|......
..|......|......
..|D-6.v3|......
..|......|......
..|......|......
..|......|......
..|......|......
..|......|......
..|C#6.v3|......
..|......|......
..|......|......
..|......|......
..|......|......
..|......|......
..|C#6.v3|......
..|......|......
..|......|......
..|......|......
..|......|......
..|......|......
..|B-5.v3|......
..|......|......
..|......|......
..|......|......
..|......|......
..|......|......
..|B-5.v3|......
..|......|......
..|......|......
..|......|......
..|......|......
..|......|......
..|A-5.v3|......
..|......|......
..|......|......
..|......|......
..|......|......
..|......|......
..|A-5.v3|......
..|......|......
..|......|......
..|......|......
..|......|......
..|......|......
..|G-5.v3|......
..|......|......
..|......|......
..|......|......
..|......|......
..|......|......
..|G-5.v3|......
..|......|......
..|......|......
..|......|......
..|......|......
..|......|......
..|F#5.v3|......
..|......|......
..|......|......
..|......|......
..|......|......
..|......|......
..|F#5.v3|......
..|......|......
..|......|......
..|......|......
..|......|......
..|......|......
..|E-5.v3|......
..|......|......
..|......|......
..|......|......
..|......|......
..|......|......
..|E-5.v3|......
..|......|......
..|......|......
..|......|......
..|......|......
..|......|......
..|D-5.v3|......
..|......|......
..|......|......
..|......|......
..|......|......
..|......|......
..|D-5.v3|......
..|......|......
..|......|......
..|......|......
..|......|......
..|......|......
..|C#5.v3|......
..|......|......
..|......|......
..|......|......
..|......|......
..|......|......
..|C#5.v3|......
..|......|......
..|......|......
..|......|......
..|......|......
..|......|......
..|===...|......
#join
#inst 4
..|......|......
..|......|......
..|......|......
..|......|......
..|......|......
..|......|......
..|......|......
..|......|......
..|......|......
..|......|......
..|......|......
..|......|......
..|A-4.v3|......
..|......|......
..|......|......
..|......|......
..|......|......
..|......|......
..|A-4.v3|......
..|......|......
..|......|......
..|......|......
..|......|......
..|......|......
..|D-5.v3|......
..|......|......
..|......|......
..|......|......
..|......|......
..|......|......
..|D-5.v3|......
..|......|......
..|......|......
..|......|......
..|......|......
..|......|......
..|A-5.v3|......
..|......|......
..|......|......
..|......|......
..|......|......
..|......|......
..|A-5.v3|......
..|......|......
..|......|......
..|......|......
..|......|......
..|......|......
..|A-5.v3|......
..|......|......
..|......|......
..|......|......
..|......|......
..|......|......
..|A-5.v3|......
..|......|......
..|......|......
..|......|......
..|......|......
..|......|......
..|A-4.v3|......
..|......|......
..|......|......
..|......|......
..|......|......
..|......|......
..|A-4.v3|......
..|......|......
..|......|......
..|......|......
..|......|......
..|......|......
..|D-5.v3|......
..|......|......
..|......|......
..|......|......
..|......|......
..|......|......
..|D-5.v3|......
..|......|......
..|......|......
..|......|......
..|......|......
..|......|......
..|A-5.v3|......
..|......|......
..|......|......
..|......|......
..|......|......
..|......|......
..|A-5.v3|......
..|......|......
..|......|......
..|......|......
..|......|......
..|......|......
..|G#5.v3|......
..|......|......
..|......|......
..|......|......
..|......|......
..|......|......
..|G#5.v3|......
..|......|......
..|......|......
..|......|......
..|......|......
..|......|......
..|F#5.v3|......
..|......|......
..|......|......
..|......|......
..|......|......
..|......|......
..|F#5.v3|......
..|......|......
..|......|......
..|......|......
..|......|......
..|......|......
..|E-5.v3|......
..|......|......
..|......|......
..|......|......
..|......|......
..|......|......
..|E-5.v3|......
..|......|......
..|......|......
..|......|......
..|......|......
..|......|......
..|B-4.v3|......
..|......|......
..|......|......
..|......|......
..|......|......
..|......|......
..|B-4.v3|......
..|......|......
..|......|......
..|......|......
..|......|......
..|......|......
..|G#4.v3|......
..|......|......
..|......|......
..|......|......
..|......|......
..|......|......
..|G#4.v3|......
..|......|......
..|......|......
..|......|......
..|......|......
..|......|......
..|F#4.v3|......
..|......|......
..|......|......
..|......|......
..|......|......
..|......|......
..|F#4.v3|......
..|......|......
..|......|......
..|......|......
..|......|......
..|......|......
..|E-4.v3|......
..|......|......
..|......|......
..|......|......
..|......|......
..|......|......
..|E-4.v3|......
..|......|......
..|......|......
..|......|......
..|......|......
..|......|......
..|B-3.v3|......
..|......|......
..|......|......
..|......|......
..|......|......
..|......|......
..|B-3.v3|......
..|......|......
..|......|......
..|......|......
..|......|......
..|......|......
..|===...|......
..|......|......
..|......|......
..|......|......
..|......|......
..|......|......
..|......|......
..|......|......
..|......|......
..|......|......
..|......|......
..|......|......
..|D-5.v3|......
..|......|......
..|......|......
..|......|......
..|......|......
..|......|......
..|D-5.v3|......
..|......|......
..|......|......
..|......|......
..|......|......
..|......|......
..|G-5.v3|......
..|......|......
..|......|......
..|......|......
..|......|......
..|......|......
..|G-5.v3|......
..|......|......
..|......|......
..|......|......
..|......|......
..|......|......
..|D-6.v3|......
..|......|......
..|......|......
..|......|......
..|......|......
..|......|......
..|D-6.v3|......
..|......|......
..|......|......
..|......|......
..|......|......
..|......|......
..|D-6.v3|......
..|......|......
..|......|......
..|......|......
..|......|......
..|......|......
..|D-6.v3|......
..|......|......
..|......|......
..|......|......
..|......|......
..|......|......
..|D-5.v3|......
..|......|......
..|......|......
..|......|......
..|......|......
..|......|......
..|D-5.v3|......
..|......|......
..|......|......
..|......|......
..|......|......
..|......|......
..|G-5.v3|......
..|......|......
..|......|......
..|......|......
..|......|......
..|......|......
..|G-5.v3|......
..|......|......
..|......|......
..|......|......
..|......|......
..|......|......
..|D-6.v3|......
..|......|......
..|......|......
..|......|......
..|......|......
..|......|......
..|D-6.v3|......
..|......|......
..|......|......
..|......|......
..|......|......
..|......|......
..|C#6.v3|......
..|......|......
..|......|......
..|......|......
..|......|......
..|......|......
..|C#6.v3|......
..|......|......
..|......|......
..|......|......
..|......|......
..|......|......
..|B-5.v3|......
..|......|......
..|......|......
..|......|......
..|......|......
..|......|......
..|B-5.v3|......
..|......|......
..|......|......
..|......|......
..|......|......
..|......|......
..|A-5.v3|......
..|......|......
..|......|......
..|......|......
..|......|......
..|......|......
..|A-5.v3|......
..|......|......
..|......|......
..|......|......
..|......|......
..|......|......
..|G-5.v3|......
..|......|......
..|......|......
..|......|......
..|......|......
..|......|......
..|G-5.v3|......
..|......|......
..|......|......
..|......|......
..|......|......
..|......|......
..|F#5.v3|......
..|......|......
..|......|......
..|......|......
..|......|......
..|......|......
..|F#5.v3|......
..|......|......
..|......|......
..|......|......
..|......|......
..|......|......
..|E-5.v3|......
..|......|......
..|......|......
..|......|......
..|......|......
..|......|......
..|E-5.v3|......
..|......|......
..|......|......
..|......|......
..|......|......
..|......|......
..|D-5.v3|......
..|......|......
..|......|......
..|......|......
..|......|......
..|......|......
..|D-5.v3|......
..|......|......
..|......|......
..|......|......
..|......|......
..|......|......
..|C#5.v3|......
..|......|......
..|......|......
..|......|......
..|......|......
..|......|......
..|C#5.v3|......
..|......|......
..|......|......
..|......|......
..|......|......
..|......|......
..|===...|......
#join
4E|......|......
#join
#unk6 7
..|F#4.v3|......
..|......|......
..|......|......
..|......|......
..|......|......
..|......|......
..|===...|F-4.v3
..|......|......
..|......|......
..|......|......
..|......|......
..|......|......
..|......|F#4.v2
..|......|......
..|......|......
..|......|......
..|......|......
..|......|......
..|......|D-4.v3
..|......|......
..|......|......
..|......|......
..|......|......
..|......|......
..|......|F#4.v3
..|......|......
..|......|......
..|......|......
..|......|......
..|......|......
..|......|F-4.v3
..|......|......
..|......|......
..|......|......
..|......|......
..|......|......
..|......|F#4.v3
..|......|......
..|......|......
..|......|......
..|......|......
..|......|......
..|......|D-4.v3
..|......|......
..|......|......
..|......|......
..|......|......
..|......|......
..|......|A-4.v3
..|......|......
..|......|......
..|......|......
..|......|......
..|......|......
..|......|G#4.v3
..|......|......
..|......|......
..|......|......
..|......|......
..|......|......
..|......|A-4.v3
..|......|......
..|......|......
..|......|......
..|......|......
..|......|......
..|......|F#4.v3
..|......|......
..|......|......
..|......|......
..|......|......
..|......|......
..|......|A-4.v3
..|......|......
..|......|......
..|......|......
..|......|......
..|......|......
..|......|G#4.v3
..|......|......
..|......|......
..|......|......
..|......|......
..|......|......
..|......|A-4.v3
..|......|......
..|......|......
..|......|......
..|......|......
..|......|......
..|......|F#4.v2
..|......|......
..|......|......
..|......|......
..|......|......
..|......|......
..|......|B-4.v3
..|......|......
..|......|......
..|......|......
..|......|......
..|......|......
..|......|A#4.v3
..|......|......
..|......|......
..|......|......
..|......|......
..|......|......
..|......|B-4.v3
..|......|......
..|......|......
..|......|......
..|......|......
..|......|......
..|......|G#4.v3
..|......|......
..|......|......
..|......|......
..|......|......
..|......|......
..|......|E-4.v3
..|......|......
..|......|......
..|......|......
..|......|......
..|......|......
..|......|F#4.v3
..|......|......
..|......|......
..|......|......
..|......|......
..|......|......
..|......|G#4.v3
..|......|......
..|......|......
..|......|......
..|......|......
..|......|......
..|......|B-4.v3
..|......|......
..|......|......
..|......|......
..|......|......
..|......|......
..|......|E-5.v3
..|......|......
..|......|......
..|......|......
..|......|......
..|......|......
..|......|D#5.v3
..|......|......
..|......|......
..|......|......
..|......|......
..|......|......
..|......|C#5.v3
..|......|......
..|......|......
..|......|......
..|......|......
..|......|......
..|......|B-4.v3
..|......|......
..|......|......
..|......|......
..|......|......
..|......|......
..|......|A-4.v3
..|......|......
..|......|......
..|......|......
..|......|......
..|......|......
..|......|G-4.v3
..|......|......
..|......|......
..|......|......
..|......|......
..|......|......
..|......|F#4.v3
..|......|......
..|......|......
..|......|......
..|......|......
..|......|......
..|......|E-4.v3
..|......|......
..|......|......
..|......|......
..|......|......
..|......|......
..|......|B-4.v3
..|......|......
..|......|......
..|......|......
..|......|......
..|......|......
..|......|A#4.v3
..|......|......
..|......|......
..|......|......
..|......|......
..|......|......
..|......|B-4.v3
..|......|......
..|......|......
..|......|......
..|......|......
..|......|......
..|......|G#4.v3
..|......|......
..|......|......
..|......|......
..|......|......
..|......|......
..|......|D-5.v3
..|......|......
..|......|......
..|......|......
..|......|......
..|......|......
..|......|C#5.v3
..|......|......
..|......|......
..|......|......
..|......|......
..|......|......
..|......|D-5.v3
..|......|......
..|......|......
..|......|......
..|......|......
..|......|......
..|......|B-4.v3
..|......|......
..|......|......
..|......|......
..|......|......
..|......|......
..|......|G-5.v3
..|......|......
..|......|......
..|......|......
..|......|......
..|......|......
..|......|F#5.v3
..|......|......
..|......|......
..|......|......
..|......|......
..|......|......
..|......|G-5.v3
..|......|......
..|......|......
..|......|......
..|......|......
..|......|......
..|......|B-4.v3
..|......|......
..|......|......
..|......|......
..|......|......
..|......|......
..|......|G-5.v3
..|......|......
..|......|......
..|......|......
..|......|......
..|......|......
..|......|A#5.v3
..|......|......
..|......|......
..|......|......
..|......|......
..|......|......
..|......|B-5.v3
..|......|......
..|......|......
..|......|......
..|......|......
..|......|......
..|......|D-6.v3
..|......|......
..|......|......
..|......|......
..|......|......
..|......|......
..|......|E-6.v3
..|......|......
..|......|......
..|......|......
..|......|......
..|......|......
..|......|D-6.v3
..|......|......
..|......|......
..|......|......
..|......|......
..|......|......
..|......|C#6.v3
..|......|......
..|......|......
..|......|......
..|......|......
..|......|......
..|......|E-6.v3
..|......|......
..|......|......
..|......|......
..|......|......
..|......|......
..|......|D-6.v3
..|......|......
..|......|......
..|......|......
..|......|......
..|......|......
..|......|C#6.v3
..|......|......
..|......|......
..|......|......
..|......|......
..|......|......
..|......|B-5.v3
..|......|......
..|......|......
..|......|......
..|......|......
..|......|......
..|......|D-6.v3
..|......|......
..|......|......
..|......|......
..|......|......
..|......|......
..|......|C#6.v3
..|......|......
..|......|......
..|......|......
..|......|......
..|......|......
..|......|B-5.v3
..|......|......
..|......|......
..|......|......
..|......|......
..|......|......
..|......|A-5.v3
..|......|......
..|......|......
..|......|......
..|......|......
..|......|......
..|......|G-5.v3
..|......|......
..|......|......
..|......|......
..|......|......
..|......|......
..|......|F#5.v3
..|......|......
..|......|......
..|......|......
..|......|......
..|......|......
..|......|E-5.v3
..|......|......
..|......|......
..|......|......
..|......|......
..|......|......
..|......|D-5.v3
..|......|......
..|......|......
..|......|......
..|......|......
..|......|......
..|......|C#5.v3
..|......|......
..|......|......
..|......|......
..|......|......
..|......|......
..|......|F#4.v3
..|......|......
..|......|......
..|......|......
..|......|......
..|......|......
..|......|F-4.v3
..|......|......
..|......|......
..|......|......
..|......|......
..|......|......
..|......|F#4.v2
..|......|......
..|......|......
..|......|......
..|......|......
..|......|......
..|......|D-4.v3
..|......|......
..|......|......
..|......|......
..|......|......
..|......|......
..|......|F#4.v3
..|......|......
..|......|......
..|......|......
..|......|......
..|......|......
..|......|F-4.v3
..|......|......
..|......|......
..|......|......
..|......|......
..|......|......
..|......|F#4.v3
..|......|......
..|......|......
..|......|......
..|......|......
..|......|......
..|......|D-4.v3
..|......|......
..|......|......
..|......|......
..|......|......
..|......|......
..|......|A-4.v3
..|......|......
..|......|......
..|......|......
..|......|......
..|......|......
..|......|G#4.v3
..|......|......
..|......|......
..|......|......
..|......|......
..|......|......
..|......|A-4.v3
..|......|......
..|......|......
..|......|......
..|......|......
..|......|......
..|......|F#4.v3
..|......|......
..|......|......
..|......|......
..|......|......
..|......|......
..|......|A-4.v3
..|......|......
..|......|......
..|......|......
..|......|......
..|......|......
..|......|G#4.v3
..|......|......
..|......|......
..|......|......
..|......|......
..|......|......
..|......|A-4.v3
..|......|......
..|......|......
..|......|......
..|......|......
..|......|......
..|......|F#4.v2
..|......|......
..|......|......
..|......|......
..|......|......
..|......|......
..|......|B-4.v3
..|......|......
..|......|......
..|......|......
..|......|......
..|......|......
..|......|A#4.v3
..|......|......
..|......|......
..|......|......
..|......|......
..|......|......
..|......|B-4.v3
..|......|......
..|......|......
..|......|......
..|......|......
..|......|......
..|......|G#4.v3
..|......|......
..|......|......
..|......|......
..|......|......
..|......|......
..|......|E-4.v3
..|......|......
..|......|......
..|......|......
..|......|......
..|......|......
..|......|F#4.v3
..|......|......
..|......|......
..|......|......
..|......|......
..|......|......
..|......|G#4.v3
..|......|......
..|......|......
..|......|......
..|......|......
..|......|......
..|......|B-4.v3
..|......|......
..|......|......
..|......|......
..|......|......
..|......|......
..|......|E-5.v3
..|......|......
..|......|......
..|......|......
..|......|......
..|......|......
..|......|D#5.v3
..|......|......
..|......|......
..|......|......
..|......|......
..|......|......
..|......|C#5.v3
..|......|......
..|......|......
..|......|......
..|......|......
..|......|......
..|......|B-4.v3
..|......|......
..|......|......
..|......|......
..|......|......
..|......|......
..|......|A#4.v3
..|......|......
..|......|......
..|......|......
..|......|......
..|......|......
..|......|G#4.v3
..|......|......
..|......|......
..|......|......
..|......|......
..|......|......
..|......|F#4.v3
..|......|......
..|......|......
..|......|......
..|......|......
..|......|......
..|......|E-4.v3
..|......|......
..|......|......
..|......|......
..|......|......
..|......|......
..|......|B-4.v3
..|......|......
..|......|......
..|......|......
..|......|......
..|......|......
..|......|A#4.v3
..|......|......
..|......|......
..|......|......
..|......|......
..|......|......
..|......|B-4.v3
..|......|......
..|......|......
..|......|......
..|......|......
..|......|......
..|......|G#4.v3
..|......|......
..|......|......
..|......|......
..|......|......
..|......|......
..|......|D-5.v3
..|......|......
..|......|......
..|......|......
..|......|......
..|......|......
..|......|C#5.v3
..|......|......
..|......|......
..|......|......
..|......|......
..|......|......
..|......|D-5.v3
..|......|......
..|......|......
..|......|......
..|......|......
..|......|......
..|......|B-4.v3
..|......|......
..|......|......
..|......|......
..|......|......
..|......|......
..|......|G-5.v3
..|......|......
..|......|......
..|......|......
..|......|......
..|......|......
..|......|F#5.v3
..|......|......
..|......|......
..|......|......
..|......|......
..|......|......
..|......|G-5.v3
..|......|......
..|......|......
..|......|......
..|......|......
..|......|......
..|......|B-4.v3
..|......|......
..|......|......
..|......|......
..|......|......
..|......|......
..|......|G-5.v3
..|......|......
..|......|......
..|......|......
..|......|......
..|......|......
..|......|A#5.v3
..|......|......
..|......|......
..|......|......
..|......|......
..|......|......
..|......|B-5.v3
..|......|......
..|......|......
..|......|......
..|......|......
..|......|......
..|......|D-6.v3
..|......|......
..|......|......
..|......|......
..|......|......
..|......|......
..|......|E-6.v3
..|......|......
..|......|......
..|......|......
..|......|......
..|......|......
..|......|D-6.v3
..|......|......
..|......|......
..|......|......
..|......|......
..|......|......
..|......|C#6.v3
..|......|......
..|......|......
..|......|......
..|......|......
..|......|......
..|......|E-6.v3
..|......|......
..|......|......
..|......|......
..|......|......
..|......|......
..|......|D-6.v3
..|......|......
..|......|......
..|......|......
..|......|......
..|......|......
..|......|C#6.v3
..|......|......
..|......|......
..|......|......
..|......|......
..|......|......
..|......|B-5.v3
..|......|......
..|......|......
..|......|......
..|......|......
..|......|......
..|......|D-6.v3
..|......|......
..|......|......
..|......|......
..|......|......
..|......|......
..|......|C#6.v3
..|......|......
..|......|......
..|......|......
..|......|......
..|......|......
..|......|B-5.v3
..|......|......
..|......|......
..|......|......
..|......|......
..|......|......
..|......|A-5.v3
..|......|......
..|......|......
..|......|......
..|......|......
..|......|......
..|......|G-5.v3
..|......|......
..|......|......
..|......|......
..|......|......
..|......|......
..|......|F#5.v3
..|......|......
..|......|......
..|......|......
..|......|......
..|......|......
..|......|E-5.v3
..|......|......
..|......|......
..|......|......
..|......|......
..|......|......
..|......|D-5.v3
..|......|......
..|......|......
..|......|......
..|......|......
..|......|......
..|......|C#5.v3
..|......|......
..|......|......
..|......|......
..|......|......
..|......|......
..|......|===...
#halt
#halt
