#compressed
#unkc
#track 7
#inst 3
#unk6 7
..|A-4.v3
#join
4B|......
..|......
..|......
..|......
..|......
..|......
..|......
..|......
..|......
..|......
..|......
..|......
..|F-5.v3
..|......
..|......
..|......
..|......
..|......
..|......
..|......
..|......
..|......
..|......
..|......
..|A-4.v3
..|......
..|......
..|......
..|......
..|......
..|......
..|......
..|......
..|......
..|......
..|......
..|F-5.v3
..|......
..|......
..|......
..|......
..|......
..|......
..|......
..|......
..|......
..|......
..|......
..|A-4.v3
..|......
..|......
..|......
..|......
..|......
..|......
..|......
..|......
..|......
..|......
..|......
..|F-5.v3
..|......
..|......
..|......
..|......
..|......
..|......
..|......
..|......
..|......
..|......
..|......
..|A-4.v3
..|......
..|......
..|......
..|......
..|......
..|......
..|......
..|......
..|......
..|......
..|......
..|F-5.v3
..|......
..|......
..|......
..|......
..|......
..|......
..|......
..|......
..|......
..|......
..|......
..|A-4.v3
..|......
..|......
..|......
..|......
..|......
..|......
..|......
..|......
..|......
..|......
..|......
..|F-5.v3
..|......
..|......
..|......
..|......
..|......
..|......
..|......
..|......
..|......
..|......
..|......
..|A-4.v3
..|......
..|......
..|......
..|......
..|......
..|......
..|......
..|......
..|......
..|......
..|......
..|F-5.v3
..|......
..|......
..|......
..|......
..|......
..|......
..|......
..|......
..|......
..|......
..|......
..|A-4.v3
..|......
..|......
..|......
..|......
..|......
..|......
..|......
..|......
..|......
..|......
..|......
..|F-5.v3
..|......
..|......
..|......
..|......
..|......
..|......
..|......
..|......
..|......
..|......
..|......
..|A-4.v3
..|......
..|......
..|......
..|......
..|......
..|......
..|......
..|......
..|......
..|......
..|......
..|F-5.v3
..|......
..|......
..|......
..|......
..|......
..|......
..|......
..|......
..|......
..|......
..|......
..|A-4.v3
..|......
..|......
..|......
..|......
..|......
..|......
..|......
..|......
..|......
..|......
..|......
..|F-5.v3
..|......
..|......
..|......
..|......
..|......
..|......
..|......
..|......
..|......
..|......
..|......
..|A-4.v3
..|......
..|......
..|......
..|......
..|......
..|......
..|......
..|......
..|......
..|......
..|......
..|F-5.v3
..|......
..|......
..|......
..|......
..|......
..|......
..|......
..|......
..|......
..|......
..|......
..|A-4.v3
..|......
..|......
..|......
..|......
..|......
..|......
..|......
..|......
..|......
..|......
..|......
..|F-5.v3
..|......
..|......
..|......
..|......
..|......
..|......
..|......
..|......
..|......
..|......
..|......
..|A-4.v3
..|......
..|......
..|......
..|......
..|......
..|......
..|......
..|......
..|......
..|......
..|......
..|F-5.v3
..|......
..|......
..|......
..|......
..|......
..|......
..|......
..|......
..|......
..|......
..|......
..|A-4.v3
..|......
..|......
..|......
..|......
..|......
..|......
..|......
..|......
..|......
..|......
..|......
..|F-5.v3
..|......
..|......
..|......
..|......
..|......
..|......
..|......
..|......
..|......
..|......
..|......
..|A-4.v3
..|......
..|......
..|......
..|......
..|......
..|......
..|......
..|......
..|......
..|......
..|......
..|F-5.v3
..|......
..|......
..|......
..|......
..|......
..|......
..|......
..|......
..|......
..|......
..|......
..|A-4.v3
..|......
..|......
..|......
..|......
..|......
..|......
..|......
..|......
..|......
..|......
..|......
..|F-5.v3
..|......
..|......
..|......
..|......
..|......
..|......
..|......
..|......
..|......
..|......
..|......
..|F-5.v3
..|......
..|......
..|......
..|......
..|......
..|F-5.v3
..|......
..|......
..|......
..|......
..|......
..|F-5.v3
..|......
..|......
..|......
..|......
..|......
..|F-5.v3
..|......
..|......
..|......
..|......
..|......
..|A-4.v3
..|......
..|......
..|......
..|......
..|......
..|......
..|......
..|......
..|......
..|......
..|......
..|F-5.v3
..|......
..|......
..|......
..|......
..|......
..|......
..|......
..|......
..|......
..|......
..|......
..|A-4.v3
..|......
..|......
..|......
..|......
..|......
..|......
..|......
..|......
..|......
..|......
..|......
..|F-5.v3
..|......
..|......
..|......
..|......
..|......
..|......
..|......
..|......
..|......
..|......
..|......
..|A-4.v3
..|......
..|......
..|......
..|......
..|......
..|......
..|......
..|......
..|......
..|......
..|......
..|F-5.v3
..|......
..|......
..|......
..|......
..|......
..|......
..|......
..|......
..|......
..|......
..|......
..|A-4.v3
..|......
..|......
..|......
..|......
..|......
..|......
..|......
..|......
..|......
..|......
..|......
..|F-5.v3
..|......
..|......
..|......
..|......
..|......
..|......
..|......
..|......
..|......
..|......
..|......
..|A-4.v3
..|......
..|......
..|......
..|......
..|......
..|......
..|......
..|......
..|......
..|......
..|......
..|F-5.v3
..|......
..|......
..|......
..|......
..|......
..|......
..|......
..|......
..|......
..|......
..|......
..|A-4.v3
..|......
..|......
..|......
..|......
..|......
..|......
..|......
..|......
..|......
..|......
..|......
..|F-5.v3
..|......
..|......
..|......
..|......
..|......
..|......
..|......
..|......
..|......
..|......
..|......
..|A-4.v3
..|......
..|......
..|......
..|......
..|......
..|......
..|......
..|......
..|......
..|......
..|......
..|F-5.v3
..|......
..|......
..|......
..|......
..|......
..|......
..|......
..|......
..|......
..|......
..|......
..|A-4.v3
..|......
..|......
..|......
..|......
..|......
..|......
..|......
..|......
..|......
..|......
..|......
..|F-5.v3
..|......
..|......
..|......
..|......
..|......
..|......
..|......
..|......
..|......
..|......
..|......
..|A-4.v3
..|......
..|......
..|......
..|......
..|......
..|......
..|......
..|......
..|......
..|......
..|......
..|F-5.v3
..|......
..|......
..|......
..|......
..|......
..|......
..|......
..|......
..|......
..|......
..|......
..|A-4.v3
..|......
..|......
..|......
..|......
..|......
..|......
..|......
..|......
..|......
..|......
..|......
..|F-5.v3
..|......
..|......
..|......
..|......
..|......
..|......
..|......
..|......
..|......
..|......
..|......
..|A-4.v3
..|......
..|......
..|......
..|......
..|......
..|......
..|......
..|......
..|......
..|......
..|......
..|F-5.v3
..|......
..|......
..|......
..|......
..|......
..|......
..|......
..|......
..|......
..|......
..|......
..|A-4.v3
..|......
..|......
..|......
..|......
..|......
..|......
..|......
..|......
..|......
..|......
..|......
..|F-5.v3
..|......
..|......
..|......
..|......
..|......
..|......
..|......
..|......
..|......
..|......
..|......
..|A-4.v3
..|......
..|......
..|......
..|......
..|......
..|......
..|......
..|......
..|......
..|......
..|......
..|F-5.v3
..|......
..|......
..|......
..|......
..|......
..|......
..|......
..|......
..|......
..|......
..|......
..|A-4.v3
..|......
..|......
..|......
..|......
..|......
..|......
..|......
..|......
..|......
..|......
..|......
..|F-5.v3
..|......
..|......
..|......
..|......
..|......
..|......
..|......
..|......
..|......
..|......
..|......
..|A-4.v3
..|......
..|......
..|......
..|......
..|......
..|......
..|......
..|......
..|......
..|......
..|......
..|F-5.v3
..|......
..|......
..|......
..|......
..|......
..|......
..|......
..|......
..|......
..|......
..|......
..|F-5.v3
..|......
..|......
..|......
..|......
..|......
..|F-5.v3
..|......
..|......
..|......
..|......
..|......
..|F-5.v3
..|......
..|......
..|......
..|......
..|......
..|F-5.v3
..|......
..|......
..|......
..|......
..|......
..|A-4.v3
..|......
..|......
..|......
..|......
..|......
..|......
..|......
..|......
..|......
..|......
..|......
..|F-5.v3
..|......
..|......
..|......
..|......
..|......
..|......
..|......
..|......
..|......
..|......
..|......
..|A-4.v3
..|......
..|......
..|......
..|......
..|......
..|......
..|......
..|......
..|......
..|......
..|......
..|F-5.v3
..|......
..|......
..|......
..|......
..|......
..|......
..|......
..|......
..|......
..|......
..|......
..|A-4.v3
..|......
..|......
..|......
..|......
..|......
..|......
..|......
..|......
..|......
..|......
..|......
..|F-5.v3
..|......
..|......
..|......
..|......
..|......
..|......
..|......
..|......
..|......
..|......
..|......
..|A-4.v3
..|......
..|......
..|......
..|......
..|......
..|......
..|......
..|......
..|......
..|......
..|......
..|F-5.v3
..|......
..|......
..|......
..|......
..|......
..|......
..|......
..|......
..|......
..|......
..|......
..|A-4.v3
..|......
..|......
..|......
..|......
..|......
..|......
..|......
..|......
..|......
..|......
..|......
..|F-5.v3
..|......
..|......
..|......
..|......
..|......
..|......
..|......
..|......
..|......
..|......
..|......
..|A-4.v3
..|......
..|......
..|......
..|......
..|......
..|......
..|......
..|......
..|......
..|......
..|......
..|F-5.v3
..|......
..|......
..|......
..|......
..|......
..|......
..|......
..|......
..|......
..|......
..|......
..|A-4.v3
..|......
..|......
..|......
..|......
..|......
..|......
..|......
..|......
..|......
..|......
..|......
..|F-5.v3
..|......
..|......
..|......
..|......
..|......
..|......
..|......
..|......
..|......
..|......
..|......
..|A-4.v3
..|......
..|......
..|......
..|......
..|......
..|......
..|......
..|......
..|......
..|......
..|......
..|F-5.v3
..|......
..|......
..|......
..|......
..|......
..|......
..|......
..|......
..|......
..|......
..|......
..|A-4.v3
..|......
..|......
..|......
..|......
..|......
..|......
..|......
..|......
..|......
..|......
..|......
..|F-5.v3
..|......
..|......
..|......
..|......
..|......
..|......
..|......
..|......
..|......
..|......
..|......
..|A-4.v3
..|......
..|......
..|......
..|......
..|......
..|......
..|......
..|......
..|......
..|......
..|......
..|F-5.v3
..|......
..|......
..|......
..|......
..|......
..|......
..|......
..|......
..|......
..|......
..|......
..|A-4.v3
..|......
..|......
..|......
..|......
..|......
..|......
..|......
..|......
..|......
..|......
..|......
..|F-5.v3
..|......
..|......
..|......
..|......
..|......
..|......
..|......
..|......
..|......
..|......
..|......
..|A-4.v3
..|......
..|......
..|......
..|......
..|......
..|......
..|......
..|......
..|......
..|......
..|......
..|F-5.v3
..|......
..|......
..|......
..|......
..|......
..|......
..|......
..|......
..|......
..|......
..|......
..|A-4.v3
..|......
..|......
..|......
..|......
..|......
..|......
..|......
..|......
..|......
..|......
..|......
..|F-5.v3
..|......
..|......
..|......
..|......
..|......
..|......
..|......
..|......
..|......
..|......
..|......
..|A-4.v3
..|......
..|......
..|......
..|......
..|......
..|......
..|......
..|......
..|......
..|......
..|......
..|F-5.v3
..|......
..|......
..|......
..|......
..|......
..|......
..|......
..|......
..|......
..|......
..|......
..|A-4.v3
..|......
..|......
..|......
..|......
..|......
..|......
..|......
..|......
..|......
..|......
..|......
..|F-5.v3
..|......
..|......
..|......
..|......
..|......
..|......
..|......
..|......
..|......
..|......
..|......
..|F-5.v3
..|......
..|......
..|......
..|......
..|......
..|F-5.v3
..|......
..|......
..|......
..|......
..|......
..|F-5.v3
..|......
..|......
..|......
..|......
..|......
..|F-5.v3
..|......
..|......
..|......
..|......
..|......
..|A-4.v3
..|......
..|......
..|......
..|......
..|......
..|......
..|......
..|......
..|......
..|......
..|......
..|F-5.v3
..|......
..|......
..|......
..|......
..|......
..|......
..|......
..|......
..|......
..|......
..|......
..|A-4.v3
..|......
..|......
..|......
..|......
..|......
..|......
..|......
..|......
..|......
..|......
..|......
..|F-5.v3
..|......
..|......
..|......
..|......
..|......
..|......
..|......
..|......
..|......
..|......
..|......
..|A-4.v3
..|......
..|......
..|......
..|......
..|......
..|......
..|......
..|......
..|......
..|......
..|......
..|F-5.v3
..|......
..|......
..|......
..|......
..|......
..|......
..|......
..|......
..|......
..|......
..|......
..|A-4.v3
..|......
..|......
..|......
..|......
..|......
..|......
..|......
..|......
..|......
..|......
..|......
..|F-5.v3
..|......
..|......
..|......
..|......
..|......
..|......
..|......
..|......
..|......
..|......
..|......
..|A-4.v3
..|......
..|......
..|......
..|......
..|......
..|......
..|......
..|......
..|......
..|......
..|......
..|F-5.v3
..|......
..|......
..|......
..|......
..|......
..|......
..|......
..|......
..|......
..|......
..|......
..|A-4.v3
..|......
..|......
..|......
..|......
..|......
..|......
..|......
..|......
..|......
..|......
..|......
..|F-5.v3
..|......
..|......
..|......
..|......
..|......
..|......
..|......
..|......
..|......
..|......
..|......
..|A-4.v3
..|......
..|......
..|......
..|......
..|......
..|......
..|......
..|......
..|......
..|......
..|......
..|F-5.v3
..|......
..|......
..|......
..|......
..|......
..|......
..|......
..|......
..|......
..|......
..|......
..|A-4.v3
..|......
..|......
..|......
..|......
..|......
..|......
..|......
..|......
..|......
..|......
..|......
..|F-5.v3
..|......
..|......
..|......
..|......
..|......
..|......
..|......
..|......
..|......
..|......
..|......
..|A-4.v3
..|......
..|......
..|......
..|......
..|......
..|......
..|......
..|......
..|......
..|......
..|......
..|F-5.v3
..|......
..|......
..|......
..|......
..|......
..|......
..|......
..|......
..|......
..|......
..|......
..|A-4.v3
..|......
..|......
..|......
..|......
..|......
..|......
..|......
..|......
..|......
..|......
..|......
..|F-5.v3
..|......
..|......
..|......
..|......
..|......
..|......
..|......
..|......
..|......
..|......
..|......
..|A-4.v3
..|......
..|......
..|......
..|......
..|......
..|......
..|......
..|......
..|......
..|......
..|......
..|F-5.v3
..|......
..|......
..|......
..|......
..|......
..|......
..|......
..|......
..|......
..|......
..|......
..|A-4.v3
..|......
..|......
..|......
..|......
..|......
..|......
..|......
..|......
..|......
..|......
..|......
..|F-5.v3
..|......
..|......
..|......
..|......
..|......
..|......
..|......
..|......
..|......
..|......
..|......
..|A-4.v3
..|......
..|......
..|......
..|......
..|......
..|......
..|......
..|......
..|......
..|......
..|......
..|F-5.v3
..|......
..|......
..|......
..|......
..|......
..|......
..|......
..|......
..|......
..|......
..|......
..|A-4.v3
..|......
..|......
..|......
..|......
..|......
..|......
..|......
..|......
..|......
..|......
..|......
..|F-5.v3
..|......
..|......
..|......
..|......
..|......
..|......
..|......
..|......
..|......
..|......
..|......
..|A-4.v3
..|......
..|......
..|......
..|......
..|......
..|......
..|......
..|......
..|......
..|......
..|......
..|F-5.v3
..|......
..|......
..|......
..|......
..|......
..|......
..|......
..|......
..|......
..|......
..|......
..|F-5.v3
..|......
..|......
..|......
..|......
..|......
..|F-5.v3
..|......
..|......
..|......
..|......
..|......
..|F-5.v3
..|......
..|......
..|......
..|......
..|......
..|F-5.v3
..|......
..|......
..|......
..|......
..|......
..|===...
#halt
#halt
