#compressed
#unkc
#track 4
#inst 2
#unk6 7
#volume 69
..|D-4.v2|......
..|......|......
..|......|......
..|......|......
..|......|......
..|......|......
..|===...|E-4.v2
..|......|......
..|......|......
..|......|......
..|......|......
..|......|......
..|......|E-4.v2
..|......|......
..|......|......
..|......|......
..|......|......
..|......|......
..|......|E-4.v2
..|......|......
..|......|......
..|......|......
..|......|......
..|......|......
..|......|E-4.v3
..|......|......
..|......|......
..|......|......
..|......|......
..|......|......
..|......|E-4.v2
..|......|......
..|......|......
..|......|......
..|......|......
..|......|......
..|......|E-4.v2
..|......|......
..|......|......
..|......|......
..|......|......
..|......|......
..|......|E-4.v2
..|......|......
..|......|......
..|......|......
..|......|......
..|......|......
..|......|E-4.v2
..|......|......
..|......|......
..|......|......
..|......|......
..|......|......
..|......|E-4.v2
..|......|......
..|......|......
..|......|......
..|......|......
..|......|......
..|......|E-4.v2
..|......|......
..|......|......
..|......|......
..|......|......
..|......|......
..|......|E-4.v2
..|......|......
..|......|......
..|......|......
..|......|......
..|......|......
..|......|E-4.v2
..|......|......
..|......|......
..|......|......
..|......|......
..|......|......
..|......|E-4.v2
..|......|......
..|......|......
..|......|......
..|......|......
..|......|......
..|......|E-4.v2
..|......|......
..|......|......
..|......|......
..|......|......
..|......|......
..|......|E-4.v2
..|......|......
..|......|......
..|......|......
..|......|......
..|......|......
..|......|C#4.v2
..|......|......
..|......|......
..|......|......
..|......|......
..|......|......
..|......|D#4.v2
..|......|......
..|......|......
..|......|......
..|......|......
..|......|......
..|......|D#4.v2
..|......|......
..|......|......
..|......|......
..|......|......
..|......|......
..|......|D#4.v2
..|......|......
..|......|......
..|......|......
..|......|......
..|......|......
..|......|D#4.v2
..|......|......
..|......|......
..|......|......
..|......|......
..|......|......
..|......|G-4.v2
..|......|......
..|......|......
..|......|......
..|......|......
..|......|......
..|......|......
..|......|......
..|......|......
..|......|......
..|......|......
..|......|......
..|......|D#5.v2
..|......|......
..|......|......
..|......|......
..|......|......
..|......|......
..|......|E-5.v2
..|......|......
..|......|......
..|......|......
..|......|......
..|......|......
..|......|G-4.v2
..|......|......
..|......|......
..|......|......
..|......|......
..|......|......
..|......|......
..|......|......
..|......|......
..|......|......
..|......|......
..|......|......
..|......|G-4.v2
..|......|......
..|......|......
..|......|......
..|......|......
..|......|......
..|......|......
..|......|......
..|......|......
..|......|......
..|......|......
..|......|......
..|......|D#4.v2
..|......|......
..|......|......
..|......|......
..|......|......
..|......|......
..|......|G-4.v2
..|......|......
..|......|......
..|......|......
..|......|......
..|......|......
..|......|E-4.v2
..|......|......
..|......|......
..|......|......
..|......|......
..|......|......
..|......|D-4.v2
..|......|......
..|......|......
..|......|......
..|......|......
..|......|......
..|......|E-4.v2
..|......|......
..|......|......
..|......|......
..|......|......
..|......|......
..|......|E-4.v2
..|......|......
..|......|......
..|......|......
..|......|......
..|......|......
..|......|E-4.v2
..|......|......
..|......|......
..|......|......
..|......|......
..|......|......
..|......|E-4.v3
..|......|......
..|......|......
..|......|......
..|......|......
..|......|......
..|......|E-4.v2
..|......|......
..|......|......
..|......|......
..|......|......
..|......|......
..|......|E-4.v2
..|......|......
..|......|......
..|......|......
..|......|......
..|......|......
..|......|E-4.v2
..|......|......
..|......|......
..|......|......
..|......|......
..|......|......
..|......|E-4.v3
..|......|......
..|......|......
..|......|......
..|......|......
..|......|......
..|......|E-4.v2
..|......|......
..|......|......
..|......|......
..|......|......
..|......|......
..|......|E-4.v2
..|......|......
..|......|......
..|......|......
..|......|......
..|......|......
..|......|E-4.v2
..|......|......
..|......|......
..|......|......
..|......|......
..|......|......
..|......|E-4.v2
..|......|......
..|......|......
..|......|......
..|......|......
..|......|......
..|......|E-4.v2
..|......|......
..|......|......
..|......|......
..|......|......
..|......|......
..|......|E-4.v2
..|......|......
..|......|......
..|......|......
..|......|......
..|......|......
..|......|E-4.v2
..|......|......
..|......|......
..|......|......
..|......|......
..|......|......
..|......|E-4.v2
..|......|......
..|......|......
..|......|......
..|......|......
..|......|......
..|......|F-4.v2
..|......|......
..|......|......
..|......|......
..|......|......
..|......|......
..|......|F-4.v2
..|......|......
..|......|......
..|......|......
..|......|......
..|......|......
..|......|F-4.v2
..|......|......
..|......|......
..|......|......
..|......|......
..|......|......
..|......|F-4.v2
..|......|......
..|......|......
..|......|......
..|......|......
..|......|......
..|......|F-4.v2
..|......|......
..|......|......
..|......|......
..|......|......
..|......|......
..|......|C-5.v2
..|......|......
..|......|......
..|......|......
..|......|......
..|......|......
..|......|F-5.v2
..|......|......
..|......|......
..|......|......
..|......|......
..|......|......
..|......|......
..|......|......
..|......|......
..|......|......
..|......|......
..|......|......
..|......|C-5.v2
..|......|......
..|......|......
..|......|......
..|......|......
..|......|......
..|......|......
..|......|......
..|......|......
..|......|......
..|......|......
..|......|......
..|......|F-5.v2
..|......|......
..|......|......
..|......|......
..|......|......
..|......|......
..|......|......
..|......|......
..|......|......
..|......|......
..|......|......
..|......|......
..|......|E-5.v2
..|......|......
..|......|......
..|......|......
..|......|......
..|......|......
..|......|F-5.v2
..|......|......
..|......|......
..|......|......
..|......|......
..|......|......
..|......|E-5.v2
..|......|......
..|......|......
..|......|......
..|......|......
..|......|......
..|......|D-4.v3
..|......|......
..|......|......
..|......|......
..|......|......
..|......|......
..|......|E-4.v2
..|......|......
..|......|......
..|......|......
..|......|......
..|......|......
..|......|E-4.v2
..|......|......
..|......|......
..|......|......
..|......|......
..|......|......
..|......|E-4.v2
..|......|......
..|......|......
..|......|......
..|......|......
..|......|......
..|......|E-4.v3
..|......|......
..|......|......
..|......|......
..|......|......
..|......|......
..|......|E-4.v2
..|......|......
..|......|......
..|......|......
..|......|......
..|......|......
..|......|E-4.v2
..|......|......
..|......|......
..|......|......
..|......|......
..|......|......
..|......|E-4.v2
..|......|......
..|......|......
..|......|......
..|......|......
..|......|......
..|......|E-4.v2
..|......|......
..|......|......
..|......|......
..|......|......
..|......|......
..|......|E-4.v2
..|......|......
..|......|......
..|......|......
..|......|......
..|......|......
..|......|E-4.v2
..|......|......
..|......|......
..|......|......
..|......|......
..|......|......
..|......|E-4.v2
..|......|......
..|......|......
..|......|......
..|......|......
..|......|......
..|......|E-4.v2
..|......|......
..|......|......
..|......|......
..|......|......
..|......|......
..|......|E-4.v2
..|......|......
..|......|......
..|......|......
..|......|......
..|......|......
..|......|E-4.v2
..|......|......
..|......|......
..|......|......
..|......|......
..|......|......
..|......|E-4.v2
..|......|......
..|......|......
..|......|......
..|......|......
..|......|......
..|......|C#4.v2
..|......|......
..|......|......
..|......|......
..|......|......
..|......|......
..|......|D#4.v2
..|......|......
..|......|......
..|......|......
..|......|......
..|......|......
..|......|D#4.v2
..|......|......
..|......|......
..|......|......
..|......|......
..|......|......
..|......|D#4.v2
..|......|......
..|......|......
..|......|......
..|......|......
..|......|......
..|......|D#4.v2
..|......|......
..|......|......
..|......|......
..|......|......
..|......|......
..|......|G-4.v2
..|......|......
..|......|......
..|......|......
..|......|......
..|......|......
..|......|......
..|......|......
..|......|......
..|......|......
..|......|......
..|......|......
..|......|D#5.v2
..|......|......
..|......|......
..|......|......
..|......|......
..|......|......
..|......|E-5.v2
..|......|......
..|......|......
..|......|......
..|......|......
..|......|......
..|......|G-4.v2
..|......|......
..|......|......
..|......|......
..|......|......
..|......|......
..|......|......
..|......|......
..|......|......
..|......|......
..|......|......
..|......|......
..|......|G-4.v2
..|......|......
..|......|......
..|......|......
..|......|......
..|......|......
..|......|......
..|......|......
..|......|......
..|......|......
..|......|......
..|......|......
..|......|D#4.v3
..|......|......
..|......|......
..|......|......
..|......|......
..|......|......
..|......|G-4.v2
..|......|......
..|......|......
..|......|......
..|......|......
..|......|......
..|......|E-4.v2
..|......|......
..|......|......
..|......|......
..|......|......
..|......|......
..|......|D-4.v3
..|......|......
..|......|......
..|......|......
..|......|......
..|......|......
..|......|E-4.v2
..|......|......
..|......|......
..|......|......
..|......|......
..|......|......
..|......|E-4.v2
..|......|......
..|......|......
..|......|......
..|......|......
..|......|......
..|......|E-4.v2
..|......|......
..|......|......
..|......|......
..|......|......
..|......|......
..|......|E-4.v3
..|......|......
..|......|......
..|......|......
..|......|......
..|......|......
..|......|E-4.v2
..|......|......
..|......|......
..|......|......
..|......|......
..|......|......
..|......|E-4.v2
..|......|......
..|......|......
..|......|......
..|......|......
..|......|......
..|......|E-4.v2
..|......|......
..|......|......
..|......|......
..|......|......
..|......|......
..|......|E-4.v2
..|......|......
..|......|......
..|......|......
..|......|......
..|......|......
..|......|E-4.v2
..|......|......
..|......|......
..|......|......
..|......|......
..|......|......
..|......|E-4.v2
..|......|......
..|......|......
..|......|......
..|......|......
..|......|......
..|......|E-4.v2
..|......|......
..|......|......
..|......|......
..|......|......
..|......|......
..|......|E-4.v3
..|......|......
..|......|......
..|......|......
..|......|......
..|......|......
..|......|E-4.v2
..|......|......
..|......|......
..|......|......
..|......|......
..|......|......
..|......|E-4.v2
..|......|......
..|......|......
..|......|......
..|......|......
..|......|......
..|......|E-4.v2
..|......|......
..|......|......
..|......|......
..|......|......
..|......|......
..|......|E-4.v3
..|......|......
..|......|......
..|......|......
..|......|......
..|......|......
..|......|F-4.v2
..|......|......
..|......|......
..|......|......
..|......|......
..|......|......
..|......|F-4.v2
..|......|......
..|......|......
..|......|......
..|......|......
..|......|......
..|......|F-4.v2
..|......|......
..|......|......
..|......|......
..|......|......
..|......|......
..|......|F-4.v3
..|......|......
..|......|......
..|......|......
..|......|......
..|......|......
..|......|F-4.v2
..|......|......
..|......|......
..|......|......
..|......|......
..|......|......
..|......|F-4.v2
..|......|......
..|......|......
..|......|......
..|......|......
..|......|......
..|......|F-4.v2
..|......|......
..|......|......
..|......|......
..|......|......
..|......|......
..|......|E-4.v3
..|......|......
..|......|......
..|......|......
..|......|......
..|......|......
..|......|===...
..|......|......
..|......|......
..|......|......
..|......|......
..|......|......
..|......|......
..|......|......
..|......|......
..|......|......
..|......|......
..|......|......
..|......|......
..|......|......
..|......|......
..|......|......
..|......|......
..|......|......
..|......|......
..|......|......
..|......|......
..|......|......
..|......|......
..|......|......
..|......|......
..|......|......
..|......|......
..|......|......
..|......|......
..|......|......
..|......|......
..|......|......
..|......|......
..|......|......
..|......|......
..|......|......
..|......|......
..|......|......
..|......|......
..|......|......
..|......|......
..|......|......
..|D-4.v3|......
..|......|......
..|......|......
..|......|......
..|......|......
..|......|......
..|E-4.v2|......
..|......|......
..|......|......
..|......|......
..|......|......
..|......|......
..|E-4.v2|......
..|......|......
..|......|......
..|......|......
..|......|......
..|......|......
..|E-4.v2|......
..|......|......
..|......|......
..|......|......
..|......|......
..|......|......
..|E-4.v3|......
..|......|......
..|......|......
..|......|......
..|......|......
..|......|......
..|E-4.v2|......
..|......|......
..|......|......
..|......|......
..|......|......
..|......|......
..|E-4.v2|......
..|......|......
..|......|......
..|......|......
..|......|......
..|......|......
..|E-4.v2|......
..|......|......
..|......|......
..|......|......
..|......|......
..|......|......
..|E-4.v3|......
..|......|......
..|......|......
..|......|......
..|......|......
..|......|......
..|E-4.v2|......
..|......|......
..|......|......
..|......|......
..|......|......
..|......|......
..|E-4.v2|......
..|......|......
..|......|......
..|......|......
..|......|......
..|......|......
..|E-4.v3|......
..|......|......
..|......|......
..|......|......
..|......|......
..|......|......
..|E-4.v3|......
..|......|......
..|......|......
..|......|......
..|......|......
..|......|......
..|E-4.v2|......
..|......|......
..|......|......
..|......|......
..|......|......
..|......|......
..|G-4.v2|......
..|......|......
..|......|......
..|......|......
..|......|......
..|......|......
..|B-4.v3|......
..|......|......
..|......|......
..|......|......
..|......|......
..|......|......
..|D-5.v3|......
..|......|......
..|......|......
..|......|......
..|......|......
..|......|......
..|D-5.v2|......
..|......|......
..|......|......
..|......|......
..|......|......
..|......|......
..|D-5.v2|......
..|......|......
..|......|......
..|......|......
..|......|......
..|......|......
..|D-5.v2|......
..|......|......
..|......|......
..|......|......
..|......|......
..|......|......
..|D-5.v2|......
..|......|......
..|......|......
..|......|......
..|......|......
..|......|......
..|D-5.v2|......
..|......|......
..|......|......
..|......|......
..|......|......
..|......|......
..|D-5.v2|......
..|......|......
..|......|......
..|......|......
..|......|......
..|......|......
..|D-5.v2|......
..|......|......
..|......|......
..|......|......
..|......|......
..|......|......
..|A-4.v2|......
..|......|......
..|......|......
..|......|......
..|......|......
..|......|......
..|D-5.v2|......
..|......|......
..|......|......
..|......|......
..|......|......
..|......|......
..|C-5.v2|......
..|......|......
..|......|......
..|......|......
..|......|......
..|......|......
..|B-4.v2|......
..|......|......
..|......|......
..|......|......
..|......|......
..|......|......
..|......|......
..|......|......
..|......|......
..|......|......
..|......|......
..|......|......
..|A-4.v2|......
..|......|......
..|......|......
..|......|......
..|......|......
..|......|......
..|G-4.v2|......
..|......|......
..|......|......
..|......|......
..|......|......
..|......|......
..|F#4.v2|......
..|......|......
..|......|......
..|......|......
..|......|......
..|......|......
..|D-4.v3|......
..|......|......
..|......|......
..|......|......
..|......|......
..|......|......
..|E-4.v2|......
..|......|......
..|......|......
..|......|......
..|......|......
..|......|......
..|E-4.v2|......
..|......|......
..|......|......
..|......|......
..|......|......
..|......|......
..|E-4.v2|......
..|......|......
..|......|......
..|......|......
..|......|......
..|......|......
..|E-4.v3|......
..|......|......
..|......|......
..|......|......
..|......|......
..|......|......
..|E-4.v2|......
..|......|......
..|......|......
..|......|......
..|......|......
..|......|......
..|E-4.v2|......
..|......|......
..|......|......
..|......|......
..|......|......
..|......|......
..|E-4.v2|......
..|......|......
..|......|......
..|......|......
..|......|......
..|......|......
..|E-4.v2|......
..|......|......
..|......|......
..|......|......
..|......|......
..|......|......
..|E-4.v2|......
..|......|......
..|......|......
..|......|......
..|......|......
..|......|......
..|E-4.v2|......
..|......|......
..|......|......
..|......|......
..|......|......
..|......|......
..|E-4.v2|......
..|......|......
..|......|......
..|......|......
..|......|......
..|......|......
..|E-4.v2|......
..|......|......
..|......|......
..|......|......
..|......|......
..|......|......
..|E-4.v2|......
..|......|......
..|......|......
..|......|......
..|......|......
..|......|......
..|E-4.v2|......
..|......|......
..|......|......
..|......|......
..|......|......
..|......|......
..|E-4.v2|......
..|......|......
..|......|......
..|......|......
..|......|......
..|......|......
..|C-5.v3|......
..|......|......
..|......|......
..|......|......
..|......|......
..|......|......
..|C-5.v2|......
..|......|......
..|......|......
..|......|......
..|......|......
..|......|......
..|G-4.v2|......
..|......|......
..|......|......
..|......|......
..|......|......
..|......|......
..|C-5.v2|......
..|......|......
..|......|......
..|......|......
..|......|......
..|......|......
..|C-5.v2|......
..|......|......
..|......|......
..|......|......
..|......|......
..|......|......
..|C-5.v2|......
..|......|......
..|......|......
..|......|......
..|......|......
..|......|......
..|C-5.v2|......
..|......|......
..|......|......
..|......|......
..|......|......
..|......|......
..|C-5.v2|......
..|......|......
..|......|......
..|......|......
..|......|......
..|......|......
..|C-5.v3|......
..|......|......
..|......|......
..|......|......
..|......|......
..|......|......
..|G-4.v2|......
..|......|......
..|......|......
..|......|......
..|......|......
..|......|......
..|C-5.v2|......
..|......|......
..|......|......
..|......|......
..|......|......
..|......|......
..|E-4.v3|......
..|......|......
..|......|......
..|......|......
..|......|......
..|......|......
..|......|......
..|......|......
..|......|......
..|......|......
..|......|......
..|......|......
..|F#4.v2|......
..|......|......
..|......|......
..|......|......
..|......|......
..|......|......
..|G-4.v2|......
..|......|......
..|......|......
..|......|......
..|......|......
..|......|......
..|A-4.v2|......
..|......|......
..|......|......
..|......|......
..|......|......
..|......|......
..|D-4.v3|......
..|......|......
..|......|......
..|......|......
..|......|......
..|......|......
..|E-4.v2|......
..|......|......
..|......|......
..|......|......
..|......|......
..|......|......
..|E-4.v2|......
..|......|......
..|......|......
..|......|......
..|......|......
..|......|......
..|E-4.v2|......
..|......|......
..|......|......
..|......|......
..|......|......
..|......|......
..|E-4.v3|......
..|......|......
..|......|......
..|......|......
..|......|......
..|......|......
..|E-4.v2|......
..|......|......
..|......|......
..|......|......
..|......|......
..|......|......
..|E-4.v2|......
..|......|......
..|......|......
..|......|......
..|......|......
..|......|......
..|E-4.v2|......
..|......|......
..|......|......
..|......|......
..|......|......
..|......|......
..|E-4.v3|......
..|......|......
..|......|......
..|......|......
..|......|......
..|......|......
..|E-4.v2|......
..|......|......
..|......|......
..|......|......
..|......|......
..|......|......
..|E-4.v2|......
..|......|......
..|......|......
..|......|......
..|......|......
..|......|......
..|E-4.v2|......
..|......|......
..|......|......
..|......|......
..|......|......
..|......|......
..|E-4.v3|......
..|......|......
..|......|......
..|......|......
..|......|......
..|......|......
..|E-4.v2|......
..|......|......
..|......|......
..|......|......
..|......|......
..|......|......
..|E-4.v2|......
..|......|......
..|......|......
..|......|......
..|......|......
..|......|......
..|E-4.v2|......
..|......|......
..|......|......
..|......|......
..|......|......
..|......|......
..|D-5.v3|......
..|......|......
..|......|......
..|......|......
..|......|......
..|......|......
..|D-5.v2|......
..|......|......
..|......|......
..|......|......
..|......|......
..|......|......
..|D-5.v2|......
..|......|......
..|......|......
..|......|......
..|......|......
..|......|......
..|D-5.v2|......
..|......|......
..|......|......
..|......|......
..|......|......
..|......|......
..|D-5.v3|......
..|......|......
..|......|......
..|......|......
..|......|......
..|......|......
..|D-5.v2|......
..|......|......
..|......|......
..|......|......
..|......|......
..|......|......
..|D-5.v2|......
..|......|......
..|......|......
..|......|......
..|......|......
..|......|......
..|D-5.v2|......
..|......|......
..|......|......
..|......|......
..|......|......
..|......|......
..|D-5.v3|......
..|......|......
..|......|......
..|......|......
..|......|......
..|......|......
..|D-5.v2|......
..|......|......
..|......|......
..|......|......
..|......|......
..|......|......
..|A-4.v2|......
..|......|......
..|......|......
..|......|......
..|......|......
..|......|......
..|D-5.v2|......
..|......|......
..|......|......
..|......|......
..|......|......
..|......|......
..|......|......
..|......|......
..|......|......
..|......|......
..|......|......
..|......|......
..|C-5.v2|......
..|......|......
..|......|......
..|......|......
..|......|......
..|......|......
..|B-4.v2|......
..|......|......
..|......|......
..|......|......
..|......|......
..|......|......
..|A-4.v2|......
..|......|......
..|......|......
..|......|......
..|......|......
..|......|......
..|C-5.v3|......
..|......|......
..|......|......
..|......|......
..|......|......
..|......|......
..|G-4.v2|......
..|......|......
..|......|......
..|......|......
..|......|......
..|......|......
..|C-5.v2|......
..|......|......
..|......|......
..|......|......
..|......|......
..|......|......
..|D-5.v2|......
..|......|......
..|......|......
..|......|......
..|......|......
..|......|......
..|E-5.v2|......
..|......|......
..|......|......
..|......|......
..|......|......
..|......|......
..|C-5.v2|......
..|......|......
..|......|......
..|......|......
..|......|......
..|......|......
..|D-5.v2|......
..|......|......
..|......|......
..|......|......
..|......|......
..|......|......
..|C-5.v2|......
..|......|......
..|......|......
..|......|......
..|......|......
..|......|......
..|C-5.v3|......
..|......|......
..|......|......
..|......|......
..|......|......
..|......|......
..|C-5.v2|......
..|......|......
..|......|......
..|......|......
..|......|......
..|......|......
..|C-5.v2|......
..|......|......
..|......|......
..|......|......
..|......|......
..|......|......
..|G-4.v2|......
..|......|......
..|......|......
..|......|......
..|......|......
..|......|......
..|C-5.v2|......
..|......|......
..|......|......
..|......|......
..|......|......
..|......|......
..|C-5.v2|......
..|......|......
..|......|......
..|......|......
..|......|......
..|......|......
..|G-4.v2|......
..|......|......
..|......|......
..|......|......
..|......|......
..|......|......
..|C-5.v2|......
..|......|......
..|......|......
..|......|......
..|......|......
..|......|......
..|D-5.v2|......
..|......|......
..|......|......
..|......|......
..|......|......
..|......|......
..|D-5.v2|......
..|......|......
..|......|......
..|......|......
..|......|......
..|......|......
..|A-4.v2|......
..|......|......
..|......|......
..|......|......
..|......|......
..|......|......
..|D-5.v2|......
..|......|......
..|......|......
..|......|......
..|......|......
..|......|......
..|E-5.v2|......
..|......|......
..|......|......
..|......|......
..|......|......
..|......|......
..|D-5.v2|......
..|......|......
..|......|......
..|......|......
..|......|......
..|......|......
..|F#5.v2|......
..|......|......
..|......|......
..|......|......
..|......|......
..|......|......
..|D-5.v3|......
..|......|......
..|......|......
..|......|......
..|......|......
..|......|......
..|G-5.v2|......
..|......|......
..|......|......
..|......|......
..|......|......
..|......|......
..|F#5.v2|......
..|......|......
..|......|......
..|......|......
..|......|......
..|......|......
..|E-5.v2|......
..|......|......
..|......|......
..|......|......
..|......|......
..|......|......
..|D-5.v2|......
..|......|......
..|......|......
..|......|......
..|......|......
..|......|......
..|C-5.v2|......
..|......|......
..|......|......
..|......|......
..|......|......
..|......|......
..|E-5.v2|......
..|......|......
..|......|......
..|......|......
..|......|......
..|......|......
..|F#5.v3|......
..|......|......
..|......|......
..|......|......
..|......|......
..|......|......
..|D-5.v2|......
..|......|......
..|......|......
..|......|......
..|......|......
..|......|......
..|C-5.v3|......
..|......|......
..|......|......
..|......|......
..|......|......
..|......|......
..|C-5.v2|......
..|......|......
..|......|......
..|......|......
..|......|......
..|......|......
..|C-5.v2|......
..|......|......
..|......|......
..|......|......
..|......|......
..|......|......
..|C-5.v3|......
..|......|......
..|......|......
..|......|......
..|......|......
..|......|......
..|C-5.v2|......
..|......|......
..|......|......
..|......|......
..|......|......
..|......|......
..|C-5.v2|......
..|......|......
..|......|......
..|......|......
..|......|......
..|......|......
..|C-5.v3|......
..|......|......
..|......|......
..|......|......
..|......|......
..|......|......
..|C-5.v2|......
..|......|......
..|......|......
..|......|......
..|......|......
..|......|......
..|C-5.v3|......
..|......|......
..|......|......
..|......|......
..|......|......
..|......|......
..|C-5.v2|......
..|......|......
..|......|......
..|......|......
..|......|......
..|......|......
..|C-5.v2|......
..|......|......
..|......|......
..|......|......
..|......|......
..|......|......
..|C-5.v3|......
..|......|......
..|......|......
..|......|......
..|......|......
..|......|......
..|C-5.v2|......
..|......|......
..|......|......
..|......|......
..|......|......
..|......|......
..|C-5.v2|......
..|......|......
..|......|......
..|......|......
..|......|......
..|......|......
..|C-5.v3|......
..|......|......
..|......|......
..|......|......
..|......|......
..|......|......
..|C-5.v2|......
..|......|......
..|......|......
..|......|......
..|......|......
..|......|......
..|B-4.v3|......
..|......|......
..|......|......
..|......|......
..|......|......
..|......|......
..|B-4.v2|......
..|......|......
..|......|......
..|......|......
..|......|......
..|......|......
..|B-4.v2|......
..|......|......
..|......|......
..|......|......
..|......|......
..|......|......
..|B-4.v3|......
..|......|......
..|......|......
..|......|......
..|......|......
..|......|......
..|B-4.v2|......
..|......|......
..|......|......
..|......|......
..|......|......
..|......|......
..|B-4.v2|......
..|......|......
..|......|......
..|......|......
..|......|......
..|......|......
..|B-4.v3|......
..|......|......
..|......|......
..|......|......
..|......|......
..|......|......
..|B-4.v2|......
..|......|......
..|......|......
..|......|......
..|......|......
..|......|......
..|B-4.v3|......
..|......|......
..|......|......
..|......|......
..|......|......
..|......|......
..|B-4.v2|......
..|......|......
..|......|......
..|......|......
..|......|......
..|......|......
..|B-4.v2|......
..|......|......
..|......|......
..|......|......
..|......|......
..|......|......
..|B-4.v3|......
..|......|......
..|......|......
..|......|......
..|......|......
..|......|......
..|B-4.v2|......
..|......|......
..|......|......
..|......|......
..|......|......
..|......|......
..|B-4.v2|......
..|......|......
..|......|......
..|......|......
..|......|......
..|......|......
..|B-4.v3|......
..|......|......
..|......|......
..|......|......
..|......|......
..|......|......
..|B-4.v2|......
..|......|......
..|......|......
..|......|......
..|......|......
..|......|......
..|C-5.v3|......
..|......|......
..|......|......
..|......|......
..|......|......
..|......|......
..|C-5.v2|......
..|......|......
..|......|......
..|......|......
..|......|......
..|......|......
..|C-5.v2|......
..|......|......
..|......|......
..|......|......
..|......|......
..|......|......
..|C-5.v3|......
..|......|......
..|......|......
..|......|......
..|......|......
..|......|......
..|C-5.v2|......
..|......|......
..|......|......
..|......|......
..|......|......
..|......|......
..|C-5.v2|......
..|......|......
..|......|......
..|......|......
..|......|......
..|......|......
..|C-5.v3|......
..|......|......
..|......|......
..|......|......
..|......|......
..|......|......
..|C-5.v2|......
..|......|......
..|......|......
..|......|......
..|......|......
..|......|......
..|C-5.v3|......
..|......|......
..|......|......
..|......|......
..|......|......
..|......|......
..|C-5.v2|......
..|......|......
..|......|......
..|......|......
..|......|......
..|......|......
..|C-5.v2|......
..|......|......
..|......|......
..|......|......
..|......|......
..|......|......
..|C-5.v3|......
..|......|......
..|......|......
..|......|......
..|......|......
..|......|......
..|C-5.v2|......
..|......|......
..|......|......
..|......|......
..|......|......
..|......|......
..|C-5.v2|......
..|......|......
..|......|......
..|......|......
..|......|......
..|......|......
..|C-5.v3|......
..|......|......
..|......|......
..|......|......
..|......|......
..|......|......
..|C-5.v2|......
..|......|......
..|......|......
..|......|......
..|......|......
..|......|......
..|D-5.v3|......
..|......|......
..|......|......
..|......|......
..|......|......
..|......|......
..|D-5.v2|......
..|......|......
..|......|......
..|......|......
..|......|......
..|......|......
..|D-5.v2|......
..|......|......
..|......|......
..|......|......
..|......|......
..|......|......
..|D-5.v3|......
..|......|......
..|......|......
..|......|......
..|......|......
..|......|......
..|D-5.v2|......
..|......|......
..|......|......
..|......|......
..|......|......
..|......|......
..|D-5.v2|......
..|......|......
..|......|......
..|......|......
..|......|......
..|......|......
..|D-5.v3|......
..|......|......
..|......|......
..|......|......
..|......|......
..|......|......
..|D-5.v2|......
..|......|......
..|......|......
..|......|......
..|......|......
..|......|......
..|B-4.v3|......
..|......|......
..|......|......
..|......|......
..|......|......
..|......|......
..|B-4.v2|......
..|......|......
..|......|......
..|......|......
..|......|......
..|......|......
..|B-4.v2|......
..|......|......
..|......|......
..|......|......
..|......|......
..|......|......
..|B-4.v2|......
..|......|......
..|......|......
..|......|......
..|......|......
..|......|......
..|G-5.v3|......
..|......|......
..|......|......
..|......|......
..|......|......
..|......|......
..|F#5.v2|......
..|......|......
..|......|......
..|......|......
..|......|......
..|......|......
..|E-5.v2|......
..|......|......
..|......|......
..|......|......
..|......|......
..|......|......
..|D#5.v2|......
..|......|......
..|......|......
..|......|......
..|......|......
..|......|......
..|===...|......
#halt
#halt
