#compressed
#unkc
#track 1
#inst 4
#unk6 10
#unk6 7
#pan 40
#volume 5f
..|E-5.v2|......
..|......|......
..|......|......
..|......|......
..|......|......
..|......|......
..|===...|G-5.v2
..|......|......
..|......|......
..|......|......
..|......|......
..|......|......
..|......|E-4.v2
..|......|......
..|......|......
..|......|......
..|......|......
..|......|......
..|......|B-4.v2
..|......|......
..|......|......
..|......|......
..|......|......
..|......|......
..|......|E-4.v2
..|......|......
..|......|......
..|......|......
..|......|......
..|......|......
..|......|E-5.v2
..|......|......
..|......|......
..|......|......
..|......|......
..|......|......
..|......|B-5.v2
..|......|......
..|......|......
..|......|......
..|......|......
..|......|......
..|......|E-4.v2
..|......|......
..|......|......
..|......|......
..|......|......
..|......|......
..|......|G-5.v2
..|......|......
..|......|......
..|......|......
..|......|......
..|......|......
..|......|E-5.v2
..|......|......
..|......|......
..|......|......
..|......|......
..|......|......
..|......|E-4.v2
..|......|......
..|......|......
..|......|......
..|......|......
..|......|......
..|......|B-5.v2
..|......|......
..|......|......
..|......|......
..|......|......
..|......|......
..|......|E-4.v2
..|......|......
..|......|......
..|......|......
..|......|......
..|......|......
..|......|G-5.v2
..|......|......
..|......|......
..|......|......
..|......|......
..|......|......
..|......|E-5.v2
..|......|......
..|......|......
..|......|......
..|......|......
..|......|......
..|......|B-4.v2
..|......|......
..|......|......
..|......|......
..|......|......
..|......|......
..|......|D#5.v2
..|......|......
..|......|......
..|......|......
..|......|......
..|......|......
..|......|D#5.v2
..|......|......
..|......|......
..|......|......
..|......|......
..|......|......
..|......|D#4.v2
..|......|......
..|......|......
..|......|......
..|......|......
..|......|......
..|......|D#5.v2
..|......|......
..|......|......
..|......|......
..|......|......
..|......|......
..|......|D#4.v2
..|......|......
..|......|......
..|......|......
..|......|......
..|......|......
..|......|D#5.v2
..|......|......
..|......|......
..|......|......
..|......|......
..|......|......
..|......|D#5.v2
..|......|......
..|......|......
..|......|......
..|......|......
..|......|......
..|......|D#4.v2
..|......|......
..|......|......
..|......|......
..|......|......
..|......|......
..|......|D#5.v2
..|......|......
..|......|......
..|......|......
..|......|......
..|......|......
..|......|D#5.v2
..|......|......
..|......|......
..|......|......
..|......|......
..|......|......
..|......|D#4.v2
..|......|......
..|......|......
..|......|......
..|......|......
..|......|......
..|......|D#5.v2
..|......|......
..|......|......
..|......|......
..|......|......
..|......|......
..|......|D#4.v2
..|......|......
..|......|......
..|......|......
..|......|......
..|......|......
..|......|D#5.v2
..|......|......
..|......|......
..|......|......
..|......|......
..|......|......
..|......|D#5.v2
..|......|......
..|......|......
..|......|......
..|......|......
..|......|......
..|......|A#4.v2
..|......|......
..|......|......
..|......|......
..|......|......
..|......|......
..|......|E-5.v2
..|......|......
..|......|......
..|......|......
..|......|......
..|......|......
..|......|G-5.v2
..|......|......
..|......|......
..|......|......
..|......|......
..|......|......
..|......|E-4.v2
..|......|......
..|......|......
..|......|......
..|......|......
..|......|......
..|......|B-4.v2
..|......|......
..|......|......
..|......|......
..|......|......
..|......|......
..|......|E-4.v2
..|......|......
..|......|......
..|......|......
..|......|......
..|......|......
..|......|E-5.v2
..|......|......
..|......|......
..|......|......
..|......|......
..|......|......
..|......|B-5.v2
..|......|......
..|......|......
..|......|......
..|......|......
..|......|......
..|......|E-4.v2
..|......|......
..|......|......
..|......|......
..|......|......
..|......|......
..|......|G-5.v2
..|......|......
..|......|......
..|......|......
..|......|......
..|......|......
..|......|E-5.v2
..|......|......
..|......|......
..|......|......
..|......|......
..|......|......
..|......|E-4.v2
..|......|......
..|......|......
..|......|......
..|......|......
..|......|......
..|......|B-5.v2
..|......|......
..|......|......
..|......|......
..|......|......
..|......|......
..|......|E-4.v2
..|......|......
..|......|......
..|......|......
..|......|......
..|......|......
..|......|G-5.v2
..|......|......
..|......|......
..|......|......
..|......|......
..|......|......
..|......|E-5.v2
..|......|......
..|......|......
..|......|......
..|......|......
..|......|......
..|......|B-4.v2
..|......|......
..|......|......
..|......|......
..|......|......
..|......|......
..|......|F-5.v2
..|......|......
..|......|......
..|......|......
..|......|......
..|......|......
..|......|F-5.v2
..|......|......
..|......|......
..|......|......
..|......|......
..|......|......
..|......|F-4.v2
..|......|......
..|......|......
..|......|......
..|......|......
..|......|......
..|......|F-5.v2
..|......|......
..|......|......
..|......|......
..|......|......
..|......|......
..|......|F-4.v2
..|......|......
..|......|......
..|......|......
..|......|......
..|......|......
..|......|F-5.v2
..|......|......
..|......|......
..|......|......
..|......|......
..|......|......
..|......|F-5.v2
..|......|......
..|......|......
..|......|......
..|......|......
..|......|......
..|......|F-4.v2
..|......|......
..|......|......
..|......|......
..|......|......
..|......|......
..|......|F-5.v2
..|......|......
..|......|......
..|......|......
..|......|......
..|......|......
..|......|F-5.v2
..|......|......
..|......|......
..|......|......
..|......|......
..|......|......
..|......|F-4.v2
..|......|......
..|......|......
..|......|......
..|......|......
..|......|......
..|......|F-5.v2
..|......|......
..|......|......
..|......|......
..|......|......
..|......|......
..|......|F-4.v2
..|......|......
..|......|......
..|......|......
..|......|......
..|......|......
..|......|F-5.v2
..|......|......
..|......|......
..|......|......
..|......|......
..|......|......
..|......|F-5.v2
..|......|......
..|......|......
..|......|......
..|......|......
..|......|......
..|......|F-4.v2
..|......|......
..|......|......
..|......|......
..|......|......
..|......|......
..|......|E-5.v2
..|......|......
..|......|......
..|......|......
..|......|......
..|......|......
..|......|G-5.v2
..|......|......
..|......|......
..|......|......
..|......|......
..|......|......
..|......|E-4.v2
..|......|......
..|......|......
..|......|......
..|......|......
..|......|......
..|......|B-4.v2
..|......|......
..|......|......
..|......|......
..|......|......
..|......|......
..|......|E-4.v2
..|......|......
..|......|......
..|......|......
..|......|......
..|......|......
..|......|E-5.v2
..|......|......
..|......|......
..|......|......
..|......|......
..|......|......
..|......|B-5.v2
..|......|......
..|......|......
..|......|......
..|......|......
..|......|......
..|......|E-4.v2
..|......|......
..|......|......
..|......|......
..|......|......
..|......|......
..|......|G-5.v2
..|......|......
..|......|......
..|......|......
..|......|......
..|......|......
..|......|E-5.v2
..|......|......
..|......|......
..|......|......
..|......|......
..|......|......
..|......|E-4.v2
..|......|......
..|......|......
..|......|......
..|......|......
..|......|......
..|......|B-5.v2
..|......|......
..|......|......
..|......|......
..|......|......
..|......|......
..|......|E-4.v2
..|......|......
..|......|......
..|......|......
..|......|......
..|......|......
..|......|G-5.v2
..|......|......
..|......|......
..|......|......
..|......|......
..|......|......
..|......|E-5.v2
..|......|......
..|......|......
..|......|......
..|......|......
..|......|......
..|......|B-4.v2
..|......|......
..|......|......
..|......|......
..|......|......
..|......|......
..|......|D#5.v2
..|......|......
..|......|......
..|......|......
..|......|......
..|......|......
..|......|D#5.v2
..|......|......
..|......|......
..|......|......
..|......|......
..|......|......
..|......|D#4.v2
..|......|......
..|......|......
..|......|......
..|......|......
..|......|......
..|......|D#5.v2
..|......|......
..|......|......
..|......|......
..|......|......
..|......|......
..|......|D#4.v2
..|......|......
..|......|......
..|......|......
..|......|......
..|......|......
..|......|D#5.v2
..|......|......
..|......|......
..|......|......
..|......|......
..|......|......
..|......|D#5.v2
..|......|......
..|......|......
..|......|......
..|......|......
..|......|......
..|......|D#4.v2
..|......|......
..|......|......
..|......|......
..|......|......
..|......|......
..|......|D#5.v2
..|......|......
..|......|......
..|......|......
..|......|......
..|......|......
..|......|D#5.v2
..|......|......
..|......|......
..|......|......
..|......|......
..|......|......
..|......|D#4.v2
..|......|......
..|......|......
..|......|......
..|......|......
..|......|......
..|......|D#5.v2
..|......|......
..|......|......
..|......|......
..|......|......
..|......|......
..|......|D#4.v2
..|......|......
..|......|......
..|......|......
..|......|......
..|......|......
..|......|D#5.v2
..|......|......
..|......|......
..|......|......
..|......|......
..|......|......
..|......|D#5.v2
..|......|......
..|......|......
..|......|......
..|......|......
..|......|......
..|......|A#4.v2
..|......|......
..|......|......
..|......|......
..|......|......
..|......|......
..|......|E-5.v2
..|......|......
..|......|......
..|......|......
..|......|......
..|......|......
..|......|G-5.v2
..|......|......
..|......|......
..|......|......
..|......|......
..|......|......
..|......|E-4.v2
..|......|......
..|......|......
..|......|......
..|......|......
..|......|......
..|......|B-4.v2
..|......|......
..|......|......
..|......|......
..|......|......
..|......|......
..|......|E-4.v2
..|......|......
..|......|......
..|......|......
..|......|......
..|......|......
..|......|E-5.v2
..|......|......
..|......|......
..|......|......
..|......|......
..|......|......
..|......|B-5.v2
..|......|......
..|......|......
..|......|......
..|......|......
..|......|......
..|......|E-4.v2
..|......|......
..|......|......
..|......|......
..|......|......
..|......|......
..|......|G-5.v2
..|......|......
..|......|......
..|......|......
..|......|......
..|......|......
..|......|E-5.v2
..|......|......
..|......|......
..|......|......
..|......|......
..|......|......
..|......|E-4.v2
..|......|......
..|......|......
..|......|......
..|......|......
..|......|......
..|......|B-5.v2
..|......|......
..|......|......
..|......|......
..|......|......
..|......|......
..|......|E-4.v2
..|......|......
..|......|......
..|......|......
..|......|......
..|......|......
..|......|G-5.v2
..|......|......
..|......|......
..|......|......
..|......|......
..|......|......
..|......|E-5.v2
..|......|......
..|......|......
..|......|......
..|......|......
..|......|......
..|......|B-4.v2
..|......|......
..|......|......
..|......|......
..|......|......
..|......|......
..|......|F-4.v3
..|......|......
..|......|......
..|......|......
..|......|......
..|......|......
..|......|F-4.v2
..|......|......
..|......|......
..|......|......
..|......|......
..|......|......
..|......|F-5.v3
..|......|......
..|......|......
..|......|......
..|......|......
..|......|......
..|......|B-4.v3
..|......|......
..|......|......
..|......|......
..|......|......
..|......|......
..|......|C-5.v3
..|......|......
..|......|......
..|......|......
..|......|......
..|......|......
..|......|A-4.v2
..|......|......
..|......|......
..|......|......
..|......|......
..|......|......
..|......|G-4.v2
..|......|......
..|......|......
..|......|......
..|......|......
..|......|......
..|......|F-4.v2
..|......|......
..|......|......
..|......|......
..|......|......
..|......|......
..|......|E-4.v2
..|......|......
..|......|......
..|......|......
..|......|......
..|......|......
..|......|===...
..|......|......
..|......|......
..|......|......
..|......|......
..|......|......
..|......|......
..|......|......
..|......|......
..|......|......
..|......|......
..|......|......
..|......|......
..|......|......
..|......|......
..|......|......
..|......|......
..|......|......
..|......|......
..|......|......
..|......|......
..|......|......
..|......|......
..|......|......
..|......|......
..|......|......
..|......|......
..|......|......
..|......|......
..|......|......
..|......|......
..|......|......
..|......|......
..|......|......
..|......|......
..|......|......
..|......|......
..|......|......
..|......|......
..|......|......
..|......|......
..|......|......
..|E-5.v2|......
..|......|......
..|......|......
..|......|......
..|......|......
..|......|......
..|E-5.v2|......
..|......|......
..|......|......
..|......|......
..|......|......
..|......|......
..|E-4.v2|......
..|......|......
..|......|......
..|......|......
..|......|......
..|......|......
..|E-5.v2|......
..|......|......
..|......|......
..|......|......
..|......|......
..|......|......
..|E-4.v2|......
..|......|......
..|......|......
..|......|......
..|......|......
..|......|......
..|E-5.v2|......
..|......|......
..|......|......
..|......|......
..|......|......
..|......|......
..|E-5.v2|......
..|......|......
..|......|......
..|......|......
..|......|......
..|......|......
..|E-4.v2|......
..|......|......
..|......|......
..|......|......
..|......|......
..|......|......
..|E-5.v2|......
..|......|......
..|......|......
..|......|......
..|......|......
..|......|......
..|E-5.v2|......
..|......|......
..|......|......
..|......|......
..|......|......
..|......|......
..|E-4.v2|......
..|......|......
..|......|......
..|......|......
..|......|......
..|......|......
..|E-5.v2|......
..|......|......
..|......|......
..|......|......
..|......|......
..|......|......
..|E-4.v2|......
..|......|......
..|......|......
..|......|......
..|......|......
..|......|......
..|E-5.v2|......
..|......|......
..|......|......
..|......|......
..|......|......
..|......|......
..|E-5.v2|......
..|......|......
..|......|......
..|......|......
..|......|......
..|......|......
..|B-4.v2|......
..|......|......
..|......|......
..|......|......
..|......|......
..|......|......
..|F#5.v2|......
..|......|......
..|......|......
..|......|......
..|......|......
..|......|......
..|F#5.v2|......
..|......|......
..|......|......
..|......|......
..|......|......
..|......|......
..|F#4.v2|......
..|......|......
..|......|......
..|......|......
..|......|......
..|......|......
..|F#5.v2|......
..|......|......
..|......|......
..|......|......
..|......|......
..|......|......
..|F#4.v2|......
..|......|......
..|......|......
..|......|......
..|......|......
..|......|......
..|F#5.v2|......
..|......|......
..|......|......
..|......|......
..|......|......
..|......|......
..|F#5.v2|......
..|......|......
..|......|......
..|......|......
..|......|......
..|......|......
..|F#4.v2|......
..|......|......
..|......|......
..|......|......
..|......|......
..|......|......
..|F#5.v2|......
..|......|......
..|......|......
..|......|......
..|......|......
..|......|......
..|F#5.v2|......
..|......|......
..|......|......
..|......|......
..|......|......
..|......|......
..|F#4.v2|......
..|......|......
..|......|......
..|......|......
..|......|......
..|......|......
..|F#5.v2|......
..|......|......
..|......|......
..|......|......
..|......|......
..|......|......
..|F#4.v2|......
..|......|......
..|......|......
..|......|......
..|......|......
..|......|......
..|F#5.v2|......
..|......|......
..|......|......
..|......|......
..|......|......
..|......|......
..|F#5.v2|......
..|......|......
..|......|......
..|......|......
..|......|......
..|......|......
..|D-5.v2|......
..|......|......
..|......|......
..|......|......
..|......|......
..|......|......
..|E-5.v2|......
..|......|......
..|......|......
..|......|......
..|......|......
..|......|......
..|E-5.v2|......
..|......|......
..|......|......
..|......|......
..|......|......
..|......|......
..|E-4.v2|......
..|......|......
..|......|......
..|......|......
..|......|......
..|......|......
..|E-5.v2|......
..|......|......
..|......|......
..|......|......
..|......|......
..|......|......
..|E-4.v2|......
..|......|......
..|......|......
..|......|......
..|......|......
..|......|......
..|E-5.v2|......
..|......|......
..|......|......
..|......|......
..|......|......
..|......|......
..|E-5.v2|......
..|......|......
..|......|......
..|......|......
..|......|......
..|......|......
..|E-4.v2|......
..|......|......
..|......|......
..|......|......
..|......|......
..|......|......
..|E-5.v2|......
..|......|......
..|......|......
..|......|......
..|......|......
..|......|......
..|E-5.v2|......
..|......|......
..|......|......
..|......|......
..|......|......
..|......|......
..|E-4.v2|......
..|......|......
..|......|......
..|......|......
..|......|......
..|......|......
..|E-5.v2|......
..|......|......
..|......|......
..|......|......
..|......|......
..|......|......
..|E-4.v2|......
..|......|......
..|......|......
..|......|......
..|......|......
..|......|......
..|E-5.v2|......
..|......|......
..|......|......
..|......|......
..|......|......
..|......|......
..|E-5.v2|......
..|......|......
..|......|......
..|......|......
..|......|......
..|......|......
..|A-4.v2|......
..|......|......
..|......|......
..|......|......
..|......|......
..|......|......
..|E-5.v2|......
..|......|......
..|......|......
..|......|......
..|......|......
..|......|......
..|E-5.v2|......
..|......|......
..|......|......
..|......|......
..|......|......
..|......|......
..|E-4.v2|......
..|......|......
..|......|......
..|......|......
..|......|......
..|......|......
..|E-5.v2|......
..|......|......
..|......|......
..|......|......
..|......|......
..|......|......
..|E-4.v2|......
..|......|......
..|......|......
..|......|......
..|......|......
..|......|......
..|E-5.v2|......
..|......|......
..|......|......
..|......|......
..|......|......
..|......|......
..|E-5.v2|......
..|......|......
..|......|......
..|......|......
..|......|......
..|......|......
..|E-4.v2|......
..|......|......
..|......|......
..|......|......
..|......|......
..|......|......
..|E-5.v2|......
..|......|......
..|......|......
..|......|......
..|......|......
..|......|......
..|E-5.v2|......
..|......|......
..|......|......
..|......|......
..|......|......
..|......|......
..|E-4.v2|......
..|......|......
..|......|......
..|......|......
..|......|......
..|......|......
..|E-5.v2|......
..|......|......
..|......|......
..|......|......
..|......|......
..|......|......
..|E-4.v2|......
..|......|......
..|......|......
..|......|......
..|......|......
..|......|......
..|E-5.v2|......
..|......|......
..|......|......
..|......|......
..|......|......
..|......|......
..|E-5.v2|......
..|......|......
..|......|......
..|......|......
..|......|......
..|......|......
..|C-5.v2|......
..|......|......
..|......|......
..|......|......
..|......|......
..|......|......
..|E-5.v2|......
..|......|......
..|......|......
..|......|......
..|......|......
..|......|......
..|E-5.v2|......
..|......|......
..|......|......
..|......|......
..|......|......
..|......|......
..|E-4.v2|......
..|......|......
..|......|......
..|......|......
..|......|......
..|......|......
..|E-5.v2|......
..|......|......
..|......|......
..|......|......
..|......|......
..|......|......
..|E-4.v2|......
..|......|......
..|......|......
..|......|......
..|......|......
..|......|......
..|E-5.v2|......
..|......|......
..|......|......
..|......|......
..|......|......
..|......|......
..|E-5.v2|......
..|......|......
..|......|......
..|......|......
..|......|......
..|......|......
..|E-4.v2|......
..|......|......
..|......|......
..|......|......
..|......|......
..|......|......
..|E-5.v2|......
..|......|......
..|......|......
..|......|......
..|......|......
..|......|......
..|E-5.v2|......
..|......|......
..|......|......
..|......|......
..|......|......
..|......|......
..|E-4.v2|......
..|......|......
..|......|......
..|......|......
..|......|......
..|......|......
..|E-5.v2|......
..|......|......
..|......|......
..|......|......
..|......|......
..|......|......
..|E-4.v2|......
..|......|......
..|......|......
..|......|......
..|......|......
..|......|......
..|E-5.v2|......
..|......|......
..|......|......
..|......|......
..|......|......
..|......|......
..|E-5.v2|......
..|......|......
..|......|......
..|......|......
..|......|......
..|......|......
..|B-4.v2|......
..|......|......
..|......|......
..|......|......
..|......|......
..|......|......
..|F#5.v2|......
..|......|......
..|......|......
..|......|......
..|......|......
..|......|......
..|F#5.v2|......
..|......|......
..|......|......
..|......|......
..|......|......
..|......|......
..|F#4.v2|......
..|......|......
..|......|......
..|......|......
..|......|......
..|......|......
..|F#5.v2|......
..|......|......
..|......|......
..|......|......
..|......|......
..|......|......
..|F#4.v2|......
..|......|......
..|......|......
..|......|......
..|......|......
..|......|......
..|F#5.v2|......
..|......|......
..|......|......
..|......|......
..|......|......
..|......|......
..|F#5.v2|......
..|......|......
..|......|......
..|......|......
..|......|......
..|......|......
..|F#4.v2|......
..|......|......
..|......|......
..|......|......
..|......|......
..|......|......
..|F#5.v2|......
..|......|......
..|......|......
..|......|......
..|......|......
..|......|......
..|F#5.v2|......
..|......|......
..|......|......
..|......|......
..|......|......
..|......|......
..|F#4.v2|......
..|......|......
..|......|......
..|......|......
..|......|......
..|......|......
..|F#5.v2|......
..|......|......
..|......|......
..|......|......
..|......|......
..|......|......
..|F#4.v2|......
..|......|......
..|......|......
..|......|......
..|......|......
..|......|......
..|F#5.v2|......
..|......|......
..|......|......
..|......|......
..|......|......
..|......|......
..|F#5.v2|......
..|......|......
..|......|......
..|......|......
..|......|......
..|......|......
..|D-5.v2|......
..|......|......
..|......|......
..|......|......
..|......|......
..|......|......
..|E-5.v2|......
..|......|......
..|......|......
..|......|......
..|......|......
..|......|......
..|E-5.v2|......
..|......|......
..|......|......
..|......|......
..|......|......
..|......|......
..|E-4.v2|......
..|......|......
..|......|......
..|......|......
..|......|......
..|......|......
..|E-5.v2|......
..|......|......
..|......|......
..|......|......
..|......|......
..|......|......
..|E-4.v2|......
..|......|......
..|......|......
..|......|......
..|......|......
..|......|......
..|E-5.v2|......
..|......|......
..|......|......
..|......|......
..|......|......
..|......|......
..|E-5.v2|......
..|......|......
..|......|......
..|......|......
..|......|......
..|......|......
..|E-4.v2|......
..|......|......
..|......|......
..|......|......
..|......|......
..|......|......
..|E-5.v2|......
..|......|......
..|......|......
..|......|......
..|......|......
..|......|......
..|E-5.v2|......
..|......|......
..|......|......
..|......|......
..|......|......
..|......|......
..|E-4.v2|......
..|......|......
..|......|......
..|......|......
..|......|......
..|......|......
..|E-5.v2|......
..|......|......
..|......|......
..|......|......
..|......|......
..|......|......
..|E-4.v2|......
..|......|......
..|......|......
..|......|......
..|......|......
..|......|......
..|E-5.v2|......
..|......|......
..|......|......
..|......|......
..|......|......
..|......|......
..|E-5.v2|......
..|......|......
..|......|......
..|......|......
..|......|......
..|......|......
..|C-5.v2|......
..|......|......
..|......|......
..|......|......
..|......|......
..|......|......
..|F#5.v2|......
..|......|......
..|......|......
..|......|......
..|......|......
..|......|......
..|F#5.v2|......
..|......|......
..|......|......
..|......|......
..|......|......
..|......|......
..|F#4.v2|......
..|......|......
..|......|......
..|......|......
..|......|......
..|......|......
..|F#5.v2|......
..|......|......
..|......|......
..|......|......
..|......|......
..|......|......
..|F#4.v2|......
..|......|......
..|......|......
..|......|......
..|......|......
..|......|......
..|F#5.v2|......
..|......|......
..|......|......
..|......|......
..|......|......
..|......|......
..|F#5.v2|......
..|......|......
..|......|......
..|......|......
..|......|......
..|......|......
..|F#4.v2|......
..|......|......
..|......|......
..|......|......
..|......|......
..|......|......
..|F#5.v2|......
..|......|......
..|......|......
..|......|......
..|......|......
..|......|......
..|F#5.v2|......
..|......|......
..|......|......
..|......|......
..|......|......
..|......|......
..|F#4.v2|......
..|......|......
..|......|......
..|......|......
..|......|......
..|......|......
..|F#5.v2|......
..|......|......
..|......|......
..|......|......
..|......|......
..|......|......
..|F#4.v2|......
..|......|......
..|......|......
..|......|......
..|......|......
..|......|......
..|F#5.v2|......
..|......|......
..|......|......
..|......|......
..|......|......
..|......|......
..|F#5.v2|......
..|......|......
..|......|......
..|......|......
..|......|......
..|......|......
..|D-5.v2|......
..|......|......
..|......|......
..|......|......
..|......|......
..|......|......
..|===...|......
#join
#inst 1
#unk6 7
#volume 6e
..|E-6.v2|......
..|......|......
..|......|......
..|......|......
..|......|......
..|......|......
..|......|......
..|......|......
..|......|......
..|......|......
..|......|......
..|......|......
..|......|......
..|......|......
..|......|......
..|......|......
..|......|......
..|......|......
..|......|......
..|......|......
..|......|......
..|......|......
..|......|......
..|......|......
..|......|......
..|......|......
..|......|......
..|......|......
..|......|......
..|......|......
..|......|......
..|......|......
..|......|......
..|......|......
..|......|......
..|......|......
..|......|......
..|......|......
..|......|......
..|......|......
..|......|......
..|......|......
..|......|......
..|......|......
..|......|......
..|......|......
..|......|......
..|......|......
..|......|......
..|......|......
..|......|......
..|......|......
..|......|......
..|......|......
..|......|......
..|......|......
..|......|......
..|......|......
..|......|......
..|......|......
..|===...|D-6.v2
..|......|......
..|......|......
..|......|......
..|......|......
..|......|......
..|......|......
..|......|......
..|......|......
..|......|......
..|......|......
..|......|......
..|......|E-6.v2
..|......|......
..|......|......
..|......|......
..|......|......
..|......|......
..|......|......
..|......|......
..|......|......
..|......|......
..|......|......
..|......|......
..|......|F#6.v2
..|......|......
..|......|......
..|......|......
..|......|......
..|......|......
..|......|......
..|......|......
..|......|......
..|......|......
..|......|......
..|......|......
..|......|F#6.v2
..|......|......
..|......|......
..|......|......
..|......|......
..|......|......
..|......|......
..|......|......
..|......|......
..|......|......
..|......|......
..|......|......
..|......|......
..|......|......
..|......|......
..|......|......
..|......|......
..|......|......
..|......|......
..|......|......
..|......|......
..|......|......
..|......|......
..|......|......
..|......|......
..|......|......
..|......|......
..|......|......
..|......|......
..|......|......
..|......|......
..|......|......
..|......|......
..|......|......
..|......|......
..|......|......
..|......|......
..|......|......
..|......|......
..|......|......
..|......|......
..|......|......
..|......|......
..|......|......
..|......|......
..|......|......
..|......|......
..|......|......
..|......|......
..|......|......
..|......|......
..|......|......
..|......|......
..|......|......
..|......|......
..|......|......
..|......|......
..|......|......
..|......|......
..|......|......
..|......|F#6.v2
..|......|......
..|......|......
..|......|......
..|......|......
..|......|......
..|......|......
..|......|......
..|......|......
..|......|......
..|......|......
..|......|......
..|......|G-6.v2
..|......|......
..|......|......
..|......|......
..|......|......
..|......|......
..|......|......
..|......|......
..|......|......
..|......|......
..|......|......
..|......|......
..|......|A-6.v2
..|......|......
..|......|......
..|......|......
..|......|......
..|......|......
..|......|......
..|......|......
..|......|......
..|......|......
..|......|......
..|......|......
..|......|......
..|......|......
..|......|......
..|......|......
..|......|......
..|......|......
..|......|......
..|......|......
..|......|......
..|......|......
..|......|......
..|......|......
..|......|......
..|......|......
..|......|......
..|......|......
..|......|......
..|......|......
..|......|......
..|......|......
..|......|......
..|......|......
..|......|......
..|......|......
..|......|G-6.v2
..|......|......
..|......|......
..|......|......
..|......|......
..|......|......
..|......|......
..|......|......
..|......|......
..|......|......
..|......|......
..|......|......
..|......|......
..|......|......
..|......|......
..|......|......
..|......|......
..|......|......
..|......|......
..|......|......
..|......|......
..|......|......
..|......|......
..|......|......
..|......|F#6.v2
..|......|......
..|......|......
..|......|......
..|......|......
..|......|......
..|......|......
..|......|......
..|......|......
..|......|......
..|......|......
..|......|......
..|......|......
..|......|......
..|......|......
..|......|......
..|......|......
..|......|......
..|......|......
..|......|......
..|......|......
..|......|......
..|......|......
..|......|......
..|......|E-6.v2
..|......|......
..|......|......
..|......|......
..|......|......
..|......|......
..|......|......
..|......|......
..|......|......
..|......|......
..|......|......
..|......|......
..|......|......
..|......|......
..|......|......
..|......|......
..|......|......
..|......|......
..|......|......
..|......|......
..|......|......
..|......|......
..|......|......
..|......|===...
..|D-6.v2|......
..|......|......
..|......|......
..|......|......
..|......|......
..|......|......
..|......|......
..|......|......
..|......|......
..|......|......
..|......|......
..|......|......
..|......|......
..|......|......
..|......|......
..|......|......
..|......|......
..|......|......
..|......|......
..|......|......
..|......|......
..|......|......
..|......|......
..|......|......
..|......|......
..|......|......
..|......|......
..|......|......
..|......|......
..|......|......
..|......|......
..|......|......
..|......|......
..|......|......
..|......|......
..|......|......
..|......|......
..|......|......
..|......|......
..|......|......
..|......|......
..|......|......
..|......|......
..|......|......
..|......|......
..|......|......
..|......|......
..|......|......
..|D#6.v2|......
..|......|......
..|......|......
..|......|......
..|......|......
..|......|......
..|......|......
..|......|......
..|......|......
..|......|......
..|......|......
..|......|......
..|......|......
..|......|......
..|......|......
..|......|......
..|......|......
..|......|......
..|......|......
..|......|......
..|......|......
..|......|......
..|......|......
..|......|......
..|......|......
..|......|......
..|......|......
..|......|......
..|......|......
..|......|......
..|......|......
..|......|......
..|......|......
..|......|......
..|......|......
..|......|......
..|......|......
..|......|......
..|......|......
..|......|......
..|......|......
..|......|......
..|......|......
..|......|......
..|......|......
..|......|......
..|......|......
..|......|......
..|===...|......
#join
..|......|......
#join
#unk6 6
#song 9
#halt
#halt
