#compressed
#unkc
#track 3
#inst 5
#unk6 7
#volume 69
..|......|......|......|......|......|......|......|......
..|......|......|......|......|......|......|......|......
..|......|......|......|......|......|......|......|......
..|......|......|......|......|......|......|......|......
..|......|......|......|......|......|......|......|......
..|......|......|......|......|......|......|......|......
..|......|......|......|......|......|......|......|......
..|......|......|......|......|......|......|......|......
..|......|......|......|......|......|......|......|......
..|......|......|......|......|......|......|......|......
..|......|......|......|......|......|......|......|......
..|......|......|......|......|......|......|......|......
..|F#6.v2|D-6.v2|B-5.v2|......|......|......|......|......
..|......|......|......|......|......|......|......|......
..|......|......|......|......|......|......|......|......
..|===...|......|===...|......|......|......|......|......
#join
..|......|===...|......|......|......|......|......|......
..|......|......|......|......|......|......|......|......
..|......|......|......|......|......|......|......|......
..|......|......|......|......|......|......|......|......
..|......|......|......|......|......|......|......|......
..|......|......|......|......|......|......|......|......
..|......|......|......|......|......|......|......|......
..|......|......|......|......|......|......|......|......
..|......|......|......|......|......|......|......|......
..|B-5.v2|D-6.v2|F#6.v2|......|......|......|......|......
..|......|......|......|......|......|......|......|......
..|......|......|......|......|......|......|......|......
..|===...|......|===...|......|......|......|......|......
#join
..|......|===...|......|......|......|......|......|......
..|......|......|......|......|......|......|......|......
..|......|......|......|......|......|......|......|......
..|......|......|......|......|......|......|......|......
..|......|......|......|......|......|......|......|......
..|......|......|......|......|......|......|......|......
..|......|......|......|......|......|......|......|......
..|......|......|......|......|......|......|......|......
..|......|......|......|......|......|......|......|......
..|......|......|......|......|......|......|......|......
..|......|......|......|......|......|......|......|......
..|......|......|......|......|......|......|......|......
..|......|......|......|......|......|......|......|......
..|......|......|......|......|......|......|......|......
..|......|......|......|......|......|......|......|......
..|......|......|......|......|......|......|......|......
..|......|......|......|......|......|......|......|......
..|......|......|......|......|......|......|......|......
..|......|......|......|......|......|......|......|......
..|......|......|......|......|......|......|......|......
..|......|......|......|......|......|......|......|......
..|B-5.v2|F#6.v2|D-6.v2|......|......|......|......|......
..|......|......|......|......|......|......|......|......
..|......|......|......|......|......|......|......|......
..|......|......|......|......|......|......|......|......
..|......|......|......|......|......|......|......|......
..|......|......|......|......|......|......|......|......
..|......|......|......|......|......|......|......|......
..|......|......|......|......|......|......|......|......
..|......|......|......|......|......|......|......|......
..|......|......|......|......|......|......|......|......
..|......|......|......|......|......|......|......|......
..|......|......|......|......|......|......|......|......
..|===...|......|===...|......|......|......|......|......
#join
..|......|===...|......|......|......|......|......|......
..|......|......|......|......|......|......|......|......
..|......|......|......|......|......|......|......|......
..|......|......|......|......|......|......|......|......
..|......|......|......|......|......|......|......|......
..|......|......|......|......|......|......|......|......
..|F#6.v2|D-6.v2|B-5.v2|......|......|......|......|......
..|......|......|......|......|......|......|......|......
..|===...|......|===...|......|......|......|......|......
#join
..|......|===...|......|......|......|......|......|......
..|......|......|......|......|......|......|......|......
..|......|......|......|......|......|......|......|......
..|......|......|......|......|......|......|......|......
..|......|......|......|......|......|......|......|......
..|......|......|......|......|......|......|......|......
..|......|......|......|......|......|......|......|......
..|......|......|......|......|......|......|......|......
..|......|......|......|......|......|......|......|......
..|......|......|......|......|......|......|......|......
..|......|......|......|......|......|......|......|......
..|......|......|......|......|......|......|......|......
..|......|......|......|......|......|......|......|......
..|......|......|......|......|......|......|......|......
..|......|......|......|......|......|......|......|......
..|......|......|......|......|......|......|......|......
..|B-5.v2|F#6.v2|D-6.v2|......|......|......|......|......
..|......|......|......|......|......|......|......|......
..|......|......|......|......|......|......|......|......
..|===...|......|===...|......|......|......|......|......
#join
..|......|===...|......|......|......|......|......|......
..|......|......|......|......|......|......|......|......
..|......|......|......|......|......|......|......|......
..|......|......|......|......|......|......|......|......
..|......|......|......|......|......|......|......|......
..|......|......|......|......|......|......|......|......
..|......|......|......|......|......|......|......|......
..|......|......|......|......|......|......|......|......
..|......|......|......|......|......|......|......|......
..|......|......|......|......|......|......|......|......
..|......|......|......|......|......|......|......|......
..|......|......|......|......|......|......|......|......
..|......|......|......|......|......|......|......|......
..|......|......|......|......|......|......|......|......
..|......|......|......|......|......|......|......|......
..|......|......|......|......|......|......|......|......
..|......|......|......|......|......|......|......|......
..|......|......|......|......|......|......|......|......
..|......|......|......|......|......|......|......|......
..|......|......|......|......|......|......|......|......
..|......|......|......|......|......|......|......|......
..|F#6.v2|D-6.v2|B-5.v2|......|......|......|......|......
..|......|......|......|......|......|......|......|......
..|......|......|......|......|......|......|......|......
..|===...|......|===...|......|......|......|......|......
#join
..|......|===...|......|......|......|......|......|......
..|......|......|......|......|......|......|......|......
..|......|......|......|......|......|......|......|......
..|......|......|......|......|......|......|......|......
..|......|......|......|......|......|......|......|......
..|......|......|......|......|......|......|......|......
..|......|......|......|......|......|......|......|......
..|......|......|......|......|......|......|......|......
..|......|......|......|......|......|......|......|......
..|B-5.v2|D-6.v2|F#6.v2|......|......|......|......|......
..|......|......|......|......|......|......|......|......
..|......|......|......|......|......|......|......|......
..|===...|......|===...|......|......|......|......|......
#join
..|......|===...|......|......|......|......|......|......
..|......|......|......|......|......|......|......|......
..|......|......|......|......|......|......|......|......
..|......|......|......|......|......|......|......|......
..|......|......|......|......|......|......|......|......
..|......|......|......|......|......|......|......|......
..|......|......|......|......|......|......|......|......
..|......|......|......|......|......|......|......|......
..|......|......|......|......|......|......|......|......
..|......|......|......|......|......|......|......|......
..|......|......|......|......|......|......|......|......
..|......|......|......|......|......|......|......|......
..|......|......|......|......|......|......|......|......
..|......|......|......|......|......|......|......|......
..|......|......|......|......|......|......|......|......
..|......|......|......|......|......|......|......|......
..|......|......|......|......|......|......|......|......
..|......|......|......|......|......|......|......|......
..|......|......|......|......|......|......|......|......
..|......|......|......|......|......|......|......|......
..|......|......|......|......|......|......|......|......
..|B-5.v2|F#6.v2|D-6.v2|......|......|......|......|......
..|......|......|......|......|......|......|......|......
..|......|......|......|......|......|......|......|......
..|......|......|......|......|......|......|......|......
..|......|......|......|......|......|......|......|......
..|......|......|......|......|......|......|......|......
..|......|......|......|......|......|......|......|......
..|......|......|......|......|......|......|......|......
..|......|......|......|......|......|......|......|......
..|......|......|......|......|......|......|......|......
..|......|......|......|......|......|......|......|......
..|......|......|......|......|......|......|......|......
..|===...|......|===...|......|......|......|......|......
#join
..|......|===...|......|......|......|......|......|......
..|......|......|......|......|......|......|......|......
..|......|......|......|......|......|......|......|......
..|......|......|......|......|......|......|......|......
..|......|......|......|......|......|......|......|......
..|......|......|......|......|......|......|......|......
..|F#6.v2|D-6.v2|B-5.v2|......|......|......|......|......
..|......|......|......|......|......|......|......|......
..|===...|......|===...|......|......|......|......|......
#join
..|......|===...|......|......|......|......|......|......
..|......|......|......|......|......|......|......|......
..|......|......|......|......|......|......|......|......
..|......|......|......|......|......|......|......|......
..|......|......|......|......|......|......|......|......
..|......|......|......|......|......|......|......|......
..|......|......|......|......|......|......|......|......
..|......|......|......|......|......|......|......|......
..|......|......|......|......|......|......|......|......
..|......|......|......|......|......|......|......|......
..|......|......|......|......|......|......|......|......
..|......|......|......|......|......|......|......|......
..|......|......|......|......|......|......|......|......
..|......|......|......|......|......|......|......|......
..|......|......|......|......|......|......|......|......
..|......|......|......|......|......|......|......|......
..|B-5.v2|F#6.v2|D-6.v2|......|......|......|......|......
..|......|......|......|......|......|......|......|......
..|......|......|......|......|......|......|......|......
..|===...|......|===...|......|......|......|......|......
#join
..|......|===...|......|......|......|......|......|......
..|......|......|......|......|......|......|......|......
..|......|......|......|......|......|......|......|......
..|......|......|......|......|......|......|......|......
..|......|......|......|......|......|......|......|......
..|......|......|......|......|......|......|......|......
..|......|......|......|......|......|......|......|......
..|......|......|......|......|......|......|......|......
..|......|......|......|......|......|......|......|......
..|......|......|......|......|......|......|......|......
..|......|......|......|......|......|......|......|......
..|......|......|......|......|......|......|......|......
..|......|......|......|......|......|......|......|......
..|......|......|......|......|......|......|......|......
..|......|......|......|......|......|......|......|......
..|......|......|......|......|......|......|......|......
..|......|......|......|......|......|......|......|......
..|......|......|......|......|......|......|......|......
..|......|......|......|......|......|......|......|......
..|......|......|......|......|......|......|......|......
..|......|......|......|......|......|......|......|......
..|F#6.v2|D-6.v2|B-5.v2|......|......|......|......|......
..|......|......|......|......|......|......|......|......
..|......|......|......|......|......|......|......|......
..|===...|......|===...|......|......|......|......|......
#join
..|......|===...|......|......|......|......|......|......
..|......|......|......|......|......|......|......|......
..|......|......|......|......|......|......|......|......
..|......|......|......|......|......|......|......|......
..|......|......|......|......|......|......|......|......
..|......|......|......|......|......|......|......|......
..|......|......|......|......|......|......|......|......
..|......|......|......|......|......|......|......|......
..|......|......|......|......|......|......|......|......
..|B-5.v2|D-6.v2|F#6.v2|......|......|......|......|......
..|......|......|......|......|......|......|......|......
..|......|......|......|......|......|......|......|......
..|===...|......|===...|......|......|......|......|......
#join
..|......|===...|......|......|......|......|......|......
..|......|......|......|......|......|......|......|......
..|......|......|......|......|......|......|......|......
..|......|......|......|......|......|......|......|......
..|......|......|......|......|......|......|......|......
..|......|......|......|......|......|......|......|......
..|......|......|......|......|......|......|......|......
..|......|......|......|......|......|......|......|......
..|......|......|......|......|......|......|......|......
..|......|......|......|......|......|......|......|......
..|......|......|......|......|......|......|......|......
..|......|......|......|......|......|......|......|......
..|......|......|......|......|......|......|......|......
..|......|......|......|......|......|......|......|......
..|......|......|......|......|......|......|......|......
..|......|......|......|......|......|......|......|......
..|......|......|......|......|......|......|......|......
..|......|......|......|......|......|......|......|......
..|......|......|......|......|......|......|......|......
..|......|......|......|......|......|......|......|......
..|......|......|......|......|......|......|......|......
..|B-5.v2|F#6.v2|D-6.v2|......|......|......|......|......
..|......|......|......|......|......|......|......|......
..|......|......|......|......|......|......|......|......
..|......|......|......|......|......|......|......|......
..|......|......|......|......|......|......|......|......
..|......|......|......|......|......|......|......|......
..|......|......|......|......|......|......|......|......
..|......|......|......|......|......|......|......|......
..|......|......|......|......|......|......|......|......
..|......|......|......|......|......|......|......|......
..|......|......|......|......|......|......|......|......
..|......|......|......|......|......|......|......|......
..|===...|......|===...|......|......|......|......|......
#join
..|......|===...|......|......|......|......|......|......
..|......|......|......|......|......|......|......|......
..|......|......|......|......|......|......|......|......
..|......|......|......|......|......|......|......|......
..|......|......|......|......|......|......|......|......
..|......|......|......|......|......|......|......|......
..|F#6.v2|D-6.v2|B-5.v2|......|......|......|......|......
..|......|......|......|......|......|......|......|......
..|===...|......|===...|......|......|......|......|......
#join
..|......|===...|......|......|......|......|......|......
..|......|......|......|......|......|......|......|......
..|......|......|......|......|......|......|......|......
..|......|......|......|......|......|......|......|......
..|......|......|......|......|......|......|......|......
..|......|......|......|......|......|......|......|......
..|......|......|......|......|......|......|......|......
..|......|......|......|......|......|......|......|......
..|......|......|......|......|......|......|......|......
..|......|......|......|......|......|......|......|......
..|......|......|......|......|......|......|......|......
..|......|......|......|......|......|......|......|......
..|......|......|......|......|......|......|......|......
..|......|......|......|......|......|......|......|......
..|......|......|......|......|......|......|......|......
..|......|......|......|......|......|......|......|......
..|B-5.v2|F#6.v2|D-6.v2|......|......|......|......|......
..|......|......|......|......|......|......|......|......
..|......|......|......|......|......|......|......|......
..|===...|......|===...|......|......|......|......|......
#join
..|......|===...|......|......|......|......|......|......
..|......|......|......|......|......|......|......|......
..|......|......|......|......|......|......|......|......
..|......|......|......|......|......|......|......|......
..|......|......|......|......|......|......|......|......
..|......|......|......|......|......|......|......|......
..|......|......|......|......|......|......|......|......
..|......|......|......|......|......|......|......|......
..|......|......|......|......|......|......|......|......
..|......|......|......|......|......|......|......|......
..|......|......|......|......|......|......|......|......
..|......|......|......|......|......|......|......|......
..|......|......|......|......|......|......|......|......
..|......|......|......|......|......|......|......|......
..|......|......|......|......|......|......|......|......
..|......|......|......|......|......|......|......|......
..|......|......|......|......|......|......|......|......
..|......|......|......|......|......|......|......|......
..|......|......|......|......|......|......|......|......
..|......|......|......|......|......|......|......|......
..|......|......|......|......|......|......|......|......
..|F#6.v2|D-6.v2|B-5.v2|......|......|......|......|......
..|......|......|......|......|......|......|......|......
..|......|......|......|......|......|......|......|......
..|===...|......|===...|......|......|......|......|......
#join
..|......|===...|......|......|......|......|......|......
..|......|......|......|......|......|......|......|......
..|......|......|......|......|......|......|......|......
..|......|......|......|......|......|......|......|......
..|......|......|......|......|......|......|......|......
..|......|......|......|......|......|......|......|......
..|......|......|......|......|......|......|......|......
..|......|......|......|......|......|......|......|......
..|......|......|......|......|......|......|......|......
..|B-5.v2|D-6.v2|F#6.v2|......|......|......|......|......
..|......|......|......|......|......|......|......|......
..|......|......|......|......|......|......|......|......
..|===...|......|===...|......|......|......|......|......
#join
..|......|===...|......|......|......|......|......|......
..|......|......|......|......|......|......|......|......
..|......|......|......|......|......|......|......|......
..|......|......|......|......|......|......|......|......
..|......|......|......|......|......|......|......|......
..|......|......|......|......|......|......|......|......
..|......|......|......|......|......|......|......|......
..|......|......|......|......|......|......|......|......
..|......|......|......|......|......|......|......|......
..|......|......|......|......|......|......|......|......
..|......|......|......|......|......|......|......|......
..|......|......|......|......|......|......|......|......
..|......|......|......|......|......|......|......|......
..|......|......|......|......|......|......|......|......
..|......|......|......|......|......|......|......|......
..|......|......|......|......|......|......|......|......
..|......|......|......|......|......|......|......|......
..|......|......|......|......|......|......|......|......
..|......|......|......|......|......|......|......|......
..|......|......|......|......|......|......|......|......
..|......|......|......|......|......|......|......|......
..|B-5.v2|F#6.v2|D-6.v2|......|......|......|......|......
..|......|......|......|......|......|......|......|......
..|......|......|......|......|......|......|......|......
..|......|......|......|......|......|......|......|......
..|......|......|......|......|......|......|......|......
..|......|......|......|......|......|......|......|......
..|......|......|......|......|......|......|......|......
..|......|......|......|......|......|......|......|......
..|......|......|......|......|......|......|......|......
..|......|......|......|......|......|......|......|......
..|......|......|......|......|......|......|......|......
..|......|......|......|......|......|......|......|......
..|===...|......|===...|......|......|......|......|......
#join
..|......|===...|......|......|......|......|......|......
..|......|......|......|......|......|......|......|......
..|......|......|......|......|......|......|......|......
..|......|......|......|......|......|......|......|......
..|......|......|......|......|......|......|......|......
..|......|......|......|......|......|......|......|......
..|F#6.v2|D-6.v2|B-5.v2|......|......|......|......|......
..|......|......|......|......|......|......|......|......
..|===...|......|===...|......|......|......|......|......
#join
..|......|===...|......|......|......|......|......|......
..|......|......|......|......|......|......|......|......
..|......|......|......|......|......|......|......|......
..|......|......|......|......|......|......|......|......
..|......|......|......|......|......|......|......|......
..|......|......|......|......|......|......|......|......
..|......|......|......|......|......|......|......|......
..|......|......|......|......|......|......|......|......
..|......|......|......|......|......|......|......|......
..|......|......|......|......|......|......|......|......
..|......|......|......|......|......|......|......|......
..|......|......|......|......|......|......|......|......
..|......|......|......|......|......|......|......|......
..|......|......|......|......|......|......|......|......
..|......|......|......|......|......|......|......|......
..|......|......|......|......|......|......|......|......
..|B-5.v2|F#6.v2|D-6.v2|......|......|......|......|......
..|......|......|......|......|......|......|......|......
..|......|......|......|......|......|......|......|......
..|===...|......|===...|......|......|......|......|......
#join
..|......|===...|......|......|......|......|......|......
..|......|......|......|......|......|......|......|......
..|......|......|......|......|......|......|......|......
..|......|......|......|......|......|......|......|......
..|......|......|......|......|......|......|......|......
..|......|......|......|......|......|......|......|......
..|......|......|......|......|......|......|......|......
..|......|......|......|......|......|......|......|......
..|......|......|......|......|......|......|......|......
..|......|......|......|......|......|......|......|......
..|......|......|......|......|......|......|......|......
..|......|......|......|......|......|......|......|......
..|......|......|......|......|......|......|......|......
..|......|......|......|......|......|......|......|......
..|......|......|......|......|......|......|......|......
..|......|......|......|......|......|......|......|......
..|......|......|......|......|......|......|......|......
..|......|......|......|......|......|......|......|......
..|......|......|......|......|......|......|......|......
..|......|......|......|......|......|......|......|......
..|......|......|......|......|......|......|......|......
..|F#6.v2|D-6.v2|B-5.v2|......|......|......|......|......
..|......|......|......|......|......|......|......|......
..|......|......|......|......|......|......|......|......
..|===...|......|===...|......|......|......|......|......
#join
..|......|===...|......|......|......|......|......|......
..|......|......|......|......|......|......|......|......
..|......|......|......|......|......|......|......|......
..|......|......|......|......|......|......|......|......
..|......|......|......|......|......|......|......|......
..|......|......|......|......|......|......|......|......
..|......|......|......|......|......|......|......|......
..|......|......|......|......|......|......|......|......
..|......|......|......|......|......|......|......|......
..|B-5.v2|D-6.v2|F#6.v2|......|......|......|......|......
..|......|......|......|......|......|......|......|......
..|......|......|......|......|......|......|......|......
..|===...|......|===...|......|......|......|......|......
#join
..|......|===...|......|......|......|......|......|......
..|......|......|......|......|......|......|......|......
..|......|......|......|......|......|......|......|......
..|......|......|......|......|......|......|......|......
..|......|......|......|......|......|......|......|......
..|......|......|......|......|......|......|......|......
..|......|......|......|......|......|......|......|......
..|......|......|......|......|......|......|......|......
..|......|......|......|......|......|......|......|......
..|......|......|......|......|......|......|......|......
..|......|......|......|......|......|......|......|......
..|......|......|......|......|......|......|......|......
..|......|......|......|......|......|......|......|......
..|......|......|......|......|......|......|......|......
..|......|......|......|......|......|......|......|......
..|......|......|......|......|......|......|......|......
..|......|......|......|......|......|......|......|......
..|......|......|......|......|......|......|......|......
..|......|......|......|......|......|......|......|......
..|......|......|......|......|......|......|......|......
..|......|......|......|......|......|......|......|......
..|B-5.v2|F#6.v2|D-6.v2|......|......|......|......|......
..|......|......|......|......|......|......|......|......
..|......|......|......|......|......|......|......|......
..|......|......|......|......|......|......|......|......
..|......|......|......|......|......|......|......|......
..|......|......|......|......|......|......|......|......
..|......|......|......|......|......|......|......|......
..|......|......|......|......|......|......|......|......
..|......|......|......|......|......|......|......|......
..|......|......|......|......|......|......|......|......
..|......|......|......|......|......|......|......|......
..|......|......|......|......|......|......|......|......
..|===...|......|===...|......|......|......|......|......
#join
..|......|===...|......|......|......|......|......|......
..|......|......|......|......|......|......|......|......
..|......|......|......|......|......|......|......|......
..|......|......|......|......|......|......|......|......
..|......|......|......|......|......|......|......|......
..|......|......|......|......|......|......|......|......
..|F#6.v2|D-6.v2|B-5.v2|......|......|......|......|......
..|......|......|......|......|......|......|......|......
..|===...|......|===...|......|......|......|......|......
#join
..|......|===...|......|......|......|......|......|......
..|......|......|......|......|......|......|......|......
..|......|......|......|......|......|......|......|......
..|......|......|......|......|......|......|......|......
..|......|......|......|......|......|......|......|......
..|......|......|......|......|......|......|......|......
..|......|......|......|......|......|......|......|......
..|......|......|......|......|......|......|......|......
..|......|......|......|......|......|......|......|......
..|......|......|......|......|......|......|......|......
..|......|......|......|......|......|......|......|......
..|......|......|......|......|......|......|......|......
..|......|......|......|......|......|......|......|......
..|......|......|......|......|......|......|......|......
..|......|......|......|......|......|......|......|......
..|......|......|......|......|......|......|......|......
..|B-5.v2|F#6.v2|D-6.v2|......|......|......|......|......
..|......|......|......|......|......|......|......|......
..|......|......|......|......|......|......|......|......
..|===...|......|===...|......|......|......|......|......
#join
..|......|===...|......|......|......|......|......|......
..|......|......|......|......|......|......|......|......
..|......|......|......|......|......|......|......|......
..|......|......|......|......|......|......|......|......
..|......|......|......|......|......|......|......|......
..|......|......|......|......|......|......|......|......
..|......|......|......|......|......|......|......|......
..|......|......|......|......|......|......|......|......
..|......|......|......|......|......|......|......|......
..|......|......|......|......|......|......|......|......
..|......|......|......|......|......|......|......|......
..|......|......|......|......|......|......|......|......
..|......|......|......|......|......|......|......|......
..|......|......|......|......|......|......|......|......
..|......|......|......|......|......|......|......|......
..|......|......|......|......|......|......|......|......
..|......|......|......|......|......|......|......|......
..|......|......|......|......|......|......|......|......
..|......|......|......|......|......|......|......|......
..|......|......|......|......|......|......|......|......
..|......|......|......|......|......|......|......|......
..|F#6.v2|D-6.v2|B-5.v2|......|......|......|......|......
..|......|......|......|......|......|......|......|......
..|......|......|......|......|......|......|......|......
..|===...|......|===...|......|......|......|......|......
#join
..|......|===...|......|......|......|......|......|......
..|......|......|......|......|......|......|......|......
..|......|......|......|......|......|......|......|......
..|......|......|......|......|......|......|......|......
..|......|......|......|......|......|......|......|......
..|......|......|......|......|......|......|......|......
..|......|......|......|......|......|......|......|......
..|......|......|......|......|......|......|......|......
..|......|......|......|......|......|......|......|......
..|B-5.v2|D-6.v2|F#6.v2|......|......|......|......|......
..|......|......|......|......|......|......|......|......
..|......|......|......|......|......|......|......|......
..|===...|......|===...|......|......|......|......|......
#join
..|......|===...|......|......|......|......|......|......
..|......|......|......|......|......|......|......|......
..|......|......|......|......|......|......|......|......
..|......|......|......|......|......|......|......|......
..|......|......|......|......|......|......|......|......
..|......|......|......|......|......|......|......|......
..|......|......|......|......|......|......|......|......
..|......|......|......|......|......|......|......|......
..|......|......|......|......|......|......|......|......
..|......|......|......|......|......|......|......|......
..|......|......|......|......|......|......|......|......
..|......|......|......|......|......|......|......|......
..|......|......|......|......|......|......|......|......
..|......|......|......|......|......|......|......|......
..|......|......|......|......|......|......|......|......
..|......|......|......|......|......|......|......|......
..|......|......|......|......|......|......|......|......
..|......|......|......|......|......|......|......|......
..|......|......|......|......|......|......|......|......
..|......|......|......|......|......|......|......|......
..|......|......|......|......|......|......|......|......
..|B-5.v2|F#6.v2|D-6.v2|......|......|......|......|......
..|......|......|......|......|......|......|......|......
..|......|......|......|......|......|......|......|......
..|......|......|......|......|......|......|......|......
..|......|......|......|......|......|......|......|......
..|......|......|......|......|......|......|......|......
..|......|......|......|......|......|......|......|......
..|......|......|......|......|......|......|......|......
..|......|......|......|......|......|......|......|......
..|......|......|......|......|......|......|......|......
..|......|......|......|......|......|......|......|......
..|......|......|......|......|......|......|......|......
..|===...|......|===...|......|......|......|......|......
#join
..|......|===...|......|......|......|......|......|......
..|......|......|......|......|......|......|......|......
..|......|......|......|......|......|......|......|......
..|......|......|......|......|......|......|......|......
..|......|......|......|......|......|......|......|......
..|......|......|......|......|......|......|......|......
..|F#6.v2|D-6.v2|B-5.v2|......|......|......|......|......
..|......|......|......|......|......|......|......|......
..|===...|......|===...|......|......|......|......|......
#join
..|......|===...|......|......|......|......|......|......
..|......|......|......|......|......|......|......|......
..|......|......|......|......|......|......|......|......
..|......|......|......|......|......|......|......|......
..|......|......|......|......|......|......|......|......
..|......|......|......|......|......|......|......|......
..|......|......|......|......|......|......|......|......
..|......|......|......|......|......|......|......|......
..|......|......|......|......|......|......|......|......
..|......|......|......|......|......|......|......|......
..|......|......|......|......|......|......|......|......
..|......|......|......|......|......|......|......|......
..|......|......|......|......|......|......|......|......
..|......|......|......|......|......|......|......|......
..|......|......|......|......|......|......|......|......
..|......|......|......|......|......|......|......|......
..|B-5.v2|F#6.v2|D-6.v2|......|......|......|......|......
..|......|......|......|......|......|......|......|......
..|......|......|......|......|......|......|......|......
..|===...|......|===...|......|......|......|......|......
#join
..|......|===...|......|......|......|......|......|......
..|......|......|......|......|......|......|......|......
..|......|......|......|......|......|......|......|......
..|......|......|......|......|......|......|......|......
..|......|......|......|......|......|......|......|......
..|......|......|......|......|......|......|......|......
..|......|......|......|......|......|......|......|......
..|......|......|......|......|......|......|......|......
..|......|......|......|......|......|......|......|......
..|......|......|......|......|......|......|......|......
..|......|......|......|......|......|......|......|......
..|......|......|......|......|......|......|......|......
..|......|......|......|......|......|......|......|......
..|......|......|......|......|......|......|......|......
..|......|......|......|......|......|......|......|......
..|......|......|......|......|......|......|......|......
..|......|......|......|......|......|......|......|......
..|......|......|......|......|......|......|......|......
..|......|......|......|......|......|......|......|......
..|......|......|......|......|......|......|......|......
..|......|......|......|......|......|......|......|......
..|F#6.v2|D-6.v2|B-5.v2|......|......|......|......|......
..|......|......|......|......|......|......|......|......
..|......|......|......|......|......|......|......|......
..|===...|......|===...|......|......|......|......|......
#join
..|......|===...|......|......|......|......|......|......
..|......|......|......|......|......|......|......|......
..|......|......|......|......|......|......|......|......
..|......|......|......|......|......|......|......|......
..|......|......|......|......|......|......|......|......
..|......|......|......|......|......|......|......|......
..|......|......|......|......|......|......|......|......
..|......|......|......|......|......|......|......|......
..|......|......|......|......|......|......|......|......
..|B-5.v2|D-6.v2|F#6.v2|......|......|......|......|......
..|......|......|......|......|......|......|......|......
..|......|......|......|......|......|......|......|......
..|===...|......|===...|......|......|......|......|......
#join
..|......|===...|......|......|......|......|......|......
..|......|......|......|......|......|......|......|......
..|......|......|......|......|......|......|......|......
..|......|......|......|......|......|......|......|......
..|......|......|......|......|......|......|......|......
..|......|......|......|......|......|......|......|......
..|......|......|......|......|......|......|......|......
..|......|......|......|......|......|......|......|......
..|......|......|......|......|......|......|......|......
..|......|......|......|......|......|......|......|......
..|......|......|......|......|......|......|......|......
..|......|......|......|......|......|......|......|......
..|......|......|......|......|......|......|......|......
..|......|......|......|......|......|......|......|......
..|......|......|......|......|......|......|......|......
..|......|......|......|......|......|......|......|......
..|......|......|......|......|......|......|......|......
..|......|......|......|......|......|......|......|......
..|......|......|......|......|......|......|......|......
..|......|......|......|......|......|......|......|......
..|......|......|......|......|......|......|......|......
..|B-5.v2|F#6.v2|D-6.v2|......|......|......|......|......
..|......|......|......|......|......|......|......|......
..|......|......|......|......|......|......|......|......
..|......|......|......|......|......|......|......|......
..|......|......|......|......|......|......|......|......
..|......|......|......|......|......|......|......|......
..|......|......|......|......|......|......|......|......
..|......|......|......|......|......|......|......|......
..|......|......|......|......|......|......|......|......
..|......|......|......|......|......|......|......|......
..|......|......|......|......|......|......|......|......
..|......|......|......|......|......|......|......|......
..|===...|......|===...|......|......|......|......|......
#join
..|......|===...|......|......|......|......|......|......
..|......|......|......|......|......|......|......|......
..|......|......|......|......|......|......|......|......
..|......|......|......|......|......|......|......|......
..|......|......|......|......|......|......|......|......
..|......|......|......|......|......|......|......|......
..|F#6.v2|D-6.v2|B-5.v2|......|......|......|......|......
..|......|......|......|......|......|......|......|......
..|===...|......|===...|......|......|......|......|......
#join
..|......|===...|......|......|......|......|......|......
..|......|......|......|......|......|......|......|......
..|......|......|......|......|......|......|......|......
..|......|......|......|......|......|......|......|......
..|......|......|......|......|......|......|......|......
..|......|......|......|......|......|......|......|......
..|......|......|......|......|......|......|......|......
..|......|......|......|......|......|......|......|......
..|......|......|......|......|......|......|......|......
..|......|......|......|......|......|......|......|......
..|......|......|......|......|......|......|......|......
..|......|......|......|......|......|......|......|......
..|......|......|......|......|......|......|......|......
..|......|......|......|......|......|......|......|......
..|......|......|......|......|......|......|......|......
..|......|......|......|......|......|......|......|......
..|B-5.v2|F#6.v2|D-6.v2|......|......|......|......|......
..|......|......|......|......|......|......|......|......
..|......|......|......|......|......|......|......|......
..|===...|......|===...|......|......|......|......|......
#join
..|......|===...|......|......|......|......|......|......
..|......|......|......|......|......|......|......|......
..|......|......|......|......|......|......|......|......
..|......|......|......|......|......|......|......|......
..|......|......|......|......|......|......|......|......
..|......|......|......|......|......|......|......|......
..|......|......|......|......|......|......|......|......
..|......|......|......|......|......|......|......|......
..|......|......|......|......|......|......|......|......
..|......|......|......|......|......|......|......|......
..|......|......|......|......|......|......|......|......
..|......|......|......|......|......|......|......|......
..|......|......|......|......|......|......|......|......
..|......|......|......|......|......|......|......|......
..|......|......|......|......|......|......|......|......
..|......|......|......|......|......|......|......|......
..|......|......|......|......|......|......|......|......
..|......|......|......|......|......|......|......|......
..|......|......|......|......|......|......|......|......
..|......|......|......|......|......|......|......|......
..|......|......|......|......|......|......|......|......
..|F#6.v2|D-6.v2|B-5.v2|......|......|......|......|......
..|......|......|......|......|......|......|......|......
..|......|......|......|......|......|......|......|......
..|===...|......|===...|......|......|......|......|......
#join
..|......|===...|......|......|......|......|......|......
..|......|......|......|......|......|......|......|......
..|......|......|......|......|......|......|......|......
..|......|......|......|......|......|......|......|......
..|......|......|......|......|......|......|......|......
..|......|......|......|......|......|......|......|......
..|......|......|......|......|......|......|......|......
..|......|......|......|......|......|......|......|......
..|......|......|......|......|......|......|......|......
..|B-5.v2|D-6.v2|F#6.v2|......|......|......|......|......
..|......|......|......|......|......|......|......|......
..|......|......|......|......|......|......|......|......
..|===...|......|===...|......|......|......|......|......
#join
..|......|===...|......|......|......|......|......|......
..|......|......|......|......|......|......|......|......
..|......|......|......|......|......|......|......|......
..|......|......|......|......|......|......|......|......
..|......|......|......|......|......|......|......|......
..|......|......|......|......|......|......|......|......
..|......|......|......|......|......|......|......|......
..|......|......|......|......|......|......|......|......
..|......|......|......|......|......|......|......|......
..|......|......|......|......|......|......|......|......
..|......|......|......|......|......|......|......|......
..|......|......|......|......|......|......|......|......
..|......|......|......|......|......|......|......|......
..|......|......|......|......|......|......|......|......
..|......|......|......|......|......|......|......|......
..|......|......|......|......|......|......|......|......
..|......|......|......|......|......|......|......|......
..|......|......|......|......|......|......|......|......
..|......|......|......|......|......|......|......|......
..|......|......|......|......|......|......|......|......
..|......|......|......|......|......|......|......|......
..|B-5.v2|F#6.v2|D-6.v2|......|......|......|......|......
..|......|......|......|......|......|......|......|......
..|......|......|......|......|......|......|......|......
..|......|......|......|......|......|......|......|......
..|......|......|......|......|......|......|......|......
..|......|......|......|......|......|......|......|......
..|......|......|......|......|......|......|......|......
..|......|......|......|......|......|......|......|......
..|......|......|......|......|......|......|......|......
..|......|......|......|......|......|......|......|......
..|......|......|......|......|......|......|......|......
..|......|......|......|......|......|......|......|......
..|===...|......|===...|......|......|......|......|......
#join
..|......|===...|......|......|......|......|......|......
..|......|......|......|......|......|......|......|......
..|......|......|......|......|......|......|......|......
..|......|......|......|......|......|......|......|......
..|......|......|......|......|......|......|......|......
..|......|......|......|......|......|......|......|......
..|F#6.v2|D-6.v2|B-5.v2|......|......|......|......|......
..|......|......|......|......|......|......|......|......
..|===...|......|===...|......|......|......|......|......
#join
..|......|===...|......|......|......|......|......|......
..|......|......|......|......|......|......|......|......
..|......|......|......|......|......|......|......|......
..|......|......|......|......|......|......|......|......
..|......|......|......|......|......|......|......|......
..|......|......|......|......|......|......|......|......
..|......|......|......|......|......|......|......|......
..|......|......|......|......|......|......|......|......
..|......|......|......|......|......|......|......|......
..|......|......|......|......|......|......|......|......
..|......|......|......|......|......|......|......|......
..|......|......|......|......|......|......|......|......
..|......|......|......|......|......|......|......|......
..|......|......|......|......|......|......|......|......
..|......|......|......|......|......|......|......|......
..|......|......|......|......|......|......|......|......
..|B-5.v2|F#6.v2|D-6.v2|......|......|......|......|......
..|......|......|......|......|......|......|......|......
..|......|......|......|......|......|......|......|......
..|===...|......|===...|......|......|......|......|......
#join
..|......|===...|......|......|......|......|......|......
..|......|......|......|......|......|......|......|......
..|......|......|......|......|......|......|......|......
..|......|......|......|......|......|......|......|......
..|......|......|......|......|......|......|......|......
..|......|......|......|......|......|......|......|......
..|......|......|......|......|......|......|......|......
..|......|......|......|......|......|......|......|......
..|......|......|......|......|......|......|......|......
..|......|......|......|......|......|......|......|......
..|......|......|......|......|......|......|......|......
..|......|......|......|......|......|......|......|......
..|......|......|......|......|......|......|......|......
..|......|......|......|......|......|......|......|......
..|......|......|......|......|......|......|......|......
..|......|......|......|......|......|......|......|......
..|......|......|......|......|......|......|......|......
..|......|......|......|......|......|......|......|......
..|......|......|......|......|......|......|......|......
..|......|......|......|......|......|......|......|......
..|......|......|......|......|......|......|......|......
..|F#6.v2|D-6.v2|B-5.v2|......|......|......|......|......
..|......|......|......|......|......|......|......|......
..|......|......|......|......|......|......|......|......
..|===...|......|===...|......|......|......|......|......
#join
..|......|===...|......|......|......|......|......|......
..|......|......|......|......|......|......|......|......
..|......|......|......|......|......|......|......|......
..|......|......|......|......|......|......|......|......
..|......|......|......|......|......|......|......|......
..|......|......|......|......|......|......|......|......
..|......|......|......|......|......|......|......|......
..|......|......|......|......|......|......|......|......
..|......|......|......|......|......|......|......|......
..|B-5.v2|D-6.v2|F#6.v2|......|......|......|......|......
..|......|......|......|......|......|......|......|......
..|......|......|......|......|......|......|......|......
..|===...|......|===...|......|......|......|......|......
#join
..|......|===...|......|......|......|......|......|......
..|......|......|......|......|......|......|......|......
..|......|......|......|......|......|......|......|......
..|......|......|......|......|......|......|......|......
..|......|......|......|......|......|......|......|......
..|......|......|......|......|......|......|......|......
..|......|......|......|......|......|......|......|......
..|......|......|......|......|......|......|......|......
..|......|......|......|......|......|......|......|......
..|......|......|......|......|......|......|......|......
..|......|......|......|......|......|......|......|......
..|......|......|......|......|......|......|......|......
..|......|......|......|......|......|......|......|......
..|......|......|......|......|......|......|......|......
..|......|......|......|......|......|......|......|......
..|......|......|......|......|......|......|......|......
..|......|......|......|......|......|......|......|......
..|......|......|......|......|......|......|......|......
..|......|......|......|......|......|......|......|......
..|......|......|......|......|......|......|......|......
..|......|......|......|......|......|......|......|......
..|B-5.v2|F#6.v2|D-6.v2|......|......|......|......|......
..|......|......|......|......|......|......|......|......
..|......|......|......|......|......|......|......|......
..|......|......|......|......|......|......|......|......
..|......|......|......|......|......|......|......|......
..|......|......|......|......|......|......|......|......
..|......|......|......|......|......|......|......|......
..|......|......|......|......|......|......|......|......
..|......|......|......|......|......|......|......|......
..|......|......|......|......|......|......|......|......
..|......|......|......|......|......|......|......|......
..|......|......|......|......|......|......|......|......
..|===...|......|===...|......|......|......|......|......
#join
..|......|===...|......|......|......|......|......|......
..|......|......|......|......|......|......|......|......
..|......|......|......|......|......|......|......|......
..|......|......|......|......|......|......|......|......
..|......|......|......|......|......|......|......|......
..|......|......|......|......|......|......|......|......
..|F#6.v2|D-6.v2|B-5.v2|......|......|......|......|......
..|......|......|......|......|......|......|......|......
..|===...|......|===...|......|......|......|......|......
#join
..|......|===...|......|......|......|......|......|......
..|......|......|......|......|......|......|......|......
..|......|......|......|......|......|......|......|......
..|......|......|......|......|......|......|......|......
..|......|......|......|......|......|......|......|......
..|......|......|......|......|......|......|......|......
..|......|......|......|......|......|......|......|......
..|......|......|......|......|......|......|......|......
..|......|......|......|......|......|......|......|......
..|......|......|......|......|......|......|......|......
..|......|......|......|......|......|......|......|......
..|......|......|......|......|......|......|......|......
..|......|......|......|......|......|......|......|......
..|......|......|......|......|......|......|......|......
..|......|......|......|......|......|......|......|......
..|......|......|......|......|......|......|......|......
..|B-5.v2|F#6.v2|D-6.v2|......|......|......|......|......
..|......|......|......|......|......|......|......|......
..|......|......|......|......|......|......|......|......
..|===...|......|===...|......|......|......|......|......
#join
..|......|===...|......|......|......|......|......|......
..|......|......|......|......|......|......|......|......
..|......|......|......|......|......|......|......|......
..|......|......|......|......|......|......|......|......
..|......|......|......|......|......|......|......|......
..|......|......|......|......|......|......|......|......
..|......|......|......|......|......|......|......|......
..|......|......|......|......|......|......|......|......
..|......|......|......|......|......|......|......|......
..|......|......|......|......|......|......|......|......
..|......|......|......|......|......|......|......|......
..|......|......|......|......|......|......|......|......
..|......|......|......|......|......|......|......|......
..|......|......|......|......|......|......|......|......
..|......|......|......|......|......|......|......|......
..|......|......|......|......|......|......|......|......
..|......|......|......|......|......|......|......|......
..|......|......|......|......|......|......|......|......
..|......|......|......|......|......|......|......|......
..|......|......|......|......|......|......|......|......
..|......|......|......|......|......|......|......|......
..|F#6.v2|D-6.v2|B-5.v2|......|......|......|......|......
..|......|......|......|......|......|......|......|......
..|......|......|......|......|......|......|......|......
..|===...|......|===...|......|......|......|......|......
#join
..|......|===...|......|......|......|......|......|......
..|......|......|......|......|......|......|......|......
..|......|......|......|......|......|......|......|......
..|......|......|......|......|......|......|......|......
..|......|......|......|......|......|......|......|......
..|......|......|......|......|......|......|......|......
..|......|......|......|......|......|......|......|......
..|......|......|......|......|......|......|......|......
..|......|......|......|......|......|......|......|......
..|B-5.v2|D-6.v2|F#6.v2|......|......|......|......|......
..|......|......|......|......|......|......|......|......
..|......|......|......|......|......|......|......|......
..|===...|......|===...|......|......|......|......|......
#join
..|......|===...|......|......|......|......|......|......
..|......|......|......|......|......|......|......|......
..|......|......|......|......|......|......|......|......
..|......|......|......|......|......|......|......|......
..|......|......|......|......|......|......|......|......
..|......|......|......|......|......|......|......|......
..|......|......|......|......|......|......|......|......
..|......|......|......|......|......|......|......|......
..|......|......|......|......|......|......|......|......
..|......|......|......|......|......|......|......|......
..|......|......|......|......|......|......|......|......
..|......|......|......|......|......|......|......|......
..|......|......|......|......|......|......|......|......
..|......|......|......|......|......|......|......|......
..|......|......|......|......|......|......|......|......
..|......|......|......|......|......|......|......|......
..|......|......|......|......|......|......|......|......
..|......|......|......|......|......|......|......|......
..|......|......|......|......|......|......|......|......
..|......|......|......|......|......|......|......|......
..|......|......|......|......|......|......|......|......
..|B-5.v2|F#6.v2|D-6.v2|......|......|......|......|......
..|......|......|......|......|......|......|......|......
..|......|......|......|......|......|......|......|......
..|......|......|......|......|......|......|......|......
..|......|......|......|......|......|......|......|......
..|......|......|......|......|......|......|......|......
..|......|......|......|......|......|......|......|......
..|......|......|......|......|......|......|......|......
..|......|......|......|......|......|......|......|......
..|......|......|......|......|......|......|......|......
..|......|......|......|......|......|......|......|......
..|......|......|......|......|......|......|......|......
..|===...|......|===...|......|......|......|......|......
#join
..|......|===...|......|......|......|......|......|......
..|......|......|......|......|......|......|......|......
..|......|......|......|......|......|......|......|......
..|......|......|......|......|......|......|......|......
..|......|......|......|......|......|......|......|......
..|......|......|......|......|......|......|......|......
..|F#6.v2|D-6.v2|B-5.v2|......|......|......|......|......
..|......|......|......|......|......|......|......|......
..|===...|......|===...|......|......|......|......|......
#join
..|......|===...|......|......|......|......|......|......
..|......|......|......|......|......|......|......|......
..|......|......|......|......|......|......|......|......
..|......|......|......|......|......|......|......|......
..|......|......|......|......|......|......|......|......
..|......|......|......|......|......|......|......|......
..|......|......|......|......|......|......|......|......
..|......|......|......|......|......|......|......|......
..|......|......|......|......|......|......|......|......
..|......|......|......|......|......|......|......|......
..|......|......|......|......|......|......|......|......
..|......|......|......|......|......|......|......|......
..|......|......|......|......|......|......|......|......
..|......|......|......|......|......|......|......|......
..|......|......|......|......|......|......|......|......
..|......|......|......|......|......|......|......|......
..|B-5.v2|F#6.v2|D-6.v2|......|......|......|......|......
..|......|......|......|......|......|......|......|......
..|......|......|......|......|......|......|......|......
..|===...|......|===...|......|......|......|......|......
#join
..|......|===...|......|......|......|......|......|......
..|......|......|......|......|......|......|......|......
..|......|......|......|......|......|......|......|......
..|......|......|......|......|......|......|......|......
..|......|......|......|......|......|......|......|......
..|......|......|......|......|......|......|......|......
..|......|......|......|......|......|......|......|......
..|......|......|......|......|......|......|......|......
..|......|......|......|......|......|......|......|......
..|......|......|......|......|......|......|......|......
..|......|......|......|......|......|......|......|......
..|......|......|......|......|......|......|......|......
..|......|......|......|......|......|......|......|......
..|......|......|......|......|......|......|......|......
..|......|......|......|......|......|......|......|......
..|......|......|......|......|......|......|......|......
..|......|......|......|......|......|......|......|......
..|......|......|......|......|......|......|......|......
..|......|......|......|......|......|......|......|......
..|......|......|......|......|......|......|......|......
..|......|......|......|......|......|......|......|......
..|F#6.v2|D-6.v2|B-5.v2|......|......|......|......|......
..|......|......|......|......|......|......|......|......
..|......|......|......|......|......|......|......|......
..|===...|......|===...|......|......|......|......|......
#join
..|......|===...|......|......|......|......|......|......
..|......|......|......|......|......|......|......|......
..|......|......|......|......|......|......|......|......
..|......|......|......|......|......|......|......|......
..|......|......|......|......|......|......|......|......
..|......|......|......|......|......|......|......|......
..|......|......|......|......|......|......|......|......
..|......|......|......|......|......|......|......|......
..|......|......|......|......|......|......|......|......
..|B-5.v2|D-6.v2|F#6.v2|......|......|......|......|......
..|......|......|......|......|......|......|......|......
..|......|......|......|......|......|......|......|......
..|===...|......|===...|......|......|......|......|......
#join
..|......|===...|......|......|......|......|......|......
..|......|......|......|......|......|......|......|......
..|......|......|......|......|......|......|......|......
..|......|......|......|......|......|......|......|......
..|......|......|......|......|......|......|......|......
..|......|......|......|......|......|......|......|......
..|......|......|......|......|......|......|......|......
..|......|......|......|......|......|......|......|......
..|......|......|......|......|......|......|......|......
..|......|......|......|......|......|......|......|......
..|......|......|......|......|......|......|......|......
..|......|......|......|......|......|......|......|......
..|......|......|......|......|......|......|......|......
..|......|......|......|......|......|......|......|......
..|......|......|......|......|......|......|......|......
..|......|......|......|......|......|......|......|......
..|......|......|......|......|......|......|......|......
..|......|......|......|......|......|......|......|......
..|......|......|......|......|......|......|......|......
..|......|......|......|......|......|......|......|......
..|......|......|......|......|......|......|......|......
..|B-5.v2|F#6.v2|D-6.v2|......|......|......|......|......
..|......|......|......|......|......|......|......|......
..|......|......|......|......|......|......|......|......
..|......|......|......|......|......|......|......|......
..|......|......|......|......|......|......|......|......
..|......|......|......|......|......|......|......|......
..|......|......|......|......|......|......|......|......
..|......|......|......|......|......|......|......|......
..|......|......|......|......|......|......|......|......
..|......|......|......|......|......|......|......|......
..|......|......|......|......|......|......|......|......
..|......|......|......|......|......|......|......|......
..|===...|......|===...|......|......|......|......|......
#join
..|......|===...|......|......|......|......|......|......
..|......|......|......|......|......|......|......|......
..|......|......|......|......|......|......|......|......
..|......|......|......|......|......|......|......|......
..|......|......|......|......|......|......|......|......
..|......|......|......|......|......|......|......|......
..|F#6.v2|D-6.v2|B-5.v2|......|......|......|......|......
..|......|......|......|......|......|......|......|......
..|===...|......|===...|......|......|......|......|......
#join
..|......|===...|......|......|......|......|......|......
..|......|......|......|......|......|......|......|......
..|......|......|......|......|......|......|......|......
..|......|......|......|......|......|......|......|......
..|......|......|......|......|......|......|......|......
..|......|......|......|......|......|......|......|......
..|......|......|......|......|......|......|......|......
..|......|......|......|......|......|......|......|......
..|......|......|......|......|......|......|......|......
..|......|......|......|......|......|......|......|......
..|......|......|......|......|......|......|......|......
..|......|......|......|......|......|......|......|......
..|......|......|......|......|......|......|......|......
..|......|......|......|......|......|......|......|......
..|......|......|......|......|......|......|......|......
..|......|......|......|......|......|......|......|......
..|B-5.v2|F#6.v2|D-6.v2|......|......|......|......|......
..|......|......|......|......|......|......|......|......
..|......|......|......|......|......|......|......|......
..|===...|......|===...|......|......|......|......|......
#join
..|......|===...|......|......|......|......|......|......
..|......|......|......|......|......|......|......|......
..|......|......|......|......|......|......|......|......
..|......|......|......|......|......|......|......|......
..|......|......|......|......|......|......|......|......
..|......|......|......|......|......|......|......|......
..|......|......|......|......|......|......|......|......
..|......|......|......|......|......|......|......|......
..|......|......|......|......|......|......|......|......
..|......|......|......|......|......|......|......|......
..|......|......|......|......|......|......|......|......
..|......|......|......|......|......|......|......|......
..|......|......|......|......|......|......|......|......
..|......|......|......|......|......|......|......|......
..|......|......|......|......|......|......|......|......
..|......|......|......|......|......|......|......|......
..|......|......|......|......|......|......|......|......
..|......|......|......|......|......|......|......|......
..|......|......|......|......|......|......|......|......
..|......|......|......|......|......|......|......|......
..|......|......|......|......|......|......|......|......
..|F#6.v2|D-6.v2|B-5.v2|......|......|......|......|......
..|......|......|......|......|......|......|......|......
..|......|......|......|......|......|......|......|......
..|===...|......|===...|......|......|......|......|......
#join
..|......|===...|......|......|......|......|......|......
..|......|......|......|......|......|......|......|......
..|......|......|......|......|......|......|......|......
..|......|......|......|......|......|......|......|......
..|......|......|......|......|......|......|......|......
..|......|......|......|......|......|......|......|......
..|......|......|......|......|......|......|......|......
..|......|......|......|......|......|......|......|......
..|......|......|......|......|......|......|......|......
..|B-5.v2|D-6.v2|F#6.v2|......|......|......|......|......
..|......|......|......|......|......|......|......|......
..|......|......|......|......|......|......|......|......
..|===...|......|===...|......|......|......|......|......
#join
..|......|===...|......|......|......|......|......|......
..|......|......|......|......|......|......|......|......
..|......|......|......|......|......|......|......|......
..|......|......|......|......|......|......|......|......
..|......|......|......|......|......|......|......|......
..|......|......|......|......|......|......|......|......
..|......|......|......|......|......|......|......|......
..|......|......|......|......|......|......|......|......
..|......|......|......|......|......|......|......|......
..|......|......|......|......|......|......|......|......
..|......|......|......|......|......|......|......|......
..|......|......|......|......|......|......|......|......
..|......|......|......|......|......|......|......|......
..|......|......|......|......|......|......|......|......
..|......|......|......|......|......|......|......|......
..|......|......|......|......|......|......|......|......
..|......|......|......|......|......|......|......|......
..|......|......|......|......|......|......|......|......
..|......|......|......|......|......|......|......|......
..|......|......|......|......|......|......|......|......
..|......|......|......|......|......|......|......|......
..|B-5.v2|F#6.v2|D-6.v2|......|......|......|......|......
..|......|......|......|......|......|......|......|......
..|......|......|......|......|......|......|......|......
..|......|......|......|......|......|......|......|......
..|......|......|......|......|......|......|......|......
..|......|......|......|......|......|......|......|......
..|......|......|......|......|......|......|......|......
..|......|......|......|......|......|......|......|......
..|......|......|......|......|......|......|......|......
..|......|......|......|......|......|......|......|......
..|......|......|......|......|......|......|......|......
..|......|......|......|......|......|......|......|......
..|===...|......|===...|......|......|......|......|......
#join
..|......|===...|......|......|......|......|......|......
..|......|......|......|......|......|......|......|......
..|......|......|......|......|......|......|......|......
..|......|......|......|......|......|......|......|......
..|......|......|......|......|......|......|......|......
..|......|......|......|......|......|......|......|......
..|F#6.v2|D-6.v2|B-5.v2|......|......|......|......|......
..|......|......|......|......|......|......|......|......
..|===...|......|===...|......|......|......|......|......
#join
..|......|===...|......|......|......|......|......|......
..|......|......|......|......|......|......|......|......
..|......|......|......|......|......|......|......|......
..|......|......|......|......|......|......|......|......
..|......|......|......|......|......|......|......|......
..|......|......|......|......|......|......|......|......
..|......|......|......|......|......|......|......|......
..|......|......|......|......|......|......|......|......
..|......|......|......|......|......|......|......|......
..|......|......|......|......|......|......|......|......
..|......|......|......|......|......|......|......|......
..|......|......|......|......|......|......|......|......
..|......|......|......|......|......|......|......|......
..|......|......|......|......|......|......|......|......
..|......|......|......|......|......|......|......|......
..|......|......|......|......|......|......|......|......
..|B-5.v2|F#6.v2|D-6.v2|......|......|......|......|......
..|......|......|......|......|......|......|......|......
..|......|......|......|......|......|......|......|......
..|===...|......|===...|......|......|......|......|......
#join
..|......|===...|......|......|......|......|......|......
..|......|......|......|......|......|......|......|......
..|......|......|......|......|......|......|......|......
..|......|......|......|......|......|......|......|......
..|......|......|......|......|......|......|......|......
..|......|......|......|......|......|......|......|......
..|......|......|......|......|......|......|......|......
..|......|......|......|......|......|......|......|......
..|......|......|......|......|......|......|......|......
..|F#6.v2|B-5.v2|D-6.v2|......|......|......|......|......
..|......|......|......|......|......|......|......|......
..|......|......|......|......|......|......|......|......
..|......|......|......|......|......|......|......|......
..|......|......|......|......|......|......|......|......
..|......|......|......|......|......|......|......|......
..|......|......|......|......|......|......|......|......
..|......|......|......|......|......|......|......|......
..|......|......|......|......|......|......|......|......
..|......|......|......|......|......|......|......|......
..|......|......|......|......|......|......|......|......
..|......|......|......|......|......|......|......|......
..|......|......|......|......|......|......|......|......
..|......|......|......|......|......|......|......|......
..|......|......|......|......|......|......|......|......
..|......|......|......|......|......|......|......|......
..|......|......|......|......|......|......|......|......
..|......|......|......|......|......|......|......|......
..|......|......|......|......|......|......|......|......
..|......|......|......|......|......|......|......|......
..|......|......|......|......|......|......|......|......
..|......|......|......|......|......|......|......|......
..|......|......|......|......|......|......|......|......
..|......|......|......|......|......|......|......|......
..|......|......|......|......|......|......|......|......
..|......|......|......|......|......|......|......|......
..|......|......|......|......|......|......|......|......
..|......|......|......|......|......|......|......|......
..|......|......|......|......|......|......|......|......
..|......|......|......|......|......|......|......|......
..|......|......|......|......|......|......|......|......
..|......|......|......|......|......|......|......|......
..|......|......|......|......|......|......|......|......
..|......|......|......|......|......|......|......|......
..|......|......|......|......|......|......|......|......
..|......|......|......|......|......|......|......|......
..|......|......|......|......|......|......|......|......
..|......|......|......|......|......|......|......|......
..|......|......|......|......|......|......|......|......
..|......|......|......|......|......|......|......|......
..|......|......|......|......|......|......|......|......
..|......|......|......|......|......|......|......|......
..|......|......|......|......|......|......|......|......
..|......|......|......|......|......|......|......|......
..|......|......|......|......|......|......|......|......
..|......|......|......|......|......|......|......|......
..|......|......|......|......|......|......|......|......
..|......|......|......|......|......|......|......|......
..|===...|......|===...|......|......|......|......|......
#join
..|......|C#6.v2|A-5.v2|E-6.v2|......|......|......|......
..|......|......|......|......|......|......|......|......
..|......|......|......|......|......|......|......|......
..|......|......|......|......|......|......|......|......
..|......|......|......|......|......|......|......|......
..|......|......|......|......|......|......|......|......
..|......|......|......|......|......|......|......|......
..|......|......|......|......|......|......|......|......
..|......|......|......|......|......|......|......|......
..|......|......|......|......|......|......|......|......
..|......|......|......|......|......|......|......|......
..|......|......|......|......|......|......|......|......
..|......|......|......|......|......|......|......|......
..|......|......|......|......|......|......|......|......
..|......|......|......|......|......|......|......|......
..|......|......|......|......|......|......|......|......
..|......|......|......|......|......|......|......|......
..|......|......|......|......|......|......|......|......
..|......|......|......|......|......|......|......|......
..|......|......|......|......|......|......|......|......
..|......|......|......|......|......|......|......|......
..|......|......|......|......|......|......|......|......
..|......|......|......|......|......|......|......|......
..|......|......|......|......|......|......|......|......
..|......|......|......|......|......|......|......|......
..|......|......|......|......|......|......|......|......
..|......|......|......|......|......|......|......|......
..|......|......|......|......|......|......|......|......
..|......|......|......|......|......|......|......|......
..|......|......|......|......|......|......|......|......
..|......|......|......|......|......|......|......|......
..|......|......|......|......|......|......|......|......
..|......|......|......|......|......|......|......|......
..|......|......|......|......|......|......|......|......
..|......|......|......|......|......|......|......|......
..|......|......|......|......|......|......|......|......
..|......|......|......|......|......|......|......|......
..|......|......|......|......|......|......|......|......
..|......|......|......|......|......|......|......|......
..|......|......|......|......|......|......|......|......
..|......|......|......|......|......|......|......|......
..|......|......|......|......|......|......|......|......
..|......|......|......|......|......|......|......|......
..|......|......|......|......|......|......|......|......
..|......|......|......|......|......|......|......|......
..|......|......|......|......|......|......|......|......
..|......|......|......|......|......|......|......|......
..|......|......|......|......|......|......|......|......
..|......|===...|......|===...|......|......|......|......
#join
..|......|......|F#6.v2|B-5.v2|D-6.v2|......|......|......
..|......|......|......|......|......|......|......|......
..|......|......|......|......|......|......|......|......
..|......|......|......|......|......|......|......|......
..|......|......|......|......|......|......|......|......
..|......|......|......|......|......|......|......|......
..|......|......|......|......|......|......|......|......
..|......|......|......|......|......|......|......|......
..|......|......|......|......|......|......|......|......
..|......|......|......|......|......|......|......|......
..|......|......|......|......|......|......|......|......
..|......|......|......|......|......|......|......|......
..|......|......|......|......|......|......|......|......
..|......|......|......|......|......|......|......|......
..|......|......|......|......|......|......|......|......
..|......|......|......|......|......|......|......|......
..|......|......|......|......|......|......|......|......
..|......|......|......|......|......|......|......|......
..|......|......|......|......|......|......|......|......
..|......|......|......|......|......|......|......|......
..|......|......|......|......|......|......|......|......
..|......|......|......|......|......|......|......|......
..|......|......|......|......|......|......|......|......
..|......|......|......|......|......|......|......|......
..|......|......|......|......|......|......|......|......
..|......|......|......|......|......|......|......|......
..|......|......|......|......|......|......|......|......
..|......|......|......|......|......|......|......|......
..|......|......|......|......|......|......|......|......
..|......|......|......|......|......|......|......|......
..|......|......|......|......|......|......|......|......
..|......|......|......|......|......|......|......|......
..|......|......|......|......|......|......|......|......
..|......|......|......|......|......|......|......|......
..|......|......|......|......|......|......|......|......
..|......|......|......|......|......|......|......|......
..|......|......|......|......|......|......|......|......
..|......|......|......|......|......|......|......|......
..|......|......|......|......|......|......|......|......
..|......|......|......|......|......|......|......|......
..|......|......|......|......|......|......|......|......
..|......|......|......|......|......|......|......|......
..|......|......|......|......|......|......|......|......
..|......|......|......|......|......|......|......|......
..|......|......|......|......|......|......|......|......
..|......|......|......|......|......|......|......|......
..|......|......|......|......|......|......|......|......
..|......|......|......|......|......|......|......|......
..|......|......|===...|......|===...|......|......|......
#join
..|......|......|......|F#5.v2|C#6.v2|E-6.v2|A#5.v2|......
..|......|......|......|......|......|......|......|......
..|......|......|......|......|......|......|......|......
..|......|......|......|......|......|......|......|......
..|......|......|......|......|......|......|......|......
..|......|......|......|......|......|......|......|......
..|......|......|......|......|......|......|......|......
..|......|......|......|......|......|......|......|......
..|......|......|......|......|......|......|......|......
..|......|......|......|......|......|......|......|......
..|......|......|......|......|......|......|......|......
..|......|......|......|......|......|......|......|......
..|......|......|......|......|......|......|......|......
..|......|......|......|......|......|......|......|......
..|......|......|......|......|......|......|......|......
..|......|......|......|......|......|......|......|......
..|......|......|......|......|......|......|......|......
..|......|......|......|......|......|......|......|......
..|......|......|......|......|......|......|......|......
..|......|......|......|......|......|......|......|......
..|......|......|......|......|......|......|......|......
..|......|......|......|......|......|......|......|......
..|......|......|......|......|......|......|......|......
..|......|......|......|......|......|......|......|......
..|......|......|......|......|......|......|......|......
..|......|......|......|......|......|......|......|......
..|......|......|......|......|......|......|......|......
..|......|......|......|......|......|......|......|......
..|......|......|......|......|......|......|......|......
..|......|......|......|......|......|......|......|......
..|......|......|......|......|......|......|......|......
..|......|......|......|......|......|......|......|......
..|......|......|......|......|......|......|......|......
..|......|......|......|......|......|......|......|......
..|......|......|......|......|......|......|......|......
..|......|......|......|......|......|......|......|......
..|......|......|......|......|......|......|......|......
..|......|......|......|......|......|......|......|......
..|......|......|......|......|......|......|......|......
..|......|......|......|......|......|......|......|......
..|......|......|......|......|......|......|......|......
..|......|......|......|......|......|......|......|......
..|......|......|......|......|......|......|......|......
..|......|......|......|......|......|......|......|......
..|......|......|......|......|......|......|......|......
..|......|......|......|......|......|......|......|......
..|......|......|......|......|......|......|......|......
..|......|......|......|......|......|......|......|......
..|......|......|......|===...|......|......|===...|......
#join
..|......|......|......|......|......|===...|......|......
#join
..|......|......|......|......|F#6.v2|B-5.v2|D-6.v2|......
..|......|......|......|......|......|......|......|......
..|......|......|......|......|......|......|......|......
..|......|......|......|......|......|......|......|......
..|......|......|......|......|......|......|......|......
..|......|......|......|......|......|......|......|......
..|......|......|......|......|......|......|......|......
..|......|......|......|......|......|......|......|......
..|......|......|......|......|......|......|......|......
..|......|......|......|......|......|......|......|......
..|......|......|......|......|......|......|......|......
..|......|......|......|......|......|......|......|......
..|......|......|......|......|......|......|......|......
..|......|......|......|......|......|......|......|......
..|......|......|......|......|......|......|......|......
..|......|......|......|......|......|......|......|......
..|......|......|......|......|......|......|......|......
..|......|......|......|......|......|......|......|......
..|......|......|......|......|......|......|......|......
..|......|......|......|......|......|......|......|......
..|......|......|......|......|......|......|......|......
..|......|......|......|......|......|......|......|......
..|......|......|......|......|......|......|......|......
..|......|......|......|......|......|......|......|......
..|......|......|......|......|......|......|......|......
..|......|......|......|......|......|......|......|......
..|......|......|......|......|......|......|......|......
..|......|......|......|......|......|......|......|......
..|......|......|......|......|......|......|......|......
..|......|......|......|......|......|......|......|......
..|......|......|......|......|......|......|......|......
..|......|......|......|......|......|......|......|......
..|......|......|......|......|......|......|......|......
..|......|......|......|......|......|......|......|......
..|......|......|......|......|......|......|......|......
..|......|......|......|......|......|......|......|......
..|......|......|......|......|......|......|......|......
..|......|......|......|......|......|......|......|......
..|......|......|......|......|......|......|......|......
..|......|......|......|......|......|......|......|......
..|......|......|......|......|......|......|......|......
..|......|......|......|......|......|......|......|......
..|......|......|......|......|......|......|......|......
..|......|......|......|......|......|......|......|......
..|......|......|......|......|......|......|......|......
..|......|......|......|......|......|......|......|......
..|......|......|......|......|......|......|......|......
..|......|......|......|......|......|......|......|......
..|......|......|......|......|===...|......|===...|......
#join
..|......|......|......|......|......|C#6.v2|A-5.v2|E-6.v2
..|......|......|......|......|......|......|......|......
..|......|......|......|......|......|......|......|......
..|......|......|......|......|......|......|......|......
..|......|......|......|......|......|......|......|......
..|......|......|......|......|......|......|......|......
..|......|......|......|......|......|......|......|......
..|......|......|......|......|......|......|......|......
..|......|......|......|......|......|......|......|......
..|......|......|......|......|......|......|......|......
..|......|......|......|......|......|......|......|......
..|......|......|......|......|......|......|......|......
..|......|......|......|......|......|......|......|......
..|......|......|......|......|......|......|......|......
..|......|......|......|......|......|......|......|......
..|......|......|......|......|......|......|......|......
..|......|......|......|......|......|......|......|......
..|......|......|......|......|......|......|......|......
..|......|......|......|......|......|......|......|......
..|......|......|......|......|......|......|......|......
..|......|......|......|......|......|......|......|......
..|......|......|......|......|......|......|......|......
..|......|......|......|......|......|......|......|......
..|......|......|......|......|......|......|......|......
..|......|......|......|......|......|......|......|......
..|......|......|......|......|......|......|......|......
..|......|......|......|......|......|......|......|......
..|......|......|......|......|......|......|......|......
..|......|......|......|......|......|......|......|......
..|......|......|......|......|......|......|......|......
..|......|......|......|......|......|......|......|......
..|......|......|......|......|......|......|......|......
..|......|......|......|......|......|......|......|......
..|......|......|......|......|......|......|......|......
..|......|......|......|......|......|......|......|......
..|......|......|......|......|......|......|......|......
..|......|......|......|......|......|......|......|......
..|......|......|......|......|......|......|......|......
..|......|......|......|......|......|......|......|......
..|......|......|......|......|......|......|......|......
..|......|......|......|......|......|......|......|......
..|......|......|......|......|......|......|......|......
..|......|......|......|......|......|......|......|......
..|......|......|......|......|......|......|......|......
..|......|......|......|......|......|......|......|......
..|......|......|......|......|......|......|......|......
..|......|......|......|......|......|......|......|......
..|......|......|......|......|......|......|......|......
..|......|......|......|......|......|===...|......|===...
#join
..|......|......|......|......|......|......|F#6.v2|B-5.v2
#join
..|D-6.v2|......|......|......|......|......|......|......
..|......|......|......|......|......|......|......|......
..|......|......|......|......|......|......|......|......
..|......|......|......|......|......|......|......|......
..|......|......|......|......|......|......|......|......
..|......|......|......|......|......|......|......|......
..|......|......|......|......|......|......|......|......
..|......|......|......|......|......|......|......|......
..|......|......|......|......|......|......|......|......
..|......|......|......|......|......|......|......|......
..|......|......|......|......|......|......|......|......
..|......|......|......|......|......|......|......|......
..|......|......|......|......|......|......|......|......
..|......|......|......|......|......|......|......|......
..|......|......|......|......|......|......|......|......
..|......|......|......|......|......|......|......|......
..|......|......|......|......|......|......|......|......
..|......|......|......|......|......|......|......|......
..|......|......|......|......|......|......|......|......
..|......|......|......|......|......|......|......|......
..|......|......|......|......|......|......|......|......
..|......|......|......|......|......|......|......|......
..|......|......|......|......|......|......|......|......
..|......|......|......|......|......|......|......|......
..|......|......|......|......|......|......|......|......
..|......|......|......|......|......|......|......|......
..|......|......|......|......|......|......|......|......
..|......|......|......|......|......|......|......|......
..|......|......|......|......|......|......|......|......
..|......|......|......|......|......|......|......|......
..|......|......|......|......|......|......|......|......
..|......|......|......|......|......|......|......|......
..|......|......|......|......|......|......|......|......
..|......|......|......|......|......|......|......|......
..|......|......|......|......|......|......|......|......
..|......|......|......|......|......|......|......|......
..|......|......|......|......|......|......|......|......
..|......|......|......|......|......|......|......|......
..|......|......|......|......|......|......|......|......
..|......|......|......|......|......|......|......|......
..|......|......|......|......|......|......|......|......
..|......|......|......|......|......|......|......|......
..|......|......|......|......|......|......|......|......
..|......|......|......|......|......|......|......|......
..|......|......|......|......|......|......|......|......
..|......|......|......|......|......|......|......|......
..|......|......|......|......|......|......|......|......
..|......|......|......|......|......|......|......|......
..|......|......|......|......|......|......|===...|......
#join
..|F#5.v2|......|......|......|......|......|......|C#6.v2
#join
..|......|E-6.v2|A#5.v2|......|......|......|......|......
..|......|......|......|......|......|......|......|......
..|......|......|......|......|......|......|......|......
..|......|......|......|......|......|......|......|......
..|......|......|......|......|......|......|......|......
..|......|......|......|......|......|......|......|......
..|......|......|......|......|......|......|......|......
..|......|......|......|......|......|......|......|......
..|......|......|......|......|......|......|......|......
..|......|......|......|......|......|......|......|......
..|......|......|......|......|......|......|......|......
..|......|......|......|......|......|......|......|......
..|......|......|......|......|......|......|......|......
..|......|......|......|......|......|......|......|......
..|......|......|......|......|......|......|......|......
..|......|......|......|......|......|......|......|......
..|......|......|......|......|......|......|......|......
..|......|......|......|......|......|......|......|......
..|......|......|......|......|......|......|......|......
..|......|......|......|......|......|......|......|......
..|......|......|......|......|......|......|......|......
..|......|......|......|......|......|......|......|......
..|......|......|......|......|......|......|......|......
..|......|......|......|......|......|......|......|......
..|......|......|......|......|......|......|......|......
..|......|......|......|......|......|......|......|......
..|......|......|......|......|......|......|......|......
..|......|......|......|......|......|......|......|......
..|......|......|......|......|......|......|......|......
..|......|......|......|......|......|......|......|......
..|......|......|......|......|......|......|......|......
..|......|......|......|......|......|......|......|......
..|......|......|......|......|......|......|......|......
..|......|......|......|......|......|......|......|......
..|......|......|......|......|......|......|......|......
..|......|......|......|......|......|......|......|......
..|......|......|......|......|......|......|......|......
..|......|......|......|......|......|......|......|......
..|......|......|......|......|......|......|......|......
..|......|......|......|......|......|......|......|......
..|......|......|......|......|......|......|......|......
..|......|......|......|......|......|......|......|......
..|......|......|......|......|......|......|......|......
..|......|......|......|......|......|......|......|......
..|......|......|......|......|......|......|......|......
..|......|......|......|......|......|......|......|......
..|......|......|......|......|......|......|......|......
..|......|......|......|......|......|......|......|......
..|===...|......|===...|......|......|......|......|......
#join
..|......|F#6.v2|......|......|......|......|......|B-5.v2
#join
..|D-6.v2|......|......|......|......|......|......|......
..|......|......|......|......|......|......|......|......
..|......|......|......|......|......|......|......|......
..|......|......|......|......|......|......|......|......
..|......|......|......|......|......|......|......|......
..|......|......|......|......|......|......|......|......
..|......|......|......|......|......|......|......|......
..|......|......|......|......|......|......|......|......
..|......|......|......|......|......|......|......|......
..|......|......|......|......|......|......|......|......
..|......|......|......|......|......|......|......|......
..|......|......|......|......|......|......|......|......
..|......|......|......|......|......|......|......|......
..|......|......|......|......|......|......|......|......
..|......|......|......|......|......|......|......|......
..|......|......|......|......|......|......|......|......
..|......|......|......|......|......|......|......|......
..|......|......|......|......|......|......|......|......
..|......|......|......|......|......|......|......|......
..|......|......|......|......|......|......|......|......
..|......|......|......|......|......|......|......|......
..|......|......|......|......|......|......|......|......
..|......|......|......|......|......|......|......|......
..|......|......|......|......|......|......|......|......
..|......|......|......|......|......|......|......|......
..|......|......|......|......|......|......|......|......
..|......|......|......|......|......|......|......|......
..|......|......|......|......|......|......|......|......
..|......|......|......|......|......|......|......|......
..|......|......|......|......|......|......|......|......
..|......|......|......|......|......|......|......|......
..|......|......|......|......|......|......|......|......
..|......|......|......|......|......|......|......|......
..|......|......|......|......|......|......|......|......
..|......|......|......|......|......|......|......|......
..|......|......|......|......|......|......|......|......
..|......|......|......|......|......|......|......|......
..|......|......|......|......|......|......|......|......
..|......|......|......|......|......|......|......|......
..|......|......|......|......|......|......|......|......
..|......|......|......|......|......|......|......|......
..|......|......|......|......|......|......|......|......
..|......|......|......|......|......|......|......|......
..|......|......|......|......|......|......|......|......
..|......|......|......|......|......|......|......|......
..|......|......|......|......|......|......|......|......
..|......|......|......|......|......|......|......|......
..|......|......|......|......|......|......|......|......
..|......|===...|......|......|......|......|......|......
#join
..|C#6.v2|......|......|......|......|......|......|A-5.v2
#join
..|......|E-6.v2|......|......|......|......|......|......
..|......|......|......|......|......|......|......|......
..|......|......|......|......|......|......|......|......
..|......|......|......|......|......|......|......|......
..|......|......|......|......|......|......|......|......
..|......|......|......|......|......|......|......|......
..|......|......|......|......|......|......|......|......
..|......|......|......|......|......|......|......|......
..|......|......|......|......|......|......|......|......
..|......|......|......|......|......|......|......|......
..|......|......|......|......|......|......|......|......
..|......|......|......|......|......|......|......|......
..|......|......|......|......|......|......|......|......
..|......|......|......|......|......|......|......|......
..|......|......|......|......|......|......|......|......
..|......|......|......|......|......|......|......|......
..|......|......|......|......|......|......|......|......
..|......|......|......|......|......|......|......|......
..|......|......|......|......|......|......|......|......
..|......|......|......|......|......|......|......|......
..|......|......|......|......|......|......|......|......
..|......|......|......|......|......|......|......|......
..|......|......|......|......|......|......|......|......
..|......|......|......|......|......|......|......|......
..|......|......|......|......|......|......|......|......
..|......|......|......|......|......|......|......|......
..|......|......|......|......|......|......|......|......
..|......|......|......|......|......|......|......|......
..|......|......|......|......|......|......|......|......
..|......|......|......|......|......|......|......|......
..|......|......|......|......|......|......|......|......
..|......|......|......|......|......|......|......|......
..|......|......|......|......|......|......|......|......
..|......|......|......|......|......|......|......|......
..|......|......|......|......|......|......|......|......
..|......|......|......|......|......|......|......|......
..|......|......|......|......|......|......|......|......
..|......|......|......|......|......|......|......|......
..|......|......|......|......|......|......|......|......
..|......|......|......|......|......|......|......|......
..|......|......|......|......|......|......|......|......
..|......|......|......|......|......|......|......|......
..|......|......|......|......|......|......|......|......
..|......|......|......|......|......|......|......|......
..|......|......|......|......|......|......|......|......
..|......|......|......|......|......|......|......|......
..|......|......|......|......|......|......|......|......
..|......|......|......|......|......|......|......|......
..|F#6.v2|B-5.v2|......|......|......|......|......|D-6.v2
..|......|......|......|......|......|......|......|......
..|......|......|......|......|......|......|......|......
..|......|......|......|......|......|......|......|......
..|......|......|......|......|......|......|......|......
..|......|......|......|......|......|......|......|......
..|......|......|......|......|......|......|......|......
..|......|......|......|......|......|......|......|......
..|......|......|......|......|......|......|......|......
..|......|......|......|......|......|......|......|......
..|......|......|......|......|......|......|......|......
..|......|......|......|......|......|......|......|......
..|......|......|......|......|......|......|......|......
..|......|......|......|......|......|......|......|......
..|......|......|......|......|......|......|......|......
..|......|......|......|......|......|......|......|......
..|......|......|......|......|......|......|......|......
..|......|......|......|......|......|......|......|......
..|......|......|......|......|......|......|......|......
..|......|......|......|......|......|......|......|......
..|......|......|......|......|......|......|......|......
..|......|......|......|......|......|......|......|......
..|......|......|......|......|......|......|......|......
..|......|......|......|......|......|......|......|......
..|......|......|......|......|......|......|......|......
..|......|......|......|......|......|......|......|......
..|......|......|......|......|......|......|......|......
..|......|......|......|......|......|......|......|......
..|......|......|......|......|......|......|......|......
..|......|......|......|......|......|......|......|......
..|......|......|......|......|......|......|......|......
..|......|......|......|......|......|......|......|......
..|......|......|......|......|......|......|......|......
..|......|......|......|......|......|......|......|......
..|......|......|......|......|......|......|......|......
..|......|......|......|......|......|......|......|......
..|......|......|......|......|......|......|......|......
..|......|......|......|......|......|......|......|......
..|......|......|......|......|......|......|......|......
..|......|......|......|......|......|......|......|......
..|......|......|......|......|......|......|......|......
..|......|......|......|......|......|......|......|......
..|......|......|......|......|......|......|......|......
..|......|......|......|......|......|......|......|......
..|......|......|......|......|......|......|......|......
..|......|......|......|......|......|......|......|......
..|......|......|......|......|......|......|......|......
..|......|......|......|......|......|......|......|......
..|===...|......|......|......|......|......|......|===...
#join
..|......|F#5.v2|C#6.v2|E-6.v2|A#5.v2|......|......|......
..|......|......|......|......|......|......|......|......
..|......|......|......|......|......|......|......|......
..|......|......|......|......|......|......|......|......
..|......|......|......|......|......|......|......|......
..|......|......|......|......|......|......|......|......
..|......|......|......|......|......|......|......|......
..|......|......|......|......|......|......|......|......
..|......|......|......|......|......|......|......|......
..|......|......|......|......|......|......|......|......
..|......|......|......|......|......|......|......|......
..|......|......|......|......|......|......|......|......
..|......|......|......|......|......|......|......|......
..|......|......|......|......|......|......|......|......
..|......|......|......|......|......|......|......|......
..|......|......|......|......|......|......|......|......
..|......|......|......|......|......|......|......|......
..|......|......|......|......|......|......|......|......
..|......|......|......|......|......|......|......|......
..|......|......|......|......|......|......|......|......
..|......|......|......|......|......|......|......|......
..|......|......|......|......|......|......|......|......
..|......|......|......|......|......|......|......|......
..|......|......|......|......|......|......|......|......
..|......|......|......|......|......|......|......|......
..|......|......|......|......|......|......|......|......
..|......|......|......|......|......|......|......|......
..|......|......|......|......|......|......|......|......
..|......|......|......|......|......|......|......|......
..|......|......|......|......|......|......|......|......
..|......|......|......|......|......|......|......|......
..|......|......|......|......|......|......|......|......
..|......|......|......|......|......|......|......|......
..|......|......|......|......|......|......|......|......
..|......|......|......|......|......|......|......|......
..|......|......|......|......|......|......|......|......
..|......|......|......|......|......|......|......|......
..|......|......|......|......|......|......|......|......
..|......|......|......|......|......|......|......|......
..|......|......|......|......|......|......|......|......
..|......|......|......|......|......|......|......|......
..|......|......|......|......|......|......|......|......
..|......|......|......|......|......|......|......|......
..|......|......|......|......|......|......|......|......
..|......|......|......|......|......|......|......|......
..|......|......|......|......|......|......|......|......
..|......|......|......|......|......|......|......|......
..|......|......|......|......|......|......|......|......
..|......|===...|......|......|===...|......|......|......
#join
..|......|......|......|===...|......|......|......|......
#join
..|......|......|F#6.v2|B-5.v2|D-6.v2|......|......|......
..|......|......|......|......|......|......|......|......
..|......|......|......|......|......|......|......|......
..|......|......|......|......|......|......|......|......
..|......|......|......|......|......|......|......|......
..|......|......|......|......|......|......|......|......
..|......|......|......|......|......|......|......|......
..|......|......|......|......|......|......|......|......
..|......|......|......|......|......|......|......|......
..|......|......|......|......|......|......|......|......
..|......|......|......|......|......|......|......|......
..|......|......|......|......|......|......|......|......
..|......|......|......|......|......|......|......|......
..|......|......|......|......|......|......|......|......
..|......|......|......|......|......|......|......|......
..|......|......|......|......|......|......|......|......
..|......|......|......|......|......|......|......|......
..|......|......|......|......|......|......|......|......
..|......|......|......|......|......|......|......|......
..|......|......|......|......|......|......|......|......
..|......|......|......|......|......|......|......|......
..|......|......|......|......|......|......|......|......
..|......|......|......|......|......|......|......|......
..|......|......|......|......|......|......|......|......
..|......|......|......|......|......|......|......|......
..|......|......|......|......|......|......|......|......
..|......|......|......|......|......|......|......|......
..|......|......|......|......|......|......|......|......
..|......|......|......|......|......|......|......|......
..|......|......|......|......|......|......|......|......
..|......|......|......|......|......|......|......|......
..|......|......|......|......|......|......|......|......
..|......|......|......|......|......|......|......|......
..|......|......|......|......|......|......|......|......
..|......|......|......|......|......|......|......|......
..|......|......|......|......|......|......|......|......
..|......|......|......|......|......|......|......|......
..|......|......|......|......|......|......|......|......
..|......|......|......|......|......|......|......|......
..|......|......|......|......|......|......|......|......
..|......|......|......|......|......|......|......|......
..|......|......|......|......|......|......|......|......
..|......|......|......|......|......|......|......|......
..|......|......|......|......|......|......|......|......
..|......|......|......|......|......|......|......|......
..|......|......|......|......|......|......|......|......
..|......|......|......|......|......|......|......|......
..|......|......|......|......|......|......|......|......
..|......|......|===...|......|===...|......|......|......
#join
..|......|......|......|C#6.v2|A-5.v2|E-6.v2|......|......
..|......|......|......|......|......|......|......|......
..|......|......|......|......|......|......|......|......
..|......|......|......|......|......|......|......|......
..|......|......|......|......|......|......|......|......
..|......|......|......|......|......|......|......|......
..|......|......|......|......|......|......|......|......
..|......|......|......|......|......|......|......|......
..|......|......|......|......|......|......|......|......
..|......|......|......|......|......|......|......|......
..|......|......|......|......|......|......|......|......
..|......|......|......|......|......|......|......|......
..|......|......|......|......|......|......|......|......
..|......|......|......|......|......|......|......|......
..|......|......|......|......|......|......|......|......
..|......|......|......|......|......|......|......|......
..|......|......|......|......|......|......|......|......
..|......|......|......|......|......|......|......|......
..|......|......|......|......|......|......|......|......
..|......|......|......|......|......|......|......|......
..|......|......|......|......|......|......|......|......
..|......|......|......|......|......|......|......|......
..|......|......|......|......|......|......|......|......
..|......|......|......|......|......|......|......|......
..|......|......|......|......|......|......|......|......
..|......|......|......|......|......|......|......|......
..|......|......|......|......|......|......|......|......
..|......|......|......|......|......|......|......|......
..|......|......|......|......|......|......|......|......
..|......|......|......|......|......|......|......|......
..|......|......|......|......|......|......|......|......
..|......|......|......|......|......|......|......|......
..|......|......|......|......|......|......|......|......
..|......|......|......|......|......|......|......|......
..|......|......|......|......|......|......|......|......
..|......|......|......|......|......|......|......|......
..|......|......|......|......|......|......|......|......
..|......|......|......|......|......|......|......|......
..|......|......|......|......|......|......|......|......
..|......|......|......|......|......|......|......|......
..|......|......|......|......|......|......|......|......
..|......|......|......|......|......|......|......|......
..|......|......|......|......|......|......|......|......
..|......|......|......|......|......|......|......|......
..|......|......|......|......|......|......|......|......
..|......|......|......|......|......|......|......|......
..|......|......|......|......|......|......|......|......
..|......|......|......|......|......|......|......|......
..|......|......|......|===...|......|===...|......|......
#join
..|......|......|......|......|F#6.v2|B-5.v2|D-6.v2|......
..|......|......|......|......|......|......|......|......
..|......|......|......|......|......|......|......|......
..|......|......|......|......|......|......|......|......
..|......|......|......|......|......|......|......|......
..|......|......|......|......|......|......|......|......
..|......|......|......|......|......|......|......|......
..|......|......|......|......|......|......|......|......
..|......|......|......|......|......|......|......|......
..|......|......|......|......|......|......|......|......
..|......|......|......|......|......|......|......|......
..|......|......|......|......|......|......|......|......
..|......|......|......|......|......|......|......|......
..|......|......|......|......|......|......|......|......
..|......|......|......|......|......|......|......|......
..|......|......|......|......|......|......|......|......
..|......|......|......|......|......|......|......|......
..|......|......|......|......|......|......|......|......
..|......|......|......|......|......|......|......|......
..|......|......|......|......|......|......|......|......
..|......|......|......|......|......|......|......|......
..|......|......|......|......|......|......|......|......
..|......|......|......|......|......|......|......|......
..|......|......|......|......|......|......|......|......
..|......|......|......|......|......|......|......|......
..|......|......|......|......|......|......|......|......
..|......|......|......|......|......|......|......|......
..|......|......|......|......|......|......|......|......
..|......|......|......|......|......|......|......|......
..|......|......|......|......|......|......|......|......
..|......|......|......|......|......|......|......|......
..|......|......|......|......|......|......|......|......
..|......|......|......|......|......|......|......|......
..|......|......|......|......|......|......|......|......
..|......|......|......|......|......|......|......|......
..|......|......|......|......|......|......|......|......
..|......|......|......|......|......|......|......|......
..|......|......|......|......|......|......|......|......
..|......|......|......|......|......|......|......|......
..|......|......|......|......|......|......|......|......
..|......|......|......|......|......|......|......|......
..|......|......|......|......|......|......|......|......
..|......|......|......|......|......|......|......|......
..|......|......|......|......|......|......|......|......
..|......|......|......|......|......|......|......|......
..|......|......|......|......|......|......|......|......
..|......|......|......|......|......|......|......|......
..|......|......|......|......|......|......|......|......
..|......|......|......|......|===...|......|===...|......
#join
..|......|......|......|......|......|F#5.v2|C#6.v2|E-6.v2
#join
..|A#5.v2|......|......|......|......|......|......|......
..|......|......|......|......|......|......|......|......
..|......|......|......|......|......|......|......|......
..|......|......|......|......|......|......|......|......
..|......|......|......|......|......|......|......|......
..|......|......|......|......|......|......|......|......
..|......|......|......|......|......|......|......|......
..|......|......|......|......|......|......|......|......
..|......|......|......|......|......|......|......|......
..|......|......|......|......|......|......|......|......
..|......|......|......|......|......|......|......|......
..|......|......|......|......|......|......|......|......
..|......|......|......|......|......|......|......|......
..|......|......|......|......|......|......|......|......
..|......|......|......|......|......|......|......|......
..|......|......|......|......|......|......|......|......
..|......|......|......|......|......|......|......|......
..|......|......|......|......|......|......|......|......
..|......|......|......|......|......|......|......|......
..|......|......|......|......|......|......|......|......
..|......|......|......|......|......|......|......|......
..|......|......|......|......|......|......|......|......
..|......|......|......|......|......|......|......|......
..|......|......|......|......|......|......|......|......
..|......|......|......|......|......|......|......|......
..|......|......|......|......|......|......|......|......
..|......|......|......|......|......|......|......|......
..|......|......|......|......|......|......|......|......
..|......|......|......|......|......|......|......|......
..|......|......|......|......|......|......|......|......
..|......|......|......|......|......|......|......|......
..|......|......|......|......|......|......|......|......
..|......|......|......|......|......|......|......|......
..|......|......|......|......|......|......|......|......
..|......|......|......|......|......|......|......|......
..|......|......|......|......|......|......|......|......
..|......|......|......|......|......|......|......|......
..|......|......|......|......|......|......|......|......
..|......|......|......|......|......|......|......|......
..|......|......|......|......|......|......|......|......
..|......|......|......|......|......|......|......|......
..|......|......|......|......|......|......|......|......
..|......|......|......|......|......|......|......|......
..|......|......|......|......|......|......|......|......
..|......|......|......|......|......|......|......|......
..|......|......|......|......|......|......|......|......
..|......|......|......|......|......|......|......|......
..|......|......|......|......|......|......|......|......
..|......|......|......|......|......|===...|......|......
#join
..|===...|......|......|......|......|......|......|===...
#join
..|......|......|......|......|......|......|===...|......
#halt
#halt
