#compressed
#unkc
#track 3
#inst 4
#unk6 7
#volume 55
..|D-4.v2
..|......
..|......
..|......
..|......
..|......
..|D-4.v3
..|......
..|......
..|......
..|......
..|......
..|D-5.v2
..|......
..|......
..|......
..|......
..|......
..|D-4.v2
..|......
..|......
..|......
..|......
..|......
..|F-4.v2
..|......
..|......
..|......
..|......
..|......
..|===...
..|......
..|......
..|......
..|......
..|......
..|A-4.v2
..|......
..|......
..|......
..|......
..|......
..|B-4.v2
..|......
..|......
..|......
..|......
..|......
..|C-5.v2
..|......
..|......
..|......
..|......
..|......
..|===...
..|......
..|......
..|......
..|......
..|......
..|C-5.v3
..|......
..|......
..|......
..|......
..|......
..|===...
..|......
..|......
..|......
..|......
..|......
..|B-4.v2
..|......
..|......
..|......
..|......
..|......
..|===...
..|......
..|......
..|......
..|......
..|......
..|......
..|......
..|......
..|......
..|......
..|......
..|......
..|......
..|......
..|......
..|......
..|......
..|C-4.v3
..|......
..|......
..|......
..|......
..|......
..|C-4.v2
..|......
..|......
..|......
..|......
..|......
..|C-5.v2
..|......
..|......
..|......
..|......
..|......
..|C-4.v2
..|......
..|......
..|......
..|......
..|......
..|D#4.v2
..|......
..|......
..|......
..|......
..|......
..|===...
..|......
..|......
..|......
..|......
..|......
..|G-4.v2
..|......
..|......
..|......
..|......
..|......
..|A-4.v2
..|......
..|......
..|......
..|......
..|......
..|A#4.v2
..|......
..|......
..|......
..|......
..|......
..|===...
..|......
..|......
..|......
..|......
..|......
..|A-4.v2
..|......
..|......
..|......
..|......
..|......
..|A#4.v2
..|......
..|......
..|......
..|......
..|......
..|C-4.v3
..|......
..|......
..|......
..|......
..|......
..|B-3.v2
..|......
..|......
..|......
..|......
..|......
..|C-4.v2
..|......
..|......
..|......
..|......
..|......
..|===...
..|......
..|......
..|......
..|......
..|......
..|A-3.v2
..|......
..|......
..|......
..|......
..|......
..|A-3.v2
..|......
..|......
..|......
..|......
..|......
..|A-4.v2
..|......
..|......
..|......
..|......
..|......
..|A-3.v2
..|......
..|......
..|......
..|......
..|......
..|G-4.v2
..|......
..|......
..|......
..|......
..|......
..|===...
..|......
..|......
..|......
..|......
..|......
..|F#4.v2
..|......
..|......
..|......
..|......
..|......
..|G-4.v2
..|......
..|......
..|......
..|......
..|......
..|A-3.v2
..|......
..|......
..|......
..|......
..|......
..|===...
..|......
..|......
..|......
..|......
..|......
..|A-4.v3
..|......
..|......
..|......
..|......
..|......
..|===...
..|......
..|......
..|......
..|......
..|......
..|A-3.v3
..|......
..|......
..|......
..|......
..|......
..|===...
..|......
..|......
..|......
..|......
..|......
..|......
..|......
..|......
..|......
..|......
..|......
..|......
..|......
..|......
..|......
..|......
..|......
..|A-3.v3
..|......
..|......
..|......
..|......
..|......
..|A-3.v2
..|......
..|......
..|......
..|......
..|......
..|A-4.v2
..|......
..|......
..|......
..|......
..|......
..|A-3.v2
..|......
..|......
..|......
..|......
..|......
..|G-4.v2
..|......
..|......
..|......
..|......
..|......
..|===...
..|......
..|......
..|......
..|......
..|......
..|F#4.v2
..|......
..|......
..|......
..|......
..|......
..|G-4.v2
..|......
..|......
..|......
..|......
..|......
..|A-3.v2
..|......
..|......
..|......
..|......
..|......
..|===...
..|......
..|......
..|......
..|......
..|......
..|A-4.v2
..|......
..|......
..|......
..|......
..|......
..|===...
..|......
..|......
..|......
..|......
..|......
..|A-3.v2
..|......
..|......
..|......
..|......
..|......
..|A-3.v2
..|......
..|......
..|......
..|......
..|......
..|B-3.v2
..|......
..|......
..|......
..|......
..|......
..|C#4.v2
..|......
..|......
..|......
..|......
..|......
..|D-4.v2
..|......
..|......
..|......
..|......
..|......
..|D-4.v3
..|......
..|......
..|......
..|......
..|......
..|D-5.v2
..|......
..|......
..|......
..|......
..|......
..|D-4.v2
..|......
..|......
..|......
..|......
..|......
..|F-4.v2
..|......
..|......
..|......
..|......
..|......
..|===...
..|......
..|......
..|......
..|......
..|......
..|A-4.v2
..|......
..|......
..|......
..|......
..|......
..|B-4.v2
..|......
..|......
..|......
..|......
..|......
..|C-5.v2
..|......
..|......
..|......
..|......
..|......
..|===...
..|......
..|......
..|......
..|......
..|......
..|C-5.v3
..|......
..|......
..|......
..|......
..|......
..|===...
..|......
..|......
..|......
..|......
..|......
..|B-4.v2
..|......
..|......
..|......
..|......
..|......
..|===...
..|......
..|......
..|......
..|......
..|......
..|......
..|......
..|......
..|......
..|......
..|......
..|......
..|......
..|......
..|......
..|......
..|......
..|C-4.v3
..|......
..|......
..|......
..|......
..|......
..|C-4.v2
..|......
..|......
..|......
..|......
..|......
..|C-5.v2
..|......
..|......
..|......
..|......
..|......
..|C-4.v2
..|......
..|......
..|......
..|......
..|......
..|D#4.v2
..|......
..|......
..|......
..|......
..|......
..|===...
..|......
..|......
..|......
..|......
..|......
..|G-4.v2
..|......
..|......
..|......
..|......
..|......
..|A-4.v2
..|......
..|......
..|......
..|......
..|......
..|A#4.v2
..|......
..|......
..|......
..|......
..|......
..|===...
..|......
..|......
..|......
..|......
..|......
..|A-4.v2
..|......
..|......
..|......
..|......
..|......
..|A#4.v2
..|......
..|......
..|......
..|......
..|......
..|C-4.v3
..|......
..|......
..|......
..|......
..|......
..|B-3.v2
..|......
..|......
..|......
..|......
..|......
..|C-4.v2
..|......
..|......
..|......
..|......
..|......
..|===...
..|......
..|......
..|......
..|......
..|......
..|A-3.v2
..|......
..|......
..|......
..|......
..|......
..|A-3.v2
..|......
..|......
..|......
..|......
..|......
..|A-4.v2
..|......
..|......
..|......
..|......
..|......
..|A-3.v2
..|......
..|......
..|......
..|......
..|......
..|G-4.v2
..|......
..|......
..|......
..|......
..|......
..|===...
..|......
..|......
..|......
..|......
..|......
..|F#4.v2
..|......
..|......
..|......
..|......
..|......
..|G-4.v2
..|......
..|......
..|......
..|......
..|......
..|A-3.v2
..|......
..|......
..|......
..|......
..|......
..|===...
..|......
..|......
..|......
..|......
..|......
..|A-4.v3
..|......
..|......
..|......
..|......
..|......
..|===...
..|......
..|......
..|......
..|......
..|......
..|A-3.v3
..|......
..|......
..|......
..|......
..|......
..|===...
..|......
..|......
..|......
..|......
..|......
..|......
..|......
..|......
..|......
..|......
..|......
..|......
..|......
..|......
..|......
..|......
..|......
..|A-3.v3
..|......
..|......
..|......
..|......
..|......
..|A-3.v2
..|......
..|......
..|......
..|......
..|......
..|A-4.v2
..|......
..|......
..|......
..|......
..|......
..|A-3.v2
..|......
..|......
..|......
..|......
..|......
..|G-4.v2
..|......
..|......
..|......
..|......
..|......
..|===...
..|......
..|......
..|......
..|......
..|......
..|F#4.v2
..|......
..|......
..|......
..|......
..|......
..|G-4.v2
..|......
..|......
..|......
..|......
..|......
..|A-3.v2
..|......
..|......
..|......
..|......
..|......
..|===...
..|......
..|......
..|......
..|......
..|......
..|A-4.v2
..|......
..|......
..|......
..|......
..|......
..|===...
..|......
..|......
..|......
..|......
..|......
..|D#4.v2
..|......
..|......
..|......
..|......
..|......
..|===...
..|......
..|......
..|......
..|......
..|......
..|......
..|......
..|......
..|......
..|......
..|......
..|......
..|......
..|......
..|......
..|......
..|......
..|......
#join
#unk6 6
#song 3
#halt
#halt
