#compressed
#unkc
#track 1
#inst 2
#unk6 7
#volume 69
..|D-4.v3|......
..|......|......
..|......|......
..|......|......
..|......|......
..|......|......
..|===...|D-4.v3
..|......|......
..|......|......
..|......|......
..|......|......
..|......|......
..|......|D-5.v3
..|......|......
..|......|......
..|......|......
..|......|......
..|......|......
..|......|D-4.v3
..|......|......
..|......|......
..|......|......
..|......|......
..|......|......
..|......|F-4.v3
..|......|......
..|......|......
..|......|......
..|......|......
..|......|......
..|......|===...
..|......|......
..|......|......
..|......|......
..|......|......
..|......|......
..|A-4.v3|......
..|......|......
..|......|......
..|......|......
..|......|......
..|......|......
..|B-4.v3|......
..|......|......
..|......|......
..|......|......
..|......|......
..|......|......
..|C-5.v3|......
..|......|......
..|......|......
..|......|......
..|......|......
..|......|......
..|===...|......
..|......|......
..|......|......
..|......|......
..|......|......
..|......|......
..|C-5.v3|......
..|......|......
..|......|......
..|......|......
..|......|......
..|......|......
..|===...|......
..|......|......
..|......|......
..|......|......
..|......|......
..|......|......
..|B-4.v3|......
..|......|......
..|......|......
..|......|......
..|......|......
..|......|......
..|===...|......
..|......|......
..|......|......
..|......|......
..|......|......
..|......|......
..|......|......
..|......|......
..|......|......
..|......|......
..|......|......
..|......|......
..|......|......
..|......|......
..|......|......
..|......|......
..|......|......
..|......|......
..|C-4.v3|......
..|......|......
..|......|......
..|......|......
..|......|......
..|......|......
..|C-4.v3|......
..|......|......
..|......|......
..|......|......
..|......|......
..|......|......
..|C-5.v3|......
..|......|......
..|......|......
..|......|......
..|......|......
..|......|......
..|C-4.v3|......
..|......|......
..|......|......
..|......|......
..|......|......
..|......|......
..|D#4.v3|......
..|......|......
..|......|......
..|......|......
..|......|......
..|......|......
..|===...|......
..|......|......
..|......|......
..|......|......
..|......|......
..|......|......
..|G-4.v3|......
..|......|......
..|......|......
..|......|......
..|......|......
..|......|......
..|A-4.v3|......
..|......|......
..|......|......
..|......|......
..|......|......
..|......|......
..|A#4.v3|......
..|......|......
..|......|......
..|......|......
..|......|......
..|......|......
..|===...|......
..|......|......
..|......|......
..|......|......
..|......|......
..|......|......
..|A-4.v3|......
..|......|......
..|......|......
..|......|......
..|......|......
..|......|......
..|A#4.v3|......
..|......|......
..|......|......
..|......|......
..|......|......
..|......|......
..|C-4.v3|......
..|......|......
..|......|......
..|......|......
..|......|......
..|......|......
..|B-3.v3|......
..|......|......
..|......|......
..|......|......
..|......|......
..|......|......
..|C-4.v3|......
..|......|......
..|......|......
..|......|......
..|......|......
..|......|......
..|===...|......
..|......|......
..|......|......
..|......|......
..|......|......
..|......|......
..|A-3.v3|......
..|......|......
..|......|......
..|......|......
..|......|......
..|......|......
..|A-3.v3|......
..|......|......
..|......|......
..|......|......
..|......|......
..|......|......
..|A-4.v3|......
..|......|......
..|......|......
..|......|......
..|......|......
..|......|......
..|A-3.v3|......
..|......|......
..|......|......
..|......|......
..|......|......
..|......|......
..|G-4.v3|......
..|......|......
..|......|......
..|......|......
..|......|......
..|......|......
..|===...|......
..|......|......
..|......|......
..|......|......
..|......|......
..|......|......
..|F#4.v3|......
..|......|......
..|......|......
..|......|......
..|......|......
..|......|......
..|G-4.v3|......
..|......|......
..|......|......
..|......|......
..|......|......
..|......|......
..|A-3.v3|......
..|......|......
..|......|......
..|......|......
..|......|......
..|......|......
..|===...|......
..|......|......
..|......|......
..|......|......
..|......|......
..|......|......
..|A-4.v3|......
..|......|......
..|......|......
..|......|......
..|......|......
..|......|......
..|===...|......
..|......|......
..|......|......
..|......|......
..|......|......
..|......|......
..|A-3.v3|......
..|......|......
..|......|......
..|......|......
..|......|......
..|......|......
..|===...|......
..|......|......
..|......|......
..|......|......
..|......|......
..|......|......
..|......|......
..|......|......
..|......|......
..|......|......
..|......|......
..|......|......
..|......|......
..|......|......
..|......|......
..|......|......
..|......|......
..|......|......
..|A-3.v3|......
..|......|......
..|......|......
..|......|......
..|......|......
..|......|......
..|A-3.v3|......
..|......|......
..|......|......
..|......|......
..|......|......
..|......|......
..|A-4.v3|......
..|......|......
..|......|......
..|......|......
..|......|......
..|......|......
..|A-3.v3|......
..|......|......
..|......|......
..|......|......
..|......|......
..|......|......
..|G-4.v3|......
..|......|......
..|......|......
..|......|......
..|......|......
..|......|......
..|===...|......
..|......|......
..|......|......
..|......|......
..|......|......
..|......|......
..|F#4.v3|......
..|......|......
..|......|......
..|......|......
..|......|......
..|......|......
..|G-4.v3|......
..|......|......
..|......|......
..|......|......
..|......|......
..|......|......
..|A-3.v3|......
..|......|......
..|......|......
..|......|......
..|......|......
..|......|......
..|===...|......
..|......|......
..|......|......
..|......|......
..|......|......
..|......|......
..|A-4.v3|......
..|......|......
..|......|......
..|......|......
..|......|......
..|......|......
..|===...|......
..|......|......
..|......|......
..|......|......
..|......|......
..|......|......
..|A-3.v3|......
..|......|......
..|......|......
..|......|......
..|......|......
..|......|......
..|A-3.v3|......
..|......|......
..|......|......
..|......|......
..|......|......
..|......|......
..|B-3.v3|......
..|......|......
..|......|......
..|......|......
..|......|......
..|......|......
..|C#4.v3|......
..|......|......
..|......|......
..|......|......
..|......|......
..|......|......
..|D-4.v3|......
..|......|......
..|......|......
..|......|......
..|......|......
..|......|......
..|D-4.v3|......
..|......|......
..|......|......
..|......|......
..|......|......
..|......|......
..|D-5.v3|......
..|......|......
..|......|......
..|......|......
..|......|......
..|......|......
..|D-4.v3|......
..|......|......
..|......|......
..|......|......
..|......|......
..|......|......
..|F-4.v3|......
..|......|......
..|......|......
..|......|......
..|......|......
..|......|......
..|===...|......
..|......|......
..|......|......
..|......|......
..|......|......
..|......|......
..|A-4.v3|......
..|......|......
..|......|......
..|......|......
..|......|......
..|......|......
..|B-4.v3|......
..|......|......
..|......|......
..|......|......
..|......|......
..|......|......
..|C-5.v3|......
..|......|......
..|......|......
..|......|......
..|......|......
..|......|......
..|===...|......
..|......|......
..|......|......
..|......|......
..|......|......
..|......|......
..|C-5.v3|......
..|......|......
..|......|......
..|......|......
..|......|......
..|......|......
..|===...|......
..|......|......
..|......|......
..|......|......
..|......|......
..|......|......
..|B-4.v3|......
..|......|......
..|......|......
..|......|......
..|......|......
..|......|......
..|===...|......
..|......|......
..|......|......
..|......|......
..|......|......
..|......|......
..|......|......
..|......|......
..|......|......
..|......|......
..|......|......
..|......|......
..|......|......
..|......|......
..|......|......
..|......|......
..|......|......
..|......|......
..|C-4.v3|......
..|......|......
..|......|......
..|......|......
..|......|......
..|......|......
..|C-4.v3|......
..|......|......
..|......|......
..|......|......
..|......|......
..|......|......
..|C-5.v3|......
..|......|......
..|......|......
..|......|......
..|......|......
..|......|......
..|C-4.v3|......
..|......|......
..|......|......
..|......|......
..|......|......
..|......|......
..|D#4.v3|......
..|......|......
..|......|......
..|......|......
..|......|......
..|......|......
..|===...|......
..|......|......
..|......|......
..|......|......
..|......|......
..|......|......
..|G-4.v3|......
..|......|......
..|......|......
..|......|......
..|......|......
..|......|......
..|A-4.v3|......
..|......|......
..|......|......
..|......|......
..|......|......
..|......|......
..|A#4.v3|......
..|......|......
..|......|......
..|......|......
..|......|......
..|......|......
..|===...|......
..|......|......
..|......|......
..|......|......
..|......|......
..|......|......
..|A-4.v3|......
..|......|......
..|......|......
..|......|......
..|......|......
..|......|......
..|A#4.v3|......
..|......|......
..|......|......
..|......|......
..|......|......
..|......|......
..|C-4.v3|......
..|......|......
..|......|......
..|......|......
..|......|......
..|......|......
..|B-3.v3|......
..|......|......
..|......|......
..|......|......
..|......|......
..|......|......
..|C-4.v3|......
..|......|......
..|......|......
..|......|......
..|......|......
..|......|......
..|===...|......
..|......|......
..|......|......
..|......|......
..|......|......
..|......|......
..|A-3.v3|......
..|......|......
..|......|......
..|......|......
..|......|......
..|......|......
..|A-3.v3|......
..|......|......
..|......|......
..|......|......
..|......|......
..|......|......
..|A-4.v3|......
..|......|......
..|......|......
..|......|......
..|......|......
..|......|......
..|A-3.v3|......
..|......|......
..|......|......
..|......|......
..|......|......
..|......|......
..|G-4.v3|......
..|......|......
..|......|......
..|......|......
..|......|......
..|......|......
..|===...|......
..|......|......
..|......|......
..|......|......
..|......|......
..|......|......
..|F#4.v3|......
..|......|......
..|......|......
..|......|......
..|......|......
..|......|......
..|G-4.v3|......
..|......|......
..|......|......
..|......|......
..|......|......
..|......|......
..|A-3.v3|......
..|......|......
..|......|......
..|......|......
..|......|......
..|......|......
..|===...|......
..|......|......
..|......|......
..|......|......
..|......|......
..|......|......
..|A-4.v3|......
..|......|......
..|......|......
..|......|......
..|......|......
..|......|......
..|===...|......
..|......|......
..|......|......
..|......|......
..|......|......
..|......|......
..|A-3.v3|......
..|......|......
..|......|......
..|......|......
..|......|......
..|......|......
..|===...|......
..|......|......
..|......|......
..|......|......
..|......|......
..|......|......
..|......|......
..|......|......
..|......|......
..|......|......
..|......|......
..|......|......
..|......|......
..|......|......
..|......|......
..|......|......
..|......|......
..|......|......
..|A-3.v3|......
..|......|......
..|......|......
..|......|......
..|......|......
..|......|......
..|A-3.v3|......
..|......|......
..|......|......
..|......|......
..|......|......
..|......|......
..|A-4.v3|......
..|......|......
..|......|......
..|......|......
..|......|......
..|......|......
..|A-3.v3|......
..|......|......
..|......|......
..|......|......
..|......|......
..|......|......
..|G-4.v3|......
..|......|......
..|......|......
..|......|......
..|......|......
..|......|......
..|===...|......
..|......|......
..|......|......
..|......|......
..|......|......
..|......|......
..|F#4.v3|......
..|......|......
..|......|......
..|......|......
..|......|......
..|......|......
..|G-4.v3|......
..|......|......
..|......|......
..|......|......
..|......|......
..|......|......
..|A-3.v3|......
..|......|......
..|......|......
..|......|......
..|......|......
..|......|......
..|===...|......
..|......|......
..|......|......
..|......|......
..|......|......
..|......|......
..|A-4.v3|......
..|......|......
..|......|......
..|......|......
..|......|......
..|......|......
..|===...|......
..|......|......
..|......|......
..|......|......
..|......|......
..|......|......
..|D#4.v3|......
..|......|......
..|......|......
..|......|......
..|......|......
..|......|......
..|===...|......
..|......|......
..|......|......
..|......|......
..|......|......
..|......|......
..|F#4.v3|......
..|......|......
..|......|......
..|F-4.v3|......
..|......|......
..|......|......
..|E-4.v3|......
..|......|......
..|......|......
..|D#4.v3|......
..|......|......
..|......|......
..|===...|......
#halt
#halt
