#compressed
#unkc
#track 6
#inst 4
#unk6 7
#volume 5a
..|......|......
..|......|......
..|......|......
..|......|......
..|......|......
..|......|......
..|......|......
..|......|......
..|......|......
..|......|......
..|......|......
..|......|......
..|C-5.v3|A-4.v3
..|......|......
..|......|......
..|===...|===...
..|......|......
..|......|......
..|C-5.v3|A-4.v3
..|......|......
..|......|......
..|===...|===...
..|......|......
..|......|......
..|......|......
..|......|......
..|......|......
..|......|......
..|......|......
..|......|......
..|......|......
..|......|......
..|......|......
..|......|......
..|......|......
..|......|......
..|C-5.v3|A-4.v3
..|......|......
..|......|......
..|===...|===...
..|......|......
..|......|......
..|......|......
..|......|......
..|......|......
..|......|......
..|......|......
..|......|......
..|......|......
..|......|......
..|......|......
..|......|......
..|......|......
..|......|......
..|......|......
..|......|......
..|......|......
..|......|......
..|......|......
..|......|......
..|C-5.v3|A-4.v3
..|......|......
..|......|......
..|===...|===...
..|......|......
..|......|......
..|C-5.v3|A-4.v3
..|......|......
..|......|......
..|===...|===...
..|......|......
..|......|......
..|......|......
..|......|......
..|......|......
..|......|......
..|......|......
..|......|......
..|......|......
..|......|......
..|......|......
..|......|......
..|......|......
..|......|......
..|C-5.v3|A-4.v3
..|......|......
..|......|......
..|===...|===...
..|......|......
..|......|......
..|......|......
..|......|......
..|......|......
..|......|......
..|......|......
..|......|......
..|A-4.v3|A-3.v3
..|......|......
..|......|......
..|......|......
..|......|......
..|......|......
..|......|......
..|......|......
..|......|......
..|......|......
..|......|......
..|......|......
..|G#4.v3|G#3.v3
..|......|......
..|......|......
..|A-4.v3|A-3.v3
..|......|......
..|......|......
..|G#4.v3|G#3.v3
..|......|......
..|......|......
..|G-4.v2|G-3.v2
..|......|......
..|......|......
..|D#4.v3|D#3.v3
..|......|......
..|......|......
..|===...|===...
..|......|......
..|......|......
..|......|......
..|......|......
..|......|......
..|......|......
..|......|......
..|......|......
..|C#5.v3|C#4.v3
..|......|......
..|......|......
..|===...|===...
..|......|......
..|......|......
..|......|......
..|......|......
..|......|......
..|......|......
..|......|......
..|......|......
..|D-4.v3|D-3.v3
..|......|......
..|......|......
..|===...|===...
#halt
#halt
