#compressed
#unkc
#track 1
#inst 5
#unk6 10
#unk6 7
#volume 64
#pan 100
..|......
..|......
..|......
..|......
..|......
..|......
..|......
..|......
..|......
..|......
..|......
..|......
..|......
..|......
..|......
..|......
..|......
..|......
..|......
..|......
..|......
..|......
..|......
..|......
..|G-6.v2
..|......
..|......
..|......
..|......
..|......
..|......
..|......
..|......
..|......
..|......
..|......
..|G-6.v2
..|......
..|......
..|......
..|......
..|......
..|......
..|......
..|......
..|......
..|......
..|......
..|===...
..|......
..|......
..|......
..|......
..|......
..|......
..|......
..|......
..|......
..|......
..|......
..|G-6.v2
..|......
..|......
..|......
..|......
..|......
..|......
..|......
..|......
..|......
..|......
..|......
..|===...
..|......
..|......
..|......
..|......
..|......
..|......
..|......
..|......
..|......
..|......
..|......
..|G-6.v2
..|......
..|......
..|......
..|......
..|......
..|......
..|......
..|......
..|......
..|......
..|......
..|===...
..|......
..|......
..|......
..|......
..|......
..|......
..|......
..|......
..|......
..|......
..|......
..|......
..|......
..|......
..|......
..|......
..|......
..|......
..|......
..|......
..|......
..|......
..|......
..|F#6.v2
..|......
..|......
..|......
..|......
..|......
..|......
..|......
..|......
..|......
..|......
..|......
..|F#6.v2
..|......
..|......
..|......
..|......
..|......
..|......
..|......
..|......
..|......
..|......
..|......
..|===...
..|......
..|......
..|......
..|......
..|......
..|......
..|......
..|......
..|......
..|......
..|......
..|F#6.v2
..|......
..|......
..|......
..|......
..|......
..|......
..|......
..|......
..|......
..|......
..|......
..|===...
..|......
..|......
..|......
..|......
..|......
..|......
..|......
..|......
..|......
..|......
..|......
..|F#6.v2
..|......
..|......
..|......
..|......
..|......
..|......
..|......
..|......
..|......
..|......
..|......
..|E-6.v2
..|......
..|......
..|......
..|......
..|......
..|......
..|......
..|......
..|......
..|......
..|......
..|......
..|......
..|......
..|......
..|......
..|......
..|......
..|......
..|......
..|......
..|......
..|......
..|......
..|......
..|......
..|......
..|......
..|......
..|......
..|......
..|......
..|......
..|......
..|......
..|C#6.v2
..|......
..|......
..|......
..|......
..|......
..|......
..|......
..|......
..|......
..|......
..|......
..|......
..|......
..|......
..|......
..|......
..|......
..|......
..|......
..|......
..|......
..|......
..|......
..|......
..|......
..|......
..|......
..|......
..|......
..|......
..|......
..|......
..|......
..|......
..|......
..|......
..|......
..|......
..|......
..|......
..|......
..|......
..|......
..|......
..|......
..|......
..|......
..|......
..|......
..|......
..|......
..|......
..|......
..|......
..|......
..|......
..|......
..|......
..|......
..|E-6.v2
..|......
..|......
..|......
..|......
..|......
..|......
..|......
..|......
..|......
..|......
..|......
..|......
..|......
..|......
..|......
..|......
..|......
..|......
..|......
..|......
..|......
..|......
..|......
..|......
..|......
..|......
..|......
..|......
..|......
..|......
..|......
..|......
..|......
..|......
..|......
..|C#6.v2
..|......
..|......
..|......
..|......
..|......
..|......
..|......
..|......
..|......
..|......
..|......
..|......
..|......
..|......
..|......
..|......
..|......
..|......
..|......
..|......
..|......
..|......
..|......
..|......
..|......
..|......
..|......
..|......
..|......
..|......
..|......
..|......
..|......
..|......
..|......
..|......
..|......
..|......
..|......
..|......
..|......
..|......
..|......
..|......
..|......
..|......
..|......
..|......
..|......
..|......
..|......
..|......
..|......
..|......
..|......
..|......
..|......
..|......
..|......
..|===...
..|......
..|......
..|......
..|......
..|......
..|......
..|......
..|......
..|......
..|......
..|......
..|......
..|......
..|......
..|......
..|......
..|......
..|......
..|......
..|......
..|......
..|......
..|......
..|G-6.v2
..|......
..|......
..|......
..|......
..|......
..|......
..|......
..|......
..|......
..|......
..|......
..|G-6.v2
..|......
..|......
..|......
..|......
..|......
..|......
..|......
..|......
..|......
..|......
..|......
..|===...
..|......
..|......
..|......
..|......
..|......
..|......
..|......
..|......
..|......
..|......
..|......
..|G-6.v2
..|......
..|......
..|......
..|......
..|......
..|......
..|......
..|......
..|......
..|......
..|......
..|===...
..|......
..|......
..|......
..|......
..|......
..|......
..|......
..|......
..|......
..|......
..|......
..|G-6.v2
..|......
..|......
..|......
..|......
..|......
..|......
..|......
..|......
..|......
..|......
..|......
..|===...
..|......
..|......
..|......
..|......
..|......
..|......
..|......
..|......
..|......
..|......
..|......
..|......
..|......
..|......
..|......
..|......
..|......
..|......
..|......
..|......
..|......
..|......
..|......
..|F#6.v2
..|......
..|......
..|......
..|......
..|......
..|......
..|......
..|......
..|......
..|......
..|......
..|F#6.v2
..|......
..|......
..|......
..|......
..|......
..|......
..|......
..|......
..|......
..|......
..|......
..|===...
..|......
..|......
..|......
..|......
..|......
..|......
..|......
..|......
..|......
..|......
..|......
..|F#6.v2
..|......
..|......
..|......
..|......
..|......
..|......
..|......
..|......
..|......
..|......
..|......
..|===...
..|......
..|......
..|......
..|......
..|......
..|......
..|......
..|......
..|......
..|......
..|......
..|F#6.v2
..|......
..|......
..|......
..|......
..|......
..|......
..|......
..|......
..|......
..|......
..|......
..|E-6.v2
..|......
..|......
..|......
..|......
..|......
..|......
..|......
..|......
..|......
..|......
..|......
..|......
..|......
..|......
..|......
..|......
..|......
..|......
..|......
..|......
..|......
..|......
..|......
..|......
..|......
..|......
..|......
..|......
..|......
..|......
..|......
..|......
..|......
..|......
..|......
..|......
..|......
..|......
..|......
..|......
..|......
..|......
..|......
..|......
..|......
..|......
..|......
..|......
..|......
..|......
..|......
..|......
..|......
..|......
..|......
..|......
..|......
..|......
..|......
..|......
..|......
..|......
..|......
..|......
..|......
..|......
..|......
..|......
..|......
..|......
..|......
..|......
..|......
..|......
..|......
..|......
..|......
..|......
..|......
..|......
..|......
..|......
..|......
..|......
..|......
..|......
..|......
..|......
..|......
..|......
..|......
..|......
..|......
..|......
..|......
..|===...
..|......
..|......
..|......
..|......
..|......
..|......
..|......
..|......
..|......
..|......
..|......
..|......
..|......
..|......
..|......
..|......
..|......
..|......
..|......
..|......
..|......
..|......
..|......
..|......
..|......
..|......
..|......
..|......
..|......
..|......
..|......
..|......
..|......
..|......
..|......
..|......
..|......
..|......
..|......
..|......
..|......
..|......
..|......
..|......
..|......
..|......
..|......
..|......
..|......
..|......
..|......
..|......
..|......
..|......
..|......
..|......
..|......
..|......
..|......
..|......
..|......
..|......
..|......
..|......
..|......
..|......
..|......
..|......
..|......
..|......
..|......
..|......
..|......
..|......
..|......
..|......
..|......
..|......
..|......
..|......
..|......
..|......
..|......
..|......
..|......
..|......
..|......
..|......
..|......
..|......
..|......
..|......
..|......
..|......
..|......
..|......
..|......
..|......
..|......
..|......
..|......
..|......
..|......
..|......
..|......
..|......
..|......
..|......
..|......
..|......
..|......
..|......
..|......
..|......
..|......
..|......
..|......
..|......
..|......
..|G-6.v2
..|......
..|......
..|......
..|......
..|......
..|......
..|......
..|......
..|......
..|......
..|......
..|G-6.v2
..|......
..|......
..|......
..|......
..|......
..|......
..|......
..|......
..|......
..|......
..|......
..|===...
..|......
..|......
..|......
..|......
..|......
..|......
..|......
..|......
..|......
..|......
..|......
..|G-6.v2
..|......
..|......
..|......
..|......
..|......
..|......
..|......
..|......
..|......
..|......
..|......
..|===...
..|......
..|......
..|......
..|......
..|......
..|......
..|......
..|......
..|......
..|......
..|......
..|G-6.v2
..|......
..|......
..|......
..|......
..|......
..|......
..|......
..|......
..|......
..|......
..|......
..|===...
..|......
..|......
..|......
..|......
..|......
..|......
..|......
..|......
..|......
..|......
..|......
..|......
..|......
..|......
..|......
..|......
..|......
..|......
..|......
..|......
..|......
..|......
..|......
..|F#6.v2
..|......
..|......
..|......
..|......
..|......
..|......
..|......
..|......
..|......
..|......
..|......
..|F#6.v2
..|......
..|......
..|......
..|......
..|......
..|......
..|......
..|......
..|......
..|......
..|......
..|===...
..|......
..|......
..|......
..|......
..|......
..|......
..|......
..|......
..|......
..|......
..|......
..|F#6.v2
..|......
..|......
..|......
..|......
..|......
..|......
..|......
..|......
..|......
..|......
..|......
..|===...
..|......
..|......
..|......
..|......
..|......
..|......
..|......
..|......
..|......
..|......
..|......
..|F#6.v2
..|......
..|......
..|......
..|......
..|......
..|......
..|......
..|......
..|......
..|......
..|......
..|E-6.v2
..|......
..|......
..|......
..|......
..|......
..|......
..|......
..|......
..|......
..|......
..|......
..|......
..|......
..|......
..|......
..|......
..|......
..|......
..|......
..|......
..|......
..|......
..|......
..|......
..|......
..|......
..|......
..|......
..|......
..|......
..|......
..|......
..|......
..|......
..|......
..|C#6.v2
..|......
..|......
..|......
..|......
..|......
..|......
..|......
..|......
..|......
..|......
..|......
..|......
..|......
..|......
..|......
..|......
..|......
..|......
..|......
..|......
..|......
..|......
..|......
..|......
..|......
..|......
..|......
..|......
..|......
..|......
..|......
..|......
..|......
..|......
..|......
..|......
..|......
..|......
..|......
..|......
..|......
..|......
..|......
..|......
..|......
..|......
..|......
..|......
..|......
..|......
..|......
..|......
..|......
..|......
..|......
..|......
..|......
..|......
..|......
..|E-6.v2
..|......
..|......
..|......
..|......
..|......
..|......
..|......
..|......
..|......
..|......
..|......
..|......
..|......
..|......
..|......
..|......
..|......
..|......
..|......
..|......
..|......
..|......
..|......
..|......
..|......
..|......
..|......
..|......
..|......
..|......
..|......
..|......
..|......
..|......
..|......
..|C#6.v2
..|......
..|......
..|......
..|......
..|......
..|......
..|......
..|......
..|......
..|......
..|......
..|......
..|......
..|......
..|......
..|......
..|......
..|......
..|......
..|......
..|......
..|......
..|......
..|......
..|......
..|......
..|......
..|......
..|......
..|......
..|......
..|......
..|......
..|......
..|......
..|......
..|......
..|......
..|......
..|......
..|......
..|......
..|......
..|......
..|......
..|......
..|......
..|......
..|......
..|......
..|......
..|......
..|......
..|......
..|......
..|......
..|......
..|......
..|......
..|===...
..|......
..|......
..|......
..|......
..|......
..|......
..|......
..|......
..|......
..|......
..|......
..|......
..|......
..|......
..|......
..|......
..|......
..|......
..|......
..|......
..|......
..|......
..|......
..|G-6.v3
..|......
..|......
..|......
..|......
..|......
..|......
..|......
..|......
..|......
..|......
..|......
..|G-6.v3
..|......
..|......
..|......
..|......
..|......
..|......
..|......
..|......
..|......
..|......
..|......
..|===...
..|......
..|......
..|......
..|......
..|......
..|......
..|......
..|......
..|......
..|......
..|......
..|G-6.v3
..|......
..|......
..|......
..|......
..|......
..|......
..|......
..|......
..|......
..|......
..|......
..|===...
..|......
..|......
..|......
..|......
..|......
..|......
..|......
..|......
..|......
..|......
..|......
..|G-6.v3
..|......
..|......
..|......
..|......
..|......
..|......
..|......
..|......
..|......
..|......
..|......
..|===...
..|......
..|......
..|......
..|......
..|......
..|......
..|......
..|......
..|......
..|......
..|......
..|......
..|......
..|......
..|......
..|......
..|......
..|......
..|......
..|......
..|......
..|......
..|......
..|F#6.v3
..|......
..|......
..|......
..|......
..|......
..|......
..|......
..|......
..|......
..|......
..|......
..|F#6.v3
..|......
..|......
..|......
..|......
..|......
..|......
..|......
..|......
..|......
..|......
..|......
..|===...
..|......
..|......
..|......
..|......
..|......
..|......
..|......
..|......
..|......
..|......
..|......
..|F#6.v3
..|......
..|......
..|......
..|......
..|......
..|......
..|......
..|......
..|......
..|......
..|......
..|===...
..|......
..|......
..|......
..|......
..|......
..|......
..|......
..|......
..|......
..|......
..|......
..|F#6.v3
..|......
..|......
..|......
..|......
..|......
..|......
..|......
..|......
..|......
..|......
..|......
..|E-6.v3
..|......
..|......
..|......
..|......
..|......
..|......
..|......
..|......
..|......
..|......
..|......
..|......
..|......
..|......
..|......
..|......
..|......
..|......
..|......
..|......
..|......
..|......
..|......
..|......
..|......
..|......
..|......
..|......
..|......
..|......
..|......
..|......
..|......
..|......
..|......
..|......
..|......
..|......
..|......
..|......
..|......
..|......
..|......
..|......
..|......
..|......
..|......
..|......
..|......
..|......
..|......
..|......
..|......
..|......
..|......
..|......
..|......
..|......
..|......
..|......
..|......
..|......
..|......
..|......
..|......
..|......
..|......
..|......
..|......
..|......
..|......
..|......
..|......
..|......
..|......
..|......
..|......
..|......
..|......
..|......
..|......
..|......
..|......
..|......
..|......
..|......
..|......
..|......
..|......
..|......
..|......
..|......
..|......
..|......
..|......
..|===...
..|......
..|......
..|......
..|......
..|......
..|......
..|......
..|......
..|......
..|......
..|......
..|......
..|......
..|......
..|......
..|......
..|......
..|......
..|......
..|......
..|......
..|......
..|......
..|......
..|......
..|......
..|......
..|......
..|......
..|......
..|......
..|......
..|......
..|......
..|......
..|......
..|......
..|......
..|......
..|......
..|......
..|......
..|......
..|......
..|......
..|......
..|......
..|......
..|......
..|......
..|......
..|......
..|......
..|......
..|......
..|......
..|......
..|......
..|......
..|......
..|......
..|......
..|......
..|......
..|......
..|......
..|......
..|......
..|......
..|......
..|......
..|......
..|......
..|......
..|......
..|......
..|......
..|......
..|......
..|......
..|......
..|......
..|......
..|......
..|......
..|......
..|......
..|......
..|......
..|......
..|......
..|......
..|......
..|......
..|......
..|......
..|......
..|......
..|......
..|......
..|......
..|......
..|......
..|......
..|......
..|......
..|......
..|......
..|......
..|......
..|......
..|......
..|......
..|......
..|......
..|......
..|......
..|......
..|......
..|G-6.v3
..|......
..|......
..|......
..|......
..|......
..|......
..|......
..|......
..|......
..|......
..|......
..|G-6.v3
..|......
..|......
..|......
..|......
..|......
..|......
..|......
..|......
..|......
..|......
..|......
..|===...
..|......
..|......
..|......
..|......
..|......
..|......
..|......
..|......
..|......
..|......
..|......
..|G-6.v3
..|......
..|......
..|......
..|......
..|......
..|......
..|......
..|......
..|......
..|......
..|......
..|===...
..|......
..|......
..|......
..|......
..|......
..|......
..|......
..|......
..|......
..|......
..|......
..|G-6.v3
..|......
..|......
..|......
..|......
..|......
..|......
..|......
..|......
..|......
..|......
..|......
..|===...
..|......
..|......
..|......
..|......
..|......
..|......
..|......
..|......
..|......
..|......
..|......
..|......
..|......
..|......
..|......
..|......
..|......
..|......
..|......
..|......
..|......
..|......
..|......
..|F#6.v3
..|......
..|......
..|......
..|......
..|......
..|......
..|......
..|......
..|......
..|......
..|......
..|F#6.v3
..|......
..|......
..|......
..|......
..|......
..|......
..|......
..|......
..|......
..|......
..|......
..|===...
..|......
..|......
..|......
..|......
..|......
..|......
..|......
..|......
..|......
..|......
..|......
..|F#6.v3
..|......
..|......
..|......
..|......
..|......
..|......
..|......
..|......
..|......
..|......
..|......
..|===...
..|......
..|......
..|......
..|......
..|......
..|......
..|......
..|......
..|......
..|......
..|......
..|F#6.v3
..|......
..|......
..|......
..|......
..|......
..|......
..|......
..|......
..|......
..|......
..|......
..|E-6.v3
..|......
..|......
..|......
..|......
..|......
..|......
..|......
..|......
..|......
..|......
..|......
..|......
..|......
..|......
..|......
..|......
..|......
..|......
..|......
..|......
..|......
..|......
..|......
..|......
..|......
..|......
..|......
..|......
..|......
..|......
..|......
..|......
..|......
..|......
..|......
..|C#6.v3
..|......
..|......
..|......
..|......
..|......
..|......
..|......
..|......
..|......
..|......
..|......
..|......
..|......
..|......
..|......
..|......
..|......
..|......
..|......
..|......
..|......
..|......
..|......
..|......
..|......
..|......
..|......
..|......
..|......
..|......
..|......
..|......
..|......
..|......
..|......
..|......
..|......
..|......
..|......
..|......
..|......
..|......
..|......
..|......
..|......
..|......
..|......
..|......
..|......
..|......
..|......
..|......
..|......
..|......
..|......
..|......
..|......
..|......
..|......
..|E-6.v3
..|......
..|......
..|......
..|......
..|......
..|......
..|......
..|......
..|......
..|......
..|......
..|......
..|......
..|......
..|......
..|......
..|......
..|......
..|......
..|......
..|......
..|......
..|......
..|......
..|......
..|......
..|......
..|......
..|......
..|......
..|......
..|......
..|......
..|......
..|......
..|C#6.v3
..|......
..|......
..|......
..|......
..|......
..|......
..|......
..|......
..|......
..|......
..|......
..|......
..|......
..|......
..|......
..|......
..|......
..|......
..|......
..|......
..|......
..|......
..|......
..|......
..|......
..|......
..|......
..|......
..|......
..|......
..|......
..|......
..|......
..|......
..|......
..|......
..|......
..|......
..|......
..|......
..|......
..|......
..|......
..|......
..|......
..|......
..|......
..|......
..|......
..|......
..|......
..|......
..|......
..|......
..|......
..|......
..|......
..|......
..|......
..|===...
..|......
..|......
..|......
..|......
..|......
..|......
..|......
..|......
..|......
..|......
..|......
..|......
..|......
..|......
..|......
..|......
..|......
..|......
..|......
..|......
..|......
..|......
..|......
..|G-6.v2
..|......
..|......
..|......
..|......
..|......
..|......
..|......
..|......
..|......
..|......
..|......
..|G-6.v2
..|......
..|......
..|......
..|......
..|......
..|......
..|......
..|......
..|......
..|......
..|......
..|===...
..|......
..|......
..|......
..|......
..|......
..|......
..|......
..|......
..|......
..|......
..|......
..|G-6.v2
..|......
..|......
..|......
..|......
..|......
..|......
..|......
..|......
..|......
..|......
..|......
..|===...
..|......
..|......
..|......
..|......
..|......
..|......
..|......
..|......
..|......
..|......
..|......
..|G-6.v2
..|......
..|......
..|......
..|......
..|......
..|......
..|......
..|......
..|......
..|......
..|......
..|===...
..|......
..|......
..|......
..|......
..|......
..|......
..|......
..|......
..|......
..|......
..|......
..|......
..|......
..|......
..|......
..|......
..|......
..|......
..|......
..|......
..|......
..|......
..|......
..|F#6.v2
..|......
..|......
..|......
..|......
..|......
..|......
..|......
..|......
..|......
..|......
..|......
..|F#6.v2
..|......
..|......
..|......
..|......
..|......
..|......
..|......
..|......
..|......
..|......
..|......
..|===...
..|......
..|......
..|......
..|......
..|......
..|......
..|......
..|......
..|......
..|......
..|......
..|F#6.v2
..|......
..|......
..|......
..|......
..|......
..|......
..|......
..|......
..|......
..|......
..|......
..|===...
..|......
..|......
..|......
..|......
..|......
..|......
..|......
..|......
..|......
..|......
..|......
..|F#6.v2
..|......
..|......
..|......
..|......
..|......
..|......
..|......
..|......
..|......
..|......
..|......
..|E-6.v2
..|......
..|......
..|......
..|......
..|......
..|......
..|......
..|......
..|......
..|......
..|......
..|......
..|......
..|......
..|......
..|......
..|......
..|......
..|......
..|......
..|......
..|......
..|......
..|......
..|......
..|......
..|......
..|......
..|......
..|......
..|......
..|......
..|......
..|......
..|......
..|......
..|......
..|......
..|......
..|......
..|......
..|......
..|......
..|......
..|......
..|......
..|......
..|......
..|......
..|......
..|......
..|......
..|......
..|......
..|......
..|......
..|......
..|......
..|......
..|......
..|......
..|......
..|......
..|......
..|......
..|......
..|......
..|......
..|......
..|......
..|......
..|......
..|......
..|......
..|......
..|......
..|......
..|......
..|......
..|......
..|......
..|......
..|......
..|......
..|......
..|......
..|......
..|......
..|......
..|......
..|......
..|......
..|......
..|......
..|......
..|===...
..|......
..|......
..|......
..|......
..|......
..|......
..|......
..|......
..|......
..|......
..|......
..|......
..|......
..|......
..|......
..|......
..|......
..|......
..|......
..|......
..|......
..|......
..|......
..|......
..|......
..|......
..|......
..|......
..|......
..|......
..|......
..|......
..|......
..|......
..|......
..|......
..|......
..|......
..|......
..|......
..|......
..|......
..|......
..|......
..|......
..|......
..|......
..|......
..|......
..|......
..|......
..|......
..|......
..|......
..|......
..|......
..|......
..|......
..|......
..|......
..|......
..|......
..|......
..|......
..|......
..|......
..|......
..|......
..|......
..|......
..|......
..|......
..|......
..|......
..|......
..|......
..|......
..|......
..|......
..|......
..|......
..|......
..|......
..|......
..|......
..|......
..|......
..|......
..|......
..|......
..|......
..|......
..|......
..|......
..|......
..|......
..|......
..|......
..|......
..|......
..|......
..|......
..|......
..|......
..|......
..|......
..|......
..|......
..|......
..|......
..|......
..|......
..|......
..|......
..|......
..|......
..|......
..|......
..|......
..|G-6.v2
..|......
..|......
..|......
..|......
..|......
..|......
..|......
..|......
..|......
..|......
..|......
..|G-6.v2
..|......
..|......
..|......
..|......
..|......
..|......
..|......
..|......
..|......
..|......
..|......
..|===...
..|......
..|......
..|......
..|......
..|......
..|......
..|......
..|......
..|......
..|......
..|......
..|G-6.v2
..|......
..|......
..|......
..|......
..|......
..|......
..|......
..|......
..|......
..|......
..|......
..|===...
..|......
..|......
..|......
..|......
..|......
..|......
..|......
..|......
..|......
..|......
..|......
..|G-6.v2
..|......
..|......
..|......
..|......
..|......
..|......
..|......
..|......
..|......
..|......
..|......
..|===...
..|......
..|......
..|......
..|......
..|......
..|......
..|......
..|......
..|......
..|......
..|......
..|......
..|......
..|......
..|......
..|......
..|......
..|......
..|......
..|......
..|......
..|......
..|......
..|F#6.v2
..|......
..|......
..|......
..|......
..|......
..|......
..|......
..|......
..|......
..|......
..|......
..|F#6.v2
..|......
..|......
..|......
..|......
..|......
..|......
..|......
..|......
..|......
..|......
..|......
..|===...
..|......
..|......
..|......
..|......
..|......
..|......
..|......
..|......
..|......
..|......
..|......
..|F#6.v2
..|......
..|......
..|......
..|......
..|......
..|......
..|......
..|......
..|......
..|......
..|......
..|===...
..|......
..|......
..|......
..|......
..|......
..|......
..|......
..|......
..|......
..|......
..|......
..|F#6.v2
..|......
..|......
..|......
..|......
..|......
..|......
..|......
..|......
..|......
..|......
..|......
..|E-6.v2
..|......
..|......
..|......
..|......
..|......
..|......
..|......
..|......
..|......
..|......
..|......
..|......
..|......
..|......
..|......
..|......
..|......
..|......
..|......
..|......
..|......
..|......
..|......
..|......
..|......
..|......
..|......
..|......
..|......
..|......
..|......
..|......
..|......
..|......
..|......
..|C#6.v2
..|......
..|......
..|......
..|......
..|......
..|......
..|......
..|......
..|......
..|......
..|......
..|......
..|......
..|......
..|......
..|......
..|......
..|......
..|......
..|......
..|......
..|......
..|......
..|......
..|......
..|......
..|......
..|......
..|......
..|......
..|......
..|......
..|......
..|......
..|......
..|......
..|......
..|......
..|......
..|......
..|......
..|......
..|......
..|......
..|......
..|......
..|......
..|......
..|......
..|......
..|......
..|......
..|......
..|......
..|......
..|......
..|......
..|......
..|......
..|E-6.v2
..|......
..|......
..|......
..|......
..|......
..|......
..|......
..|......
..|......
..|......
..|......
..|......
..|......
..|......
..|......
..|......
..|......
..|......
..|......
..|......
..|......
..|......
..|......
..|......
..|......
..|......
..|......
..|......
..|......
..|......
..|......
..|......
..|......
..|......
..|......
..|C#6.v2
..|......
..|......
..|......
..|......
..|......
..|......
..|......
..|......
..|......
..|......
..|......
..|......
..|......
..|......
..|......
..|......
..|......
..|......
..|......
..|......
..|......
..|......
..|......
..|......
..|......
..|......
..|......
..|......
..|......
..|......
..|......
..|......
..|......
..|......
..|......
..|......
..|......
..|......
..|......
..|......
..|......
..|......
..|......
..|......
..|......
..|......
..|......
..|......
..|......
..|......
..|......
..|......
..|......
..|......
..|......
..|......
..|......
..|......
..|......
..|===...
..|......
..|......
..|......
..|......
..|......
..|......
..|......
..|......
..|......
..|......
..|......
..|......
..|......
..|......
..|......
..|......
..|......
..|......
..|......
..|......
..|......
..|......
..|......
..|G-6.v2
..|......
..|......
..|......
..|......
..|......
..|......
..|......
..|......
..|......
..|......
..|......
..|G-6.v2
..|......
..|......
..|......
..|......
..|......
..|......
..|......
..|......
..|......
..|......
..|......
..|===...
..|......
..|......
..|......
..|......
..|......
..|......
..|......
..|......
..|......
..|......
..|......
..|G-6.v2
..|......
..|......
..|......
..|......
..|......
..|......
..|......
..|......
..|......
..|......
..|......
..|===...
..|......
..|......
..|......
..|......
..|......
..|......
..|......
..|......
..|......
..|......
..|......
..|G-6.v2
..|......
..|......
..|......
..|......
..|......
..|......
..|......
..|......
..|......
..|......
..|......
..|===...
..|......
..|......
..|......
..|......
..|......
..|......
..|......
..|......
..|......
..|......
..|......
..|......
..|......
..|......
..|......
..|......
..|......
..|......
..|......
..|......
..|......
..|......
..|......
..|F#6.v2
..|......
..|......
..|......
..|......
..|......
..|......
..|......
..|......
..|......
..|......
..|......
..|F#6.v2
..|......
..|......
..|......
..|......
..|......
..|......
..|......
..|......
..|......
..|......
..|......
..|===...
..|......
..|......
..|......
..|......
..|......
..|......
..|......
..|......
..|......
..|......
..|......
..|F#6.v2
..|......
..|......
..|......
..|......
..|......
..|......
..|......
..|......
..|......
..|......
..|......
..|===...
..|......
..|......
..|......
..|......
..|......
..|......
..|......
..|......
..|......
..|......
..|......
..|F#6.v2
..|......
..|......
..|......
..|......
..|......
..|......
..|......
..|......
..|......
..|......
..|......
..|E-6.v2
..|......
..|......
..|......
..|......
..|......
..|......
..|......
..|......
..|......
..|......
..|......
..|......
..|......
..|......
..|......
..|......
..|......
..|......
..|......
..|......
..|......
..|......
..|......
..|......
..|......
..|......
..|......
..|......
..|......
..|......
..|......
..|......
..|......
..|......
..|......
..|......
..|......
..|......
..|......
..|......
..|......
..|......
..|......
..|......
..|......
..|......
..|......
..|......
..|......
..|......
..|......
..|......
..|......
..|......
..|......
..|......
..|......
..|......
..|......
..|......
..|......
..|......
..|......
..|......
..|......
..|......
..|......
..|......
..|......
..|......
..|......
..|......
..|......
..|......
..|......
..|......
..|......
..|......
..|......
..|......
..|......
..|......
..|......
..|......
..|......
..|......
..|......
..|......
..|......
..|......
..|......
..|......
..|......
..|......
..|......
..|===...
..|......
..|......
..|......
..|......
..|......
..|......
..|......
..|......
..|......
..|......
..|......
..|......
..|......
..|......
..|......
..|......
..|......
..|......
..|......
..|......
..|......
..|......
..|......
..|......
..|......
..|......
..|......
..|......
..|......
..|......
..|......
..|......
..|......
..|......
..|......
..|......
..|......
..|......
..|......
..|......
..|......
..|......
..|......
..|......
..|......
..|......
..|......
..|......
..|......
..|......
..|......
..|......
..|......
..|......
..|......
..|......
..|......
..|......
..|......
..|......
..|......
..|......
..|......
..|......
..|......
..|......
..|......
..|......
..|......
..|......
..|......
..|......
..|......
..|......
..|......
..|......
..|......
..|......
..|......
..|......
..|......
..|......
..|......
..|......
..|......
..|......
..|......
..|......
..|......
..|......
..|......
..|......
..|......
..|......
..|......
..|......
..|......
..|......
..|......
..|......
..|......
..|......
..|......
..|......
..|......
..|......
..|......
..|......
..|......
..|......
..|......
..|......
..|......
..|......
..|......
..|......
..|......
..|......
..|......
..|G-6.v2
..|......
..|......
..|......
..|......
..|......
..|......
..|......
..|......
..|......
..|......
..|......
..|G-6.v2
..|......
..|......
..|......
..|......
..|......
..|......
..|......
..|......
..|......
..|......
..|......
..|===...
..|......
..|......
..|......
..|......
..|......
..|......
..|......
..|......
..|......
..|......
..|......
..|G-6.v2
..|......
..|......
..|......
..|......
..|......
..|......
..|......
..|......
..|......
..|......
..|......
..|===...
..|......
..|......
..|......
..|......
..|......
..|......
..|......
..|......
..|......
..|......
..|......
..|G-6.v2
..|......
..|......
..|......
..|......
..|......
..|......
..|......
..|......
..|......
..|......
..|......
..|===...
..|......
..|......
..|......
..|......
..|......
..|......
..|......
..|......
..|......
..|......
..|......
..|......
..|......
..|......
..|......
..|......
..|......
..|......
..|......
..|......
..|......
..|......
..|......
..|F#6.v2
..|......
..|......
..|......
..|......
..|......
..|......
..|......
..|......
..|......
..|......
..|......
..|F#6.v2
..|......
..|......
..|......
..|......
..|......
..|......
..|......
..|......
..|......
..|......
..|......
..|===...
..|......
..|......
..|......
..|......
..|......
..|......
..|......
..|......
..|......
..|......
..|......
..|F#6.v2
..|......
..|......
..|......
..|......
..|......
..|......
..|......
..|......
..|......
..|......
..|......
..|===...
..|......
..|......
..|......
..|......
..|......
..|......
..|......
..|......
..|......
..|......
..|......
..|F#6.v2
..|......
..|......
..|......
..|......
..|......
..|......
..|......
..|......
..|......
..|......
..|......
..|E-6.v2
..|......
..|......
..|......
..|......
..|......
..|......
..|......
..|......
..|......
..|......
..|......
..|......
..|......
..|......
..|......
..|......
..|......
..|......
..|......
..|......
..|......
..|......
..|......
..|......
..|......
..|......
..|......
..|......
..|......
..|......
..|......
..|......
..|......
..|......
..|......
..|C#6.v2
..|......
..|......
..|......
..|......
..|......
..|......
..|......
..|......
..|......
..|......
..|......
..|......
..|......
..|......
..|......
..|......
..|......
..|......
..|......
..|......
..|......
..|......
..|......
..|......
..|......
..|......
..|......
..|......
..|......
..|......
..|......
..|......
..|......
..|......
..|......
..|......
..|......
..|......
..|......
..|......
..|......
..|......
..|......
..|......
..|......
..|......
..|......
..|......
..|......
..|......
..|......
..|......
..|......
..|......
..|......
..|......
..|......
..|......
..|......
..|E-6.v3
..|......
..|......
..|......
..|......
..|......
..|......
..|......
..|......
..|......
..|......
..|......
..|......
..|......
..|......
..|......
..|......
..|......
..|......
..|......
..|......
..|......
..|......
..|......
..|......
..|......
..|......
..|......
..|......
..|......
..|......
..|......
..|......
..|......
..|......
..|......
..|C#6.v3
..|......
..|......
..|......
..|......
..|......
..|......
..|......
..|......
..|......
..|......
..|......
..|......
..|......
..|......
..|......
..|......
..|......
..|......
..|......
..|......
..|......
..|......
..|......
..|......
..|......
..|......
..|......
..|......
..|......
..|......
..|......
..|......
..|......
..|......
..|......
..|......
..|......
..|......
..|......
..|......
..|......
..|......
..|......
..|......
..|......
..|......
..|......
..|......
..|......
..|......
..|......
..|......
..|......
..|......
..|......
..|......
..|......
..|......
..|......
..|===...
..|......
..|......
..|......
..|......
..|......
..|......
..|......
..|......
..|......
..|......
..|......
..|......
..|......
..|......
..|......
..|......
..|......
..|......
..|......
..|......
..|......
..|......
..|......
..|G-6.v2
..|......
..|......
..|......
..|......
..|......
..|......
..|......
..|......
..|......
..|......
..|......
..|G-6.v2
..|......
..|......
..|......
..|......
..|......
..|......
..|......
..|......
..|......
..|......
..|......
..|===...
..|......
..|......
..|......
..|......
..|......
..|......
..|......
..|......
..|......
..|......
..|......
..|G-6.v2
..|......
..|......
..|......
..|......
..|......
..|......
..|......
..|......
..|......
..|......
..|......
..|===...
..|......
..|......
..|......
..|......
..|......
..|......
..|......
..|......
..|......
..|......
..|......
..|G-6.v2
..|......
..|......
..|......
..|......
..|......
..|......
..|......
..|......
..|......
..|......
..|......
..|===...
..|......
..|......
..|......
..|......
..|......
..|......
..|......
..|......
..|......
..|......
..|......
..|......
..|......
..|......
..|......
..|......
..|......
..|......
..|......
..|......
..|......
..|......
..|......
..|F#6.v2
..|......
..|......
..|......
..|......
..|......
..|......
..|......
..|......
..|......
..|......
..|......
..|F#6.v2
..|......
..|......
..|......
..|......
..|......
..|......
..|......
..|......
..|......
..|......
..|......
..|===...
..|......
..|......
..|......
..|......
..|......
..|......
..|......
..|......
..|......
..|......
..|......
..|F#6.v2
..|......
..|......
..|......
..|......
..|......
..|......
..|......
..|......
..|......
..|......
..|......
..|===...
..|......
..|......
..|......
..|......
..|......
..|......
..|......
..|......
..|......
..|......
..|......
..|F#6.v2
..|......
..|......
..|......
..|......
..|......
..|......
..|......
..|......
..|......
..|......
..|......
..|E-6.v2
..|......
..|......
..|......
..|......
..|......
..|......
..|......
..|......
..|......
..|......
..|......
..|......
..|......
..|......
..|......
..|......
..|......
..|......
..|......
..|......
..|......
..|......
..|......
..|......
..|......
..|......
..|......
..|......
..|......
..|......
..|......
..|......
..|......
..|......
..|......
..|......
..|......
..|......
..|......
..|......
..|......
..|......
..|......
..|......
..|......
..|......
..|......
..|......
..|......
..|......
..|......
..|......
..|......
..|......
..|......
..|......
..|......
..|......
..|......
..|......
..|......
..|......
..|......
..|......
..|......
..|......
..|......
..|......
..|......
..|......
..|......
..|......
..|......
..|......
..|......
..|......
..|......
..|......
..|......
..|......
..|......
..|......
..|......
..|......
..|......
..|......
..|......
..|......
..|......
..|......
..|......
..|......
..|......
..|......
..|......
..|===...
..|......
..|......
..|......
..|......
..|......
..|......
..|......
..|......
..|......
..|......
..|......
..|......
..|......
..|......
..|......
..|......
..|......
..|......
..|......
..|......
..|......
..|......
..|......
..|......
..|......
..|......
..|......
..|......
..|......
..|......
..|......
..|......
..|......
..|......
..|......
..|......
..|......
..|......
..|......
..|......
..|......
..|......
..|......
..|......
..|......
..|......
..|......
..|......
..|......
..|......
..|......
..|......
..|......
..|......
..|......
..|......
..|......
..|......
..|......
..|......
..|......
..|......
..|......
..|......
..|......
..|......
..|......
..|......
..|......
..|......
..|......
..|......
..|......
..|......
..|......
..|......
..|......
..|......
..|......
..|......
..|......
..|......
..|......
..|......
..|......
..|......
..|......
..|......
..|......
..|......
..|......
..|......
..|......
..|......
..|......
..|......
..|......
..|......
..|......
..|......
..|......
..|......
..|......
..|......
..|......
..|......
..|......
..|......
..|......
..|......
..|......
..|......
..|......
..|......
..|......
..|......
..|......
..|......
..|......
..|G-6.v2
..|......
..|......
..|......
..|......
..|......
..|......
..|......
..|......
..|......
..|......
..|......
..|G-6.v2
..|......
..|......
..|......
..|......
..|......
..|......
..|......
..|......
..|......
..|......
..|......
..|===...
..|......
..|......
..|......
..|......
..|......
..|......
..|......
..|......
..|......
..|......
..|......
..|G-6.v2
..|......
..|......
..|......
..|......
..|......
..|......
..|......
..|......
..|......
..|......
..|......
..|===...
..|......
..|......
..|......
..|......
..|......
..|......
..|......
..|......
..|......
..|......
..|......
..|G-6.v2
..|......
..|......
..|......
..|......
..|......
..|......
..|......
..|......
..|......
..|......
..|......
..|===...
..|......
..|......
..|......
..|......
..|......
..|......
..|......
..|......
..|......
..|......
..|......
..|......
..|......
..|......
..|......
..|......
..|......
..|......
..|......
..|......
..|......
..|......
..|......
..|F#6.v2
..|......
..|......
..|......
..|......
..|......
..|......
..|......
..|......
..|......
..|......
..|......
..|F#6.v2
..|......
..|......
..|......
..|......
..|......
..|......
..|......
..|......
..|......
..|......
..|......
..|===...
..|......
..|......
..|......
..|......
..|......
..|......
..|......
..|......
..|......
..|......
..|......
..|F#6.v2
..|......
..|......
..|......
..|......
..|......
..|......
..|......
..|......
..|......
..|......
..|......
..|===...
..|......
..|......
..|......
..|......
..|......
..|......
..|......
..|......
..|......
..|......
..|......
..|F#6.v2
..|......
..|......
..|......
..|......
..|......
..|......
..|......
..|......
..|......
..|......
..|......
..|E-6.v2
..|......
..|......
..|......
..|......
..|......
..|......
..|......
..|......
..|......
..|......
..|......
..|......
..|......
..|......
..|......
..|......
..|......
..|......
..|......
..|......
..|......
..|......
..|......
..|......
..|......
..|......
..|......
..|......
..|......
..|......
..|......
..|......
..|......
..|......
..|......
..|C#6.v2
..|......
..|......
..|......
..|......
..|......
..|......
..|......
..|......
..|......
..|......
..|......
..|......
..|......
..|......
..|......
..|......
..|......
..|......
..|......
..|......
..|......
..|......
..|......
..|......
..|......
..|......
..|......
..|......
..|......
..|......
..|......
..|......
..|......
..|......
..|......
..|......
..|......
..|......
..|......
..|......
..|......
..|......
..|......
..|......
..|......
..|......
..|......
..|......
..|......
..|......
..|......
..|......
..|......
..|......
..|......
..|......
..|......
..|......
..|......
..|E-6.v2
..|......
..|......
..|......
..|......
..|......
..|......
..|......
..|......
..|......
..|......
..|......
..|......
..|......
..|......
..|......
..|......
..|......
..|......
..|......
..|......
..|......
..|......
..|......
..|......
..|......
..|......
..|......
..|......
..|......
..|......
..|......
..|......
..|......
..|......
..|......
..|C#6.v2
..|......
..|......
..|......
..|......
..|......
..|......
..|......
..|......
..|......
..|......
..|......
..|......
..|......
..|......
..|......
..|......
..|......
..|......
..|......
..|......
..|......
..|......
..|......
..|......
..|......
..|......
..|......
..|......
..|......
..|......
..|......
..|......
..|......
..|......
..|......
..|......
..|......
..|......
..|......
..|......
..|......
..|......
..|......
..|......
..|......
..|......
..|......
..|......
..|......
..|......
..|......
..|......
..|......
..|......
..|......
..|......
..|......
..|......
..|......
..|===...
..|......
..|......
..|......
..|......
..|......
..|......
..|......
..|......
..|......
..|......
..|......
..|......
..|......
..|......
..|......
..|......
..|......
..|......
..|......
..|......
..|......
..|......
..|......
..|G-6.v2
..|......
..|......
..|......
..|......
..|......
..|......
..|......
..|......
..|......
..|......
..|......
..|G-6.v2
..|......
..|......
..|......
..|......
..|......
..|......
..|......
..|......
..|......
..|......
..|......
..|===...
..|......
..|......
..|......
..|......
..|......
..|......
..|......
..|......
..|......
..|......
..|......
..|G-6.v2
..|......
..|......
..|......
..|......
..|......
..|......
..|......
..|......
..|......
..|......
..|......
..|===...
..|......
..|......
..|......
..|......
..|......
..|......
..|......
..|......
..|......
..|......
..|......
..|G-6.v2
..|......
..|......
..|......
..|......
..|......
..|......
..|......
..|......
..|......
..|......
..|......
..|===...
..|......
..|......
..|......
..|......
..|......
..|......
..|......
..|......
..|......
..|......
..|......
..|......
..|......
..|......
..|......
..|......
..|......
..|......
..|......
..|......
..|......
..|......
..|......
..|F#6.v2
..|......
..|......
..|......
..|......
..|......
..|......
..|......
..|......
..|......
..|......
..|......
..|F#6.v2
..|......
..|......
..|......
..|......
..|......
..|......
..|......
..|......
..|......
..|......
..|......
..|===...
..|......
..|......
..|......
..|......
..|......
..|......
..|......
..|......
..|......
..|......
..|......
..|F#6.v2
..|......
..|......
..|......
..|......
..|......
..|......
..|......
..|......
..|......
..|......
..|......
..|===...
..|......
..|......
..|......
..|......
..|......
..|......
..|......
..|......
..|......
..|......
..|......
..|F#6.v2
..|......
..|......
..|......
..|......
..|......
..|......
..|......
..|......
..|......
..|......
..|......
..|E-6.v2
..|......
..|......
..|......
..|......
..|......
..|......
..|......
..|......
..|......
..|......
..|......
..|......
..|......
..|......
..|......
..|......
..|......
..|......
..|......
..|......
..|......
..|......
..|......
..|......
..|......
..|......
..|......
..|......
..|......
..|......
..|......
..|......
..|......
..|......
..|......
..|......
..|......
..|......
..|......
..|......
..|......
..|......
..|......
..|......
..|......
..|......
..|......
..|......
..|......
..|......
..|......
..|......
..|......
..|......
..|......
..|......
..|......
..|......
..|......
..|......
..|......
..|......
..|......
..|......
..|......
..|......
..|......
..|......
..|......
..|......
..|......
..|......
..|......
..|......
..|......
..|......
..|......
..|......
..|......
..|......
..|......
..|......
..|......
..|......
..|......
..|......
..|......
..|......
..|......
..|......
..|......
..|......
..|......
..|......
..|......
..|===...
..|......
..|......
..|......
..|......
..|......
..|......
..|......
..|......
..|......
..|......
..|......
..|......
..|......
..|......
..|......
..|......
..|......
..|......
..|......
..|......
..|......
..|......
..|......
..|......
..|......
..|......
..|......
..|......
..|......
..|......
..|......
..|......
..|......
..|......
..|......
..|......
..|......
..|......
..|......
..|......
..|......
..|......
..|......
..|......
..|......
..|......
..|......
..|......
..|......
..|......
..|......
..|......
..|......
..|......
..|......
..|......
..|......
..|......
..|......
..|......
..|......
..|......
..|......
..|......
..|......
..|......
..|......
..|......
..|......
..|......
..|......
..|......
..|......
..|......
..|......
..|......
..|......
..|......
..|......
..|......
..|......
..|......
..|......
..|......
..|......
..|......
..|......
..|......
..|......
..|......
..|......
..|......
..|......
..|......
..|......
..|......
..|......
..|......
..|......
..|......
..|......
..|......
..|......
..|......
..|......
..|......
..|......
..|......
..|......
..|......
..|......
..|......
..|......
..|......
..|......
..|......
..|......
..|......
..|......
..|G-6.v2
..|......
..|......
..|......
..|......
..|......
..|......
..|......
..|......
..|......
..|......
..|......
..|G-6.v2
..|......
..|......
..|......
..|......
..|......
..|......
..|......
..|......
..|......
..|......
..|......
..|===...
..|......
..|......
..|......
..|......
..|......
..|......
..|......
..|......
..|......
..|......
..|......
..|G-6.v2
..|......
..|......
..|......
..|......
..|......
..|......
..|......
..|......
..|......
..|......
..|......
..|===...
..|......
..|......
..|......
..|......
..|......
..|......
..|......
..|......
..|......
..|......
..|......
..|G-6.v2
..|......
..|......
..|......
..|......
..|......
..|......
..|......
..|......
..|......
..|......
..|......
..|===...
..|......
..|......
..|......
..|......
..|......
..|......
..|......
..|......
..|......
..|......
..|......
..|......
..|......
..|......
..|......
..|......
..|......
..|......
..|......
..|......
..|......
..|......
..|......
..|F#6.v2
..|......
..|......
..|......
..|......
..|......
..|......
..|......
..|......
..|......
..|......
..|......
..|F#6.v2
..|......
..|......
..|......
..|......
..|......
..|......
..|......
..|......
..|......
..|......
..|......
..|===...
..|......
..|......
..|......
..|......
..|......
..|......
..|......
..|......
..|......
..|......
..|......
..|F#6.v2
..|......
..|......
..|......
..|......
..|......
..|......
..|......
..|......
..|......
..|......
..|......
..|===...
..|......
..|......
..|......
..|......
..|......
..|......
..|......
..|......
..|......
..|......
..|......
..|F#6.v2
..|......
..|......
..|......
..|......
..|......
..|......
..|......
..|......
..|......
..|......
..|......
..|E-6.v2
..|......
..|......
..|......
..|......
..|......
..|......
..|......
..|......
..|......
..|......
..|......
..|......
..|......
..|......
..|......
..|......
..|......
..|......
..|......
..|......
..|......
..|......
..|......
..|......
..|......
..|......
..|......
..|......
..|......
..|......
..|......
..|......
..|......
..|......
..|......
..|C#6.v2
..|......
..|......
..|......
..|......
..|......
..|......
..|......
..|......
..|......
..|......
..|......
..|......
..|......
..|......
..|......
..|......
..|......
..|......
..|......
..|......
..|......
..|......
..|......
..|......
..|......
..|......
..|......
..|......
..|......
..|......
..|......
..|......
..|......
..|......
..|......
..|......
..|......
..|......
..|......
..|......
..|......
..|......
..|......
..|......
..|......
..|......
..|......
..|......
..|......
..|......
..|......
..|......
..|......
..|......
..|......
..|......
..|......
..|......
..|......
..|E-6.v3
..|......
..|......
..|......
..|......
..|......
..|......
..|......
..|......
..|......
..|......
..|......
..|......
..|......
..|......
..|......
..|......
..|......
..|......
..|......
..|......
..|......
..|......
..|......
..|......
..|......
..|......
..|......
..|......
..|......
..|......
..|......
..|......
..|......
..|......
..|......
..|C#6.v3
..|......
..|......
..|......
..|......
..|......
..|......
..|......
..|......
..|......
..|......
..|......
..|......
..|......
..|......
..|......
..|......
..|......
..|......
..|......
..|......
..|......
..|......
..|......
..|......
..|......
..|......
..|......
..|......
..|......
..|......
..|......
..|......
..|......
..|......
..|......
..|......
..|......
..|......
..|......
..|......
..|......
..|......
..|......
..|......
..|......
..|......
..|......
..|......
..|......
..|......
..|......
..|......
..|......
..|......
..|......
..|......
..|......
..|......
..|......
..|===...
..|......
..|......
..|......
..|......
..|......
..|......
..|......
..|......
..|......
..|......
..|......
..|......
..|......
..|......
..|......
..|......
..|......
..|......
..|......
..|......
..|......
..|......
..|......
..|G-6.v2
..|......
..|......
..|......
..|......
..|......
..|......
..|......
..|......
..|......
..|......
..|......
..|G-6.v2
..|......
..|......
..|......
..|......
..|......
..|......
..|......
..|......
..|......
..|......
..|......
..|===...
..|......
..|......
..|......
..|......
..|......
..|......
..|......
..|......
..|......
..|......
..|......
..|G-6.v2
..|......
..|......
..|......
..|......
..|......
..|......
..|......
..|......
..|......
..|......
..|......
..|===...
..|......
..|......
..|......
..|......
..|......
..|......
..|......
..|......
..|......
..|......
..|......
..|G-6.v2
..|......
..|......
..|......
..|......
..|......
..|......
..|......
..|......
..|......
..|......
..|......
..|===...
..|......
..|......
..|......
..|......
..|......
..|......
..|......
..|......
..|......
..|......
..|......
..|......
..|......
..|......
..|......
..|......
..|......
..|......
..|......
..|......
..|......
..|......
..|......
..|F#6.v2
..|......
..|......
..|......
..|......
..|......
..|......
..|......
..|......
..|......
..|......
..|......
..|F#6.v2
..|......
..|......
..|......
..|......
..|......
..|......
..|......
..|......
..|......
..|......
..|......
..|===...
..|......
..|......
..|......
..|......
..|......
..|......
..|......
..|......
..|......
..|......
..|......
..|F#6.v2
..|......
..|......
..|......
..|......
..|......
..|......
..|......
..|......
..|......
..|......
..|......
..|===...
..|......
..|......
..|......
..|......
..|......
..|......
..|......
..|......
..|......
..|......
..|......
..|F#6.v2
..|......
..|......
..|......
..|......
..|......
..|......
..|......
..|......
..|......
..|......
..|......
..|E-6.v2
..|......
..|......
..|......
..|......
..|......
..|......
..|......
..|......
..|......
..|......
..|......
..|......
..|......
..|......
..|......
..|......
..|......
..|......
..|......
..|......
..|......
..|......
..|......
..|......
..|......
..|......
..|......
..|......
..|......
..|......
..|......
..|......
..|......
..|......
..|......
..|......
..|......
..|......
..|......
..|......
..|......
..|......
..|......
..|......
..|......
..|......
..|......
..|......
..|......
..|......
..|......
..|......
..|......
..|......
..|......
..|......
..|......
..|......
..|......
..|......
..|......
..|......
..|......
..|......
..|......
..|......
..|......
..|......
..|......
..|......
..|......
..|......
..|......
..|......
..|......
..|......
..|......
..|......
..|......
..|......
..|......
..|......
..|......
..|......
..|......
..|......
..|......
..|......
..|......
..|......
..|......
..|......
..|......
..|......
..|......
..|===...
..|......
..|......
..|......
..|......
..|......
..|......
..|......
..|......
..|......
..|......
..|......
..|......
..|......
..|......
..|......
..|......
..|......
..|......
..|......
..|......
..|......
..|......
..|......
..|......
..|......
..|......
..|......
..|......
..|......
..|......
..|......
..|......
..|......
..|......
..|......
..|......
..|......
..|......
..|......
..|......
..|......
..|......
..|......
..|......
..|......
..|......
..|......
..|......
..|......
..|......
..|......
..|......
..|......
..|......
..|......
..|......
..|......
..|......
..|......
..|......
..|......
..|......
..|......
..|......
..|......
..|......
..|......
..|......
..|......
..|......
..|......
..|......
..|......
..|......
..|......
..|......
..|......
..|......
..|......
..|......
..|......
..|......
..|......
..|......
..|......
..|......
..|......
..|......
..|......
..|......
..|......
..|......
..|......
..|......
..|......
..|......
..|......
..|......
..|......
..|......
..|......
..|......
..|......
..|......
..|......
..|......
..|......
..|......
..|......
..|......
..|......
..|......
..|......
..|......
..|......
..|......
..|......
..|......
..|......
..|G-6.v2
..|......
..|......
..|......
..|......
..|......
..|......
..|......
..|......
..|......
..|......
..|......
..|G-6.v2
..|......
..|......
..|......
..|......
..|......
..|......
..|......
..|......
..|......
..|......
..|......
..|===...
..|......
..|......
..|......
..|......
..|......
..|......
..|......
..|......
..|......
..|......
..|......
..|G-6.v2
..|......
..|......
..|......
..|......
..|......
..|......
..|......
..|......
..|......
..|......
..|......
..|===...
..|......
..|......
..|......
..|......
..|......
..|......
..|......
..|......
..|......
..|......
..|......
..|G-6.v2
..|......
..|......
..|......
..|......
..|......
..|......
..|......
..|......
..|......
..|......
..|......
..|===...
..|......
..|......
..|......
..|......
..|......
..|......
..|......
..|......
..|......
..|......
..|......
..|......
..|......
..|......
..|......
..|......
..|......
..|......
..|......
..|......
..|......
..|......
..|......
..|F#6.v2
..|......
..|......
..|......
..|......
..|......
..|......
..|......
..|......
..|......
..|......
..|......
..|D-6.v2
..|......
..|......
..|......
..|......
..|......
..|......
..|......
..|......
..|......
..|......
..|......
..|===...
..|......
..|......
..|......
..|......
..|......
..|......
..|......
..|......
..|......
..|......
..|......
..|F#6.v2
..|......
..|......
..|......
..|......
..|......
..|......
..|......
..|......
..|......
..|......
..|......
..|===...
..|......
..|......
..|......
..|......
..|......
..|......
..|......
..|......
..|......
..|......
..|......
..|D-5.v2
..|......
..|......
..|......
..|......
..|......
..|......
..|......
..|......
..|......
..|......
..|......
..|E-5.v2
..|......
..|......
..|......
..|......
..|......
..|===...
..|......
..|......
..|......
..|......
..|......
..|......
..|......
..|......
..|......
..|......
..|......
..|......
..|......
..|......
..|......
..|......
..|......
..|B-4.v2
..|......
..|......
..|......
..|......
..|......
..|......
..|......
..|......
..|......
..|......
..|......
..|......
..|......
..|......
..|......
..|......
..|......
..|......
..|......
..|......
..|......
..|......
..|......
..|B-4.v2
..|......
..|......
..|......
..|......
..|......
..|......
..|......
..|......
..|......
..|......
..|......
..|A-4.v2
..|......
..|......
..|......
..|......
..|......
..|......
..|......
..|......
..|......
..|......
..|......
..|===...
..|......
..|......
..|......
..|......
..|......
..|......
..|......
..|......
..|......
..|......
..|......
..|G-4.v2
..|......
..|......
..|......
..|......
..|......
..|......
..|......
..|......
..|......
..|......
..|......
..|......
..|......
..|......
..|......
..|......
..|......
..|......
..|......
..|......
..|......
..|......
..|......
..|......
..|......
..|......
..|......
..|......
..|......
..|......
..|......
..|......
..|......
..|......
..|......
..|......
..|......
..|......
..|......
..|......
..|......
..|......
..|......
..|......
..|......
..|......
..|......
..|......
..|......
..|......
..|......
..|......
..|......
..|......
..|......
..|......
..|......
..|......
..|......
..|G-5.v2
..|......
..|......
..|......
..|......
..|......
..|......
..|......
..|......
..|......
..|......
..|......
..|F#5.v2
..|......
..|......
..|......
..|......
..|......
..|......
..|......
..|......
..|......
..|......
..|......
..|E-5.v2
..|......
..|......
..|......
..|......
..|......
..|......
..|......
..|......
..|......
..|......
..|......
..|B-4.v2
..|......
..|......
..|......
..|......
..|......
..|......
..|......
..|......
..|......
..|......
..|......
..|D-5.v2
..|......
..|......
..|......
..|......
..|......
..|......
..|......
..|......
..|......
..|......
..|......
..|......
..|......
..|......
..|......
..|......
..|......
..|......
..|......
..|......
..|......
..|......
..|......
..|......
..|......
..|......
..|......
..|......
..|......
..|......
..|......
..|......
..|......
..|......
..|......
6C|......
..|......
..|......
..|......
..|......
68|......
..|......
..|......
..|......
..|......
63|......
..|......
..|......
..|......
..|......
5D|......
..|......
..|......
..|......
..|......
58|......
..|......
..|......
..|......
..|......
53|......
..|......
..|......
..|......
..|......
4E|......
..|......
..|......
..|......
..|......
4A|......
..|......
..|......
..|......
..|......
45|......
..|......
..|......
..|......
..|......
41|......
..|......
..|......
..|......
..|......
3E|......
..|......
..|......
..|......
..|......
3B|......
..|......
..|......
..|......
..|......
..|===...
#halt
#halt
