#compressed
#junk-byte ff
#unkc
#track 4
#inst 5
#unk6 10
#unk6 7
#pan 80
#volume 69
..|F#5.v3|A-5.v3|D-6.v3|......|......|......
..|......|......|......|......|......|......
..|......|......|......|......|......|......
..|......|......|......|......|......|......
..|......|......|......|......|......|......
..|===...|......|===...|......|......|......
#join
..|......|===...|......|......|......|......
..|D-6.v3|A-5.v3|F#5.v3|......|......|......
..|......|......|......|......|......|......
..|......|......|......|......|......|......
..|......|......|......|......|......|......
..|......|......|......|......|......|......
..|......|......|......|......|......|......
..|===...|......|===...|......|......|......
#join
..|......|D-7.v3|A-6.v3|F#6.v3|......|......
..|......|......|......|......|......|......
..|......|......|......|......|......|......
..|......|......|......|......|......|......
..|......|......|......|......|......|......
..|......|......|......|......|......|......
..|......|===...|......|===...|......|......
#join
..|......|......|D-6.v3|A-5.v3|F#5.v3|......
..|......|......|......|......|......|......
..|......|......|......|......|......|......
..|......|......|......|......|......|......
..|......|......|......|......|......|......
..|......|......|......|......|......|......
..|......|......|===...|......|===...|......
#join
..|......|......|......|F#6.v3|D-6.v3|A-5.v3
..|......|......|......|......|......|......
..|......|......|......|......|......|......
..|......|......|......|......|......|......
..|......|......|......|......|......|......
..|......|......|......|......|......|......
..|......|......|......|===...|......|===...
#join
..|......|......|......|......|===...|......
..|......|......|......|......|......|......
..|......|......|......|......|......|......
..|......|......|......|......|......|......
..|......|......|......|......|......|......
..|......|......|......|......|......|......
..|A-6.v3|F#6.v3|D-6.v3|......|......|......
..|......|......|......|......|......|......
..|......|......|......|......|......|......
..|......|......|......|......|......|......
..|......|......|......|......|......|......
..|......|......|......|......|......|......
..|===...|......|===...|......|......|......
#join
..|......|B-6.v3|F#6.v3|D-6.v3|......|......
..|......|......|......|......|......|......
..|......|......|......|......|......|......
..|......|......|......|......|......|......
..|......|......|......|......|......|......
..|......|......|......|......|......|......
..|......|===...|......|===...|......|......
#join
..|......|......|A-6.v3|F#6.v3|D-6.v3|......
..|......|......|......|......|......|......
..|......|......|......|......|......|......
..|......|......|......|......|......|......
..|......|......|......|......|......|......
..|......|......|......|......|......|......
..|......|......|===...|......|===...|......
#join
..|......|......|......|===...|......|......
..|......|......|......|......|......|......
..|......|......|......|......|......|......
..|......|......|......|......|......|......
..|......|......|......|......|......|......
..|......|......|......|......|......|......
..|A-6.v3|F#6.v3|D-6.v3|......|......|......
..|......|......|......|......|......|......
..|......|......|......|......|......|......
..|......|......|......|......|......|......
..|......|......|......|......|......|......
..|......|......|......|......|......|......
..|===...|......|===...|......|......|......
#join
..|......|===...|......|......|......|......
..|......|......|......|......|......|......
..|......|......|......|......|......|......
..|......|......|......|......|......|......
..|......|......|......|......|......|......
..|......|......|......|......|......|......
..|G-6.v3|F-6.v3|D-6.v3|......|......|......
..|......|......|......|......|......|......
..|......|......|......|......|......|......
..|......|......|......|......|......|......
..|......|......|......|......|......|......
..|......|......|......|......|......|......
..|......|......|......|......|......|......
..|......|......|......|......|......|......
..|......|......|......|......|......|......
..|......|......|......|......|......|......
..|......|......|......|......|......|......
..|......|......|......|......|......|......
..|......|......|......|......|......|......
..|......|......|......|......|......|......
..|......|......|......|......|......|......
..|......|......|......|......|......|......
..|......|......|......|......|......|......
..|......|......|......|......|......|......
..|......|......|......|......|......|......
..|......|......|......|......|......|......
..|......|......|......|......|......|......
..|......|......|......|......|......|......
..|......|......|......|......|......|......
..|......|......|......|......|......|......
..|......|......|......|......|......|......
..|......|......|......|......|......|......
..|......|......|......|......|......|......
..|......|......|......|......|......|......
..|......|......|......|......|......|......
..|......|......|......|......|......|......
..|......|......|......|......|......|......
..|......|......|......|......|......|......
..|......|......|......|......|......|......
..|......|......|......|......|......|......
..|......|......|......|......|......|......
..|......|......|......|......|......|......
..|......|......|......|......|......|......
..|......|......|......|......|......|......
..|......|......|......|......|......|......
..|......|......|......|......|......|......
..|......|......|......|......|......|......
..|......|......|......|......|......|......
..|......|......|......|......|......|......
..|......|......|......|......|......|......
..|......|......|......|......|......|......
..|......|......|......|......|......|......
..|......|......|......|......|......|......
..|......|......|......|......|......|......
..|===...|......|===...|......|......|......
#join
..|......|===...|......|......|......|......
#halt
#halt
