#compressed
#unkc
#track 1
#inst 4
#unk6 10
#unk6 7
#pan 40
#volume 55
..|C-4.v3|E-4.v3|......|......
..|......|......|......|......
..|......|......|......|......
..|......|......|......|......
..|......|......|......|......
..|......|......|......|......
..|......|......|......|......
..|......|......|......|......
..|......|......|......|......
..|......|......|......|......
..|......|......|......|......
..|......|......|......|......
..|......|......|......|......
..|......|......|......|......
..|......|......|......|......
..|......|......|......|......
..|......|......|......|......
..|......|......|......|......
..|......|......|......|......
..|......|......|......|......
..|......|......|......|......
..|......|......|......|......
..|......|......|......|......
..|......|......|......|......
..|......|......|......|......
..|......|......|......|......
..|......|......|......|......
..|......|......|......|......
..|......|......|......|......
..|......|......|......|......
..|......|......|......|......
..|......|......|......|......
..|......|......|......|......
..|......|......|......|......
..|......|......|......|......
..|......|......|......|......
..|===...|===...|F#4.v3|D-4.v3
..|......|......|......|......
..|......|......|......|......
..|......|......|......|......
..|......|......|......|......
..|......|......|......|......
..|......|......|......|......
..|......|......|......|......
..|......|......|......|......
..|......|......|......|......
..|......|......|......|......
..|......|......|......|......
..|......|......|......|......
..|......|......|......|......
..|......|......|......|......
..|......|......|......|......
..|......|......|......|......
..|......|......|......|......
..|......|......|......|......
..|......|......|......|......
..|......|......|......|......
..|......|......|......|......
..|......|......|......|......
..|......|......|......|......
..|......|......|......|......
..|......|......|......|......
..|......|......|......|......
..|......|......|......|......
..|......|......|......|......
..|......|......|......|......
..|......|......|......|......
..|......|......|......|......
..|......|......|......|......
..|......|......|......|......
..|......|......|......|......
..|......|......|......|......
..|......|......|G-4.v3|E-4.v3
..|......|......|......|......
..|......|......|......|......
..|......|......|......|......
..|......|......|......|......
..|......|......|......|......
..|......|......|......|......
..|......|......|......|......
..|......|......|......|......
..|......|......|......|......
..|......|......|......|......
..|......|......|......|......
..|......|......|......|......
..|......|......|......|......
..|......|......|......|......
..|......|......|......|......
..|......|......|......|......
..|......|......|......|......
..|......|......|......|......
..|......|......|......|......
..|......|......|......|......
..|......|......|......|......
..|......|......|......|......
..|......|......|......|......
..|......|......|......|......
..|......|......|......|......
..|......|......|......|......
..|......|......|......|......
..|......|......|......|......
..|......|......|......|......
..|......|......|......|......
..|......|......|......|......
..|......|......|......|......
..|......|......|......|......
..|......|......|......|......
..|......|......|......|......
..|......|......|A-4.v3|F#4.v3
..|......|......|......|......
..|......|......|......|......
..|......|......|......|......
..|......|......|......|......
..|......|......|......|......
..|......|......|......|......
..|......|......|......|......
..|......|......|......|......
..|......|......|......|......
..|......|......|......|......
..|......|......|......|......
..|......|......|......|......
..|......|......|......|......
..|......|......|......|......
..|......|......|......|......
..|......|......|......|......
..|......|......|......|......
..|......|......|......|......
..|......|......|......|......
..|......|......|......|......
..|......|......|......|......
..|......|......|......|......
..|......|......|......|......
..|......|......|......|......
..|......|......|......|......
..|......|......|......|......
..|......|......|......|......
..|......|......|......|......
..|......|......|......|......
..|......|......|......|......
..|......|......|......|......
..|......|......|......|......
..|......|......|......|......
..|......|......|......|......
..|......|......|......|......
..|......|......|G-4.v3|E-4.v3
..|......|......|......|......
..|......|......|......|......
..|......|......|......|......
..|......|......|......|......
..|......|......|......|......
..|......|......|......|......
..|......|......|......|......
..|......|......|......|......
..|......|......|......|......
..|......|......|......|......
..|......|......|......|......
..|......|......|......|......
..|......|......|......|......
..|......|......|......|......
..|......|......|......|......
..|......|......|......|......
..|......|......|......|......
..|......|......|......|......
..|......|......|......|......
..|......|......|......|......
..|......|......|......|......
..|......|......|......|......
..|......|......|......|......
..|......|......|F#4.v3|D-4.v3
..|......|......|......|......
..|......|......|......|......
..|......|......|......|......
..|......|......|......|......
..|......|......|......|......
..|......|......|......|......
..|......|......|......|......
..|......|......|......|......
..|......|......|......|......
..|......|......|......|......
..|......|......|......|......
..|......|......|......|......
..|......|......|......|......
..|......|......|......|......
..|......|......|......|......
..|......|......|......|......
..|......|......|......|......
..|......|......|......|......
..|......|......|......|......
..|......|......|......|......
..|......|......|......|......
..|......|......|......|......
..|......|......|......|......
..|......|......|E-4.v3|C-4.v3
..|......|......|......|......
..|......|......|......|......
..|......|......|......|......
..|......|......|......|......
..|......|......|......|......
..|......|......|......|......
..|......|......|......|......
..|......|......|......|......
..|......|......|......|......
..|......|......|......|......
..|......|......|......|......
..|......|......|......|......
..|......|......|......|......
..|......|......|......|......
..|......|......|......|......
..|......|......|......|......
..|......|......|......|......
..|......|......|......|......
..|......|......|......|......
..|......|......|......|......
..|......|......|......|......
..|......|......|......|......
..|......|......|......|......
..|......|......|D-4.v3|B-3.v3
..|......|......|......|......
..|......|......|......|......
..|......|......|......|......
..|......|......|......|......
..|......|......|......|......
..|......|......|......|......
..|......|......|......|......
..|......|......|......|......
..|......|......|......|......
..|......|......|......|......
..|......|......|......|......
..|......|......|E-4.v3|C-4.v3
..|......|......|......|......
..|......|......|......|......
..|......|......|......|......
..|......|......|......|......
..|......|......|......|......
..|......|......|......|......
..|......|......|......|......
..|......|......|......|......
..|......|......|......|......
..|......|......|......|......
..|......|......|......|......
..|......|......|......|......
..|......|......|......|......
..|......|......|......|......
..|......|......|......|......
..|......|......|......|......
..|......|......|......|......
..|......|......|......|......
..|......|......|......|......
..|......|......|......|......
..|......|......|......|......
..|......|......|......|......
..|......|......|......|......
..|......|......|D-4.v3|B-3.v3
..|......|......|......|......
..|......|......|......|......
..|......|......|......|......
..|......|......|......|......
..|......|......|......|......
..|......|......|......|......
..|......|......|......|......
..|......|......|......|......
..|......|......|......|......
..|......|......|......|......
..|......|......|......|......
..|......|......|E-4.v3|C-4.v3
..|......|......|......|......
..|......|......|......|......
..|......|......|......|......
..|......|......|......|......
..|......|......|......|......
..|......|......|......|......
..|......|......|......|......
..|......|......|......|......
..|......|......|......|......
..|......|......|......|......
..|......|......|......|......
..|......|......|......|......
..|......|......|......|......
..|......|......|......|......
..|......|......|......|......
..|......|......|......|......
..|......|......|......|......
..|......|......|......|......
..|......|......|......|......
..|......|......|......|......
..|......|......|......|......
..|......|......|......|......
..|......|......|......|......
..|......|......|......|......
..|......|......|......|......
..|......|......|......|......
..|......|......|......|......
..|......|......|......|......
..|......|......|......|......
..|......|......|......|......
..|......|......|......|......
..|......|......|......|......
..|......|......|......|......
..|......|......|......|......
..|......|......|......|......
..|......|......|E-5.v3|B-4.v3
..|......|......|......|......
..|......|......|......|......
..|......|......|......|......
..|......|......|......|......
..|......|......|......|......
..|......|......|===...|===...
..|......|......|......|......
..|......|......|......|......
..|......|......|......|......
..|......|......|......|......
..|......|......|......|......
..|D-5.v3|A-4.v3|......|......
..|......|......|......|......
..|......|......|......|......
..|......|......|......|......
..|E-5.v3|B-4.v3|......|......
..|......|......|......|......
..|......|......|......|......
..|......|......|......|......
..|D-5.v3|A-4.v3|......|......
..|......|......|......|......
..|......|......|......|......
..|......|......|......|......
..|B-4.v3|F#4.v3|......|......
..|......|......|......|......
..|......|......|......|......
..|......|......|......|......
..|......|......|......|......
..|......|......|......|......
..|===...|===...|......|......
..|......|......|......|......
..|......|......|......|......
..|......|......|......|......
..|......|......|......|......
..|......|......|......|......
..|A-4.v3|E-4.v3|......|......
..|......|......|......|......
..|......|......|......|......
..|......|......|......|......
..|......|......|......|......
..|......|......|......|......
..|===...|===...|......|......
..|......|......|......|......
..|......|......|......|......
..|......|......|......|......
..|......|......|......|......
..|......|......|......|......
..|G-4.v3|D-4.v3|......|......
..|......|......|......|......
..|......|......|......|......
..|......|......|......|......
..|......|......|......|......
..|......|......|......|......
..|===...|===...|......|......
..|......|......|......|......
..|......|......|......|......
..|......|......|......|......
..|......|......|......|......
..|......|......|......|......
..|E-4.v3|B-3.v3|......|......
..|......|......|......|......
..|......|......|......|......
..|......|......|......|......
..|......|......|......|......
..|......|......|......|......
..|===...|===...|......|......
..|......|......|......|......
..|......|......|......|......
..|......|......|......|......
..|......|......|......|......
..|......|......|......|......
..|D-4.v3|A-3.v3|......|......
..|......|......|......|......
..|......|......|......|......
..|......|......|......|......
..|......|......|......|......
..|......|......|......|......
..|===...|===...|......|......
..|......|......|......|......
..|......|......|......|......
..|......|......|......|......
..|......|......|......|......
..|......|......|......|......
..|E-4.v3|C-4.v3|......|......
..|......|......|......|......
..|......|......|......|......
..|......|......|......|......
..|......|......|......|......
..|......|......|......|......
..|......|......|......|......
..|......|......|......|......
..|......|......|......|......
..|......|......|......|......
..|......|......|......|......
..|......|......|......|......
..|......|......|......|......
..|......|......|......|......
..|......|......|......|......
..|......|......|......|......
..|......|......|......|......
..|......|......|......|......
..|......|......|......|......
..|......|......|......|......
..|......|......|......|......
..|......|......|......|......
..|......|......|......|......
..|......|......|......|......
..|......|......|......|......
..|......|......|......|......
..|......|......|......|......
..|......|......|......|......
..|......|......|......|......
..|......|......|......|......
..|......|......|......|......
..|......|......|......|......
..|......|......|......|......
..|......|......|......|......
..|......|......|......|......
..|......|......|......|......
..|F#4.v3|D-4.v3|......|......
..|......|......|......|......
..|......|......|......|......
..|......|......|......|......
..|......|......|......|......
..|......|......|......|......
..|......|......|......|......
..|......|......|......|......
..|......|......|......|......
..|......|......|......|......
..|......|......|......|......
..|......|......|......|......
..|......|......|......|......
..|......|......|......|......
..|......|......|......|......
..|......|......|......|......
..|......|......|......|......
..|......|......|......|......
..|......|......|......|......
..|......|......|......|......
..|......|......|......|......
..|......|......|......|......
..|......|......|......|......
..|......|......|......|......
..|......|......|......|......
..|......|......|......|......
..|......|......|......|......
..|......|......|......|......
..|......|......|......|......
..|......|......|......|......
..|......|......|......|......
..|......|......|......|......
..|......|......|......|......
..|......|......|......|......
..|......|......|......|......
..|......|......|......|......
..|G-4.v3|E-4.v3|......|......
..|......|......|......|......
..|......|......|......|......
..|......|......|......|......
..|......|......|......|......
..|......|......|......|......
..|......|......|......|......
..|......|......|......|......
..|......|......|......|......
..|......|......|......|......
..|......|......|......|......
..|......|......|......|......
..|......|......|......|......
..|......|......|......|......
..|......|......|......|......
..|......|......|......|......
..|......|......|......|......
..|......|......|......|......
..|......|......|......|......
..|......|......|......|......
..|......|......|......|......
..|......|......|......|......
..|......|......|......|......
..|......|......|......|......
..|......|......|......|......
..|......|......|......|......
..|......|......|......|......
..|......|......|......|......
..|......|......|......|......
..|......|......|......|......
..|......|......|......|......
..|......|......|......|......
..|......|......|......|......
..|......|......|......|......
..|......|......|......|......
..|......|......|......|......
..|A-4.v3|F#4.v3|......|......
..|......|......|......|......
..|......|......|......|......
..|......|......|......|......
..|......|......|......|......
..|......|......|......|......
..|......|......|......|......
..|......|......|......|......
..|......|......|......|......
..|......|......|......|......
..|......|......|......|......
..|......|......|......|......
..|......|......|......|......
..|......|......|......|......
..|......|......|......|......
..|......|......|......|......
..|......|......|......|......
..|......|......|......|......
..|......|......|......|......
..|......|......|......|......
..|......|......|......|......
..|......|......|......|......
..|......|......|......|......
..|......|......|......|......
..|......|......|......|......
..|......|......|......|......
..|......|......|......|......
..|......|......|......|......
..|......|......|......|......
..|......|......|......|......
..|......|......|......|......
..|......|......|......|......
..|......|......|......|......
..|......|......|......|......
..|......|......|......|......
..|......|......|......|......
..|G-4.v3|E-4.v3|......|......
..|......|......|......|......
..|......|......|......|......
..|......|......|......|......
..|......|......|......|......
..|......|......|......|......
..|......|......|......|......
..|......|......|......|......
..|......|......|......|......
..|......|......|......|......
..|......|......|......|......
..|......|......|......|......
..|......|......|......|......
..|......|......|......|......
..|......|......|......|......
..|......|......|......|......
..|......|......|......|......
..|......|......|......|......
..|......|......|......|......
..|......|......|......|......
..|......|......|......|......
..|......|......|......|......
..|......|......|......|......
..|......|......|......|......
..|F#4.v3|D-4.v3|......|......
..|......|......|......|......
..|......|......|......|......
..|......|......|......|......
..|......|......|......|......
..|......|......|......|......
..|......|......|......|......
..|......|......|......|......
..|......|......|......|......
..|......|......|......|......
..|......|......|......|......
..|......|......|......|......
..|......|......|......|......
..|......|......|......|......
..|......|......|......|......
..|......|......|......|......
..|......|......|......|......
..|......|......|......|......
..|......|......|......|......
..|......|......|......|......
..|......|......|......|......
..|......|......|......|......
..|......|......|......|......
..|......|......|......|......
..|E-4.v3|C-4.v3|......|......
..|......|......|......|......
..|......|......|......|......
..|......|......|......|......
..|......|......|......|......
..|......|......|......|......
..|......|......|......|......
..|......|......|......|......
..|......|......|......|......
..|......|......|......|......
..|......|......|......|......
..|......|......|......|......
..|......|......|......|......
..|......|......|......|......
..|......|......|......|......
..|......|......|......|......
..|......|......|......|......
..|......|......|......|......
..|......|......|......|......
..|......|......|......|......
..|......|......|......|......
..|......|......|......|......
..|......|......|......|......
..|......|......|......|......
..|D-4.v3|B-3.v3|......|......
..|......|......|......|......
..|......|......|......|......
..|......|......|......|......
..|......|......|......|......
..|......|......|......|......
..|......|......|......|......
..|......|......|......|......
..|......|......|......|......
..|......|......|......|......
..|......|......|......|......
..|......|......|......|......
..|E-4.v3|C-4.v3|......|......
..|......|......|......|......
..|......|......|......|......
..|......|......|......|......
..|......|......|......|......
..|......|......|......|......
..|......|......|......|......
..|......|......|......|......
..|......|......|......|......
..|......|......|......|......
..|......|......|......|......
..|......|......|......|......
..|......|......|......|......
..|......|......|......|......
..|......|......|......|......
..|......|......|......|......
..|......|......|......|......
..|......|......|......|......
..|......|......|......|......
..|......|......|......|......
..|......|......|......|......
..|......|......|......|......
..|......|......|......|......
..|......|......|......|......
..|D-4.v3|B-3.v3|......|......
..|......|......|......|......
..|......|......|......|......
..|......|......|......|......
..|......|......|......|......
..|......|......|......|......
..|......|......|......|......
..|......|......|......|......
..|......|......|......|......
..|......|......|......|......
..|......|......|......|......
..|......|......|......|......
..|E-4.v3|C-4.v3|......|......
..|......|......|......|......
..|......|......|......|......
..|......|......|......|......
..|......|......|......|......
..|......|......|......|......
..|......|......|......|......
..|......|......|......|......
..|......|......|......|......
..|......|......|......|......
..|......|......|......|......
..|......|......|......|......
..|......|......|......|......
..|......|......|......|......
..|......|......|......|......
..|......|......|......|......
..|......|......|......|......
..|......|......|......|......
..|......|......|......|......
..|......|......|......|......
..|......|......|......|......
..|......|......|......|......
..|......|......|......|......
..|......|......|......|......
..|......|......|......|......
..|......|......|......|......
..|......|......|......|......
..|......|......|......|......
..|......|......|......|......
..|......|......|......|......
..|......|......|......|......
..|......|......|......|......
..|......|......|......|......
..|......|......|......|......
..|......|......|......|......
..|......|......|......|......
..|E-5.v3|B-4.v3|......|......
..|......|......|......|......
..|......|......|......|......
..|......|......|......|......
..|......|......|......|......
..|......|......|......|......
..|===...|===...|......|......
..|......|......|......|......
..|......|......|......|......
..|......|......|......|......
..|......|......|......|......
..|......|......|......|......
..|D-5.v3|A-4.v3|......|......
..|......|......|......|......
..|......|......|......|......
..|......|......|......|......
..|......|......|......|......
..|......|......|......|......
..|E-5.v3|B-4.v3|......|......
..|......|......|......|......
..|......|......|......|......
..|......|......|......|......
..|......|......|......|......
..|......|......|......|......
..|D-5.v3|A-4.v3|......|......
..|......|......|......|......
..|......|......|......|......
..|......|......|......|......
..|......|......|......|......
..|......|......|......|......
..|===...|===...|......|......
..|......|......|......|......
..|......|......|......|......
..|......|......|......|......
..|......|......|......|......
..|......|......|......|......
..|G-5.v3|D-5.v3|......|......
..|......|......|......|......
..|......|......|......|......
..|......|......|......|......
..|......|......|......|......
..|......|......|......|......
..|===...|===...|......|......
..|......|......|......|......
..|......|......|......|......
..|......|......|......|......
..|......|......|......|......
..|......|......|......|......
..|E-5.v3|B-4.v3|......|......
..|......|......|......|......
..|......|......|......|......
..|......|......|......|......
..|......|......|......|......
..|......|......|......|......
..|===...|===...|......|......
..|......|......|......|......
..|......|......|......|......
..|......|......|......|......
..|......|......|......|......
..|......|......|......|......
..|D-5.v3|A-4.v3|......|......
..|......|......|......|......
..|......|......|......|......
..|......|......|......|......
..|......|......|......|......
..|......|......|......|......
..|B-4.v3|F#4.v3|......|......
..|......|......|......|......
..|......|......|......|......
..|......|......|......|......
..|......|......|......|......
..|......|......|......|......
..|E-5.v3|B-4.v3|......|......
..|......|......|......|......
..|......|......|......|......
..|......|......|......|......
..|......|......|......|......
..|......|......|......|......
..|===...|===...|......|......
..|......|......|......|......
..|......|......|......|......
..|......|......|......|......
..|......|......|......|......
..|......|......|......|......
..|......|......|......|......
..|......|......|......|......
..|......|......|......|......
..|......|......|......|......
..|......|......|......|......
..|......|......|......|......
..|......|......|......|......
..|......|......|......|......
..|......|......|......|......
..|......|......|......|......
..|......|......|......|......
..|......|......|......|......
..|E-5.v3|C-5.v3|......|......
..|......|......|......|......
..|......|......|......|......
..|......|......|......|......
..|......|......|......|......
..|......|......|......|......
..|......|......|......|......
..|......|......|......|......
..|......|......|......|......
..|......|......|......|......
..|......|......|......|......
..|......|......|......|......
..|......|......|......|......
..|......|......|......|......
..|......|......|......|......
..|......|......|......|......
..|......|......|......|......
..|......|......|......|......
..|......|......|......|......
..|......|......|......|......
..|......|......|......|......
..|......|......|......|......
..|......|......|......|......
..|......|......|......|......
..|......|......|......|......
..|......|......|......|......
..|......|......|......|......
..|......|......|......|......
..|......|......|......|......
..|......|......|......|......
..|......|......|......|......
..|......|......|......|......
..|......|......|......|......
..|......|......|......|......
..|......|......|......|......
..|......|......|......|......
..|D-5.v3|A-4.v3|......|......
..|......|......|......|......
..|......|......|......|......
..|......|......|......|......
..|......|......|......|......
..|......|......|......|......
..|===...|===...|......|......
..|......|......|......|......
..|......|......|......|......
..|......|......|......|......
..|......|......|......|......
..|......|......|......|......
..|......|......|......|......
..|......|......|......|......
..|......|......|......|......
..|......|......|......|......
..|......|......|......|......
..|......|......|......|......
..|......|......|......|......
..|......|......|......|......
..|......|......|......|......
..|......|......|......|......
..|......|......|......|......
..|......|......|......|......
..|D-5.v3|A-4.v3|......|......
..|......|......|......|......
..|......|......|......|......
..|......|......|......|......
..|......|......|......|......
..|......|......|......|......
..|===...|===...|......|......
..|......|......|......|......
..|......|......|......|......
..|......|......|......|......
..|......|......|......|......
..|......|......|......|......
..|......|......|......|......
..|......|......|......|......
..|......|......|......|......
..|......|......|......|......
..|......|......|......|......
..|......|......|......|......
..|......|......|......|......
..|......|......|......|......
..|......|......|......|......
..|......|......|......|......
..|......|......|......|......
..|......|......|......|......
..|E-5.v3|C-5.v3|......|......
..|......|......|......|......
..|......|......|......|......
..|......|......|......|......
..|......|......|......|......
..|......|......|......|......
..|===...|===...|......|......
..|......|......|......|......
..|......|......|......|......
..|......|......|......|......
..|......|......|......|......
..|......|......|......|......
..|......|......|......|......
..|......|......|......|......
..|......|......|......|......
..|......|......|......|......
..|......|......|......|......
..|......|......|......|......
..|......|......|......|......
..|......|......|......|......
..|......|......|......|......
..|......|......|......|......
..|......|......|......|......
..|......|......|......|......
..|E-5.v3|C-5.v3|......|......
..|......|......|......|......
..|......|......|......|......
..|......|......|......|......
..|......|......|......|......
..|......|......|......|......
..|===...|===...|......|......
..|......|......|......|......
..|......|......|......|......
..|......|......|......|......
..|......|......|......|......
..|......|......|......|......
..|D-5.v3|B-4.v3|......|......
..|......|......|......|......
..|......|......|......|......
..|......|......|......|......
..|......|......|......|......
..|......|......|......|......
..|===...|===...|......|......
..|......|......|......|......
..|......|......|......|......
..|......|......|......|......
..|......|......|......|......
..|......|......|......|......
..|......|......|......|......
..|......|......|......|......
..|......|......|......|......
..|......|......|......|......
..|......|......|......|......
..|......|......|......|......
..|......|......|......|......
..|......|......|......|......
..|......|......|......|......
..|......|......|......|......
..|......|......|......|......
..|......|......|......|......
..|D-5.v3|B-4.v3|......|......
..|......|......|......|......
..|......|......|......|......
..|......|......|......|......
..|......|......|......|......
..|......|......|......|......
..|===...|===...|......|......
..|......|......|......|......
..|......|......|......|......
..|......|......|......|......
..|......|......|......|......
..|......|......|......|......
..|......|......|......|......
..|......|......|......|......
..|......|......|......|......
..|......|......|......|......
..|......|......|......|......
..|......|......|......|......
..|......|......|......|......
..|......|......|......|......
..|......|......|......|......
..|......|......|......|......
..|......|......|......|......
..|......|......|......|......
..|......|......|......|......
..|......|......|......|......
..|......|......|......|......
..|......|......|......|......
..|......|......|......|......
..|......|......|......|......
..|......|......|......|......
..|......|......|......|......
..|......|......|......|......
..|......|......|......|......
..|......|......|......|......
..|......|......|......|......
..|......|......|......|......
..|......|......|......|......
..|......|......|......|......
..|......|......|......|......
..|......|......|......|......
..|......|......|......|......
..|......|......|......|......
..|......|......|......|......
..|......|......|......|......
..|......|......|......|......
..|......|......|......|......
..|......|......|......|......
..|E-5.v3|C-5.v3|......|......
..|......|......|......|......
..|......|......|......|......
..|......|......|......|......
..|......|......|......|......
..|......|......|......|......
..|......|......|......|......
..|......|......|......|......
..|......|......|......|......
..|......|......|......|......
..|......|......|......|......
..|......|......|......|......
..|......|......|......|......
..|......|......|......|......
..|......|......|......|......
..|......|......|......|......
..|......|......|......|......
..|......|......|......|......
..|......|......|......|......
..|......|......|......|......
..|......|......|......|......
..|......|......|......|......
..|......|......|......|......
..|......|......|......|......
..|......|......|......|......
..|......|......|......|......
..|......|......|......|......
..|......|......|......|......
..|......|......|......|......
..|......|......|......|......
..|......|......|......|......
..|......|......|......|......
..|......|......|......|......
..|......|......|......|......
..|......|......|......|......
..|......|......|......|......
..|D-5.v3|A-4.v3|......|......
..|......|......|......|......
..|......|......|......|......
..|......|......|......|......
..|......|......|......|......
..|......|......|......|......
..|===...|===...|......|......
..|......|......|......|......
..|......|......|......|......
..|......|......|......|......
..|......|......|......|......
..|......|......|......|......
..|......|......|......|......
..|......|......|......|......
..|......|......|......|......
..|......|......|......|......
..|......|......|......|......
..|......|......|......|......
..|......|......|......|......
..|......|......|......|......
..|......|......|......|......
..|......|......|......|......
..|......|......|......|......
..|......|......|......|......
..|D-5.v3|A-4.v3|......|......
..|......|......|......|......
..|......|......|......|......
..|......|......|......|......
..|......|......|......|......
..|......|......|......|......
..|===...|===...|......|......
..|......|......|......|......
..|......|......|......|......
..|......|......|......|......
..|......|......|......|......
..|......|......|......|......
..|......|......|......|......
..|......|......|......|......
..|......|......|......|......
..|......|......|......|......
..|......|......|......|......
..|......|......|......|......
..|......|......|......|......
..|......|......|......|......
..|......|......|......|......
..|......|......|......|......
..|......|......|......|......
..|......|......|......|......
..|E-5.v3|C-5.v3|......|......
..|......|......|......|......
..|......|......|......|......
..|......|......|......|......
..|......|......|......|......
..|......|......|......|......
..|===...|===...|......|......
..|......|......|......|......
..|......|......|......|......
..|......|......|......|......
..|......|......|......|......
..|......|......|......|......
..|......|......|......|......
..|......|......|......|......
..|......|......|......|......
..|......|......|......|......
..|......|......|......|......
..|......|......|......|......
..|......|......|......|......
..|......|......|......|......
..|......|......|......|......
..|......|......|......|......
..|......|......|......|......
..|......|......|......|......
..|E-5.v3|C-5.v3|......|......
..|......|......|......|......
..|......|......|......|......
..|......|......|......|......
..|......|......|......|......
..|......|......|......|......
..|===...|===...|......|......
..|......|......|......|......
..|......|......|......|......
..|......|......|......|......
..|......|......|......|......
..|......|......|......|......
..|D-5.v3|B-4.v3|......|......
..|......|......|......|......
..|......|......|......|......
..|......|......|......|......
..|......|......|......|......
..|......|......|......|......
..|===...|===...|......|......
..|......|......|......|......
..|......|......|......|......
..|......|......|......|......
..|......|......|......|......
..|......|......|......|......
..|......|......|......|......
..|......|......|......|......
..|......|......|......|......
..|......|......|......|......
..|......|......|......|......
..|......|......|......|......
..|......|......|......|......
..|......|......|......|......
..|......|......|......|......
..|......|......|......|......
..|......|......|......|......
..|......|......|......|......
..|D-5.v3|B-4.v3|......|......
..|......|......|......|......
..|......|......|......|......
..|......|......|......|......
..|......|......|......|......
..|......|......|......|......
..|===...|===...|......|......
..|......|......|......|......
..|......|......|......|......
..|......|......|......|......
..|......|......|......|......
..|......|......|......|......
..|......|......|......|......
..|......|......|......|......
..|......|......|......|......
..|......|......|......|......
..|......|......|......|......
..|......|......|......|......
..|......|......|......|......
..|......|......|......|......
..|......|......|......|......
..|......|......|......|......
..|......|......|......|......
..|......|......|......|......
..|......|......|......|......
..|......|......|......|......
..|......|......|......|......
..|......|......|......|......
..|......|......|......|......
..|......|......|......|......
..|......|......|......|......
..|......|......|......|......
..|......|......|......|......
..|......|......|......|......
..|......|......|......|......
..|......|......|......|......
..|......|......|......|......
..|......|......|......|......
..|......|......|......|......
..|......|......|......|......
..|......|......|......|......
..|......|......|......|......
..|......|......|......|......
..|......|......|......|......
..|......|......|......|......
..|......|......|......|......
..|......|......|......|......
..|......|......|......|......
..|F#5.v3|D-5.v3|......|......
..|......|......|......|......
..|......|......|......|......
..|......|......|......|......
..|......|......|......|......
..|......|......|......|......
..|......|......|......|......
..|......|......|......|......
..|......|......|......|......
..|......|......|......|......
..|......|......|......|......
..|......|......|......|......
..|......|......|......|......
..|......|......|......|......
..|......|......|......|......
..|......|......|......|......
..|......|......|......|......
..|......|......|......|......
..|......|......|......|......
..|......|......|......|......
..|......|......|......|......
..|......|......|......|......
..|......|......|......|......
..|......|......|......|......
..|......|......|......|......
..|......|......|......|......
..|......|......|......|......
..|......|......|......|......
..|......|......|......|......
..|......|......|......|......
..|......|......|......|......
..|......|......|......|......
..|......|......|......|......
..|......|......|......|......
..|......|......|......|......
..|......|......|......|......
..|E-5.v3|C#5.v3|......|......
..|......|......|......|......
..|......|......|......|......
..|......|......|......|......
..|......|......|......|......
..|......|......|......|......
..|===...|===...|......|......
..|......|......|......|......
..|......|......|......|......
..|......|......|......|......
..|......|......|......|......
..|......|......|......|......
..|......|......|......|......
..|......|......|......|......
..|......|......|......|......
..|......|......|......|......
..|......|......|......|......
..|......|......|......|......
..|......|......|......|......
..|......|......|......|......
..|......|......|......|......
..|......|......|......|......
..|......|......|......|......
..|......|......|......|......
..|E-5.v3|C#5.v3|......|......
..|......|......|......|......
..|......|......|......|......
..|......|......|......|......
..|......|......|......|......
..|......|......|......|......
..|===...|===...|......|......
..|......|......|......|......
..|......|......|......|......
..|......|......|......|......
..|......|......|......|......
..|......|......|......|......
..|......|......|......|......
..|......|......|......|......
..|......|......|......|......
..|......|......|......|......
..|......|......|......|......
..|......|......|......|......
..|......|......|......|......
..|......|......|......|......
..|......|......|......|......
..|......|......|......|......
..|......|......|......|......
..|......|......|......|......
..|F#5.v3|D-5.v3|......|......
..|......|......|......|......
..|......|......|......|......
..|......|......|......|......
..|......|......|......|......
..|......|......|......|......
..|===...|===...|......|......
..|......|......|......|......
..|......|......|......|......
..|......|......|......|......
..|......|......|......|......
..|......|......|......|......
..|......|......|......|......
..|......|......|......|......
..|......|......|......|......
..|......|......|......|......
..|......|......|......|......
..|......|......|......|......
..|......|......|......|......
..|......|......|......|......
..|......|......|......|......
..|......|......|......|......
..|......|......|......|......
..|......|......|......|......
..|F#5.v3|D-5.v3|......|......
..|......|......|......|......
..|......|......|......|......
..|......|......|......|......
..|......|......|......|......
..|......|......|......|......
..|===...|===...|......|......
..|......|......|......|......
..|......|......|......|......
..|......|......|......|......
..|......|......|......|......
..|......|......|......|......
..|E-5.v3|C#5.v3|......|......
..|......|......|......|......
..|......|......|......|......
..|......|......|......|......
..|......|......|......|......
..|......|......|......|......
..|===...|===...|......|......
..|......|......|......|......
..|......|......|......|......
..|......|......|......|......
..|......|......|......|......
..|......|......|......|......
..|......|......|......|......
..|......|......|......|......
..|......|......|......|......
..|......|......|......|......
..|......|......|......|......
..|......|......|......|......
..|......|......|......|......
..|......|......|......|......
..|......|......|......|......
..|......|......|......|......
..|......|......|......|......
..|......|......|......|......
..|E-5.v3|C#5.v3|......|......
..|......|......|......|......
..|......|......|......|......
..|......|......|......|......
..|......|......|......|......
..|......|......|......|......
..|===...|===...|......|......
..|......|......|......|......
..|......|......|......|......
..|......|......|......|......
..|......|......|......|......
..|......|......|......|......
..|......|......|......|......
..|......|......|......|......
..|......|......|......|......
..|......|......|......|......
..|......|......|......|......
..|......|......|......|......
..|......|......|......|......
..|......|......|......|......
..|......|......|......|......
..|......|......|......|......
..|......|......|......|......
..|......|......|......|......
..|......|......|......|......
..|......|......|......|......
..|......|......|......|......
..|......|......|......|......
..|......|......|......|......
..|......|......|......|......
..|......|......|......|......
..|......|......|......|......
..|......|......|......|......
..|......|......|......|......
..|......|......|......|......
..|......|......|......|......
..|......|......|......|......
..|......|......|......|......
..|......|......|......|......
..|......|......|......|......
..|......|......|......|......
..|......|......|......|......
..|......|......|......|......
..|......|......|......|......
..|......|......|......|......
..|......|......|......|......
..|......|......|......|......
..|......|......|......|......
..|F#5.v3|D-5.v3|......|......
..|......|......|......|......
..|......|......|......|......
..|......|......|......|......
..|......|......|......|......
..|......|......|......|......
..|......|......|......|......
..|......|......|......|......
..|......|......|......|......
..|......|......|......|......
..|......|......|......|......
..|......|......|......|......
..|......|......|......|......
..|......|......|......|......
..|......|......|......|......
..|......|......|......|......
..|......|......|......|......
..|......|......|......|......
..|......|......|......|......
..|......|......|......|......
..|......|......|......|......
..|......|......|......|......
..|......|......|......|......
..|......|......|......|......
..|......|......|......|......
..|......|......|......|......
..|......|......|......|......
..|......|......|......|......
..|......|......|......|......
..|......|......|......|......
..|......|......|......|......
..|......|......|......|......
..|......|......|......|......
..|......|......|......|......
..|......|......|......|......
..|......|......|......|......
..|E-5.v3|C#5.v3|......|......
..|......|......|......|......
..|......|......|......|......
..|......|......|......|......
..|......|......|......|......
..|......|......|......|......
..|===...|===...|......|......
..|......|......|......|......
..|......|......|......|......
..|......|......|......|......
..|......|......|......|......
..|......|......|......|......
..|......|......|......|......
..|......|......|......|......
..|......|......|......|......
..|......|......|......|......
..|......|......|......|......
..|......|......|......|......
..|......|......|......|......
..|......|......|......|......
..|......|......|......|......
..|......|......|......|......
..|......|......|......|......
..|......|......|......|......
..|E-5.v3|C#5.v3|......|......
..|......|......|......|......
..|......|......|......|......
..|......|......|......|......
..|......|......|......|......
..|......|......|......|......
..|===...|===...|......|......
..|......|......|......|......
..|......|......|......|......
..|......|......|......|......
..|......|......|......|......
..|......|......|......|......
..|......|......|......|......
..|......|......|......|......
..|......|......|......|......
..|......|......|......|......
..|......|......|......|......
..|......|......|......|......
..|......|......|......|......
..|......|......|......|......
..|......|......|......|......
..|......|......|......|......
..|......|......|......|......
..|......|......|......|......
..|F#5.v3|D-5.v3|......|......
..|......|......|......|......
..|......|......|......|......
..|......|......|......|......
..|......|......|......|......
..|......|......|......|......
..|===...|===...|......|......
..|......|......|......|......
..|......|......|......|......
..|......|......|......|......
..|......|......|......|......
..|......|......|......|......
..|......|......|......|......
..|......|......|......|......
..|......|......|......|......
..|......|......|......|......
..|......|......|......|......
..|......|......|......|......
..|......|......|......|......
..|......|......|......|......
..|......|......|......|......
..|......|......|......|......
..|......|......|......|......
..|......|......|......|......
..|F#5.v3|D-5.v3|......|......
..|......|......|......|......
..|......|......|......|......
..|......|......|......|......
..|......|......|......|......
..|......|......|......|......
..|===...|===...|......|......
..|......|......|......|......
..|......|......|......|......
..|......|......|......|......
..|......|......|......|......
..|......|......|......|......
..|E-5.v3|C#5.v3|......|......
..|......|......|......|......
..|......|......|......|......
..|......|......|......|......
..|......|......|......|......
..|......|......|......|......
..|===...|===...|......|......
..|......|......|......|......
..|......|......|......|......
..|......|......|......|......
..|......|......|......|......
..|......|......|......|......
..|......|......|......|......
..|......|......|......|......
..|......|......|......|......
..|......|......|......|......
..|......|......|......|......
..|......|......|......|......
..|......|......|......|......
..|......|......|......|......
..|......|......|......|......
..|......|......|......|......
..|......|......|......|......
..|......|......|......|......
..|E-5.v3|C#5.v3|......|......
..|......|......|......|......
..|......|......|......|......
..|......|......|......|......
..|......|......|......|......
..|......|......|......|......
..|===...|===...|......|......
..|......|......|......|......
..|......|......|......|......
..|......|......|......|......
..|......|......|......|......
..|......|......|......|......
..|......|......|......|......
..|......|......|......|......
..|......|......|......|......
..|......|......|......|......
..|......|......|......|......
..|......|......|......|......
..|......|......|......|......
..|......|......|......|......
..|......|......|......|......
..|......|......|......|......
..|......|......|......|......
..|......|......|......|......
..|......|......|......|......
..|......|......|......|......
..|......|......|......|......
..|......|......|......|......
..|......|......|......|......
..|......|......|......|......
..|......|......|......|......
..|......|......|......|......
..|......|......|......|......
..|......|......|......|......
..|......|......|......|......
..|......|......|......|......
..|......|......|......|......
..|......|......|......|......
..|......|......|......|......
..|......|......|......|......
..|......|......|......|......
..|......|......|......|......
..|......|......|......|......
..|......|......|......|......
..|......|......|......|......
..|......|......|......|......
..|......|......|......|......
..|......|......|......|......
..|E-5.v3|C-5.v3|......|......
..|......|......|......|......
..|......|......|......|......
..|......|......|......|......
..|......|......|......|......
..|......|......|......|......
..|......|......|......|......
..|......|......|......|......
..|......|......|......|......
..|......|......|......|......
..|......|......|......|......
..|......|......|......|......
..|......|......|......|......
..|......|......|......|......
..|......|......|......|......
..|......|......|......|......
..|......|......|......|......
..|......|......|......|......
..|......|......|......|......
..|......|......|......|......
..|......|......|......|......
..|......|......|......|......
..|......|......|......|......
..|......|......|......|......
..|......|......|......|......
..|......|......|......|......
..|......|......|......|......
..|......|......|......|......
..|......|......|......|......
..|......|......|......|......
..|......|......|......|......
..|......|......|......|......
..|......|......|......|......
..|......|......|......|......
..|......|......|......|......
..|......|......|......|......
..|D-5.v3|A-4.v3|......|......
..|......|......|......|......
..|......|......|......|......
..|......|......|......|......
..|......|......|......|......
..|......|......|......|......
..|===...|===...|......|......
..|......|......|......|......
..|......|......|......|......
..|......|......|......|......
..|......|......|......|......
..|......|......|......|......
..|......|......|......|......
..|......|......|......|......
..|......|......|......|......
..|......|......|......|......
..|......|......|......|......
..|......|......|......|......
..|......|......|......|......
..|......|......|......|......
..|......|......|......|......
..|......|......|......|......
..|......|......|......|......
..|......|......|......|......
..|D-5.v3|A-4.v3|......|......
..|......|......|......|......
..|......|......|......|......
..|......|......|......|......
..|......|......|......|......
..|......|......|......|......
..|===...|===...|......|......
..|......|......|......|......
..|......|......|......|......
..|......|......|......|......
..|......|......|......|......
..|......|......|......|......
..|......|......|......|......
..|......|......|......|......
..|......|......|......|......
..|......|......|......|......
..|......|......|......|......
..|......|......|......|......
..|......|......|......|......
..|......|......|......|......
..|......|......|......|......
..|......|......|......|......
..|......|......|......|......
..|......|......|......|......
..|E-5.v3|C-5.v3|......|......
..|......|......|......|......
..|......|......|......|......
..|......|......|......|......
..|......|......|......|......
..|......|......|......|......
..|===...|===...|......|......
..|......|......|......|......
..|......|......|......|......
..|......|......|......|......
..|......|......|......|......
..|......|......|......|......
..|......|......|......|......
..|......|......|......|......
..|......|......|......|......
..|......|......|......|......
..|......|......|......|......
..|......|......|......|......
..|......|......|......|......
..|......|......|......|......
..|......|......|......|......
..|......|......|......|......
..|......|......|......|......
..|......|......|......|......
..|E-5.v3|C-5.v3|......|......
..|......|......|......|......
..|......|......|......|......
..|......|......|......|......
..|......|......|......|......
..|......|......|......|......
..|===...|===...|......|......
..|......|......|......|......
..|......|......|......|......
..|......|......|......|......
..|......|......|......|......
..|......|......|......|......
..|D-5.v3|B-4.v3|......|......
..|......|......|......|......
..|......|......|......|......
..|......|......|......|......
..|......|......|......|......
..|......|......|......|......
..|===...|===...|......|......
..|......|......|......|......
..|......|......|......|......
..|......|......|......|......
..|......|......|......|......
..|......|......|......|......
..|......|......|......|......
..|......|......|......|......
..|......|......|......|......
..|......|......|......|......
..|......|......|......|......
..|......|......|......|......
..|......|......|......|......
..|......|......|......|......
..|......|......|......|......
..|......|......|......|......
..|......|......|......|......
..|......|......|......|......
..|D-5.v3|B-4.v3|......|......
..|......|......|......|......
..|......|......|......|......
..|......|......|......|......
..|......|......|......|......
..|......|......|......|......
..|===...|===...|......|......
..|......|......|......|......
..|......|......|......|......
..|......|......|......|......
..|......|......|......|......
..|......|......|......|......
..|......|......|......|......
..|......|......|......|......
..|......|......|......|......
..|......|......|......|......
..|......|......|......|......
..|......|......|......|......
..|......|......|......|......
..|......|......|......|......
..|......|......|......|......
..|......|......|......|......
..|......|......|......|......
..|......|......|......|......
..|......|......|......|......
..|......|......|......|......
..|......|......|......|......
..|......|......|......|......
..|......|......|......|......
..|......|......|......|......
..|......|......|......|......
..|......|......|......|......
..|......|......|......|......
..|......|......|......|......
..|......|......|......|......
..|......|......|......|......
..|......|......|......|......
..|......|......|......|......
..|......|......|......|......
..|......|......|......|......
..|......|......|......|......
..|......|......|......|......
..|......|......|......|......
..|......|......|......|......
..|......|......|......|......
..|......|......|......|......
..|......|......|......|......
..|......|......|......|......
..|E-5.v3|C-5.v3|......|......
..|......|......|......|......
..|......|......|......|......
..|......|......|......|......
..|......|......|......|......
..|......|......|......|......
..|......|......|......|......
..|......|......|......|......
..|......|......|......|......
..|......|......|......|......
..|......|......|......|......
..|......|......|......|......
..|......|......|......|......
..|......|......|......|......
..|......|......|......|......
..|......|......|......|......
..|......|......|......|......
..|......|......|......|......
..|......|......|......|......
..|......|......|......|......
..|......|......|......|......
..|......|......|......|......
..|......|......|......|......
..|......|......|......|......
..|......|......|......|......
..|......|......|......|......
..|......|......|......|......
..|......|......|......|......
..|......|......|......|......
..|......|......|......|......
..|......|......|......|......
..|......|......|......|......
..|......|......|......|......
..|......|......|......|......
..|......|......|......|......
..|......|......|......|......
..|D-5.v3|A-4.v3|......|......
..|......|......|......|......
..|......|......|......|......
..|......|......|......|......
..|......|......|......|......
..|......|......|......|......
..|===...|===...|......|......
..|......|......|......|......
..|......|......|......|......
..|......|......|......|......
..|......|......|......|......
..|......|......|......|......
..|......|......|......|......
..|......|......|......|......
..|......|......|......|......
..|......|......|......|......
..|......|......|......|......
..|......|......|......|......
..|......|......|......|......
..|......|......|......|......
..|......|......|......|......
..|......|......|......|......
..|......|......|......|......
..|......|......|......|......
..|D-5.v3|A-4.v3|......|......
..|......|......|......|......
..|......|......|......|......
..|......|......|......|......
..|......|......|......|......
..|......|......|......|......
..|===...|===...|......|......
..|......|......|......|......
..|......|......|......|......
..|......|......|......|......
..|......|......|......|......
..|......|......|......|......
..|......|......|......|......
..|......|......|......|......
..|......|......|......|......
..|......|......|......|......
..|......|......|......|......
..|......|......|......|......
..|......|......|......|......
..|......|......|......|......
..|......|......|......|......
..|......|......|......|......
..|......|......|......|......
..|......|......|......|......
..|E-5.v3|C-5.v3|......|......
..|......|......|......|......
..|......|......|......|......
..|......|......|......|......
..|......|......|......|......
..|......|......|......|......
..|===...|===...|......|......
..|......|......|......|......
..|......|......|......|......
..|......|......|......|......
..|......|......|......|......
..|......|......|......|......
..|......|......|......|......
..|......|......|......|......
..|......|......|......|......
..|......|......|......|......
..|......|......|......|......
..|......|......|......|......
..|......|......|......|......
..|......|......|......|......
..|......|......|......|......
..|......|......|......|......
..|......|......|......|......
..|......|......|......|......
..|E-5.v3|C-5.v3|......|......
..|......|......|......|......
..|......|......|......|......
..|......|......|......|......
..|......|......|......|......
..|......|......|......|......
..|===...|===...|......|......
..|......|......|......|......
..|......|......|......|......
..|......|......|......|......
..|......|......|......|......
..|......|......|......|......
..|D-5.v3|B-4.v3|......|......
..|......|......|......|......
..|......|......|......|......
..|......|......|......|......
..|......|......|......|......
..|......|......|......|......
..|===...|===...|......|......
..|......|......|......|......
..|......|......|......|......
..|......|......|......|......
..|......|......|......|......
..|......|......|......|......
..|......|......|......|......
..|......|......|......|......
..|......|......|......|......
..|......|......|......|......
..|......|......|......|......
..|......|......|......|......
..|......|......|......|......
..|......|......|......|......
..|......|......|......|......
..|......|......|......|......
..|......|......|......|......
..|......|......|......|......
..|D-5.v3|B-4.v3|......|......
..|......|......|......|......
..|......|......|......|......
..|......|......|......|......
..|......|......|......|......
..|......|......|......|......
..|===...|===...|......|......
..|......|......|......|......
..|......|......|......|......
..|......|......|......|......
..|......|......|......|......
..|......|......|......|......
..|......|......|......|......
..|......|......|......|......
..|......|......|......|......
..|......|......|......|......
..|......|......|......|......
..|......|......|......|......
..|......|......|......|......
..|......|......|......|......
..|......|......|......|......
..|......|......|......|......
..|......|......|......|......
..|......|......|......|......
..|......|......|......|......
..|......|......|......|......
..|......|......|......|......
..|......|......|......|......
..|......|......|......|......
..|......|......|......|......
..|......|......|......|......
..|......|......|......|......
..|......|......|......|......
..|......|......|......|......
..|......|......|......|......
..|......|......|......|......
..|......|......|......|......
..|......|......|......|......
..|......|......|......|......
..|......|......|......|......
..|......|......|......|......
..|......|......|......|......
..|......|......|......|......
..|......|......|......|......
..|......|......|......|......
..|......|......|......|......
..|......|......|......|......
..|......|......|......|......
..|F#5.v3|D-5.v3|......|......
..|......|......|......|......
..|......|......|......|......
..|......|......|......|......
..|......|......|......|......
..|......|......|......|......
..|......|......|......|......
..|......|......|......|......
..|......|......|......|......
..|......|......|......|......
..|......|......|......|......
..|......|......|......|......
..|......|......|......|......
..|......|......|......|......
..|......|......|......|......
..|......|......|......|......
..|......|......|......|......
..|......|......|......|......
..|......|......|......|......
..|......|......|......|......
..|......|......|......|......
..|......|......|......|......
..|......|......|......|......
..|......|......|......|......
..|......|......|......|......
..|......|......|......|......
..|......|......|......|......
..|......|......|......|......
..|......|......|......|......
..|......|......|......|......
..|......|......|......|......
..|......|......|......|......
..|......|......|......|......
..|......|......|......|......
..|......|......|......|......
..|......|......|......|......
..|E-5.v3|C#5.v3|......|......
..|......|......|......|......
..|......|......|......|......
..|......|......|......|......
..|......|......|......|......
..|......|......|......|......
..|===...|===...|......|......
..|......|......|......|......
..|......|......|......|......
..|......|......|......|......
..|......|......|......|......
..|......|......|......|......
..|......|......|......|......
..|......|......|......|......
..|......|......|......|......
..|......|......|......|......
..|......|......|......|......
..|......|......|......|......
..|......|......|......|......
..|......|......|......|......
..|......|......|......|......
..|......|......|......|......
..|......|......|......|......
..|......|......|......|......
..|E-5.v3|C#5.v3|......|......
..|......|......|......|......
..|......|......|......|......
..|......|......|......|......
..|......|......|......|......
..|......|......|......|......
..|===...|===...|......|......
..|......|......|......|......
..|......|......|......|......
..|......|......|......|......
..|......|......|......|......
..|......|......|......|......
..|......|......|......|......
..|......|......|......|......
..|......|......|......|......
..|......|......|......|......
..|......|......|......|......
..|......|......|......|......
..|......|......|......|......
..|......|......|......|......
..|......|......|......|......
..|......|......|......|......
..|......|......|......|......
..|......|......|......|......
..|F#5.v3|D-5.v3|......|......
..|......|......|......|......
..|......|......|......|......
..|......|......|......|......
..|......|......|......|......
..|......|......|......|......
..|===...|===...|......|......
..|......|......|......|......
..|......|......|......|......
..|......|......|......|......
..|......|......|......|......
..|......|......|......|......
..|......|......|......|......
..|......|......|......|......
..|......|......|......|......
..|......|......|......|......
..|......|......|......|......
..|......|......|......|......
..|......|......|......|......
..|......|......|......|......
..|......|......|......|......
..|......|......|......|......
..|......|......|......|......
..|......|......|......|......
..|F#5.v3|D-5.v3|......|......
..|......|......|......|......
..|......|......|......|......
..|......|......|......|......
..|......|......|......|......
..|......|......|......|......
..|===...|===...|......|......
..|......|......|......|......
..|......|......|......|......
..|......|......|......|......
..|......|......|......|......
..|......|......|......|......
..|E-5.v3|C#5.v3|......|......
..|......|......|......|......
..|......|......|......|......
..|......|......|......|......
..|......|......|......|......
..|......|......|......|......
..|===...|===...|......|......
..|......|......|......|......
..|......|......|......|......
..|......|......|......|......
..|......|......|......|......
..|......|......|......|......
..|......|......|......|......
..|......|......|......|......
..|......|......|......|......
..|......|......|......|......
..|......|......|......|......
..|......|......|......|......
..|......|......|......|......
..|......|......|......|......
..|......|......|......|......
..|......|......|......|......
..|......|......|......|......
..|......|......|......|......
..|E-5.v3|C#5.v3|......|......
..|......|......|......|......
..|......|......|......|......
..|......|......|......|......
..|......|......|......|......
..|......|......|......|......
..|===...|===...|......|......
..|......|......|......|......
..|......|......|......|......
..|......|......|......|......
..|......|......|......|......
..|......|......|......|......
..|......|......|......|......
..|......|......|......|......
..|......|......|......|......
..|......|......|......|......
..|......|......|......|......
..|......|......|......|......
..|......|......|......|......
..|......|......|......|......
..|......|......|......|......
..|......|......|......|......
..|......|......|......|......
..|......|......|......|......
..|......|......|......|......
..|......|......|......|......
..|......|......|......|......
..|......|......|......|......
..|......|......|......|......
..|......|......|......|......
..|......|......|......|......
..|......|......|......|......
..|......|......|......|......
..|......|......|......|......
..|......|......|......|......
..|......|......|......|......
..|......|......|......|......
..|......|......|......|......
..|......|......|......|......
..|......|......|......|......
..|......|......|......|......
..|......|......|......|......
..|......|......|......|......
..|......|......|......|......
..|......|......|......|......
..|......|......|......|......
..|......|......|......|......
..|......|......|......|......
..|F#5.v3|D-5.v3|......|......
..|......|......|......|......
..|......|......|......|......
..|......|......|......|......
..|......|......|......|......
..|......|......|......|......
..|......|......|......|......
..|......|......|......|......
..|......|......|......|......
..|......|......|......|......
..|......|......|......|......
..|......|......|......|......
..|......|......|......|......
..|......|......|......|......
..|......|......|......|......
..|......|......|......|......
..|......|......|......|......
..|......|......|......|......
..|......|......|......|......
..|......|......|......|......
..|......|......|......|......
..|......|......|......|......
..|......|......|......|......
..|......|......|......|......
..|......|......|......|......
..|......|......|......|......
..|......|......|......|......
..|......|......|......|......
..|......|......|......|......
..|......|......|......|......
..|......|......|......|......
..|......|......|......|......
..|......|......|......|......
..|......|......|......|......
..|......|......|......|......
..|......|......|......|......
..|E-5.v3|C#5.v3|......|......
..|......|......|......|......
..|......|......|......|......
..|......|......|......|......
..|......|......|......|......
..|......|......|......|......
..|===...|===...|......|......
..|......|......|......|......
..|......|......|......|......
..|......|......|......|......
..|......|......|......|......
..|......|......|......|......
..|......|......|......|......
..|......|......|......|......
..|......|......|......|......
..|......|......|......|......
..|......|......|......|......
..|......|......|......|......
..|......|......|......|......
..|......|......|......|......
..|......|......|......|......
..|......|......|......|......
..|......|......|......|......
..|......|......|......|......
..|E-5.v3|C#5.v3|......|......
..|......|......|......|......
..|......|......|......|......
..|......|......|......|......
..|......|......|......|......
..|......|......|......|......
..|===...|===...|......|......
..|......|......|......|......
..|......|......|......|......
..|......|......|......|......
..|......|......|......|......
..|......|......|......|......
..|......|......|......|......
..|......|......|......|......
..|......|......|......|......
..|......|......|......|......
..|......|......|......|......
..|......|......|......|......
..|......|......|......|......
..|......|......|......|......
..|......|......|......|......
..|......|......|......|......
..|......|......|......|......
..|......|......|......|......
..|F#5.v3|D-5.v3|......|......
..|......|......|......|......
..|......|......|......|......
..|......|......|......|......
..|......|......|......|......
..|......|......|......|......
..|===...|===...|......|......
..|......|......|......|......
..|......|......|......|......
..|......|......|......|......
..|......|......|......|......
..|......|......|......|......
..|......|......|......|......
..|......|......|......|......
..|......|......|......|......
..|......|......|......|......
..|......|......|......|......
..|......|......|......|......
..|......|......|......|......
..|......|......|......|......
..|......|......|......|......
..|......|......|......|......
..|......|......|......|......
..|......|......|......|......
..|F#5.v3|D-5.v3|......|......
..|......|......|......|......
..|......|......|......|......
..|......|......|......|......
..|......|......|......|......
..|......|......|......|......
..|===...|===...|......|......
..|......|......|......|......
..|......|......|......|......
..|......|......|......|......
..|......|......|......|......
..|......|......|......|......
..|E-5.v3|C#5.v3|......|......
..|......|......|......|......
..|......|......|......|......
..|......|......|......|......
..|......|......|......|......
..|......|......|......|......
..|===...|===...|......|......
..|......|......|......|......
..|......|......|......|......
..|......|......|......|......
..|......|......|......|......
..|......|......|......|......
..|B-4.v3|......|......|......
..|......|......|......|......
..|......|......|......|......
..|......|......|......|......
..|......|......|......|......
..|......|......|......|......
..|E-4.v3|E-3.v3|......|......
..|......|......|......|......
..|......|......|......|......
..|......|......|......|......
..|......|......|......|......
..|......|......|......|......
..|G-4.v3|===...|......|......
..|......|......|......|......
..|......|......|......|......
..|......|......|......|......
..|......|......|......|......
..|......|......|......|......
..|E-4.v3|......|......|......
..|......|......|......|......
..|......|......|......|......
..|......|......|......|......
..|......|......|......|......
..|......|......|......|......
..|A-4.v3|......|......|......
..|......|......|......|......
..|......|......|......|......
..|......|......|......|......
..|......|......|......|......
..|......|......|......|......
..|G-4.v3|......|......|......
..|......|......|......|......
..|......|......|......|......
..|......|......|......|......
..|......|......|......|......
..|......|......|......|......
..|E-4.v3|E-3.v3|......|......
..|......|......|......|......
..|......|......|......|......
..|......|......|......|......
..|......|......|......|......
..|......|......|......|......
..|===...|===...|......|......
..|......|......|......|......
..|......|......|......|......
..|......|......|......|......
..|......|......|......|......
..|......|......|......|......
..|......|......|......|......
#join
#unk6 6
#song 6
#halt
#halt
