#compressed
#junk-byte 80
#unkc
#track 2
#inst 2
#unk6 7
#volume 73
..|C-5.v3
..|......
..|......
..|===...
..|......
..|......
..|C-5.v2
..|......
..|......
..|===...
..|......
..|......
..|C-6.v3
..|......
..|......
..|===...
..|......
..|......
..|C-6.v3
..|......
..|......
..|===...
..|......
..|......
..|C-5.v3
..|......
..|......
..|===...
..|......
..|......
..|C-5.v3
..|......
..|......
..|===...
..|......
..|......
..|C-6.v3
..|......
..|......
..|===...
..|......
..|......
..|C-6.v3
..|......
..|......
..|===...
..|......
..|......
..|C-5.v3
..|......
..|......
..|===...
..|......
..|......
..|C-5.v3
..|......
..|......
..|===...
..|......
..|......
..|C-6.v3
..|......
..|......
..|===...
..|......
..|......
..|C-6.v3
..|......
..|......
..|===...
..|......
..|......
..|C-5.v3
..|......
..|......
..|===...
..|......
..|......
..|C-5.v3
..|......
..|......
..|===...
..|......
..|......
..|C-6.v3
..|......
..|......
..|===...
..|......
..|......
..|C-6.v3
..|......
..|......
..|===...
..|......
..|......
..|C-5.v3
..|......
..|......
..|===...
..|......
..|......
..|C-5.v2
..|......
..|......
..|===...
..|......
..|......
..|C-6.v3
..|......
..|......
..|===...
..|......
..|......
..|C-6.v3
..|......
..|......
..|===...
..|......
..|......
..|C-5.v3
..|......
..|......
..|===...
..|......
..|......
..|C-5.v3
..|......
..|......
..|===...
..|......
..|......
..|C-6.v3
..|......
..|......
..|===...
..|......
..|......
..|C-6.v3
..|......
..|......
..|===...
..|......
..|......
..|C-5.v3
..|......
..|......
..|===...
..|......
..|......
..|C-5.v3
..|......
..|......
..|===...
..|......
..|......
..|C-6.v3
..|......
..|......
..|===...
..|......
..|......
..|C-6.v3
..|......
..|......
..|===...
..|......
..|......
..|C-5.v3
..|......
..|......
..|===...
..|......
..|......
..|C-5.v3
..|......
..|......
..|===...
..|......
..|......
..|C-6.v3
..|......
..|......
..|===...
..|......
..|......
..|C-6.v3
..|......
..|......
..|===...
..|......
..|......
..|A-4.v3
..|......
..|......
..|===...
..|......
..|......
..|A-4.v2
..|......
..|......
..|===...
..|......
..|......
..|A-5.v3
..|......
..|......
..|===...
..|......
..|......
..|A-5.v3
..|......
..|......
..|===...
..|......
..|......
..|A-4.v3
..|......
..|......
..|===...
..|......
..|......
..|A-4.v3
..|......
..|......
..|===...
..|......
..|......
..|A-5.v3
..|......
..|......
..|===...
..|......
..|......
..|A-5.v3
..|......
..|......
..|===...
..|......
..|......
..|A-4.v3
..|......
..|......
..|===...
..|......
..|......
..|A-4.v3
..|......
..|......
..|===...
..|......
..|......
..|A-5.v3
..|......
..|......
..|===...
..|......
..|......
..|A-5.v3
..|......
..|......
..|===...
..|......
..|......
..|A-4.v3
..|......
..|......
..|===...
..|......
..|......
..|A-4.v3
..|......
..|......
..|===...
..|......
..|......
..|A-5.v3
..|......
..|......
..|===...
..|......
..|......
..|A-5.v3
..|......
..|......
..|===...
..|......
..|......
..|A-4.v3
..|......
..|......
..|===...
..|......
..|......
..|A-4.v2
..|......
..|......
..|===...
..|......
..|......
..|A-5.v3
..|......
..|......
..|===...
..|......
..|......
..|A-5.v3
..|......
..|......
..|===...
..|......
..|......
..|A-4.v3
..|......
..|......
..|===...
..|......
..|......
..|A-4.v3
..|......
..|......
..|===...
..|......
..|......
..|A-5.v3
..|......
..|......
..|===...
..|......
..|......
..|A-5.v3
..|......
..|......
..|===...
..|......
..|......
..|A-4.v3
..|......
..|......
..|===...
..|......
..|......
..|A-4.v3
..|......
..|......
..|===...
..|......
..|......
..|A-5.v3
..|......
..|......
..|===...
..|......
..|......
..|A-5.v3
..|......
..|......
..|===...
..|......
..|......
..|A-4.v3
..|......
..|......
..|===...
..|......
..|......
..|A-4.v3
..|......
..|......
..|===...
..|......
..|......
..|A-5.v3
..|......
..|......
..|===...
..|......
..|......
..|A-5.v3
..|......
..|......
..|===...
..|......
..|......
..|C-5.v3
..|......
..|......
..|===...
..|......
..|......
..|C-5.v2
..|......
..|......
..|===...
..|......
..|......
..|C-6.v3
..|......
..|......
..|===...
..|......
..|......
..|C-6.v3
..|......
..|......
..|===...
..|......
..|......
..|C-5.v3
..|......
..|......
..|===...
..|......
..|......
..|C-5.v3
..|......
..|......
..|===...
..|......
..|......
..|C-6.v3
..|......
..|......
..|===...
..|......
..|......
..|C-6.v3
..|......
..|......
..|===...
..|......
..|......
..|C-5.v3
..|......
..|......
..|===...
..|......
..|......
..|C-5.v3
..|......
..|......
..|===...
..|......
..|......
..|C-6.v3
..|......
..|......
..|===...
..|......
..|......
..|C-6.v3
..|......
..|......
..|===...
..|......
..|......
..|C-5.v3
..|......
..|......
..|===...
..|......
..|......
..|C-5.v3
..|......
..|......
..|===...
..|......
..|......
..|C-6.v3
..|......
..|......
..|===...
..|......
..|......
..|C-6.v3
..|......
..|......
..|===...
..|......
..|......
..|C-5.v3
..|......
..|......
..|===...
..|......
..|......
..|C-5.v2
..|......
..|......
..|===...
..|......
..|......
..|C-6.v3
..|......
..|......
..|===...
..|......
..|......
..|C-6.v3
..|......
..|......
..|===...
..|......
..|......
..|C-5.v3
..|......
..|......
..|===...
..|......
..|......
..|C-5.v3
..|......
..|......
..|===...
..|......
..|......
..|C-6.v3
..|......
..|......
..|===...
..|......
..|......
..|C-6.v3
..|......
..|......
..|===...
..|......
..|......
..|C-5.v3
..|......
..|......
..|===...
..|......
..|......
..|C-5.v3
..|......
..|......
..|===...
..|......
..|......
..|C-6.v3
..|......
..|......
..|===...
..|......
..|......
..|C-6.v3
..|......
..|......
..|===...
..|......
..|......
..|C-5.v3
..|......
..|......
..|===...
..|......
..|......
..|C-5.v3
..|......
..|......
..|===...
..|......
..|......
..|C-6.v3
..|......
..|......
..|===...
..|......
..|......
..|C-6.v3
..|......
..|......
..|===...
..|......
..|......
..|A-4.v3
..|......
..|......
..|===...
..|......
..|......
..|A-4.v2
..|......
..|......
..|===...
..|......
..|......
..|A-5.v3
..|......
..|......
..|===...
..|......
..|......
..|A-5.v3
..|......
..|......
..|===...
..|......
..|......
..|A-4.v3
..|......
..|......
..|===...
..|......
..|......
..|A-4.v3
..|......
..|......
..|===...
..|......
..|......
..|A-5.v3
..|......
..|......
..|===...
..|......
..|......
..|A-5.v3
..|......
..|......
..|===...
..|......
..|......
..|A-4.v3
..|......
..|......
..|===...
..|......
..|......
..|A-4.v3
..|......
..|......
..|===...
..|......
..|......
..|A-5.v3
..|......
..|......
..|===...
..|......
..|......
..|A-5.v3
..|......
..|......
..|===...
..|......
..|......
..|A-4.v3
..|......
..|......
..|===...
..|......
..|......
..|A-4.v3
..|......
..|......
..|===...
..|......
..|......
..|A-5.v3
..|......
..|......
..|===...
..|......
..|......
..|A-5.v3
..|......
..|......
..|===...
..|......
..|......
..|A-4.v3
..|......
..|......
..|===...
..|......
..|......
..|A-4.v2
..|......
..|......
..|===...
..|......
..|......
..|A-5.v3
..|......
..|......
..|===...
..|......
..|......
..|A-5.v2
..|......
..|......
..|===...
..|......
..|......
..|A-4.v3
..|......
..|......
..|===...
..|......
..|......
..|A-4.v3
..|......
..|......
..|===...
..|......
..|......
..|A-5.v3
..|......
..|......
..|===...
..|......
..|......
..|A-5.v2
..|......
..|......
..|===...
..|......
..|......
..|A-4.v3
..|......
..|......
..|===...
..|......
..|......
..|A-4.v3
..|......
..|......
..|===...
..|......
..|......
..|A-5.v3
..|......
..|......
..|===...
..|......
..|......
..|A-5.v2
..|......
..|......
..|===...
..|......
..|......
..|G-5.v3
..|......
..|......
..|===...
..|......
..|......
..|G-5.v3
..|......
..|......
..|===...
..|......
..|......
..|E-5.v3
..|......
..|......
..|===...
..|......
..|......
..|E-5.v3
..|......
..|......
..|===...
..|......
..|......
..|D-5.v3
..|......
..|......
..|......
..|......
..|......
..|......
..|......
..|......
..|......
..|......
..|......
..|D-5.v2
..|......
..|......
..|......
..|......
..|......
..|......
..|......
..|......
..|......
..|......
..|......
..|D-6.v3
..|......
..|......
..|......
..|......
..|......
..|......
..|......
..|......
..|......
..|......
..|......
..|D-5.v3
..|......
..|......
..|......
..|......
..|......
..|......
..|......
..|......
..|......
..|......
..|......
..|F-5.v3
..|......
..|......
..|......
..|......
..|......
..|===...
..|......
..|......
..|......
..|......
..|......
..|......
..|......
..|......
..|......
..|......
..|......
..|......
..|......
..|......
..|......
..|......
..|......
..|A-5.v3
..|......
..|......
..|......
..|......
..|......
..|......
..|......
..|......
..|......
..|......
..|......
..|B-5.v3
..|......
..|......
..|......
..|......
..|......
..|......
..|......
..|......
..|......
..|......
..|......
..|C-6.v3
..|......
..|......
..|......
..|......
..|......
..|===...
..|......
..|......
..|......
..|......
..|......
..|C-6.v3
..|......
..|......
..|......
..|......
..|......
..|......
..|......
..|......
..|......
..|......
..|......
..|C-5.v3
..|......
..|......
..|......
..|......
..|......
..|......
..|......
..|......
..|......
..|......
..|......
..|B-5.v3
..|......
..|......
..|......
..|......
..|......
..|===...
..|......
..|......
..|......
..|......
..|......
..|......
..|......
..|......
..|......
..|......
..|......
..|......
..|......
..|......
..|......
..|......
..|......
..|B-5.v3
..|......
..|......
..|......
..|......
..|......
..|......
..|......
..|......
..|......
..|......
..|......
..|B-4.v3
..|......
..|......
..|......
..|......
..|......
..|===...
..|......
..|......
..|......
..|......
..|......
..|B-4.v3
..|......
..|......
..|......
..|......
..|......
..|===...
..|......
..|......
..|......
..|......
..|......
..|D-5.v3
..|......
..|......
..|......
..|......
..|......
..|......
..|......
..|......
..|......
..|......
..|......
..|D-5.v2
..|......
..|......
..|......
..|......
..|......
..|......
..|......
..|......
..|......
..|......
..|......
..|D-6.v3
..|......
..|......
..|......
..|......
..|......
..|......
..|......
..|......
..|......
..|......
..|......
..|D-5.v3
..|......
..|......
..|......
..|......
..|......
..|......
..|......
..|......
..|......
..|......
..|......
..|F-5.v3
..|......
..|......
..|......
..|......
..|......
..|===...
..|......
..|......
..|......
..|......
..|......
..|......
..|......
..|......
..|......
..|......
..|......
..|......
..|......
..|......
..|......
..|......
..|......
..|A-5.v3
..|......
..|......
..|......
..|......
..|......
..|......
..|......
..|......
..|......
..|......
..|......
..|B-5.v3
..|......
..|......
..|......
..|......
..|......
..|......
..|......
..|......
..|......
..|......
..|......
..|C-6.v3
..|......
..|......
..|......
..|......
..|......
..|===...
..|......
..|......
..|......
..|......
..|......
..|C-6.v3
..|......
..|......
..|......
..|......
..|......
..|......
..|......
..|......
..|......
..|......
..|......
..|C-5.v3
..|......
..|......
..|......
..|......
..|......
..|......
..|......
..|......
..|......
..|......
..|......
..|B-5.v3
..|......
..|......
..|......
..|......
..|......
..|===...
..|......
..|......
..|......
..|......
..|......
..|......
..|......
..|......
..|......
..|......
..|......
..|......
..|......
..|......
..|......
..|......
..|......
..|B-5.v3
..|......
..|......
..|......
..|......
..|......
..|......
..|......
..|......
..|......
..|......
..|......
..|B-4.v3
..|......
..|......
..|......
..|......
..|......
..|===...
..|......
..|......
..|......
..|......
..|......
..|B-4.v3
..|......
..|......
..|......
..|......
..|......
..|===...
..|......
..|......
..|......
..|......
..|......
..|E-5.v3
..|......
..|......
..|......
..|......
..|......
..|......
..|......
..|......
..|......
..|......
..|......
..|E-5.v2
..|......
..|......
..|......
..|......
..|......
..|......
..|......
..|......
..|......
..|......
..|......
..|E-6.v3
..|......
..|......
..|......
..|......
..|......
..|......
..|......
..|......
..|......
..|......
..|......
..|E-5.v3
..|......
..|......
..|......
..|......
..|......
..|......
..|......
..|......
..|......
..|......
..|......
..|G-5.v3
..|......
..|......
..|......
..|......
..|......
..|===...
..|......
..|......
..|......
..|......
..|......
..|......
..|......
..|......
..|......
..|......
..|......
..|......
..|......
..|......
..|......
..|......
..|......
..|B-5.v3
..|......
..|......
..|......
..|......
..|......
..|......
..|......
..|......
..|......
..|......
..|......
..|C#6.v3
..|......
..|......
..|......
..|......
..|......
..|......
..|......
..|......
..|......
..|......
..|......
..|D-6.v3
..|......
..|......
..|......
..|......
..|......
..|......
..|......
..|......
..|......
..|......
..|......
..|D-6.v3
..|......
..|......
..|......
..|......
..|......
..|......
..|......
..|......
..|......
..|......
..|......
..|D-5.v3
..|......
..|......
..|......
..|......
..|......
..|......
..|......
..|......
..|......
..|......
..|......
..|C#6.v2
..|......
..|......
..|......
..|......
..|......
..|===...
..|......
..|......
..|......
..|......
..|......
..|......
..|......
..|......
..|......
..|......
..|......
..|......
..|......
..|......
..|......
..|......
..|......
..|C#6.v2
..|......
..|......
..|......
..|......
..|......
..|......
..|......
..|......
..|......
..|......
..|......
..|C#5.v3
..|......
..|......
..|......
..|......
..|......
..|===...
..|......
..|......
..|......
..|......
..|......
..|C#5.v2
..|......
..|......
..|......
..|......
..|......
..|===...
..|......
..|......
..|......
..|......
..|......
..|E-5.v3
..|......
..|......
..|......
..|......
..|......
..|......
..|......
..|......
..|......
..|......
..|......
..|E-5.v2
..|......
..|......
..|......
..|......
..|......
..|......
..|......
..|......
..|......
..|......
..|......
..|E-6.v3
..|......
..|......
..|......
..|......
..|......
..|......
..|......
..|......
..|......
..|......
..|......
..|E-5.v3
..|......
..|......
..|......
..|......
..|......
..|......
..|......
..|......
..|......
..|......
..|......
..|G-5.v3
..|......
..|......
..|......
..|......
..|......
..|===...
..|......
..|......
..|......
..|......
..|......
..|......
..|......
..|......
..|......
..|......
..|......
..|......
..|......
..|......
..|......
..|......
..|......
..|B-5.v3
..|......
..|......
..|......
..|......
..|......
..|......
..|......
..|......
..|......
..|......
..|......
..|C#6.v3
..|......
..|......
..|......
..|......
..|......
..|......
..|......
..|......
..|......
..|......
..|......
..|D-6.v3
..|......
..|......
..|......
..|......
..|......
..|......
..|......
..|......
..|......
..|......
..|......
..|D-6.v3
..|......
..|......
..|......
..|......
..|......
..|......
..|......
..|......
..|......
..|......
..|......
..|D-5.v3
..|......
..|......
..|......
..|......
..|......
..|......
..|......
..|......
..|......
..|......
..|......
..|C#6.v3
..|......
..|......
..|......
..|......
..|......
..|===...
..|......
..|......
..|......
..|......
..|......
..|......
..|......
..|......
..|......
..|......
..|......
..|......
..|......
..|......
..|......
..|......
..|......
..|B-5.v3
..|......
..|......
..|......
..|......
..|......
..|......
..|......
..|......
..|......
..|......
..|......
..|G-5.v3
..|......
..|......
..|......
..|......
..|......
..|......
..|......
..|......
..|......
..|......
..|......
..|E-5.v3
..|......
..|......
..|......
..|......
..|......
..|......
..|......
..|......
..|......
..|......
..|......
..|===...
..|......
..|......
..|......
..|......
..|......
..|......
..|......
..|......
..|......
..|......
..|......
..|D-5.v2
..|......
..|......
..|......
..|......
..|......
..|===...
..|......
..|......
..|......
..|......
..|......
..|D-6.v3
..|......
..|......
..|......
..|......
..|......
..|......
..|......
..|......
..|......
..|......
..|......
..|D-5.v3
..|......
..|......
..|......
..|......
..|......
..|......
..|......
..|......
..|......
..|......
..|......
..|F-5.v3
..|......
..|......
..|......
..|......
..|......
..|===...
..|......
..|......
..|......
..|......
..|......
..|......
..|......
..|......
..|......
..|......
..|......
..|......
..|......
..|......
..|......
..|......
..|......
..|A-5.v3
..|......
..|......
..|......
..|......
..|......
..|......
..|......
..|......
..|......
..|......
..|......
..|B-5.v3
..|......
..|......
..|......
..|......
..|......
..|......
..|......
..|......
..|......
..|......
..|......
..|C-6.v3
..|......
..|......
..|......
..|......
..|......
..|===...
..|......
..|......
..|......
..|......
..|......
..|C-6.v3
..|......
..|......
..|......
..|......
..|......
..|......
..|......
..|......
..|......
..|......
..|......
..|C-5.v3
..|......
..|......
..|......
..|......
..|......
..|......
..|......
..|......
..|......
..|......
..|......
..|B-5.v2
..|......
..|......
..|......
..|......
..|......
..|===...
..|......
..|......
..|......
..|......
..|......
..|......
..|......
..|......
..|......
..|......
..|......
..|......
..|......
..|......
..|......
..|......
..|......
..|B-5.v3
..|......
..|......
..|......
..|......
..|......
..|......
..|......
..|......
..|......
..|......
..|......
..|B-4.v3
..|......
..|......
..|......
..|......
..|......
..|......
..|......
..|......
..|......
..|......
..|......
..|B-4.v3
..|......
..|......
..|......
..|......
..|......
..|......
..|......
..|......
..|......
..|......
..|......
..|D-5.v3
..|......
..|......
..|......
..|......
..|......
..|......
..|......
..|......
..|......
..|......
..|......
..|D-5.v2
..|......
..|......
..|......
..|......
..|......
..|......
..|......
..|......
..|......
..|......
..|......
..|D-6.v3
..|......
..|......
..|......
..|......
..|......
..|......
..|......
..|......
..|......
..|......
..|......
..|D-5.v3
..|......
..|......
..|......
..|......
..|......
..|......
..|......
..|......
..|......
..|......
..|......
..|F-5.v3
..|......
..|......
..|......
..|......
..|......
..|===...
..|......
..|......
..|......
..|......
..|......
..|......
..|......
..|......
..|......
..|......
..|......
..|......
..|......
..|......
..|......
..|......
..|......
..|A-5.v3
..|......
..|......
..|......
..|......
..|......
..|......
..|......
..|......
..|......
..|......
..|......
..|B-5.v3
..|......
..|......
..|......
..|......
..|......
..|......
..|......
..|......
..|......
..|......
..|......
..|C-6.v3
..|......
..|......
..|......
..|......
..|......
..|===...
..|......
..|......
..|......
..|......
..|......
..|C-6.v3
..|......
..|......
..|......
..|......
..|......
..|......
..|......
..|......
..|......
..|......
..|......
..|C-5.v3
..|......
..|......
..|......
..|......
..|......
..|......
..|......
..|......
..|......
..|......
..|......
..|B-5.v2
..|......
..|......
..|......
..|......
..|......
..|===...
..|......
..|......
..|......
..|......
..|......
..|......
..|......
..|......
..|......
..|......
..|......
..|......
..|......
..|......
..|......
..|......
..|......
..|B-5.v3
..|......
..|......
..|......
..|......
..|......
..|......
..|......
..|......
..|......
..|......
..|......
..|B-4.v3
..|......
..|......
..|......
..|......
..|......
..|......
..|......
..|......
..|......
..|......
..|......
..|B-4.v3
..|......
..|......
..|......
..|......
..|......
..|......
..|......
..|......
..|......
..|......
..|......
..|E-5.v3
..|......
..|......
..|......
..|......
..|......
..|......
..|......
..|......
..|......
..|......
..|......
..|E-5.v2
..|......
..|......
..|......
..|......
..|......
..|......
..|......
..|......
..|......
..|......
..|......
..|E-6.v3
..|......
..|......
..|......
..|......
..|......
..|......
..|......
..|......
..|......
..|......
..|......
..|E-5.v3
..|......
..|......
..|......
..|......
..|......
..|......
..|......
..|......
..|......
..|......
..|......
..|G-5.v3
..|......
..|......
..|......
..|......
..|......
..|===...
..|......
..|......
..|......
..|......
..|......
..|......
..|......
..|......
..|......
..|......
..|......
..|......
..|......
..|......
..|......
..|......
..|......
..|B-5.v3
..|......
..|......
..|......
..|......
..|......
..|......
..|......
..|......
..|......
..|......
..|......
..|C#6.v3
..|......
..|......
..|......
..|......
..|......
..|......
..|......
..|......
..|......
..|......
..|......
..|D-6.v3
..|......
..|......
..|......
..|......
..|......
..|......
..|......
..|......
..|......
..|......
..|......
..|D-6.v3
..|......
..|......
..|......
..|......
..|......
..|......
..|......
..|......
..|......
..|......
..|......
..|D-5.v3
..|......
..|......
..|......
..|......
..|......
..|......
..|......
..|......
..|......
..|......
..|......
..|C#6.v2
..|......
..|......
..|......
..|......
..|......
..|===...
..|......
..|......
..|......
..|......
..|......
..|......
..|......
..|......
..|......
..|......
..|......
..|......
..|......
..|......
..|......
..|......
..|......
..|C#6.v2
..|......
..|......
..|......
..|......
..|......
..|......
..|......
..|......
..|......
..|......
..|......
..|C#5.v3
..|......
..|......
..|......
..|......
..|......
..|===...
..|......
..|......
..|......
..|......
..|......
..|C#5.v2
..|......
..|......
..|......
..|......
..|......
..|===...
..|......
..|......
..|......
..|......
..|......
..|E-5.v3
..|......
..|......
..|......
..|......
..|......
..|......
..|......
..|......
..|......
..|......
..|......
..|E-5.v2
..|......
..|......
..|......
..|......
..|......
..|......
..|......
..|......
..|......
..|......
..|......
..|E-6.v3
..|......
..|......
..|......
..|......
..|......
..|......
..|......
..|......
..|......
..|......
..|......
..|E-5.v3
..|......
..|......
..|......
..|......
..|......
..|......
..|......
..|......
..|......
..|......
..|......
..|G-5.v3
..|......
..|......
..|......
..|......
..|......
..|===...
..|......
..|......
..|......
..|......
..|......
..|......
..|......
..|......
..|......
..|......
..|......
..|......
..|......
..|......
..|......
..|......
..|......
..|B-5.v3
..|......
..|......
..|......
..|......
..|......
..|......
..|......
..|......
..|......
..|......
..|......
..|C#6.v3
..|......
..|......
..|......
..|......
..|......
..|......
..|......
..|......
..|......
..|......
..|......
..|D-6.v3
..|......
..|......
..|......
..|......
..|......
..|......
..|......
..|......
..|......
..|......
..|......
..|D-6.v3
..|......
..|......
..|......
..|......
..|......
..|......
..|......
..|......
..|......
..|......
..|......
..|D-5.v3
..|......
..|......
..|......
..|......
..|......
..|......
..|......
..|......
..|......
..|......
..|......
..|C#6.v3
..|......
..|......
..|......
..|......
..|......
..|......
..|......
..|......
..|......
..|......
..|......
..|===...
#halt
#halt
