#unkc
#track 4
#inst 5
#unk6 10
#unk6 7
#volume 73
#pan 20
..|A-4.v2|......
..|......|......
..|......|......
..|===...|A#4.v2
..|......|......
..|......|......
..|......|B-4.v2
..|......|......
..|......|......
..|......|C#5.v2
..|......|......
..|......|......
..|......|D-5.v2
..|......|......
..|......|......
..|......|E-5.v2
..|......|......
..|......|......
..|......|F#5.v2
..|......|......
..|......|......
..|......|G-5.v2
..|......|......
..|......|......
..|......|G#5.v2
..|......|......
..|......|......
..|......|A-5.v2
..|......|......
..|......|......
..|......|B-5.v2
..|......|......
..|......|......
..|......|C#6.v2
..|......|......
..|......|......
..|......|D-6.v2
..|......|......
..|......|......
..|......|E-6.v2
..|......|......
..|......|......
..|......|F#6.v2
..|......|......
..|......|......
..|......|G-6.v2
..|......|......
..|......|......
..|......|A-6.v2
..|......|......
..|......|......
..|......|B-6.v2
..|......|......
..|......|......
..|......|C#7.v2
..|......|......
..|......|......
..|......|D-7.v2
..|......|......
..|......|......
..|......|D#7.v2
..|......|......
..|......|......
..|......|E-7.v2
..|......|......
..|......|......
..|......|F-7.v2
..|......|......
..|......|......
..|......|F#7.v2
..|......|......
..|......|......
..|......|G-6.v2
..|......|......
..|......|......
..|......|......
..|......|......
..|......|......
..|......|A-5.v2
..|......|......
..|......|......
..|......|......
..|......|......
..|......|......
..|......|C-6.v2
..|......|......
..|......|......
..|......|......
..|......|......
..|......|......
..|......|G-6.v2
..|......|......
..|......|......
..|......|......
..|......|......
..|......|......
..|......|F#6.v2
..|......|......
..|......|......
..|......|......
..|......|......
..|......|......
..|......|===...
..|......|......
..|......|......
..|......|......
..|......|......
..|......|......
..|D-6.v3|......
..|......|......
..|......|......
..|......|......
..|......|......
..|......|......
..|===...|......
..|......|......
..|......|......
..|......|......
..|......|......
..|......|......
..|C-6.v3|......
..|......|......
..|......|......
..|......|......
..|......|......
..|......|......
..|===...|......
..|......|......
..|......|......
..|......|......
..|......|......
..|......|......
..|D-6.v3|......
..|......|......
..|......|......
..|......|......
..|......|......
..|......|......
..|===...|......
..|......|......
..|......|......
..|......|......
..|......|......
..|......|......
64|A-5.v3|......
..|......|......
..|......|......
..|......|......
..|......|......
..|......|......
..|......|......
..|......|......
..|......|......
..|......|......
..|......|......
..|......|......
..|......|......
..|......|......
..|......|......
..|......|......
..|......|......
..|......|......
..|......|......
..|......|......
..|......|......
..|......|......
..|......|......
..|......|......
..|......|......
..|......|......
..|......|......
..|......|......
..|......|......
..|......|......
..|......|......
..|......|......
..|......|......
..|......|......
..|......|......
..|......|......
..|......|......
..|......|......
..|......|......
..|......|......
..|......|......
..|......|......
..|......|......
..|......|......
..|......|......
..|......|......
..|......|......
..|......|......
..|......|......
..|......|......
..|......|......
..|......|......
..|......|......
..|......|......
..|......|......
..|......|......
63|......|......
62|......|......
61|......|......
60|......|......
5F|......|......
..|......|......
5E|......|......
5D|......|......
5B|......|......
59|......|......
58|......|......
57|......|......
..|......|......
55|......|......
54|......|......
54|......|......
53|......|......
51|......|......
50|......|......
..|......|......
4F|......|......
4E|......|......
4D|......|......
4C|......|......
4B|......|......
4A|......|......
..|......|......
49|......|......
48|......|......
47|......|......
46|......|......
45|......|......
44|......|......
..|......|......
43|......|......
42|......|......
41|......|......
40|......|......
3F|......|......
3E|......|......
..|......|......
3D|......|......
3C|......|......
3B|......|......
3A|......|......
39|......|......
38|......|......
..|......|......
37|......|......
36|......|......
35|......|......
34|......|......
33|......|......
32|......|......
..|......|......
31|......|......
30|......|......
2F|......|......
2E|......|......
2D|......|......
2C|......|......
..|......|......
2B|......|......
2A|......|......
29|===...|......
#join
64|G-6.v2|......
..|......|......
..|......|......
..|......|......
..|......|......
..|......|......
..|A-5.v2|......
..|......|......
..|......|......
..|......|......
..|......|......
..|......|......
..|C-6.v2|......
..|......|......
..|......|......
..|......|......
..|......|......
..|......|......
..|G-6.v2|......
..|......|......
..|......|......
..|......|......
..|......|......
..|......|......
..|F#6.v2|......
..|......|......
..|......|......
..|......|......
..|......|......
..|......|......
..|===...|......
..|......|......
..|......|......
..|......|......
..|......|......
..|......|......
..|D-6.v2|......
..|......|......
..|......|......
..|......|......
..|......|......
..|......|......
..|===...|......
..|......|......
..|......|......
..|......|......
..|......|......
..|......|......
..|C-6.v2|......
..|......|......
..|......|......
..|......|......
..|......|......
..|......|......
..|===...|......
..|......|......
..|......|......
..|......|......
..|......|......
..|......|......
..|D-6.v2|......
..|......|......
..|......|......
..|......|......
..|......|......
..|......|......
..|===...|......
..|......|......
..|......|......
..|......|......
..|......|......
..|......|......
64|A-5.v3|......
..|......|......
..|......|......
..|......|......
..|......|......
..|......|......
..|......|......
..|......|......
..|......|......
..|......|......
..|......|......
..|......|......
..|......|......
..|......|......
..|......|......
..|......|......
..|......|......
..|......|......
..|......|......
..|......|......
..|......|......
..|......|......
..|......|......
..|......|......
..|......|......
..|......|......
..|......|......
..|......|......
..|......|......
..|......|......
..|......|......
..|......|......
..|......|......
..|......|......
..|......|......
..|......|......
..|......|......
..|......|......
..|......|......
..|......|......
..|......|......
..|......|......
..|......|......
..|......|......
..|......|......
..|......|......
..|......|......
..|......|......
..|......|......
..|......|......
..|......|......
..|......|......
..|......|......
..|......|......
60|......|......
5F|......|......
5E|......|......
5D|......|......
..|......|......
5C|......|......
5B|......|......
5A|......|......
59|......|......
58|......|......
..|......|......
57|......|......
56|......|......
55|......|......
54|......|......
53|......|......
..|......|......
52|......|......
51|......|......
50|......|......
4F|......|......
4E|......|......
..|......|......
4D|......|......
4C|......|......
4B|......|......
4A|......|......
49|......|......
..|......|......
48|......|......
47|......|......
46|......|......
45|......|......
44|......|......
..|......|......
43|......|......
42|......|......
41|......|......
40|......|......
3F|......|......
..|......|......
3E|......|......
3D|......|......
3C|......|......
3B|......|......
..|......|......
3A|......|......
39|......|......
38|......|......
37|......|......
36|......|......
..|......|......
35|......|......
34|......|......
33|......|......
32|......|......
31|......|......
..|......|......
30|......|......
2F|......|......
2E|......|......
2D|......|......
2C|......|......
..|......|......
2B|......|......
2A|......|......
29|===...|......
..|......|......
..|......|......
..|......|......
..|......|......
..|......|......
..|......|......
..|......|......
..|......|......
..|......|......
..|......|......
..|......|......
..|......|......
..|......|......
..|......|......
..|......|......
..|......|......
..|......|......
..|......|......
..|......|......
..|......|......
..|......|......
..|......|......
..|......|......
4B|......|......
..|......|......
..|......|......
..|......|......
..|......|......
..|......|......
..|......|......
..|......|......
..|......|......
..|......|......
..|......|......
..|......|......
..|......|......
..|......|......
..|......|......
..|......|......
..|......|......
..|......|......
..|......|......
..|......|......
..|......|......
..|......|......
..|......|......
..|......|......
..|......|......
..|......|......
..|......|......
..|......|......
..|......|......
..|......|......
..|......|......
..|......|......
..|......|......
..|......|......
..|......|......
..|......|......
..|......|......
..|......|......
..|......|......
..|......|......
..|......|......
..|......|......
..|......|......
..|......|......
..|......|......
..|......|......
..|......|......
..|......|......
..|......|......
..|......|......
..|......|......
..|......|......
..|......|......
..|......|......
..|C-7.v3|......
..|......|......
..|......|......
..|......|......
..|......|......
..|......|......
..|===...|......
..|......|......
..|......|......
..|......|......
..|......|......
..|......|......
..|C-7.v3|......
..|......|......
..|......|......
..|......|......
..|......|......
..|......|......
..|B-6.v3|......
..|......|......
..|......|......
..|......|......
..|......|......
..|......|......
..|C-7.v3|......
..|......|......
..|......|......
..|......|......
..|......|......
..|......|......
..|B-6.v3|......
..|......|......
..|......|......
..|......|......
..|......|......
..|......|......
..|G-6.v3|......
..|......|......
..|......|......
..|......|......
..|......|......
..|......|......
..|===...|......
..|......|......
..|......|......
..|......|......
..|......|......
..|......|......
..|......|......
..|......|......
..|......|......
..|......|......
..|......|......
..|......|......
..|......|......
..|......|......
..|......|......
..|......|......
..|......|......
..|......|......
..|......|......
..|......|......
..|......|......
..|......|......
..|......|......
..|......|......
..|......|......
..|......|......
..|......|......
..|......|......
..|......|......
..|......|......
..|......|......
..|......|......
..|......|......
..|......|......
..|......|......
..|......|......
..|......|......
..|......|......
..|......|......
..|......|......
..|......|......
..|......|......
..|......|......
..|......|......
..|......|......
..|......|......
..|......|......
..|......|......
..|......|......
..|......|......
..|......|......
..|......|......
..|......|......
..|......|......
..|......|......
..|......|......
..|......|......
..|......|......
..|......|......
..|......|......
..|......|......
..|......|......
..|......|......
..|......|......
..|......|......
..|......|......
..|......|......
..|......|......
..|......|......
..|......|......
..|......|......
..|......|......
..|......|......
..|......|......
..|......|......
..|......|......
..|......|......
..|......|......
..|......|......
..|......|......
..|......|......
..|......|......
..|......|......
..|......|......
..|......|......
..|......|......
..|......|......
..|......|......
..|......|......
..|......|......
..|......|......
..|......|......
..|......|......
..|......|......
..|......|......
..|......|......
..|......|......
..|......|......
..|......|......
..|......|......
..|......|......
..|......|......
..|......|......
..|......|......
..|......|......
..|......|......
..|......|......
..|......|......
..|......|......
..|......|......
..|......|......
..|......|......
..|......|......
..|......|......
..|......|......
..|......|......
..|......|......
..|......|......
..|......|......
..|......|......
..|......|......
..|......|......
..|......|......
..|......|......
..|......|......
..|......|......
..|......|......
..|......|......
..|......|......
..|......|......
..|......|......
..|......|......
..|......|......
..|......|......
..|......|......
..|......|......
..|......|......
..|......|......
..|......|......
..|......|......
..|......|......
..|......|......
..|......|......
..|......|......
..|......|......
..|......|......
..|......|......
..|......|......
..|......|......
..|......|......
..|C-7.v3|......
..|......|......
..|......|......
..|......|......
..|......|......
..|......|......
..|===...|......
..|......|......
..|......|......
..|......|......
..|......|......
..|......|......
..|C-7.v3|......
..|......|......
..|......|......
..|......|......
..|......|......
..|......|......
..|B-6.v3|......
..|......|......
..|......|......
..|......|......
..|......|......
..|......|......
..|C-7.v3|......
..|......|......
..|......|......
..|......|......
..|......|......
..|......|......
..|B-6.v3|......
..|......|......
..|......|......
..|......|......
..|......|......
..|......|......
..|G-6.v3|......
..|......|......
..|......|......
..|......|......
..|......|......
..|......|......
..|===...|......
#join
64|A-6.v3|......
..|......|......
..|......|......
..|......|......
..|......|......
..|......|......
..|......|......
..|......|......
..|......|......
..|......|......
..|......|......
..|......|......
..|......|......
..|......|......
..|......|......
..|......|......
..|......|......
..|......|......
..|......|......
..|......|......
..|......|......
..|......|......
..|......|......
..|......|......
..|......|......
..|......|......
..|......|......
..|......|......
..|......|......
..|......|......
..|......|......
..|......|......
..|......|......
..|......|......
63|......|......
62|......|......
61|......|......
60|......|......
5F|......|......
5E|......|......
5D|......|......
5C|......|......
5B|......|......
5A|......|......
59|......|......
58|......|......
57|......|......
56|......|......
55|......|......
54|......|......
53|......|......
52|......|......
51|......|......
50|......|......
4F|......|......
4E|......|......
4D|......|......
4C|......|......
..|......|......
4B|......|......
4A|......|......
49|......|......
48|......|......
47|......|......
46|......|......
45|......|......
44|......|......
43|......|......
42|......|......
41|......|......
40|......|......
3F|......|......
3E|......|......
3D|......|......
3C|......|......
3B|......|......
3A|......|......
39|......|......
38|......|......
37|......|......
36|......|......
35|......|......
34|......|......
..|......|......
33|......|......
32|......|......
31|......|......
30|......|......
2F|......|......
2E|......|......
2D|......|......
2C|......|......
2B|......|......
2A|......|......
29|......|......
28|......|......
27|===...|......
#halt
#halt
