#compressed
#unkc
#inst 1
#unk6 7
#volume 3c
..|A-3.v2|......
..|......|......
..|......|......
..|===...|A#3.v2
..|......|......
..|......|......
..|......|B-3.v2
..|......|......
..|......|......
..|......|C#4.v2
..|......|......
..|......|......
..|......|D-4.v2
..|......|......
..|......|......
..|......|E-4.v2
..|......|......
..|......|......
..|......|F#4.v2
..|......|......
..|......|......
..|......|G-4.v2
..|......|......
..|......|......
..|......|G#4.v2
..|......|......
..|......|......
..|......|A-4.v2
..|......|......
..|......|......
..|......|B-4.v2
..|......|......
..|......|......
..|......|C#5.v2
..|......|......
..|......|......
..|......|D-5.v2
..|......|......
..|......|......
..|......|E-5.v2
..|......|......
..|......|......
..|......|F#5.v2
..|......|......
..|......|......
..|......|G-5.v2
..|......|......
..|......|......
..|......|A-5.v2
..|......|......
..|......|......
..|......|B-5.v2
..|......|......
..|......|......
..|......|C#6.v2
..|......|......
..|......|......
..|......|D-6.v2
..|......|......
..|......|......
..|......|D#6.v2
..|......|......
..|......|......
..|......|E-6.v2
..|......|......
..|......|......
..|......|F-6.v2
..|......|......
..|......|......
..|......|F#6.v2
..|......|......
..|......|......
..|......|G-5.v2
..|......|......
..|......|......
..|......|......
..|......|......
..|......|......
..|......|A-4.v2
..|......|......
..|......|......
..|......|......
..|......|......
..|......|......
..|......|C-5.v2
..|......|......
..|......|......
..|......|......
..|......|......
..|......|......
..|......|G-5.v2
..|......|......
..|......|......
..|......|......
..|......|......
..|......|......
..|......|F#5.v2
..|......|......
..|......|......
..|......|......
..|......|......
..|......|......
..|......|===...
..|......|......
..|......|......
..|......|......
..|......|......
..|......|......
..|D-5.v3|......
..|......|......
..|......|......
..|......|......
..|......|......
..|......|......
..|===...|......
..|......|......
..|......|......
..|......|......
..|......|......
..|......|......
..|C-5.v3|......
..|......|......
..|......|......
..|......|......
..|......|......
..|......|......
..|===...|......
..|......|......
..|......|......
..|......|......
..|......|......
..|......|......
..|D-5.v3|......
..|......|......
..|......|......
..|......|......
..|......|......
..|......|......
..|===...|......
..|......|......
..|......|......
..|......|......
..|......|......
..|......|......
..|A-4.v3|......
..|......|......
..|......|......
..|......|......
..|......|......
..|......|......
..|......|......
..|......|......
..|......|......
..|......|......
..|......|......
..|......|......
..|......|......
..|......|......
..|......|......
..|......|......
..|......|......
..|......|......
..|......|......
..|......|......
..|......|......
..|......|......
..|......|......
..|......|......
..|......|......
..|......|......
..|......|......
..|......|......
..|......|......
..|......|......
..|......|......
..|......|......
..|......|......
..|......|......
..|......|......
..|......|......
..|......|......
..|......|......
..|......|......
..|......|......
..|......|......
..|......|......
..|......|......
..|......|......
..|......|......
..|......|......
..|......|......
..|......|......
..|......|......
..|......|......
..|......|......
..|......|......
..|......|......
..|......|......
..|......|......
..|......|......
..|......|......
..|......|......
..|......|......
..|......|......
..|......|......
..|......|......
..|......|......
..|......|......
..|......|......
..|......|......
..|......|......
..|......|......
..|......|......
..|......|......
..|......|......
..|......|......
..|......|......
..|......|......
..|......|......
..|......|......
..|......|......
..|......|......
..|......|......
..|......|......
..|......|......
..|......|......
..|......|......
..|......|......
..|......|......
..|......|......
..|......|......
45|......|......
44|......|......
..|......|......
43|......|......
42|......|......
41|......|......
40|......|......
3F|......|......
3E|......|......
..|......|......
3D|......|......
3C|......|......
3B|......|......
3A|......|......
39|......|......
38|......|......
..|......|......
37|......|......
36|......|......
35|......|......
34|......|......
33|......|......
32|......|......
..|......|......
31|......|......
30|......|......
2F|......|......
2E|......|......
2D|......|......
2C|......|......
..|......|......
2B|......|......
2A|......|......
29|===...|......
#join
3C|G-5.v2|......
..|......|......
..|......|......
..|......|......
..|......|......
..|......|......
..|A-4.v2|......
..|......|......
..|......|......
..|......|......
..|......|......
..|......|......
..|C-5.v2|......
..|......|......
..|......|......
..|......|......
..|......|......
..|......|......
..|G-5.v2|......
..|......|......
..|......|......
..|......|......
..|......|......
..|......|......
..|F#5.v2|......
..|......|......
..|......|......
..|......|......
..|......|......
..|......|......
..|===...|......
..|......|......
..|......|......
..|......|......
..|......|......
..|......|......
..|D-5.v2|......
..|......|......
..|......|......
..|......|......
..|......|......
..|......|......
..|===...|......
..|......|......
..|......|......
..|......|......
..|......|......
..|......|......
..|C-5.v2|......
..|......|......
..|......|......
..|......|......
..|......|......
..|......|......
..|===...|......
..|......|......
..|......|......
..|......|......
..|......|......
..|......|......
..|D-5.v2|......
..|......|......
..|......|......
..|......|......
..|......|......
..|......|......
..|===...|......
..|......|......
..|......|......
..|......|......
..|......|......
..|......|......
3C|A-4.v3|......
..|......|......
..|......|......
..|......|......
..|......|......
..|......|......
..|......|......
..|......|......
..|......|......
..|......|......
..|......|......
..|......|......
..|......|......
..|......|......
..|......|......
..|......|......
..|......|......
..|......|......
..|......|......
..|......|......
..|......|......
..|......|......
..|......|......
..|......|......
..|......|......
..|......|......
..|......|......
..|......|......
..|......|......
..|......|......
..|......|......
..|......|......
..|......|......
..|......|......
..|......|......
..|......|......
..|......|......
..|......|......
..|......|......
..|......|......
..|......|......
..|......|......
..|......|......
..|......|......
..|......|......
..|......|......
..|......|......
..|......|......
..|......|......
..|......|......
..|......|......
..|......|......
..|......|......
..|......|......
..|......|......
..|......|......
..|......|......
..|......|......
..|......|......
..|......|......
..|......|......
..|......|......
..|......|......
..|......|......
..|......|......
..|......|......
..|......|......
..|......|......
..|......|......
..|......|......
..|......|......
..|......|......
..|......|......
..|......|......
..|......|......
..|......|......
..|......|......
..|......|......
..|......|......
..|......|......
..|......|......
..|......|......
..|......|......
..|......|......
..|......|......
..|......|......
..|......|......
..|......|......
..|......|......
..|......|......
..|......|......
..|......|......
..|......|......
..|......|......
..|......|......
..|......|......
..|......|......
3C|......|......
3B|......|......
..|......|......
3A|......|......
39|......|......
38|......|......
37|......|......
36|......|......
..|......|......
35|......|......
34|......|......
33|......|......
32|......|......
31|......|......
..|......|......
30|......|......
2F|......|......
2E|......|......
2D|......|......
2C|......|......
..|......|......
2B|......|......
2A|......|......
29|===...|......
..|......|......
..|......|......
..|......|......
..|......|......
..|......|......
..|......|......
..|......|......
..|......|......
..|......|......
..|......|......
..|......|......
..|......|......
..|......|......
..|......|......
..|......|......
..|......|......
..|......|......
..|......|......
..|......|......
..|......|......
..|......|......
..|......|......
..|......|......
4B|......|......
..|......|......
..|......|......
..|......|......
..|......|......
..|......|......
..|......|......
..|......|......
..|......|......
..|......|......
..|......|......
..|......|......
..|......|......
..|......|......
..|......|......
..|......|......
..|......|......
..|......|......
..|......|......
..|......|......
..|......|......
..|......|......
..|......|......
..|......|......
..|......|......
..|......|......
..|......|......
..|......|......
..|......|......
..|......|......
..|......|......
..|......|......
..|......|......
..|......|......
..|......|......
..|......|......
..|......|......
..|......|......
..|......|......
..|......|......
..|......|......
..|......|......
..|......|......
..|......|......
..|......|......
..|......|......
..|......|......
..|......|......
..|......|......
..|......|......
..|......|......
..|......|......
..|......|......
..|......|......
..|C-6.v3|......
..|......|......
..|......|......
..|......|......
..|......|......
..|......|......
..|===...|......
..|......|......
..|......|......
..|......|......
..|......|......
..|......|......
..|C-6.v3|......
..|......|......
..|......|......
..|......|......
..|......|......
..|......|......
..|B-5.v3|......
..|......|......
..|......|......
..|......|......
..|......|......
..|......|......
..|C-6.v3|......
..|......|......
..|......|......
..|......|......
..|......|......
..|......|......
..|B-5.v3|......
..|......|......
..|......|......
..|......|......
..|......|......
..|......|......
..|G-5.v3|......
..|......|......
..|......|......
..|......|......
..|......|......
..|......|......
..|===...|......
..|......|......
..|......|......
..|......|......
..|......|......
..|......|......
..|......|......
..|......|......
..|......|......
..|......|......
..|......|......
..|......|......
..|......|......
..|......|......
..|......|......
..|......|......
..|......|......
..|......|......
..|......|......
..|......|......
..|......|......
..|......|......
..|......|......
..|......|......
..|......|......
..|......|......
..|......|......
..|......|......
..|......|......
..|......|......
..|......|......
..|......|......
..|......|......
..|......|......
..|......|......
..|......|......
..|......|......
..|......|......
..|......|......
..|......|......
..|......|......
..|......|......
..|......|......
..|......|......
..|......|......
..|......|......
..|......|......
..|......|......
..|......|......
..|......|......
..|......|......
..|......|......
..|......|......
..|......|......
..|......|......
..|......|......
..|......|......
..|......|......
..|......|......
..|......|......
..|......|......
..|......|......
..|......|......
..|......|......
..|......|......
..|......|......
..|......|......
..|......|......
..|......|......
..|......|......
..|......|......
..|......|......
..|......|......
..|......|......
..|......|......
..|......|......
..|......|......
..|......|......
..|......|......
..|......|......
..|......|......
..|......|......
..|......|......
..|......|......
..|......|......
..|......|......
..|......|......
..|......|......
..|......|......
..|......|......
..|......|......
..|......|......
..|......|......
..|......|......
..|......|......
..|......|......
..|......|......
..|......|......
..|......|......
..|......|......
..|......|......
..|......|......
..|......|......
..|......|......
..|......|......
..|......|......
..|......|......
..|......|......
..|......|......
..|......|......
..|......|......
..|......|......
..|......|......
..|......|......
..|......|......
..|......|......
..|......|......
..|......|......
..|......|......
..|......|......
..|......|......
..|......|......
..|......|......
..|......|......
..|......|......
..|......|......
..|......|......
..|......|......
..|......|......
..|......|......
..|......|......
..|......|......
..|......|......
..|......|......
..|......|......
..|......|......
..|......|......
..|......|......
..|......|......
..|......|......
..|......|......
..|......|......
..|......|......
..|......|......
..|......|......
..|......|......
..|......|......
..|......|......
..|......|......
..|......|......
..|C-6.v3|......
..|......|......
..|......|......
..|......|......
..|......|......
..|......|......
..|===...|......
..|......|......
..|......|......
..|......|......
..|......|......
..|......|......
..|C-6.v3|......
..|......|......
..|......|......
..|......|......
..|......|......
..|......|......
..|B-5.v3|......
..|......|......
..|......|......
..|......|......
..|......|......
..|......|......
..|C-6.v3|......
..|......|......
..|......|......
..|......|......
..|......|......
..|......|......
..|B-5.v3|......
..|......|......
..|......|......
..|......|......
..|......|......
..|......|......
..|G-5.v3|......
..|......|......
..|......|......
..|......|......
..|......|......
..|......|......
..|===...|......
#join
3C|A-5.v3|......
..|......|......
..|......|......
..|......|......
..|......|......
..|......|......
..|......|......
..|......|......
..|......|......
..|......|......
..|......|......
..|......|......
..|......|......
..|......|......
..|......|......
..|......|......
..|......|......
..|......|......
..|......|......
..|......|......
..|......|......
..|......|......
..|......|......
..|......|......
..|......|......
..|......|......
..|......|......
..|......|......
..|......|......
..|......|......
..|......|......
..|......|......
..|......|......
..|......|......
..|......|......
..|......|......
..|......|......
..|......|......
..|......|......
..|......|......
..|......|......
..|......|......
..|......|......
..|......|......
..|......|......
..|......|......
..|......|......
..|......|......
..|......|......
..|......|......
..|......|......
..|......|......
..|......|......
..|......|......
..|......|......
..|......|......
..|......|......
..|......|......
..|......|......
..|......|......
..|......|......
..|......|......
..|......|......
..|......|......
..|......|......
..|......|......
..|......|......
..|......|......
..|......|......
..|......|......
..|......|......
..|......|......
..|......|......
..|......|......
3C|......|......
3B|......|......
3A|......|......
39|......|......
38|......|......
37|......|......
36|......|......
35|......|......
34|......|......
..|......|......
33|......|......
32|......|......
31|......|......
30|......|......
2F|......|......
2E|......|......
2D|......|......
2C|......|......
2B|......|......
2A|......|......
29|......|......
28|......|......
27|===...|......
#halt
#halt
