#compressed
#unkc
#track 6
#inst 4
#unk6 7
#unk6 10
..|A-3.v2|......
#join
5A|......|......
#join
#pan 110
..|......|......
..|......|......
..|......|......
..|A#3.v2|......
..|......|......
..|......|......
..|B-3.v2|......
..|......|......
..|......|......
..|C#4.v2|......
..|......|......
..|......|......
..|D-4.v2|......
..|......|......
..|......|......
..|E-4.v2|......
..|......|......
..|......|......
..|F#4.v2|......
..|......|......
..|......|......
..|G-4.v2|......
..|......|......
..|......|......
..|G#4.v2|......
..|......|......
..|......|......
..|A-4.v2|......
..|......|......
..|......|......
..|B-4.v2|......
..|......|......
..|......|......
..|C#5.v2|......
..|......|......
..|......|......
..|D-5.v2|......
..|......|......
..|......|......
..|E-5.v2|......
..|......|......
..|......|......
..|F#5.v2|......
..|......|......
..|......|......
..|G-5.v2|......
..|......|......
..|......|......
..|A-5.v2|......
..|......|......
..|......|......
..|B-5.v2|......
..|......|......
..|......|......
..|C#6.v2|......
..|......|......
..|......|......
..|D-6.v2|......
..|......|......
..|......|......
..|D#6.v2|......
..|......|......
..|......|......
..|E-6.v2|......
..|......|......
..|......|......
..|F-6.v2|......
..|......|......
..|......|......
..|F#6.v2|......
..|......|......
..|......|......
..|G-5.v2|G-4.v2
..|......|......
..|......|......
..|......|......
..|......|......
..|......|......
..|A-4.v2|A-3.v2
..|......|......
..|......|......
..|......|......
..|......|......
..|......|......
..|C-5.v2|C-4.v2
..|......|......
..|......|......
..|......|......
..|......|......
..|......|......
..|G-5.v2|G-4.v2
..|......|......
..|......|......
..|......|......
..|......|......
..|......|......
..|D-5.v2|A-4.v2
..|......|......
..|......|......
..|......|......
..|......|......
..|......|......
..|===...|===...
..|......|......
..|......|......
..|......|......
..|......|......
..|......|......
..|A-4.v2|F#4.v2
..|......|......
..|......|......
..|......|......
..|......|......
..|......|......
..|===...|===...
..|......|......
..|......|......
..|......|......
..|......|......
..|......|......
..|G-4.v2|E-4.v2
..|......|......
..|......|......
..|......|......
..|......|......
..|......|......
..|===...|===...
..|......|......
..|......|......
..|......|......
..|......|......
..|......|......
..|A-4.v2|F#4.v2
..|......|......
..|......|......
..|......|......
..|......|......
..|......|......
..|===...|===...
..|......|......
..|......|......
..|......|......
..|......|......
..|......|......
..|F#4.v2|D-4.v2
..|......|......
..|......|......
..|......|......
..|......|......
..|......|......
..|......|......
..|......|......
..|......|......
..|......|......
..|......|......
..|......|......
..|......|......
..|......|......
..|......|......
..|......|......
..|......|......
..|......|......
..|......|......
..|......|......
..|......|......
..|......|......
..|......|......
..|......|......
..|......|......
..|......|......
..|......|......
..|......|......
..|......|......
..|......|......
..|......|......
..|......|......
..|......|......
..|......|......
..|......|......
..|......|......
..|......|......
..|......|......
..|......|......
..|......|......
..|......|......
..|......|......
..|......|......
..|......|......
..|......|......
..|......|......
..|......|......
..|......|......
..|D-5.v2|F#4.v2
..|......|......
..|......|......
..|......|......
..|......|......
..|......|......
..|D-5.v2|F#4.v2
..|......|......
..|......|......
..|......|......
..|......|......
..|......|......
..|F#5.v2|===...
..|......|......
..|......|......
..|......|......
..|......|......
..|......|......
..|D-5.v2|F#4.v2
..|......|......
..|......|......
..|......|......
..|......|......
..|......|......
..|F#5.v2|A-4.v2
..|......|......
..|......|......
..|......|......
..|......|......
..|......|......
..|A-4.v2|D-4.v2
..|......|......
..|......|......
..|......|......
..|......|......
..|......|......
..|A-5.v2|D-5.v2
..|......|......
..|......|......
..|......|......
..|......|......
..|......|......
..|B-5.v2|D-5.v2
..|......|......
..|......|......
..|......|......
..|......|......
..|......|......
..|C-6.v3|F#5.v2
..|......|......
..|......|......
..|......|......
..|......|......
..|......|......
..|C-5.v2|F#4.v2
..|......|......
..|......|......
..|......|......
..|......|......
..|......|......
..|C-6.v3|F#5.v2
..|......|......
..|......|......
..|......|......
..|......|......
..|......|......
..|C-5.v2|F#4.v2
..|......|......
..|......|......
..|......|......
..|......|......
..|......|......
..|G-5.v2|G-4.v2
..|......|......
..|......|......
..|......|......
..|......|......
..|......|......
..|A-4.v2|A-3.v2
..|......|......
..|......|......
..|......|......
..|......|......
..|......|......
..|C-5.v2|C-4.v2
..|......|......
..|......|......
..|......|......
..|......|......
..|......|......
..|G-5.v2|G-4.v2
..|......|......
..|......|......
..|......|......
..|......|......
..|......|......
..|D-5.v2|A-4.v2
..|......|......
..|......|......
..|......|......
..|......|......
..|......|......
..|===...|===...
..|......|......
..|......|......
..|......|......
..|......|......
..|......|......
..|A-4.v2|F#4.v2
..|......|......
..|......|......
..|......|......
..|......|......
..|......|......
..|===...|===...
..|......|......
..|......|......
..|......|......
..|......|......
..|......|......
..|G-4.v2|E-4.v2
..|......|......
..|......|......
..|......|......
..|......|......
..|......|......
..|===...|===...
..|......|......
..|......|......
..|......|......
..|......|......
..|......|......
..|A-4.v2|F#4.v2
..|......|......
..|......|......
..|......|......
..|......|......
..|......|......
..|===...|===...
..|......|......
..|......|......
..|......|......
..|......|......
..|......|......
..|F#4.v2|D-4.v2
..|......|......
..|......|......
..|......|......
..|......|......
..|......|......
..|......|......
..|......|......
..|......|......
..|......|......
..|......|......
..|......|......
..|......|......
..|......|......
..|......|......
..|......|......
..|......|......
..|......|......
..|......|......
..|......|......
..|......|......
..|......|......
..|......|......
..|......|......
..|......|......
..|......|......
..|......|......
..|......|......
..|......|......
..|......|......
..|......|......
..|......|......
..|......|......
..|......|......
..|......|......
..|......|......
..|......|......
..|......|......
..|......|......
..|......|......
..|......|......
..|......|......
..|......|......
..|......|......
..|......|......
..|......|......
..|......|......
..|......|......
..|D-5.v2|F#4.v2
..|......|......
..|......|......
..|......|......
..|......|......
..|......|......
..|D-5.v2|F#4.v2
..|......|......
..|......|......
..|......|......
..|......|......
..|......|......
..|D-6.v2|F#5.v2
..|......|......
..|......|......
..|......|......
..|......|......
..|......|......
..|D-5.v2|F#4.v2
..|......|......
..|......|......
..|......|......
..|......|......
..|......|......
..|F#5.v2|A-4.v2
..|......|......
..|......|......
..|......|......
..|......|......
..|......|......
..|A-4.v2|D-4.v2
..|......|......
..|......|......
..|......|......
..|......|......
..|......|......
..|A-5.v2|D-5.v2
..|......|......
..|......|......
..|......|......
..|......|......
..|......|......
..|B-5.v2|D-5.v2
..|......|......
..|......|......
..|......|......
..|......|......
..|......|......
..|C-6.v3|F#5.v2
..|......|......
..|......|......
..|......|......
..|......|......
..|......|......
..|===...|===...
..|......|......
..|......|......
..|......|......
..|......|......
..|......|......
..|C-6.v3|F#5.v2
..|......|......
..|......|......
..|......|......
..|......|......
..|......|......
..|===...|===...
..|......|......
..|......|......
..|......|......
..|......|......
..|......|......
..|B-5.v2|D-5.v2
..|......|......
..|......|......
..|......|......
..|......|......
..|......|......
..|......|......
..|......|......
..|......|......
..|......|......
..|......|......
..|......|......
..|......|......
..|......|......
..|......|......
..|......|......
..|......|......
..|......|......
..|......|......
..|......|......
..|......|......
..|......|......
..|......|......
..|......|......
..|G-4.v2|E-4.v2
..|......|......
..|......|......
..|......|......
..|......|......
..|......|......
..|......|......
..|......|......
..|......|......
..|......|......
..|......|......
..|......|......
..|......|......
..|......|......
..|......|......
..|......|......
..|......|......
..|......|......
..|E-5.v2|===...
..|......|......
..|......|......
..|......|......
..|......|......
..|......|......
..|......|......
..|......|......
..|......|......
..|......|......
..|......|......
..|......|......
..|......|......
..|......|......
..|......|......
..|......|......
..|......|......
..|......|......
..|C-5.v2|......
..|......|......
..|......|......
..|......|......
..|......|......
..|......|......
..|......|......
..|......|......
..|......|......
..|......|......
..|......|......
..|......|......
..|......|......
..|......|......
..|......|......
..|......|......
..|......|......
..|......|......
..|C-5.v2|G-4.v2
..|......|......
..|......|......
..|......|......
..|......|......
..|......|......
..|===...|===...
..|......|......
..|......|......
..|......|......
..|......|......
..|......|......
..|C-5.v2|G-4.v2
..|......|......
..|......|......
..|......|......
..|......|......
..|......|......
..|B-4.v2|G-4.v2
..|......|......
..|......|......
..|......|......
..|......|......
..|......|......
..|C-5.v2|G-4.v2
..|......|......
..|......|......
..|......|......
..|......|......
..|......|......
..|B-4.v2|G-4.v2
..|......|......
..|......|......
..|......|......
..|......|......
..|......|......
..|G-4.v2|E-4.v2
..|......|......
..|......|......
..|......|......
..|......|......
..|......|......
..|F#4.v2|D-4.v2
..|......|......
..|......|......
..|......|......
..|......|......
..|......|......
..|......|......
..|......|......
..|......|......
..|......|......
..|......|......
..|......|......
..|......|......
..|......|......
..|......|......
..|......|......
..|......|......
..|......|......
..|F#5.v2|D-5.v2
..|......|......
..|......|......
..|......|......
..|......|......
..|......|......
..|......|......
..|......|......
..|......|......
..|......|......
..|......|......
..|......|......
..|......|......
..|......|......
..|......|......
..|......|......
..|......|......
..|......|......
..|D-5.v2|===...
..|......|......
..|......|......
..|......|......
..|......|......
..|......|......
..|......|......
..|......|......
..|......|......
..|......|......
..|......|......
..|......|......
..|......|......
..|......|......
..|......|......
..|......|......
..|......|......
..|......|......
..|......|......
..|......|......
..|......|......
..|......|......
..|......|......
..|......|......
..|......|......
..|......|......
..|......|......
..|......|......
..|......|......
..|......|......
..|......|......
..|......|......
..|......|......
..|......|......
..|......|......
..|......|......
..|......|......
..|......|......
..|......|......
..|......|......
..|......|......
..|......|......
..|......|......
..|......|......
..|......|......
..|......|......
..|......|......
..|......|......
..|......|......
..|......|......
..|......|......
..|......|......
..|......|......
..|......|......
..|......|......
..|......|......
..|......|......
..|......|......
..|......|......
..|......|......
..|G-4.v2|E-4.v2
..|......|......
..|......|......
..|......|......
..|......|......
..|......|......
..|......|......
..|......|......
..|......|......
..|......|......
..|......|......
..|......|......
..|......|......
..|......|......
..|......|......
..|......|......
..|......|......
..|......|......
..|E-5.v2|===...
..|......|......
..|......|......
..|......|......
..|......|......
..|......|......
..|......|......
..|......|......
..|......|......
..|......|......
..|......|......
..|......|......
..|......|......
..|......|......
..|......|......
..|......|......
..|......|......
..|......|......
..|C-5.v2|......
..|......|......
..|......|......
..|......|......
..|......|......
..|......|......
..|......|......
..|......|......
..|......|......
..|......|......
..|......|......
..|......|......
..|......|......
..|......|......
..|......|......
..|......|......
..|......|......
..|......|......
..|C-5.v2|G-4.v2
..|......|......
..|......|......
..|......|......
..|......|......
..|......|......
..|===...|===...
..|......|......
..|......|......
..|......|......
..|......|......
..|......|......
..|C-5.v2|G-4.v2
..|......|......
..|......|......
..|......|......
..|......|......
..|......|......
..|B-4.v2|G-4.v2
..|......|......
..|......|......
..|......|......
..|......|......
..|......|......
..|C-5.v2|G-4.v2
..|......|......
..|......|......
..|......|......
..|......|......
..|......|......
..|B-4.v2|G-4.v2
..|......|......
..|......|......
..|......|......
..|......|......
..|......|......
..|G-4.v2|E-4.v2
..|......|......
..|......|......
..|......|......
..|......|......
..|......|......
..|F#4.v2|D-4.v2
..|......|......
..|......|......
..|......|......
..|......|......
..|......|......
..|......|......
..|......|......
..|......|......
..|......|......
..|......|......
..|......|......
..|......|......
..|......|......
..|......|......
..|......|......
..|......|......
..|......|......
..|......|......
..|......|......
..|......|......
..|......|......
..|......|......
..|......|......
..|......|......
..|......|......
..|......|......
..|......|......
..|......|......
..|......|......
..|......|......
..|......|......
..|......|......
..|......|......
..|......|......
..|......|......
..|......|......
..|......|......
..|......|......
..|......|......
..|......|......
..|......|......
..|......|......
..|......|......
..|......|......
..|......|......
..|......|......
..|......|......
..|......|......
..|......|......
..|......|......
..|......|......
..|......|......
..|......|......
..|......|......
..|......|......
..|......|......
..|......|......
..|......|......
..|......|......
..|......|......
..|......|......
..|......|......
..|......|......
..|......|......
..|......|......
..|......|......
..|......|......
..|......|......
..|......|......
..|......|......
..|......|......
..|......|......
..|......|......
..|......|......
..|......|......
..|......|......
..|......|......
..|......|......
..|......|......
..|......|......
..|......|......
..|......|......
..|......|......
..|......|......
..|......|......
..|......|......
..|......|......
..|......|......
..|......|......
..|......|......
..|......|......
..|......|......
..|......|......
..|......|......
..|......|......
..|===...|===...
#halt
#halt
