#compressed
#unkc
#track 1
#inst 1
#unk6 10
#unk6 7
#pan 35
#volume 6e
..|E-6.v1|......
..|......|......
..|......|......
..|......|......
..|......|......
..|......|......
..|......|......
..|......|......
..|......|......
..|......|......
..|......|......
..|......|......
..|===...|E-5.v1
..|......|......
..|......|......
..|......|......
..|......|......
..|......|......
..|......|===...
..|......|......
..|......|......
..|......|......
..|......|......
..|......|......
..|E-6.v1|......
..|......|......
..|......|......
..|......|......
..|......|......
..|......|......
..|......|......
..|......|......
..|......|......
..|......|......
..|......|......
..|......|......
..|E-5.v1|......
..|......|......
..|......|......
..|......|......
..|......|......
..|......|......
..|===...|......
..|......|......
..|......|......
..|......|......
..|......|......
..|......|......
..|E-6.v1|......
..|......|......
..|......|......
..|......|......
..|......|......
..|......|......
..|......|......
..|......|......
..|......|......
..|......|......
..|......|......
..|......|......
..|E-5.v1|......
..|......|......
..|......|......
..|......|......
..|......|......
..|......|......
..|===...|......
..|......|......
..|......|......
..|......|......
..|......|......
..|......|......
..|E-6.v1|......
..|......|......
..|......|......
..|......|......
..|......|......
..|......|......
..|......|......
..|......|......
..|......|......
..|......|......
..|......|......
..|......|......
..|E-5.v1|......
..|......|......
..|......|......
..|......|......
..|......|......
..|......|......
..|===...|......
..|......|......
..|......|......
..|......|......
..|......|......
..|......|......
..|E-6.v1|......
..|......|......
..|......|......
..|......|......
..|......|......
..|......|......
..|......|......
..|......|......
..|......|......
..|......|......
..|......|......
..|......|......
..|E-5.v1|......
..|......|......
..|......|......
..|......|......
..|......|......
..|......|......
..|===...|......
..|......|......
..|......|......
..|......|......
..|......|......
..|......|......
..|E-6.v1|......
..|......|......
..|......|......
..|......|......
..|......|......
..|......|......
..|......|......
..|......|......
..|......|......
..|......|......
..|......|......
..|......|......
..|E-5.v1|......
..|......|......
..|......|......
..|......|......
..|......|......
..|......|......
..|===...|......
..|......|......
..|......|......
..|......|......
..|......|......
..|......|......
..|E-6.v1|......
..|......|......
..|......|......
..|......|......
..|......|......
..|......|......
..|......|......
..|......|......
..|......|......
..|......|......
..|......|......
..|......|......
..|E-5.v1|......
..|......|......
..|......|......
..|......|......
..|......|......
..|......|......
..|===...|......
..|......|......
..|......|......
..|......|......
..|......|......
..|......|......
..|E-6.v1|......
..|......|......
..|......|......
..|......|......
..|......|......
..|......|......
..|......|......
..|......|......
..|......|......
..|......|......
..|......|......
..|......|......
..|E-5.v1|......
..|......|......
..|......|......
..|......|......
..|......|......
..|......|......
..|===...|......
..|......|......
..|......|......
..|......|......
..|......|......
..|......|......
..|E-6.v1|......
..|......|......
..|......|......
..|......|......
..|......|......
..|......|......
..|......|......
..|......|......
..|......|......
..|......|......
..|......|......
..|......|......
..|E-5.v1|......
..|......|......
..|......|......
..|......|......
..|......|......
..|......|......
..|===...|......
..|......|......
..|......|......
..|......|......
..|......|......
..|......|......
..|E-6.v1|......
..|......|......
..|......|......
..|......|......
..|......|......
..|......|......
..|......|......
..|......|......
..|......|......
..|......|......
..|......|......
..|......|......
..|E-5.v1|......
..|......|......
..|......|......
..|......|......
..|......|......
..|......|......
..|===...|......
..|......|......
..|......|......
..|......|......
..|......|......
..|......|......
..|E-6.v1|......
..|......|......
..|......|......
..|......|......
..|......|......
..|......|......
..|......|......
..|......|......
..|......|......
..|......|......
..|......|......
..|......|......
..|E-5.v1|......
..|......|......
..|......|......
..|......|......
..|......|......
..|......|......
..|===...|......
..|......|......
..|......|......
..|......|......
..|......|......
..|......|......
..|E-6.v1|......
..|......|......
..|......|......
..|......|......
..|......|......
..|......|......
..|......|......
..|......|......
..|......|......
..|......|......
..|......|......
..|......|......
..|E-5.v1|......
..|......|......
..|......|......
..|......|......
..|......|......
..|......|......
..|===...|......
..|......|......
..|......|......
..|......|......
..|......|......
..|......|......
..|E-6.v1|......
..|......|......
..|......|......
..|......|......
..|......|......
..|......|......
..|......|......
..|......|......
..|......|......
..|......|......
..|......|......
..|......|......
..|E-5.v1|......
..|......|......
..|......|......
..|......|......
..|......|......
..|......|......
..|===...|......
..|......|......
..|......|......
..|......|......
..|......|......
..|......|......
..|E-6.v1|......
..|......|......
..|......|......
..|......|......
..|......|......
..|......|......
..|......|......
..|......|......
..|......|......
..|......|......
..|......|......
..|......|......
..|E-5.v3|......
..|......|......
..|......|......
..|......|......
..|......|......
..|......|......
..|F#5.v3|......
..|......|......
..|......|......
..|......|......
..|......|......
..|......|......
..|G-5.v3|......
..|......|......
..|......|......
..|......|......
..|......|......
..|......|......
..|F#5.v3|......
..|......|......
..|......|......
..|......|......
..|......|......
..|......|......
..|A-5.v3|......
..|......|......
..|......|......
..|......|......
..|......|......
..|......|......
..|B-5.v3|......
..|......|......
..|......|......
..|......|......
..|......|......
..|......|......
..|A-5.v3|......
..|......|......
..|......|......
..|......|......
..|......|......
..|......|......
..|G-5.v3|......
..|......|......
..|......|......
..|......|......
..|......|......
..|......|......
..|F#5.v3|......
..|......|......
..|......|......
..|......|......
..|......|......
..|......|......
..|D-5.v3|......
..|......|......
..|......|......
..|......|......
..|......|......
..|......|......
..|E-6.v1|......
..|......|......
..|......|......
..|......|......
..|......|......
..|......|......
..|......|......
..|......|......
..|......|......
..|......|......
..|......|......
..|......|......
..|E-5.v1|......
..|......|......
..|......|......
..|......|......
..|......|......
..|......|......
..|===...|......
..|......|......
..|......|......
..|......|......
..|......|......
..|......|......
..|E-6.v1|......
..|......|......
..|......|......
..|......|......
..|......|......
..|......|......
..|......|......
..|......|......
..|......|......
..|......|......
..|......|......
..|......|......
..|E-5.v1|......
..|......|......
..|......|......
..|......|......
..|......|......
..|......|......
..|===...|......
..|......|......
..|......|......
..|......|......
..|......|......
..|......|......
..|E-6.v1|......
..|......|......
..|......|......
..|......|......
..|......|......
..|......|......
..|......|......
..|......|......
..|......|......
..|......|......
..|......|......
..|......|......
..|E-5.v1|......
..|......|......
..|......|......
..|......|......
..|......|......
..|......|......
..|===...|......
..|......|......
..|......|......
..|......|......
..|......|......
..|......|......
..|E-6.v1|......
..|......|......
..|......|......
..|......|......
..|......|......
..|......|......
..|......|......
..|......|......
..|......|......
..|......|......
..|......|......
..|......|......
..|E-5.v1|......
..|......|......
..|......|......
..|......|......
..|......|......
..|......|......
..|===...|......
..|......|......
..|......|......
..|......|......
..|......|......
..|......|......
..|E-6.v1|......
..|......|......
..|......|......
..|......|......
..|......|......
..|......|......
..|......|......
..|......|......
..|......|......
..|......|......
..|......|......
..|......|......
..|E-5.v1|......
..|......|......
..|......|......
..|......|......
..|......|......
..|......|......
..|===...|......
..|......|......
..|......|......
..|......|......
..|......|......
..|......|......
..|E-6.v1|......
..|......|......
..|......|......
..|......|......
..|......|......
..|......|......
..|......|......
..|......|......
..|......|......
..|......|......
..|......|......
..|......|......
..|E-5.v1|......
..|......|......
..|......|......
..|......|......
..|......|......
..|......|......
..|===...|......
..|......|......
..|......|......
..|......|......
..|......|......
..|......|......
..|E-6.v1|......
..|......|......
..|......|......
..|......|......
..|......|......
..|......|......
..|......|......
..|......|......
..|......|......
..|......|......
..|......|......
..|......|......
..|E-5.v1|......
..|......|......
..|......|......
..|......|......
..|......|......
..|......|......
..|===...|......
..|......|......
..|......|......
..|......|......
..|......|......
..|......|......
..|E-6.v1|......
..|......|......
..|......|......
..|......|......
..|......|......
..|......|......
..|......|......
..|......|......
..|......|......
..|......|......
..|......|......
..|......|......
..|E-5.v1|......
..|......|......
..|......|......
..|......|......
..|......|......
..|......|......
..|===...|......
..|......|......
..|......|......
..|......|......
..|......|......
..|......|......
..|E-6.v1|......
..|......|......
..|......|......
..|......|......
..|......|......
..|......|......
..|......|......
..|......|......
..|......|......
..|......|......
..|......|......
..|......|......
..|E-5.v1|......
..|......|......
..|......|......
..|......|......
..|......|......
..|......|......
..|===...|......
..|......|......
..|......|......
..|......|......
..|......|......
..|......|......
..|E-6.v1|......
..|......|......
..|......|......
..|......|......
..|......|......
..|......|......
..|......|......
..|......|......
..|......|......
..|......|......
..|......|......
..|......|......
..|E-5.v1|......
..|......|......
..|......|......
..|......|......
..|......|......
..|......|......
..|===...|......
..|......|......
..|......|......
..|......|......
..|......|......
..|......|......
..|E-6.v1|......
..|......|......
..|......|......
..|......|......
..|......|......
..|......|......
..|......|......
..|......|......
..|......|......
..|......|......
..|......|......
..|......|......
..|E-5.v1|......
..|......|......
..|......|......
..|......|......
..|......|......
..|......|......
..|===...|......
..|......|......
..|......|......
..|......|......
..|......|......
..|......|......
..|E-6.v1|......
..|......|......
..|......|......
..|......|......
..|......|......
..|......|......
..|......|......
..|......|......
..|......|......
..|......|......
..|......|......
..|......|......
..|E-5.v1|......
..|......|......
..|......|......
..|......|......
..|......|......
..|......|......
..|===...|......
..|......|......
..|......|......
..|......|......
..|......|......
..|......|......
..|E-6.v1|......
..|......|......
..|......|......
..|......|......
..|......|......
..|......|......
..|......|......
..|......|......
..|......|......
..|......|......
..|......|......
..|......|......
..|E-5.v1|......
..|......|......
..|......|......
..|......|......
..|......|......
..|......|......
..|===...|......
..|......|......
..|......|......
..|......|......
..|......|......
..|......|......
..|E-5.v3|......
..|......|......
..|......|......
..|......|......
..|......|......
..|......|......
..|E-5.v2|......
..|......|......
..|......|......
..|......|......
..|......|......
..|......|......
..|F#5.v3|......
..|......|......
..|......|......
..|......|......
..|......|......
..|......|......
..|F#5.v2|......
..|......|......
..|......|......
..|......|......
..|......|......
..|......|......
..|A-5.v3|......
..|......|......
..|......|......
..|......|......
..|......|......
..|......|......
..|B-5.v3|......
..|......|......
..|......|......
..|......|......
..|......|......
..|......|......
..|A-5.v3|......
..|......|......
..|......|......
..|......|......
..|......|......
..|......|......
..|G-5.v3|......
..|......|......
..|......|......
..|......|......
..|......|......
..|......|......
..|F#5.v3|......
..|......|......
..|......|......
..|......|......
..|......|......
..|......|......
..|E-5.v3|......
..|......|......
..|......|......
..|......|......
..|......|......
..|......|......
..|D-5.v2|......
..|......|......
..|......|......
..|......|......
..|......|......
..|......|......
..|B-4.v2|......
..|......|......
..|......|......
..|......|......
..|......|......
..|......|......
..|E-4.v2|......
..|......|......
..|......|......
..|......|......
..|......|......
..|......|......
..|F#4.v2|......
..|......|......
..|......|......
..|......|......
..|......|......
..|......|......
..|G-4.v2|......
..|......|......
..|......|......
..|......|......
..|......|......
..|......|......
..|G#4.v2|......
..|......|......
..|......|......
..|......|......
..|......|......
..|......|......
..|A-4.v2|......
..|......|......
..|......|......
..|......|......
..|......|......
..|......|......
..|A#4.v3|......
..|......|......
..|......|......
..|......|......
..|......|......
..|......|......
..|B-4.v3|......
..|......|......
..|......|......
..|......|......
..|......|......
..|......|......
..|C-5.v3|......
..|......|......
..|......|......
..|......|......
..|......|......
..|......|......
..|===...|......
#join
#unk6 7
#volume 46
..|E-4.v3|......
..|......|......
..|......|......
..|......|......
..|......|......
..|......|......
..|===...|G-4.v3
..|......|......
..|......|......
..|......|......
..|......|......
..|......|......
..|......|B-4.v2
..|......|......
..|......|......
..|......|......
..|......|......
..|......|......
..|......|E-5.v2
..|......|......
..|......|......
..|......|......
..|......|......
..|......|......
..|......|G-5.v2
..|......|......
..|......|......
..|......|......
..|......|......
..|......|......
..|......|E-5.v2
..|......|......
..|......|......
..|......|......
..|......|......
..|......|......
..|......|B-4.v3
..|......|......
..|......|......
..|......|......
..|......|......
..|......|......
..|......|G-4.v3
..|......|......
..|......|......
..|......|......
..|......|......
..|......|......
..|......|E-4.v3
..|......|......
..|......|......
..|......|......
..|......|......
..|......|......
..|......|G-4.v3
..|......|......
..|......|......
..|......|......
..|......|......
..|......|......
..|......|B-4.v3
..|......|......
..|......|......
..|......|......
..|......|......
..|......|......
..|......|D-5.v2
..|......|......
..|......|......
..|......|......
..|......|......
..|......|......
..|......|F#5.v2
..|......|......
..|......|......
..|......|......
..|......|......
..|......|......
..|......|D-5.v2
..|......|......
..|......|......
..|......|......
..|......|......
..|......|......
..|......|C-5.v3
..|......|......
..|......|......
..|......|......
..|......|......
..|......|......
..|......|G-4.v3
..|......|......
..|......|......
..|......|......
..|......|......
..|......|......
..|......|E-4.v3
..|......|......
..|......|......
..|......|......
..|......|......
..|......|......
..|......|G-4.v3
..|......|......
..|......|......
..|......|......
..|......|......
..|......|......
..|......|C-5.v3
..|......|......
..|......|......
..|......|......
..|......|......
..|......|......
..|......|E-5.v2
..|......|......
..|......|......
..|......|......
..|......|......
..|......|......
..|......|G-5.v2
..|......|......
..|......|......
..|......|......
..|......|......
..|......|......
..|......|E-5.v2
..|......|......
..|......|......
..|......|......
..|......|......
..|......|......
..|......|C-5.v3
..|......|......
..|......|......
..|......|......
..|......|......
..|......|......
..|......|G-4.v3
..|......|......
..|......|......
..|......|......
..|......|......
..|......|......
..|......|E-4.v3
..|......|......
..|......|......
..|......|......
..|......|......
..|......|......
..|......|G-4.v3
..|......|......
..|......|......
..|......|......
..|......|......
..|......|......
..|......|C-5.v3
..|......|......
..|......|......
..|......|......
..|......|......
..|......|......
..|......|E-5.v2
..|......|......
..|......|......
..|......|......
..|......|......
..|......|......
..|......|G-5.v2
..|......|......
..|......|......
..|......|......
..|......|......
..|......|......
..|......|E-5.v2
..|......|......
..|......|......
..|......|......
..|......|......
..|......|......
..|......|C-5.v3
..|......|......
..|......|......
..|......|......
..|......|......
..|......|......
..|......|G-4.v3
..|......|......
..|......|......
..|......|......
..|......|......
..|......|......
..|......|E-4.v3
..|......|......
..|......|......
..|......|......
..|......|......
..|......|......
..|......|F#4.v3
..|......|......
..|......|......
..|......|......
..|......|......
..|......|......
..|......|A-4.v3
..|......|......
..|......|......
..|......|......
..|......|......
..|......|......
..|......|D-5.v2
..|......|......
..|......|......
..|......|......
..|......|......
..|......|......
..|......|F#5.v2
..|......|......
..|......|......
..|......|......
..|......|......
..|......|......
..|......|D-5.v2
..|......|......
..|......|......
..|......|......
..|......|......
..|......|......
..|......|A-4.v3
..|......|......
..|......|......
..|......|......
..|......|......
..|......|......
..|......|F#4.v3
..|......|......
..|......|......
..|......|......
..|......|......
..|......|......
..|......|D-4.v3
..|......|......
..|......|......
..|......|......
..|......|......
..|......|......
..|......|F#4.v2
..|......|......
..|......|......
..|......|......
..|......|......
..|......|......
..|......|A-4.v2
..|......|......
..|......|......
..|......|......
..|......|......
..|......|......
..|......|D-5.v2
..|......|......
..|......|......
..|......|......
..|......|......
..|......|......
..|......|F#5.v2
..|......|......
..|......|......
..|......|......
..|......|......
..|......|......
..|......|D-5.v2
..|......|......
..|......|......
..|......|......
..|......|......
..|......|......
..|......|A-4.v3
..|......|......
..|......|......
..|......|......
..|......|......
..|......|......
..|......|F#4.v3
..|......|......
..|......|......
..|......|......
..|......|......
..|......|......
..|......|E-4.v3
..|......|......
..|......|......
..|......|......
..|......|......
..|......|......
..|......|G-4.v2
..|......|......
..|......|......
..|......|......
..|......|......
..|......|......
..|......|B-4.v2
..|......|......
..|......|......
..|......|......
..|......|......
..|......|......
..|......|D-5.v2
..|......|......
..|......|......
..|......|......
..|......|......
..|......|......
..|......|G-5.v2
..|......|......
..|......|......
..|......|......
..|......|......
..|......|......
..|......|D-5.v2
..|......|......
..|......|......
..|......|......
..|......|......
..|......|......
..|......|A-4.v3
..|......|......
..|......|......
..|......|......
..|......|......
..|......|......
..|......|F#4.v3
..|......|......
..|......|......
..|......|......
..|......|......
..|......|......
..|......|D-4.v3
..|......|......
..|......|......
..|......|......
..|......|......
..|......|......
..|......|E-4.v3
..|......|......
..|......|......
..|......|......
..|......|......
..|......|......
..|......|F#4.v3
..|......|......
..|......|......
..|......|......
..|......|......
..|......|......
..|......|A-4.v2
..|......|......
..|......|......
..|......|......
..|......|......
..|......|......
..|......|C-5.v2
..|......|......
..|......|......
..|......|......
..|......|......
..|......|......
..|......|D-5.v3
..|......|......
..|......|......
..|......|......
..|......|......
..|......|......
..|......|G-5.v3
..|......|......
..|......|......
..|......|......
..|......|......
..|......|......
..|......|A-5.v3
..|......|......
..|......|......
..|......|......
..|......|......
..|......|......
..|......|E-4.v3
..|......|......
..|......|......
..|......|......
..|......|......
..|......|......
..|......|G-4.v3
..|......|......
..|......|......
..|......|......
..|......|......
..|......|......
..|......|B-4.v3
..|......|......
..|......|......
..|......|......
..|......|......
..|......|......
..|......|E-5.v2
..|......|......
..|......|......
..|......|......
..|......|......
..|......|......
..|......|G-5.v2
..|......|......
..|......|......
..|......|......
..|......|......
..|......|......
..|......|E-5.v2
..|......|......
..|......|......
..|......|......
..|......|......
..|......|......
..|......|B-4.v3
..|......|......
..|......|......
..|......|......
..|......|......
..|......|......
..|......|G-4.v3
..|......|......
..|......|......
..|......|......
..|......|......
..|......|......
..|......|E-4.v3
..|......|......
..|......|......
..|......|......
..|......|......
..|......|......
..|......|G-4.v3
..|......|......
..|......|......
..|......|......
..|......|......
..|......|......
..|......|B-4.v3
..|......|......
..|......|......
..|......|......
..|......|......
..|......|......
..|......|D-5.v3
..|......|......
..|......|......
..|......|......
..|......|......
..|......|......
..|......|F#5.v2
..|......|......
..|......|......
..|......|......
..|......|......
..|......|......
..|......|D-5.v2
..|......|......
..|......|......
..|......|......
..|......|......
..|......|......
..|......|C-5.v3
..|......|......
..|......|......
..|......|......
..|......|......
..|......|......
..|......|G-4.v3
..|......|......
..|......|......
..|......|......
..|......|......
..|......|......
..|......|E-4.v3
..|......|......
..|......|......
..|......|......
..|......|......
..|......|......
..|......|G-4.v3
..|......|......
..|......|......
..|......|......
..|......|......
..|......|......
..|......|C-5.v3
..|......|......
..|......|......
..|......|......
..|......|......
..|......|......
..|......|E-5.v2
..|......|......
..|......|......
..|......|......
..|......|......
..|......|......
..|......|G-5.v2
..|......|......
..|......|......
..|......|......
..|......|......
..|......|......
..|......|E-5.v2
..|......|......
..|......|......
..|......|......
..|......|......
..|......|......
..|......|C-5.v2
..|......|......
..|......|......
..|......|......
..|......|......
..|......|......
..|......|G-4.v3
..|......|......
..|......|......
..|......|......
..|......|......
..|......|......
..|......|E-4.v3
..|......|......
..|......|......
..|......|......
..|......|......
..|......|......
..|......|G-4.v3
..|......|......
..|......|......
..|......|......
..|......|......
..|......|......
..|......|C-5.v2
..|......|......
..|......|......
..|......|......
..|......|......
..|......|......
..|......|E-5.v2
..|......|......
..|......|......
..|......|......
..|......|......
..|......|......
..|......|G-5.v2
..|......|......
..|......|......
..|......|......
..|......|......
..|......|......
..|......|E-5.v3
..|......|......
..|......|......
..|......|......
..|......|......
..|......|......
..|......|C-5.v3
..|......|......
..|......|......
..|......|......
..|......|......
..|......|......
..|......|G-4.v3
..|......|......
..|......|......
..|......|......
..|......|......
..|......|......
..|......|E-4.v3
..|......|......
..|......|......
..|......|......
..|......|......
..|......|......
..|......|F#4.v3
..|......|......
..|......|......
..|......|......
..|......|......
..|......|......
..|......|A-4.v3
..|......|......
..|......|......
..|......|......
..|......|......
..|......|......
..|......|D-5.v2
..|......|......
..|......|......
..|......|......
..|......|......
..|......|......
..|......|F#5.v2
..|......|......
..|......|......
..|......|......
..|......|......
..|......|......
..|......|D-5.v2
..|......|......
..|......|......
..|......|......
..|......|......
..|......|......
..|......|A-4.v3
..|......|......
..|......|......
..|......|......
..|......|......
..|......|......
..|......|F#4.v3
..|......|......
..|......|......
..|......|......
..|......|......
..|......|......
..|......|D-4.v3
..|......|......
..|......|......
..|......|......
..|......|......
..|......|......
..|......|F#4.v3
..|......|......
..|......|......
..|......|......
..|......|......
..|......|......
..|......|A-4.v2
..|......|......
..|......|......
..|......|......
..|......|......
..|......|......
..|......|D-5.v2
..|......|......
..|......|......
..|......|......
..|......|......
..|......|......
..|......|F#5.v2
..|......|......
..|......|......
..|......|......
..|......|......
..|......|......
..|......|D-5.v2
..|......|......
..|......|......
..|......|......
..|......|......
..|......|......
..|......|A-4.v2
..|......|......
..|......|......
..|......|......
..|......|......
..|......|......
..|......|F#4.v3
..|......|......
..|......|......
..|......|......
..|......|......
..|......|......
..|......|E-4.v3
..|......|......
..|......|......
..|......|......
..|......|......
..|......|......
..|......|G-4.v3
..|......|......
..|......|......
..|......|......
..|......|......
..|......|......
..|......|B-4.v2
..|......|......
..|......|......
..|......|......
..|......|......
..|......|......
..|......|D-5.v2
..|......|......
..|......|......
..|......|......
..|......|......
..|......|......
..|......|G-5.v2
..|......|......
..|......|......
..|......|......
..|......|......
..|......|......
..|......|D-5.v2
..|......|......
..|......|......
..|......|......
..|......|......
..|......|......
..|......|A-4.v3
..|......|......
..|......|......
..|......|......
..|......|......
..|......|......
..|......|F#4.v3
..|......|......
..|......|......
..|......|......
..|......|......
..|......|......
..|......|B-3.v3
..|......|......
..|......|......
..|......|......
..|......|......
..|......|......
..|......|C-4.v2
..|......|......
..|......|......
..|......|......
..|......|......
..|......|......
..|......|D-4.v2
..|......|......
..|......|......
..|......|......
..|......|......
..|......|......
..|......|E-4.v3
..|......|......
..|......|......
..|......|......
..|......|......
..|......|......
..|......|F#4.v3
..|......|......
..|......|......
..|......|......
..|......|......
..|......|......
..|......|G-4.v3
..|......|......
..|......|......
..|......|......
..|......|......
..|......|......
..|......|A-4.v3
..|......|......
..|......|......
..|......|......
..|......|......
..|......|......
..|......|B-4.v3
..|......|......
..|......|......
..|......|......
..|......|......
..|......|......
..|......|===...
#join
#inst 4
#unk6 7
#volume 5a
..|......|C-5.v2
..|......|......
..|......|......
..|......|......
..|......|......
..|......|......
..|G-4.v2|===...
..|......|......
..|......|......
..|......|......
..|......|......
..|......|......
..|E-4.v2|......
..|......|......
..|......|......
..|......|......
..|......|......
..|......|......
..|C-4.v3|......
..|......|......
..|......|......
..|......|......
..|......|......
..|......|......
..|E-4.v2|......
..|......|......
..|......|......
..|......|......
..|......|......
..|......|......
..|G-4.v2|......
..|......|......
..|......|......
..|......|......
..|......|......
..|......|......
..|C-5.v2|......
..|......|......
..|......|......
..|......|......
..|......|......
..|......|......
..|E-5.v2|......
..|......|......
..|......|......
..|......|......
..|......|......
..|......|......
..|G-5.v2|......
..|......|......
..|......|......
..|......|......
..|......|......
..|......|......
..|E-5.v2|......
..|......|......
..|......|......
..|......|......
..|......|......
..|......|......
..|C-5.v2|......
..|......|......
..|......|......
..|......|......
..|......|......
..|......|......
..|G-4.v2|......
..|......|......
..|......|......
..|......|......
..|......|......
..|......|......
..|E-4.v2|......
..|......|......
..|......|......
..|......|......
..|......|......
..|......|......
..|G-4.v2|......
..|......|......
..|......|......
..|......|......
..|......|......
..|......|......
..|C-5.v2|......
..|......|......
..|......|......
..|......|......
..|......|......
..|......|......
..|E-5.v2|......
..|......|......
..|......|......
..|......|......
..|......|......
..|......|......
..|D-5.v2|......
..|......|......
..|......|......
..|......|......
..|......|......
..|......|......
..|A-4.v2|......
..|......|......
..|......|......
..|......|......
..|......|......
..|......|......
..|F#4.v3|......
..|......|......
..|......|......
..|......|......
..|......|......
..|......|......
..|D-4.v3|......
..|......|......
..|......|......
..|......|......
..|......|......
..|......|......
..|F#4.v3|......
..|......|......
..|......|......
..|......|......
..|......|......
..|......|......
..|A-4.v3|......
..|......|......
..|......|......
..|......|......
..|......|......
..|......|......
..|C-5.v2|......
..|......|......
..|......|......
..|......|......
..|......|......
..|......|......
..|F#5.v2|......
..|......|......
..|......|......
..|......|......
..|......|......
..|......|......
..|A-5.v2|......
..|......|......
..|......|......
..|......|......
..|......|......
..|......|......
..|F#5.v2|......
..|......|......
..|......|......
..|......|......
..|......|......
..|......|......
..|D-5.v2|......
..|......|......
..|......|......
..|......|......
..|......|......
..|......|......
..|A-4.v3|......
..|......|......
..|......|......
..|......|......
..|......|......
..|......|......
..|F#4.v3|......
..|......|......
..|......|......
..|......|......
..|......|......
..|......|......
..|A-4.v3|......
..|......|......
..|......|......
..|......|......
..|......|......
..|......|......
..|D-5.v2|......
..|......|......
..|......|......
..|......|......
..|......|......
..|......|......
..|F#5.v2|......
..|......|......
..|......|......
..|......|......
..|......|......
..|......|......
..|C-5.v2|......
..|......|......
..|......|......
..|......|......
..|......|......
..|......|......
..|G-4.v2|......
..|......|......
..|......|......
..|......|......
..|......|......
..|......|......
..|E-4.v3|......
..|......|......
..|......|......
..|......|......
..|......|......
..|......|......
..|C-4.v3|......
..|......|......
..|......|......
..|......|......
..|......|......
..|......|......
..|E-4.v3|......
..|......|......
..|......|......
..|......|......
..|......|......
..|......|......
..|G-4.v2|......
..|......|......
..|......|......
..|......|......
..|......|......
..|......|......
..|C-5.v2|......
..|......|......
..|......|......
..|......|......
..|......|......
..|......|......
..|E-5.v2|......
..|......|......
..|......|......
..|......|......
..|......|......
..|......|......
..|G-5.v2|......
..|......|......
..|......|......
..|......|......
..|......|......
..|......|......
..|E-5.v2|......
..|......|......
..|......|......
..|......|......
..|......|......
..|......|......
..|C-5.v2|......
..|......|......
..|......|......
..|......|......
..|......|......
..|......|......
..|G-4.v2|......
..|......|......
..|......|......
..|......|......
..|......|......
..|......|......
..|E-4.v3|......
..|......|......
..|......|......
..|......|......
..|......|......
..|......|......
..|G-4.v3|......
..|......|......
..|......|......
..|......|......
..|......|......
..|......|......
..|C-5.v2|......
..|......|......
..|......|......
..|......|......
..|......|......
..|......|......
..|E-5.v2|......
..|......|......
..|......|......
..|......|......
..|......|......
..|......|......
..|D-5.v2|......
..|......|......
..|......|......
..|......|......
..|......|......
..|......|......
..|A-4.v2|......
..|......|......
..|......|......
..|......|......
..|......|......
..|......|......
..|F#4.v2|......
..|......|......
..|......|......
..|......|......
..|......|......
..|......|......
..|D-4.v3|......
..|......|......
..|......|......
..|......|......
..|......|......
..|......|......
..|F#4.v2|......
..|......|......
..|......|......
..|......|......
..|......|......
..|......|......
..|A-4.v2|......
..|......|......
..|......|......
..|......|......
..|......|......
..|......|......
..|C-5.v2|......
..|......|......
..|......|......
..|......|......
..|......|......
..|......|......
..|F#5.v2|......
..|......|......
..|......|......
..|......|......
..|......|......
..|......|......
..|A-5.v2|......
..|......|......
..|......|......
..|......|......
..|......|......
..|......|......
..|F#5.v2|......
..|......|......
..|......|......
..|......|......
..|......|......
..|......|......
..|D-5.v2|......
..|......|......
..|......|......
..|......|......
..|......|......
..|......|......
..|A-4.v3|......
..|......|......
..|......|......
..|......|......
..|......|......
..|......|......
..|F#4.v3|......
..|......|......
..|......|......
..|......|......
..|......|......
..|......|......
..|A-4.v3|......
..|......|......
..|......|......
..|......|......
..|......|......
..|......|......
..|D-5.v2|......
..|......|......
..|......|......
..|......|......
..|......|......
..|......|......
..|F#5.v2|......
..|......|......
..|......|......
..|......|......
..|......|......
..|......|......
..|===...|......
#join
#inst 1
..|B-4.v3|......
..|......|......
..|......|......
..|......|......
..|......|......
..|......|......
..|===...|F#5.v3
..|......|......
..|......|......
..|......|......
..|......|......
..|......|......
..|......|G-5.v3
..|......|......
..|......|......
..|......|......
..|......|......
..|......|......
..|......|F#5.v3
..|......|......
..|......|......
..|......|......
..|......|......
..|......|......
..|......|B-4.v3
..|......|......
..|......|......
..|......|......
..|......|......
..|......|......
..|......|G-5.v3
..|......|......
..|......|......
..|......|......
..|......|......
..|......|......
..|......|A-5.v3
..|......|......
..|......|......
..|......|......
..|......|......
..|......|......
..|......|G-5.v3
..|......|......
..|......|......
..|......|......
..|......|......
..|......|......
..|......|B-4.v3
..|......|......
..|......|......
..|......|......
..|......|......
..|......|......
..|......|A-5.v3
..|......|......
..|......|......
..|......|......
..|......|......
..|......|......
..|......|B-5.v3
..|......|......
..|......|......
..|......|......
..|......|......
..|......|......
..|......|A-5.v3
..|......|......
..|......|......
..|......|......
..|......|......
..|......|......
..|......|B-4.v3
..|......|......
..|......|......
..|......|......
..|......|......
..|......|......
..|......|G-5.v3
..|......|......
..|......|......
..|......|......
..|......|......
..|......|......
..|......|A-5.v3
..|......|......
..|......|......
..|......|......
..|......|......
..|......|......
..|......|G-5.v3
..|......|......
..|......|......
..|......|......
..|......|......
..|......|......
..|......|A-4.v3
..|......|......
..|......|......
..|......|......
..|......|......
..|......|......
..|......|F#5.v3
..|......|......
..|......|......
..|......|......
..|......|......
..|......|......
..|......|G-5.v3
..|......|......
..|......|......
..|......|......
..|......|......
..|......|......
..|......|F#5.v3
..|......|......
..|......|......
..|......|......
..|......|......
..|......|......
..|......|A-4.v3
..|......|......
..|......|......
..|......|......
..|......|......
..|......|......
..|......|G-5.v3
..|......|......
..|......|......
..|......|......
..|......|......
..|......|......
..|......|A-5.v3
..|......|......
..|......|......
..|......|......
..|......|......
..|......|......
..|......|G-5.v3
..|......|......
..|......|......
..|......|......
..|......|......
..|......|......
..|......|A-4.v3
..|......|......
..|......|......
..|......|......
..|......|......
..|......|......
..|......|A-5.v3
..|......|......
..|......|......
..|......|......
..|......|......
..|......|......
..|......|B-5.v3
..|......|......
..|......|......
..|......|......
..|......|......
..|......|......
..|......|A-5.v3
..|......|......
..|......|......
..|......|......
..|......|......
..|......|......
..|......|A-4.v3
..|......|......
..|......|......
..|......|......
..|......|......
..|......|......
..|......|G-5.v3
..|......|......
..|......|......
..|......|......
..|......|......
..|......|......
..|......|A-5.v3
..|......|......
..|......|......
..|......|......
..|......|......
..|......|......
..|......|G-5.v3
..|......|......
..|......|......
..|......|......
..|......|......
..|......|......
..|......|A-4.v3
..|......|......
..|......|......
..|......|......
..|......|......
..|......|......
..|......|E-5.v3
..|......|......
..|......|......
..|......|......
..|......|......
..|......|......
..|......|G-5.v3
..|......|......
..|......|......
..|......|......
..|......|......
..|......|......
..|......|E-5.v3
..|......|......
..|......|......
..|......|......
..|......|......
..|......|......
..|......|A-4.v3
..|......|......
..|......|......
..|......|......
..|......|......
..|......|......
..|......|G-5.v3
..|......|......
..|......|......
..|......|......
..|......|......
..|......|......
..|......|A-5.v3
..|......|......
..|......|......
..|......|......
..|......|......
..|......|......
..|......|G-5.v3
..|......|......
..|......|......
..|......|......
..|......|......
..|......|......
..|......|A-4.v3
..|......|......
..|......|......
..|......|......
..|......|......
..|......|......
..|......|A-5.v3
..|......|......
..|......|......
..|......|......
..|......|......
..|......|......
..|......|B-5.v3
..|......|......
..|......|......
..|......|......
..|......|......
..|......|......
..|......|A-5.v3
..|......|......
..|......|......
..|......|......
..|......|......
..|......|......
..|......|A-4.v3
..|......|......
..|......|......
..|......|......
..|......|......
..|......|......
..|......|B-5.v3
..|......|......
..|......|......
..|......|......
..|......|......
..|......|......
..|......|C-6.v3
..|......|......
..|......|......
..|......|......
..|......|......
..|......|......
..|......|B-5.v3
..|......|......
..|......|......
..|......|......
..|......|......
..|......|......
..|......|A-5.v3
..|......|......
..|......|......
..|......|......
..|......|......
..|......|......
..|......|G-5.v3
..|......|......
..|......|......
..|......|......
..|......|......
..|......|......
..|......|F#5.v3
..|......|......
..|......|......
..|......|......
..|......|......
..|......|......
..|......|E-5.v3
..|......|......
..|......|......
..|......|......
..|......|......
..|......|......
..|......|D-5.v3
..|......|......
..|......|......
..|......|......
..|......|......
..|......|......
..|......|C-5.v3
..|......|......
..|......|......
..|......|......
..|......|......
..|......|......
..|......|B-4.v3
..|......|......
..|......|......
..|......|......
..|......|......
..|......|......
..|......|C-5.v3
..|......|......
..|......|......
..|......|......
..|......|......
..|......|......
..|......|E-5.v3
..|......|......
..|......|......
..|......|......
..|......|......
..|......|......
..|......|===...
..|......|......
..|......|......
..|......|......
..|......|......
..|......|......
..|E-5.v3|......
..|......|......
..|......|......
..|......|......
..|......|......
..|......|......
..|F#5.v3|......
..|......|......
..|......|......
..|......|......
..|......|......
..|......|......
..|G-5.v3|......
..|......|......
..|......|......
..|......|......
..|......|......
..|......|......
..|F#5.v3|......
..|......|......
..|......|......
..|......|......
..|......|......
..|......|......
..|E-5.v3|......
..|......|......
..|......|......
..|......|......
..|......|......
..|......|......
..|D-5.v3|......
..|......|......
..|......|......
..|......|......
..|......|......
..|......|......
..|===...|......
#halt
#halt
