#compressed
#unkc
#track 2
#inst 5
#unk6 10
#unk6 7
#pan 80
#volume 64
..|G-5.v3|......|......|......|......
..|......|......|......|......|......
..|......|......|......|......|......
..|......|......|......|......|......
..|......|......|......|......|......
..|......|......|......|......|......
..|G-5.v3|B-5.v3|......|......|......
..|......|......|......|......|......
..|......|......|......|......|......
..|......|......|......|......|......
..|......|......|......|......|......
..|......|......|......|......|......
..|G-5.v3|B-5.v3|......|......|......
..|......|......|......|......|......
..|......|......|......|......|......
..|......|......|......|......|......
..|......|......|......|......|......
..|......|......|......|......|......
..|G-5.v3|B-5.v3|......|......|......
..|......|......|......|......|......
..|......|......|......|......|......
..|......|......|......|......|......
..|......|......|......|......|......
..|......|......|......|......|......
..|G-5.v3|B-5.v3|......|......|......
..|......|......|......|......|......
..|......|......|......|......|......
..|......|......|......|......|......
..|......|......|......|......|......
..|......|......|......|......|......
..|===...|===...|......|......|......
..|......|......|......|......|......
..|......|......|......|......|......
..|......|......|......|......|......
..|......|......|......|......|......
..|......|......|......|......|......
..|......|......|......|......|......
..|......|......|......|......|......
..|......|......|......|......|......
..|......|......|......|......|......
..|......|......|......|......|......
..|......|......|......|......|......
..|......|......|......|......|......
..|......|......|......|......|......
..|......|......|......|......|......
..|......|......|......|......|......
..|......|......|......|......|......
..|......|......|......|......|......
..|......|......|......|......|......
..|......|......|......|......|......
..|......|......|......|......|......
..|......|......|......|......|......
..|......|......|......|......|......
..|......|......|......|......|......
..|......|......|......|......|......
..|......|......|......|......|......
..|......|......|......|......|......
..|......|......|......|......|......
..|......|......|......|......|......
..|......|......|......|......|......
..|F#5.v3|D-6.v3|......|......|......
..|......|......|......|......|......
..|......|......|......|......|......
..|......|......|......|......|......
..|......|......|......|......|......
..|......|......|......|......|......
..|......|......|......|......|......
..|......|......|......|......|......
..|......|......|......|......|......
..|......|......|......|......|......
..|......|......|......|......|......
..|......|......|......|......|......
..|===...|===...|......|......|......
..|......|......|......|......|......
..|......|......|......|......|......
..|......|......|......|......|......
..|......|......|......|......|......
..|......|......|......|......|......
..|......|......|......|......|......
..|......|......|......|......|......
..|......|......|......|......|......
..|......|......|......|......|......
..|......|......|......|......|......
..|......|......|......|......|......
..|G-5.v3|E-6.v3|......|......|......
..|......|......|......|......|......
..|......|......|......|......|......
..|......|......|......|......|......
..|......|......|......|......|......
..|......|......|......|......|......
..|......|......|......|......|......
..|......|......|......|......|......
..|......|......|......|......|......
..|......|......|......|......|......
..|......|......|......|......|......
..|......|......|......|......|......
..|===...|===...|......|......|......
..|......|......|......|......|......
..|......|......|......|......|......
..|......|......|......|......|......
..|......|......|......|......|......
..|......|......|......|......|......
..|......|......|......|......|......
..|......|......|......|......|......
..|......|......|......|......|......
..|......|......|......|......|......
..|......|......|......|......|......
..|......|......|......|......|......
..|......|......|......|......|......
..|......|......|......|......|......
..|......|......|......|......|......
..|......|......|......|......|......
..|......|......|......|......|......
..|......|......|......|......|......
..|......|......|......|......|......
..|......|......|......|......|......
..|......|......|......|......|......
..|......|......|......|......|......
..|......|......|......|......|......
..|......|......|......|......|......
..|......|......|......|......|......
..|......|......|......|......|......
..|......|......|......|......|......
..|......|......|......|......|......
..|......|......|......|......|......
..|......|......|......|......|......
..|......|......|......|......|......
..|......|......|......|......|......
..|......|......|......|......|......
..|......|......|......|......|......
..|......|......|......|......|......
..|......|......|......|......|......
..|......|......|......|......|......
..|......|......|......|......|......
..|......|......|......|......|......
..|......|......|......|......|......
..|......|......|......|......|......
..|......|......|......|......|......
..|......|......|......|......|......
..|......|......|......|......|......
..|......|......|......|......|......
..|......|......|......|......|......
..|......|......|......|......|......
..|......|......|......|......|......
..|......|......|......|......|......
..|......|......|......|......|......
..|......|......|......|......|......
..|......|......|......|......|......
..|......|......|......|......|......
..|......|......|......|......|......
..|......|......|......|......|......
..|......|......|......|......|......
..|......|......|......|......|......
..|......|......|......|......|......
..|......|......|......|......|......
..|......|......|......|......|......
..|A-5.v3|F#6.v3|......|......|......
..|......|......|......|......|......
..|......|......|......|......|......
..|......|......|......|......|......
..|......|......|......|......|......
..|......|......|......|......|......
..|......|......|......|......|......
..|......|......|......|......|......
..|......|......|......|......|......
..|......|......|......|......|......
..|......|......|......|......|......
..|......|......|......|......|......
..|===...|===...|......|......|......
..|......|......|......|......|......
..|......|......|......|......|......
..|......|......|......|......|......
..|......|......|......|......|......
..|......|......|......|......|......
..|......|......|......|......|......
..|......|......|......|......|......
..|......|......|......|......|......
..|......|......|......|......|......
..|......|......|......|......|......
..|......|......|......|......|......
..|F#5.v3|D-6.v3|......|......|......
..|......|......|......|......|......
..|......|......|......|......|......
..|......|......|......|......|......
..|......|......|......|......|......
..|......|......|......|......|......
..|......|......|......|......|......
..|......|......|......|......|......
..|......|......|......|......|......
..|......|......|......|......|......
..|......|......|......|......|......
..|......|......|......|......|......
..|===...|===...|......|......|......
..|......|......|......|......|......
..|......|......|......|......|......
..|......|......|......|......|......
..|......|......|......|......|......
..|......|......|......|......|......
..|......|......|......|......|......
..|......|......|......|......|......
..|......|......|......|......|......
..|......|......|......|......|......
..|......|......|......|......|......
..|......|......|......|......|......
..|......|......|......|......|......
..|......|......|......|......|......
..|......|......|......|......|......
..|......|......|......|......|......
..|......|......|......|......|......
..|......|......|......|......|......
..|......|......|......|......|......
..|......|......|......|......|......
..|......|......|......|......|......
..|......|......|......|......|......
..|......|......|......|......|......
..|......|......|......|......|......
..|......|......|......|......|......
..|......|......|......|......|......
..|......|......|......|......|......
..|......|......|......|......|......
..|......|......|......|......|......
..|......|......|......|......|......
..|......|......|......|......|......
..|......|......|......|......|......
..|......|......|......|......|......
..|......|......|......|......|......
..|......|......|......|......|......
..|......|......|......|......|......
..|......|......|......|......|......
..|......|......|......|......|......
..|......|......|......|......|......
..|......|......|......|......|......
..|......|......|......|......|......
..|......|......|......|......|......
..|......|......|......|......|......
..|......|......|......|......|......
..|......|......|......|......|......
..|......|......|......|......|......
..|......|......|......|......|......
..|......|......|......|......|......
..|......|......|......|......|......
..|......|......|......|......|......
..|......|......|......|......|......
..|......|......|......|......|......
..|......|......|......|......|......
..|......|......|......|......|......
..|......|......|......|......|......
..|......|......|......|......|......
..|......|......|......|......|......
..|......|......|......|......|......
..|......|......|......|......|......
..|......|......|......|......|......
..|......|......|......|......|......
..|......|......|......|......|......
..|......|......|......|......|......
..|......|......|......|......|......
..|......|......|......|......|......
..|......|......|......|......|......
..|......|......|......|......|......
..|......|......|......|......|......
..|......|......|......|......|......
..|......|......|......|......|......
..|......|......|......|......|......
..|......|......|......|......|......
..|......|......|......|......|......
..|......|......|......|......|......
..|......|......|......|......|......
..|......|......|......|......|......
..|......|......|......|......|......
..|......|......|......|......|......
..|......|......|......|......|......
..|......|......|......|......|......
..|......|......|......|......|......
..|......|......|......|......|......
..|......|......|......|......|......
..|......|......|......|......|......
..|......|......|......|......|......
..|......|......|......|......|......
..|......|......|......|......|......
..|......|......|......|......|......
..|......|......|......|......|......
..|......|......|......|......|......
..|......|......|......|......|......
..|......|......|......|......|......
..|......|......|......|......|......
..|......|......|......|......|......
..|......|......|......|......|......
..|......|......|......|......|......
..|......|......|......|......|......
..|......|......|......|......|......
..|......|......|......|......|......
..|......|......|......|......|......
..|......|......|......|......|......
..|......|......|......|......|......
..|......|......|......|......|......
..|......|......|......|......|......
..|......|......|......|......|......
..|......|......|......|......|......
..|......|......|......|......|......
..|......|......|......|......|......
..|G-5.v3|E-5.v2|......|......|......
..|......|......|......|......|......
..|......|......|......|......|......
..|......|......|......|......|......
..|......|......|......|......|......
..|......|......|......|......|......
..|......|......|......|......|......
..|......|......|......|......|......
..|......|......|......|......|......
..|......|......|......|......|......
..|......|......|......|......|......
..|......|......|......|......|......
..|G-5.v3|E-5.v3|......|......|......
..|......|......|......|......|......
..|......|......|......|......|......
..|......|......|......|......|......
..|......|......|......|......|......
..|......|......|......|......|......
..|......|......|......|......|......
..|......|......|......|......|......
..|......|......|......|......|......
..|......|......|......|......|......
..|......|......|......|......|......
..|......|......|......|......|......
..|A-5.v3|F#5.v3|......|......|......
..|......|......|......|......|......
..|......|......|......|......|......
..|......|......|......|......|......
..|......|......|......|......|......
..|......|......|......|......|......
..|......|......|......|......|......
..|......|......|......|......|......
..|......|......|......|......|......
..|......|......|......|......|......
..|......|......|......|......|......
..|......|......|......|......|......
..|A-5.v3|F#5.v3|......|......|......
..|......|......|......|......|......
..|......|......|......|......|......
..|......|......|......|......|......
..|......|......|......|......|......
..|......|......|......|......|......
..|......|......|......|......|......
..|......|......|......|......|......
..|......|......|......|......|......
..|......|......|......|......|......
..|......|......|......|......|......
..|......|......|......|......|......
..|......|......|......|......|......
..|......|......|......|......|......
..|......|......|......|......|......
..|......|......|......|......|......
..|......|......|......|......|......
..|......|......|......|......|......
..|......|......|......|......|......
..|......|......|......|......|......
..|......|......|......|......|......
..|......|......|......|......|......
..|......|......|......|......|......
..|......|......|......|......|......
..|B-5.v3|G-6.v3|......|......|......
..|......|......|......|......|......
..|......|......|......|......|......
..|......|......|......|......|......
..|......|......|......|......|......
..|......|......|......|......|......
..|C-6.v3|A-6.v3|......|......|......
..|......|......|......|......|......
..|......|......|......|......|......
..|......|......|......|......|......
..|......|......|......|......|......
..|......|......|......|......|......
..|B-5.v3|G-6.v3|......|......|......
..|......|......|......|......|......
..|......|......|......|......|......
..|......|......|......|......|......
..|......|......|......|......|......
..|......|......|......|......|......
..|A-5.v3|F#6.v3|......|......|......
..|......|......|......|......|......
..|......|......|......|......|......
..|......|......|......|......|......
..|......|......|......|......|......
..|......|......|......|......|......
..|G-5.v3|B-5.v3|......|......|......
..|......|......|......|......|......
..|......|......|......|......|......
..|......|......|......|......|......
..|......|......|......|......|......
..|......|......|......|......|......
..|G-5.v3|B-5.v3|......|......|......
..|......|......|......|......|......
..|......|......|......|......|......
..|......|......|......|......|......
..|......|......|......|......|......
..|......|......|......|......|......
..|G-5.v3|B-5.v3|......|......|......
..|......|......|......|......|......
..|......|......|......|......|......
..|......|......|......|......|......
..|......|......|......|......|......
..|......|......|......|......|......
..|G-5.v3|B-5.v3|......|......|......
..|......|......|......|......|......
..|......|......|......|......|......
..|......|......|......|......|......
..|......|......|......|......|......
..|......|......|......|......|......
..|G-5.v3|B-5.v3|......|......|......
..|......|......|......|......|......
..|......|......|......|......|......
..|......|......|......|......|......
..|......|......|......|......|......
..|......|......|......|......|......
..|===...|===...|......|......|......
..|......|......|......|......|......
..|......|......|......|......|......
..|......|......|......|......|......
..|......|......|......|......|......
..|......|......|......|......|......
..|......|......|......|......|......
..|......|......|......|......|......
..|......|......|......|......|......
..|......|......|......|......|......
..|......|......|......|......|......
..|......|......|......|......|......
..|......|......|......|......|......
..|......|......|......|......|......
..|......|......|......|......|......
..|......|......|......|......|......
..|......|......|......|......|......
..|......|......|......|......|......
..|......|......|......|......|......
..|......|......|......|......|......
..|......|......|......|......|......
..|......|......|......|......|......
..|......|......|......|......|......
..|......|......|......|......|......
..|......|......|......|......|......
..|......|......|......|......|......
..|......|......|......|......|......
..|......|......|......|......|......
..|......|......|......|......|......
..|......|......|......|......|......
..|F#5.v3|D-6.v3|......|......|......
..|......|......|......|......|......
..|......|......|......|......|......
..|......|......|......|......|......
..|......|......|......|......|......
..|......|......|......|......|......
..|......|......|......|......|......
..|......|......|......|......|......
..|......|......|......|......|......
..|......|......|......|......|......
..|......|......|......|......|......
..|......|......|......|......|......
..|===...|===...|......|......|......
..|......|......|......|......|......
..|......|......|......|......|......
..|......|......|......|......|......
..|......|......|......|......|......
..|......|......|......|......|......
..|......|......|......|......|......
..|......|......|......|......|......
..|......|......|......|......|......
..|......|......|......|......|......
..|......|......|......|......|......
..|......|......|......|......|......
..|G-5.v3|E-6.v3|......|......|......
..|......|......|......|......|......
..|......|......|......|......|......
..|......|......|......|......|......
..|......|......|......|......|......
..|......|......|......|......|......
..|......|......|......|......|......
..|......|......|......|......|......
..|......|......|......|......|......
..|......|......|......|......|......
..|......|......|......|......|......
..|......|......|......|......|......
..|===...|===...|......|......|......
..|......|......|......|......|......
..|......|......|......|......|......
..|......|......|......|......|......
..|......|......|......|......|......
..|......|......|......|......|......
..|......|......|......|......|......
..|......|......|......|......|......
..|......|......|......|......|......
..|......|......|......|......|......
..|......|......|......|......|......
..|......|......|......|......|......
..|......|......|......|......|......
..|......|......|......|......|......
..|......|......|......|......|......
..|......|......|......|......|......
..|......|......|......|......|......
..|......|......|......|......|......
..|......|......|......|......|......
..|......|......|......|......|......
..|......|......|......|......|......
..|......|......|......|......|......
..|......|......|......|......|......
..|......|......|......|......|......
..|......|......|......|......|......
..|......|......|......|......|......
..|......|......|......|......|......
..|......|......|......|......|......
..|......|......|......|......|......
..|......|......|......|......|......
..|......|......|......|......|......
..|......|......|......|......|......
..|......|......|......|......|......
..|......|......|......|......|......
..|......|......|......|......|......
..|......|......|......|......|......
..|......|......|......|......|......
..|......|......|......|......|......
..|......|......|......|......|......
..|......|......|......|......|......
..|......|......|......|......|......
..|......|......|......|......|......
..|......|......|......|......|......
..|......|......|......|......|......
..|......|......|......|......|......
..|......|......|......|......|......
..|......|......|......|......|......
..|......|......|......|......|......
..|......|......|......|......|......
..|......|......|......|......|......
..|......|......|......|......|......
..|......|......|......|......|......
..|......|......|......|......|......
..|......|......|......|......|......
..|......|......|......|......|......
..|......|......|......|......|......
..|......|......|......|......|......
..|......|......|......|......|......
..|......|......|......|......|......
..|......|......|......|......|......
..|A-5.v3|F#6.v3|......|......|......
..|......|......|......|......|......
..|......|......|......|......|......
..|......|......|......|......|......
..|......|......|......|......|......
..|......|......|......|......|......
..|......|......|......|......|......
..|......|......|......|......|......
..|......|......|......|......|......
..|......|......|......|......|......
..|......|......|......|......|......
..|......|......|......|......|......
..|===...|===...|......|......|......
..|......|......|......|......|......
..|......|......|......|......|......
..|......|......|......|......|......
..|......|......|......|......|......
..|......|......|......|......|......
..|......|......|......|......|......
..|......|......|......|......|......
..|......|......|......|......|......
..|......|......|......|......|......
..|......|......|......|......|......
..|......|......|......|......|......
..|F#5.v3|D-6.v3|......|......|......
..|......|......|......|......|......
..|......|......|......|......|......
..|......|......|......|......|......
..|......|......|......|......|......
..|......|......|......|......|......
..|......|......|......|......|......
..|......|......|......|......|......
..|......|......|......|......|......
..|......|......|......|......|......
..|......|......|......|......|......
..|......|......|......|......|......
..|===...|===...|......|......|......
..|......|......|......|......|......
..|......|......|......|......|......
..|......|......|......|......|......
..|......|......|......|......|......
..|......|......|......|......|......
..|......|......|......|......|......
..|......|......|......|......|......
..|......|......|......|......|......
..|......|......|......|......|......
..|......|......|......|......|......
..|......|......|......|......|......
..|......|......|......|......|......
..|......|......|......|......|......
..|......|......|......|......|......
..|......|......|......|......|......
..|......|......|......|......|......
..|......|......|......|......|......
..|......|......|......|......|......
..|......|......|......|......|......
..|......|......|......|......|......
..|......|......|......|......|......
..|......|......|......|......|......
..|......|......|......|......|......
..|......|......|......|......|......
..|......|......|......|......|......
..|......|......|......|......|......
..|......|......|......|......|......
..|......|......|......|......|......
..|......|......|......|......|......
..|......|......|......|......|......
..|......|......|......|......|......
..|......|......|......|......|......
..|......|......|......|......|......
..|......|......|......|......|......
..|......|......|......|......|......
..|......|......|......|......|......
..|......|......|......|......|......
..|......|......|......|......|......
..|......|......|......|......|......
..|......|......|......|......|......
..|......|......|......|......|......
..|......|......|......|......|......
..|......|......|......|......|......
..|......|......|......|......|......
..|......|......|......|......|......
..|......|......|......|......|......
..|......|......|......|......|......
..|......|......|......|......|......
..|......|......|......|......|......
..|......|......|......|......|......
..|......|......|......|......|......
..|......|......|......|......|......
..|......|......|......|......|......
..|......|......|......|......|......
..|......|......|......|......|......
..|......|......|......|......|......
..|......|......|......|......|......
..|......|......|......|......|......
..|......|......|......|......|......
..|......|......|......|......|......
..|......|......|......|......|......
..|......|......|......|......|......
..|......|......|......|......|......
..|......|......|......|......|......
..|......|......|......|......|......
..|......|......|......|......|......
..|......|......|......|......|......
..|......|......|......|......|......
..|......|......|......|......|......
..|......|......|......|......|......
..|......|......|......|......|......
..|......|......|......|......|......
..|......|......|......|......|......
..|......|......|......|......|......
..|......|......|......|......|......
..|......|......|......|......|......
..|......|......|......|......|......
..|......|......|......|......|......
..|......|......|......|......|......
..|......|......|......|......|......
..|......|......|......|......|......
..|......|......|......|......|......
..|......|......|......|......|......
..|......|......|......|......|......
..|......|......|......|......|......
..|......|......|......|......|......
..|......|......|......|......|......
..|......|......|......|......|......
..|......|......|......|......|......
..|......|......|......|......|......
..|......|......|......|......|......
..|......|......|......|......|......
..|......|......|......|......|......
..|......|......|......|......|......
..|......|......|......|......|......
..|......|......|......|......|......
..|......|......|......|......|......
..|......|......|......|......|......
..|......|......|......|......|......
..|......|......|......|......|......
..|......|......|......|......|......
..|......|......|......|......|......
..|......|......|......|......|......
..|......|......|......|......|......
..|......|......|......|......|......
..|......|......|......|......|......
..|......|......|......|......|......
..|G-5.v3|E-5.v3|......|......|......
..|......|......|......|......|......
..|......|......|......|......|......
..|......|......|......|......|......
..|......|......|......|......|......
..|......|......|......|......|......
..|......|......|......|......|......
..|......|......|......|......|......
..|......|......|......|......|......
..|......|......|......|......|......
..|......|......|......|......|......
..|......|......|......|......|......
..|G-5.v3|E-5.v3|......|......|......
..|......|......|......|......|......
..|......|......|......|......|......
..|......|......|......|......|......
..|......|......|......|......|......
..|......|......|......|......|......
..|......|......|......|......|......
..|......|......|......|......|......
..|......|......|......|......|......
..|......|......|......|......|......
..|......|......|......|......|......
..|......|......|......|......|......
..|A-5.v3|F#5.v3|......|......|......
..|......|......|......|......|......
..|......|......|......|......|......
..|......|......|......|......|......
..|......|......|......|......|......
..|......|......|......|......|......
..|......|......|......|......|......
..|......|......|......|......|......
..|......|......|......|......|......
..|......|......|......|......|......
..|......|......|......|......|......
..|......|......|......|......|......
..|A-5.v3|F#5.v3|......|......|......
..|......|......|......|......|......
..|......|......|......|......|......
..|......|......|......|......|......
..|......|......|......|......|......
..|......|......|......|......|......
..|......|......|......|......|......
..|......|......|......|......|......
..|......|......|......|......|......
..|......|......|......|......|......
..|......|......|......|......|......
..|......|......|......|......|......
..|......|......|......|......|......
..|......|......|......|......|......
..|......|......|......|......|......
..|......|......|......|......|......
..|......|......|......|......|......
..|......|......|......|......|......
..|......|......|......|......|......
..|......|......|......|......|......
..|......|......|......|......|......
..|......|......|......|......|......
..|......|......|......|......|......
..|......|......|......|......|......
..|......|......|......|......|......
..|......|......|......|......|......
..|......|......|......|......|......
..|......|......|......|......|......
..|......|......|......|......|......
..|......|......|......|......|......
..|......|......|......|......|......
..|......|......|......|......|......
..|......|......|......|......|......
..|......|......|......|......|......
..|......|......|......|......|......
..|......|......|......|......|......
..|===...|===...|......|......|......
..|......|......|......|......|......
..|......|......|......|......|......
..|......|......|......|......|......
..|......|......|......|......|......
..|......|......|......|......|......
..|......|......|......|......|......
..|......|......|......|......|......
..|......|......|......|......|......
..|......|......|......|......|......
..|......|......|......|......|......
..|......|......|......|......|......
..|......|......|......|......|......
..|......|......|......|......|......
..|......|......|......|......|......
..|......|......|......|......|......
..|......|......|......|......|......
..|......|......|......|......|......
..|......|......|......|......|......
..|......|......|......|......|......
..|......|......|......|......|......
..|......|......|......|......|......
..|......|......|......|......|......
..|......|......|......|......|......
..|......|......|......|......|......
..|......|......|......|......|......
..|......|......|......|......|......
..|......|......|......|......|......
..|......|......|......|......|......
..|......|......|......|......|......
..|......|......|......|......|......
..|......|......|......|......|......
..|......|......|......|......|......
..|......|......|......|......|......
..|......|......|......|......|......
..|......|......|......|......|......
..|......|......|......|......|......
..|......|......|......|......|......
..|......|......|......|......|......
..|......|......|......|......|......
..|......|......|......|......|......
..|......|......|......|......|......
..|......|......|......|......|......
..|......|......|......|......|......
..|......|......|......|......|......
..|......|......|......|......|......
..|......|......|......|......|......
..|......|......|......|......|......
..|......|......|......|......|......
..|......|......|......|......|......
..|......|......|......|......|......
..|......|......|......|......|......
..|......|......|......|......|......
..|......|......|......|......|......
..|......|......|......|......|......
..|......|......|......|......|......
..|......|......|......|......|......
..|......|......|......|......|......
..|......|......|......|......|......
..|......|......|......|......|......
..|G-6.v3|B-6.v3|......|......|......
..|......|......|......|......|......
..|......|......|......|......|......
..|......|......|......|......|......
..|......|......|......|......|......
..|......|......|......|......|......
..|===...|===...|......|......|......
..|......|......|......|......|......
..|......|......|......|......|......
..|......|......|......|......|......
..|......|......|......|......|......
..|......|......|......|......|......
..|......|......|......|......|......
..|......|......|......|......|......
..|......|......|......|......|......
..|......|......|......|......|......
..|......|......|......|......|......
..|......|......|......|......|......
..|......|......|......|......|......
..|......|......|......|......|......
..|......|......|......|......|......
..|......|......|......|......|......
..|......|......|......|......|......
..|......|......|......|......|......
..|......|......|......|......|......
..|......|......|......|......|......
..|......|......|......|......|......
..|......|......|......|......|......
..|......|......|......|......|......
..|......|......|......|......|......
..|......|......|......|......|......
..|......|......|......|......|......
..|......|......|......|......|......
..|......|......|......|......|......
..|......|......|......|......|......
..|......|......|......|......|......
..|......|......|......|......|......
..|......|......|......|......|......
..|......|......|......|......|......
..|......|......|......|......|......
..|......|......|......|......|......
..|......|......|......|......|......
..|......|......|......|......|......
..|......|......|......|......|......
..|......|......|......|......|......
..|......|......|......|......|......
..|......|......|......|......|......
..|......|......|......|......|......
..|......|......|......|......|......
..|......|......|......|......|......
..|......|......|......|......|......
..|......|......|......|......|......
..|......|......|......|......|......
..|......|......|......|......|......
..|......|......|......|......|......
..|......|......|......|......|......
..|......|......|......|......|......
..|......|......|......|......|......
..|......|......|......|......|......
..|......|......|......|......|......
..|F#6.v2|D-6.v2|......|......|......
..|......|......|......|......|......
..|......|......|......|......|......
..|......|......|......|......|......
..|......|......|......|......|......
..|......|......|......|......|......
..|......|......|......|......|......
..|......|......|......|......|......
..|......|......|......|......|......
..|......|......|......|......|......
..|......|......|......|......|......
..|......|......|......|......|......
..|......|......|......|......|......
..|......|......|......|......|......
..|......|......|......|......|......
..|......|......|......|......|......
..|......|......|......|......|......
..|......|......|......|......|......
..|......|......|......|......|......
..|......|......|......|......|......
..|......|......|......|......|......
..|......|......|......|......|......
..|......|......|......|......|......
..|......|......|......|......|......
..|G-6.v3|E-6.v3|......|......|......
..|......|......|......|......|......
..|......|......|......|......|......
..|......|......|......|......|......
..|......|......|......|......|......
..|......|......|......|......|......
..|===...|===...|......|......|......
..|......|......|......|......|......
..|......|......|......|......|......
..|......|......|......|......|......
..|......|......|......|......|......
..|......|......|......|......|......
..|......|......|......|......|......
..|......|......|......|......|......
..|......|......|......|......|......
..|......|......|......|......|......
..|......|......|......|......|......
..|......|......|......|......|......
..|......|......|......|......|......
..|......|......|......|......|......
..|......|......|......|......|......
..|......|......|......|......|......
..|......|......|......|......|......
..|......|......|......|......|......
..|......|......|......|......|......
..|......|......|......|......|......
..|......|......|......|......|......
..|......|......|......|......|......
..|......|......|......|......|......
..|......|......|......|......|......
..|......|......|......|......|......
..|......|......|......|......|......
..|......|......|......|......|......
..|......|......|......|......|......
..|......|......|......|......|......
..|......|......|......|......|......
..|......|......|......|......|......
..|......|......|......|......|......
..|......|......|......|......|......
..|......|......|......|......|......
..|......|......|......|......|......
..|......|......|......|......|......
..|......|......|......|......|......
..|......|......|......|......|......
..|......|......|......|......|......
..|......|......|......|......|......
..|......|......|......|......|......
..|......|......|......|......|......
..|......|......|......|......|......
..|......|......|......|......|......
..|......|......|......|......|......
..|......|......|......|......|......
..|......|......|......|......|......
..|......|......|......|......|......
..|......|......|......|......|......
..|......|......|......|......|......
..|......|......|......|......|......
..|......|......|......|......|......
..|......|......|......|......|......
..|......|......|......|......|......
..|......|......|......|......|......
..|......|......|......|......|......
..|......|......|......|......|......
..|......|......|......|......|......
..|......|......|......|......|......
..|......|......|......|......|......
..|......|......|......|......|......
..|......|......|......|......|......
..|......|......|......|......|......
..|......|......|......|......|......
..|......|......|......|......|......
..|......|......|......|......|......
..|D-6.v3|G-6.v3|......|......|......
..|......|......|......|......|......
..|......|......|......|......|......
..|......|......|......|......|......
..|......|......|......|......|......
..|......|......|......|......|......
..|===...|===...|......|......|......
..|......|......|......|......|......
..|......|......|......|......|......
..|......|......|......|......|......
..|......|......|......|......|......
..|......|......|......|......|......
..|......|......|......|......|......
..|......|......|......|......|......
..|......|......|......|......|......
..|......|......|......|......|......
..|......|......|......|......|......
..|......|......|......|......|......
..|......|......|......|......|......
..|......|......|......|......|......
..|......|......|......|......|......
..|......|......|......|......|......
..|......|......|......|......|......
..|......|......|......|......|......
..|C-6.v3|E-6.v3|......|......|......
..|......|......|......|......|......
..|......|......|......|......|......
..|......|......|......|......|......
..|......|......|......|......|......
..|......|......|......|......|......
..|......|......|......|......|......
..|......|......|......|......|......
..|......|......|......|......|......
..|......|......|......|......|......
..|......|......|......|......|......
..|......|......|......|......|......
..|D-6.v3|F#6.v3|......|......|......
..|......|......|......|......|......
..|......|......|......|......|......
..|......|......|......|......|......
..|......|......|......|......|......
..|......|......|......|......|......
..|===...|===...|......|......|......
..|......|......|......|......|......
..|......|......|......|......|......
..|......|......|......|......|......
..|......|......|......|......|......
..|......|......|......|......|......
..|......|......|......|......|......
..|......|......|......|......|......
..|......|......|......|......|......
..|......|......|......|......|......
..|......|......|......|......|......
..|......|......|......|......|......
..|......|......|......|......|......
..|......|......|......|......|......
..|......|......|......|......|......
..|......|......|......|......|......
..|......|......|......|......|......
..|......|......|......|......|......
..|......|......|......|......|......
..|......|......|......|......|......
..|......|......|......|......|......
..|......|......|......|......|......
..|......|......|......|......|......
..|......|......|......|......|......
..|......|......|......|......|......
..|......|......|......|......|......
..|......|......|......|......|......
..|......|......|......|......|......
..|......|......|......|......|......
..|......|......|......|......|......
..|......|......|......|......|......
..|......|......|......|......|......
..|......|......|......|......|......
..|......|......|......|......|......
..|......|......|......|......|......
..|......|......|......|......|......
..|......|......|......|......|......
..|......|......|......|......|......
..|......|......|......|......|......
..|......|......|......|......|......
..|......|......|......|......|......
..|......|......|......|......|......
..|......|......|......|......|......
..|......|......|......|......|......
..|......|......|......|......|......
..|......|......|......|......|......
..|......|......|......|......|......
..|......|......|......|......|......
..|......|......|......|......|......
..|......|......|......|......|......
..|......|......|......|......|......
..|......|......|......|......|......
..|......|......|......|......|......
..|......|......|......|......|......
..|......|......|......|......|......
..|......|......|......|......|......
..|......|......|......|......|......
..|......|......|......|......|......
..|......|......|......|......|......
..|......|......|......|......|......
..|......|......|......|......|......
..|......|......|......|......|......
..|......|......|......|......|......
..|......|......|......|......|......
..|......|......|......|......|......
..|......|......|......|......|......
..|G-6.v3|C-6.v2|......|......|......
..|......|......|......|......|......
..|......|......|......|......|......
..|......|......|......|......|......
..|......|......|......|......|......
..|......|......|......|......|......
..|A-6.v3|D-6.v3|......|......|......
..|......|......|......|......|......
..|......|......|......|......|......
..|......|......|......|......|......
..|......|......|......|......|......
..|......|......|......|......|......
..|B-6.v3|E-6.v3|......|......|......
..|......|......|......|......|......
..|......|......|......|......|......
..|......|......|......|......|......
..|......|......|......|......|......
..|......|......|......|......|......
..|C-7.v3|F#6.v3|......|......|......
..|......|......|......|......|......
..|......|......|......|......|......
..|......|......|......|......|......
..|......|......|......|......|......
..|......|......|......|......|......
..|D-7.v3|G-6.v3|......|......|......
..|......|......|......|......|......
..|......|......|......|......|......
..|......|......|......|......|......
..|......|......|......|......|......
..|......|......|......|......|......
..|===...|===...|......|......|......
..|......|......|......|......|......
..|......|......|......|......|......
..|......|......|......|......|......
..|......|......|......|......|......
..|......|......|......|......|......
..|D-6.v3|G-6.v2|......|......|......
..|......|......|......|......|......
..|......|......|......|......|......
..|......|......|......|......|......
..|......|......|......|......|......
..|......|......|......|......|......
..|......|......|......|......|......
..|......|......|......|......|......
..|......|......|......|......|......
..|......|......|......|......|......
..|......|......|......|......|......
..|......|......|......|......|......
..|......|......|......|......|......
..|......|......|......|......|......
..|......|......|......|......|......
..|......|......|......|......|......
..|......|......|......|......|......
..|......|......|......|......|......
..|......|......|......|......|......
..|......|......|......|......|......
..|......|......|......|......|......
..|......|......|......|......|......
..|......|......|......|......|......
..|......|......|......|......|......
..|......|......|......|......|......
..|......|......|......|......|......
..|......|......|......|......|......
..|......|......|......|......|......
..|......|......|......|......|......
..|......|......|......|......|......
..|......|......|......|......|......
..|......|......|......|......|......
..|......|......|......|......|......
..|......|......|......|......|......
..|......|......|......|......|......
..|......|......|......|......|......
..|D-6.v3|F#6.v3|......|......|......
..|......|......|......|......|......
..|......|......|......|......|......
..|......|......|......|......|......
..|......|......|......|......|......
..|......|......|......|......|......
..|===...|===...|......|......|......
..|......|......|......|......|......
..|......|......|......|......|......
..|......|......|......|......|......
..|......|......|......|......|......
..|......|......|......|......|......
..|......|......|......|......|......
..|......|......|......|......|......
..|......|......|......|......|......
..|......|......|......|......|......
..|......|......|......|......|......
..|......|......|......|......|......
..|......|......|......|......|......
..|......|......|......|......|......
..|......|......|......|......|......
..|......|......|......|......|......
..|......|......|......|......|......
..|......|......|......|......|......
..|D-6.v3|G-6.v3|......|......|......
..|......|......|......|......|......
..|......|......|......|......|......
..|......|......|......|......|......
..|......|......|......|......|......
..|......|......|......|......|......
..|......|......|......|......|......
..|......|......|......|......|......
..|......|......|......|......|......
..|......|......|......|......|......
..|......|......|......|......|......
..|......|......|......|......|......
..|E-6.v3|G-6.v3|......|......|......
..|......|......|......|......|......
..|......|......|......|......|......
..|......|......|......|......|......
..|......|......|......|......|......
..|......|......|......|......|......
..|F#6.v3|A-6.v3|......|......|......
..|......|......|......|......|......
..|......|......|......|......|......
..|......|......|......|......|......
..|......|......|......|......|......
..|......|......|......|......|......
..|G-6.v3|B-6.v3|......|......|......
..|......|......|......|......|......
..|......|......|......|......|......
..|......|......|......|......|......
..|......|......|......|......|......
..|......|......|......|......|......
..|===...|===...|......|......|......
..|......|......|......|......|......
..|......|......|......|......|......
..|......|......|......|......|......
..|......|......|......|......|......
..|......|......|......|......|......
..|......|......|......|......|......
..|......|......|......|......|......
..|......|......|......|......|......
..|......|......|......|......|......
..|......|......|......|......|......
..|......|......|......|......|......
..|......|......|......|......|......
..|......|......|......|......|......
..|......|......|......|......|......
..|......|......|......|......|......
..|......|......|......|......|......
..|......|......|......|......|......
..|......|......|......|......|......
..|......|......|......|......|......
..|......|......|......|......|......
..|......|......|......|......|......
..|......|......|......|......|......
..|......|......|......|......|......
..|......|......|......|......|......
..|......|......|......|......|......
..|......|......|......|......|......
..|......|......|......|......|......
..|......|......|......|......|......
..|......|......|......|......|......
..|......|......|......|......|......
..|......|......|......|......|......
..|......|......|......|......|......
..|......|......|......|......|......
..|......|......|......|......|......
..|......|......|......|......|......
..|......|......|......|......|......
..|......|......|......|......|......
..|......|......|......|......|......
..|......|......|......|......|......
..|......|......|......|......|......
..|......|......|......|......|......
..|......|......|......|......|......
..|......|......|......|......|......
..|......|......|......|......|......
..|......|......|......|......|......
..|......|......|......|......|......
..|......|......|......|......|......
..|......|......|......|......|......
..|......|......|......|......|......
..|......|......|......|......|......
..|......|......|......|......|......
..|......|......|......|......|......
..|......|......|......|......|......
..|F#6.v3|D-6.v3|......|......|......
..|......|......|......|......|......
..|......|......|......|......|......
..|......|......|......|......|......
..|......|......|......|......|......
..|......|......|......|......|......
..|......|......|......|......|......
..|......|......|......|......|......
..|......|......|......|......|......
..|......|......|......|......|......
..|......|......|......|......|......
..|......|......|......|......|......
..|......|......|......|......|......
..|......|......|......|......|......
..|......|......|......|......|......
..|......|......|......|......|......
..|......|......|......|......|......
..|......|......|......|......|......
..|......|......|......|......|......
..|......|......|......|......|......
..|......|......|......|......|......
..|......|......|......|......|......
..|......|......|......|......|......
..|......|......|......|......|......
..|G-6.v3|E-6.v3|......|......|......
..|......|......|......|......|......
..|......|......|......|......|......
..|......|......|......|......|......
..|......|......|......|......|......
..|......|......|......|......|......
..|===...|===...|......|......|......
..|......|......|......|......|......
..|......|......|......|......|......
..|......|......|......|......|......
..|......|......|......|......|......
..|......|......|......|......|......
..|......|......|......|......|......
..|......|......|......|......|......
..|......|......|......|......|......
..|......|......|......|......|......
..|......|......|......|......|......
..|......|......|......|......|......
..|......|......|......|......|......
..|......|......|......|......|......
..|......|......|......|......|......
..|......|......|......|......|......
..|......|......|......|......|......
..|......|......|......|......|......
..|......|......|......|......|......
..|......|......|......|......|......
..|......|......|......|......|......
..|......|......|......|......|......
..|......|......|......|......|......
..|......|......|......|......|......
..|......|......|......|......|......
..|......|......|......|......|......
..|......|......|......|......|......
..|......|......|......|......|......
..|......|......|......|......|......
..|......|......|......|......|......
..|......|......|......|......|......
..|......|......|......|......|......
..|......|......|......|......|......
..|......|......|......|......|......
..|......|......|......|......|......
..|......|......|......|......|......
..|......|......|......|......|......
..|......|......|......|......|......
..|......|......|......|......|......
..|......|......|......|......|......
..|......|......|......|......|......
..|......|......|......|......|......
..|......|......|......|......|......
..|......|......|......|......|......
..|......|......|......|......|......
..|......|......|......|......|......
..|......|......|......|......|......
..|......|......|......|......|......
..|......|......|......|......|......
..|......|......|......|......|......
..|......|......|......|......|......
..|......|......|......|......|......
..|......|......|......|......|......
..|......|......|......|......|......
..|......|......|......|......|......
..|......|......|......|......|......
..|......|......|......|......|......
..|......|......|......|......|......
..|......|......|......|......|......
..|......|......|......|......|......
..|......|......|......|......|......
..|......|......|......|......|......
..|......|......|......|......|......
..|......|......|......|......|......
..|......|......|......|......|......
..|......|......|......|......|......
..|......|......|......|......|......
..|......|......|......|......|......
..|......|......|......|......|......
..|......|......|......|......|......
..|......|......|......|......|......
..|......|......|......|......|......
..|......|......|......|......|......
..|......|......|......|......|......
..|......|......|......|......|......
..|......|......|......|......|......
..|......|......|......|......|......
..|......|......|......|......|......
..|......|......|......|......|......
..|......|......|......|......|......
..|......|......|......|......|......
..|......|......|......|......|......
..|......|......|......|......|......
..|......|......|......|......|......
..|......|......|......|......|......
..|......|......|......|......|......
..|......|......|......|......|......
..|......|......|......|......|......
..|......|......|......|......|......
..|......|......|......|......|......
..|B-5.v3|D-6.v3|......|......|......
..|......|......|......|......|......
..|......|......|......|......|......
..|......|......|......|......|......
..|......|......|......|......|......
..|......|......|......|......|......
..|C-6.v3|E-6.v3|......|......|......
..|......|......|......|......|......
..|......|......|......|......|......
..|......|......|......|......|......
..|......|......|......|......|......
..|......|......|......|......|......
..|D-6.v3|F#6.v3|......|......|......
..|......|......|......|......|......
..|......|......|......|......|......
..|......|......|......|......|......
..|......|......|......|......|......
..|......|......|......|......|......
..|===...|===...|......|......|......
..|......|......|......|......|......
..|......|......|......|......|......
..|......|......|......|......|......
..|......|......|......|......|......
..|......|......|......|......|......
..|......|......|......|......|......
..|......|......|......|......|......
..|......|......|......|......|......
..|......|......|......|......|......
..|......|......|......|......|......
..|......|......|......|......|......
..|......|......|......|......|......
..|......|......|......|......|......
..|......|......|......|......|......
..|......|......|......|......|......
..|......|......|......|......|......
..|......|......|......|......|......
..|......|......|......|......|......
..|......|......|......|......|......
..|......|......|......|......|......
..|......|......|......|......|......
..|......|......|......|......|......
..|......|......|......|......|......
..|......|......|......|......|......
..|......|......|......|......|......
..|......|......|......|......|......
..|......|......|......|......|......
..|......|......|......|......|......
..|......|......|......|......|......
..|......|......|......|......|......
..|......|......|......|......|......
..|......|......|......|......|......
..|......|......|......|......|......
..|......|......|......|......|......
..|......|......|......|......|......
..|......|......|......|......|......
..|......|......|......|......|......
..|......|......|......|......|......
..|......|......|......|......|......
..|......|......|......|......|......
..|......|......|......|......|......
..|......|......|......|......|......
..|......|......|......|......|......
..|......|......|......|......|......
..|......|......|......|......|......
..|......|......|......|......|......
..|......|......|......|......|......
..|......|......|......|......|......
..|......|......|......|......|......
..|......|......|......|......|......
..|......|......|......|......|......
..|......|......|......|......|......
..|......|......|......|......|......
..|......|......|......|......|......
..|......|......|......|......|......
..|......|......|......|......|......
..|......|......|......|......|......
..|......|......|......|......|......
..|......|......|......|......|......
..|......|......|......|......|......
..|......|......|......|......|......
..|......|......|......|......|......
..|......|......|......|......|......
..|......|......|......|......|......
..|......|......|......|......|......
..|G-6.v3|C-6.v3|......|......|......
..|......|......|......|......|......
..|......|......|......|......|......
..|......|......|......|......|......
..|......|......|......|......|......
..|......|......|......|......|......
..|A-6.v3|D-6.v3|......|......|......
..|......|......|......|......|......
..|......|......|......|......|......
..|......|......|......|......|......
..|......|......|......|......|......
..|......|......|......|......|......
..|B-6.v3|E-6.v3|......|......|......
..|......|......|......|......|......
..|......|......|......|......|......
..|......|......|......|......|......
..|......|......|......|......|......
..|......|......|......|......|......
..|C-7.v3|F#6.v3|......|......|......
..|......|......|......|......|......
..|......|......|......|......|......
..|......|......|......|......|......
..|......|......|......|......|......
..|......|......|......|......|......
..|D-6.v3|F#6.v3|......|......|......
..|......|......|......|......|......
..|......|......|......|......|......
..|......|......|......|......|......
..|......|......|......|......|......
..|......|......|......|......|......
..|===...|===...|......|......|......
..|......|......|......|......|......
..|......|......|......|......|......
..|......|......|......|......|......
..|......|......|......|......|......
..|......|......|......|......|......
..|D-6.v3|F#6.v3|......|......|......
..|......|......|......|......|......
..|......|......|......|......|......
..|......|......|......|......|......
..|......|......|......|......|......
..|......|......|......|......|......
..|===...|===...|......|......|......
..|......|......|......|......|......
..|......|......|......|......|......
..|......|......|......|......|......
..|......|......|......|......|......
..|......|......|......|......|......
..|D-6.v3|F#6.v3|......|......|......
..|......|......|......|......|......
..|......|......|......|......|......
..|......|......|......|......|......
..|......|......|......|......|......
..|......|......|......|......|......
..|......|......|......|......|......
..|......|......|......|......|......
..|......|......|......|......|......
..|......|......|......|......|......
..|......|......|......|......|......
..|......|......|......|......|......
..|......|......|......|......|......
..|......|......|......|......|......
..|......|......|......|......|......
..|......|......|......|......|......
..|......|......|......|......|......
..|......|......|......|......|......
..|......|......|......|......|......
..|......|......|......|......|......
..|......|......|......|......|......
..|......|......|......|......|......
..|......|......|......|......|......
..|......|......|......|......|......
..|D-6.v3|F#6.v3|......|......|......
..|......|......|......|......|......
..|......|......|......|......|......
..|......|......|......|......|......
..|......|......|......|......|......
..|......|......|......|......|......
..|......|......|......|......|......
..|......|......|......|......|......
..|......|......|......|......|......
..|......|......|......|......|......
..|......|......|......|......|......
..|......|......|......|......|......
..|......|......|......|......|......
..|......|......|......|......|......
..|......|......|......|......|......
..|......|......|......|......|......
..|......|......|......|......|......
..|......|......|......|......|......
..|E-6.v3|G-6.v3|......|......|......
..|......|......|......|......|......
..|......|......|......|......|......
..|......|......|......|......|......
..|......|......|......|......|......
..|......|......|......|......|......
..|......|......|......|......|......
..|......|......|......|......|......
..|......|......|......|......|......
..|......|......|......|......|......
..|......|......|......|......|......
..|......|......|......|......|......
..|......|......|......|......|......
..|......|......|......|......|......
..|......|......|......|......|......
..|......|......|......|......|......
..|......|......|......|......|......
..|......|......|......|......|......
..|D-6.v3|F#6.v3|......|......|......
..|......|......|......|......|......
..|......|......|......|......|......
..|......|......|......|......|......
..|E-6.v3|G-6.v3|......|......|......
..|......|......|......|......|......
..|......|......|......|......|......
..|......|......|......|......|......
..|D-6.v3|F#6.v3|......|......|......
..|......|......|......|......|......
..|......|......|......|......|......
..|......|......|......|......|......
..|===...|===...|......|......|......
#join
#inst 1
#unk6 7
#volume 6e
..|C-5.v2|E-5.v2|......|......|......
..|......|......|......|......|......
..|......|......|......|......|......
..|......|......|......|......|......
..|......|......|......|......|......
..|......|......|......|......|......
..|......|......|......|......|......
..|......|......|......|......|......
..|......|......|......|......|......
..|......|......|......|......|......
..|......|......|......|......|......
..|......|......|......|......|......
..|......|......|......|......|......
..|......|......|......|......|......
..|......|......|......|......|......
..|......|......|......|......|......
..|......|......|......|......|......
..|......|......|......|......|......
..|......|......|......|......|......
..|......|......|......|......|......
..|......|......|......|......|......
..|......|......|......|......|......
..|......|......|......|......|......
..|......|......|......|......|......
..|===...|===...|G-4.v2|B-4.v2|......
..|......|......|......|......|......
..|......|......|......|......|......
..|......|......|......|......|......
..|......|......|......|......|......
..|......|......|......|......|......
..|......|......|......|......|......
..|......|......|......|......|......
..|......|......|......|......|......
..|......|......|......|......|......
..|......|......|......|......|......
..|......|......|......|......|......
..|......|......|......|......|......
..|......|......|......|......|......
..|......|......|......|......|......
..|......|......|......|......|......
..|......|......|......|......|......
..|......|......|......|......|......
..|......|......|......|......|......
..|......|......|......|......|......
..|......|......|......|......|......
..|......|......|......|......|......
..|......|......|......|......|......
..|......|......|......|......|......
..|......|......|C-5.v2|E-5.v2|......
..|......|......|......|......|......
..|......|......|......|......|......
..|......|......|......|......|......
..|......|......|......|......|......
..|......|......|......|......|......
..|......|......|......|......|......
..|......|......|......|......|......
..|......|......|......|......|......
..|......|......|......|......|......
..|......|......|......|......|......
..|......|......|......|......|......
..|......|......|......|......|......
..|......|......|......|......|......
..|......|......|......|......|......
..|......|......|......|......|......
..|......|......|......|......|......
..|......|......|......|......|......
..|......|......|......|......|......
..|......|......|......|......|......
..|......|......|......|......|......
..|......|......|......|......|......
..|......|......|......|......|......
..|......|......|......|......|......
..|......|......|E-5.v2|G-5.v2|......
..|......|......|......|......|......
..|......|......|......|......|......
..|......|......|......|......|......
..|......|......|......|......|......
..|......|......|......|......|......
..|......|......|......|......|......
..|......|......|......|......|......
..|......|......|......|......|......
..|......|......|......|......|......
..|......|......|......|......|......
..|......|......|......|......|......
..|......|......|......|......|......
..|......|......|......|......|......
..|......|......|......|......|......
..|......|......|......|......|......
..|......|......|......|......|......
..|......|......|......|......|......
..|......|......|......|......|......
..|......|......|......|......|......
..|......|......|......|......|......
..|......|......|......|......|......
..|......|......|......|......|......
..|......|......|......|......|......
..|......|......|D-5.v2|F#5.v2|......
..|......|......|......|......|......
..|......|......|......|......|......
..|......|......|......|......|......
..|......|......|......|......|......
..|......|......|......|......|......
..|......|......|......|......|......
..|......|......|......|......|......
..|......|......|......|......|......
..|......|......|......|......|......
..|......|......|......|......|......
..|......|......|......|......|......
..|......|......|......|......|......
..|......|......|......|......|......
..|......|......|......|......|......
..|......|......|......|......|......
..|......|......|......|......|......
..|......|......|......|......|......
..|......|......|......|......|......
..|......|......|......|......|......
..|......|......|......|......|......
..|......|......|......|......|......
..|......|......|......|......|......
..|......|......|......|......|......
..|......|......|......|......|......
..|......|......|......|......|......
..|......|......|......|......|......
..|......|......|......|......|......
..|......|......|......|......|......
..|......|......|......|......|......
..|......|......|......|......|......
..|......|......|......|......|......
..|......|......|......|......|......
..|......|......|......|......|......
..|......|......|......|......|......
..|......|......|......|......|......
..|......|......|......|......|......
..|......|......|......|......|......
..|......|......|......|......|......
..|......|......|......|......|......
..|......|......|......|......|......
..|......|......|......|......|......
..|......|......|......|......|......
..|......|......|......|......|......
..|......|......|......|......|......
..|......|......|......|......|......
..|......|......|......|......|......
..|......|......|......|......|......
..|......|......|F#5.v2|D-5.v2|......
..|......|......|......|......|......
..|......|......|......|......|......
..|......|......|......|......|......
..|......|......|......|......|......
..|......|......|......|......|......
..|......|......|......|......|......
..|......|......|......|......|......
..|......|......|......|......|......
..|......|......|......|......|......
..|......|......|......|......|......
..|......|......|......|......|......
..|......|......|G-5.v2|......|......
..|......|......|......|......|......
..|......|......|......|......|......
..|......|......|......|......|......
..|......|......|......|......|......
..|......|......|......|......|......
..|......|......|......|......|......
..|......|......|......|......|......
..|......|......|......|......|......
..|......|......|......|......|......
..|......|......|......|......|......
..|......|......|......|......|......
..|......|......|......|===...|......
#join
..|......|......|F#5.v2|A-4.v2|......
..|......|......|......|......|......
..|......|......|......|......|......
..|......|......|......|......|......
..|......|......|......|......|......
..|......|......|......|......|......
..|......|......|......|......|......
..|......|......|......|......|......
..|......|......|......|......|......
..|......|......|......|......|......
..|......|......|......|......|......
..|......|......|......|......|......
..|......|......|D-5.v2|......|......
..|......|......|......|......|......
..|......|......|......|......|......
..|......|......|......|......|......
..|......|......|......|......|......
..|......|......|......|......|......
..|......|......|......|......|......
..|......|......|......|......|......
..|......|......|......|......|......
..|......|......|......|......|......
..|......|......|......|......|......
..|......|......|......|......|......
..|......|......|......|===...|......
#join
..|......|......|C-5.v2|E-5.v2|......
..|......|......|......|......|......
..|......|......|......|......|......
..|......|......|......|......|......
..|......|......|......|......|......
..|......|......|......|......|......
..|......|......|......|......|......
..|......|......|......|......|......
..|......|......|......|......|......
..|......|......|......|......|......
..|......|......|......|......|......
..|......|......|......|......|......
..|......|......|......|......|......
..|......|......|......|......|......
..|......|......|......|......|......
..|......|......|......|......|......
..|......|......|......|......|......
..|......|......|......|......|......
..|......|......|......|......|......
..|......|......|......|......|......
..|......|......|......|......|......
..|......|......|......|......|......
..|......|......|......|......|......
..|......|......|......|......|......
..|......|......|G-4.v2|B-4.v2|......
..|......|......|......|......|......
..|......|......|......|......|......
..|......|......|......|......|......
..|......|......|......|......|......
..|......|......|......|......|......
..|......|......|......|......|......
..|......|......|......|......|......
..|......|......|......|......|......
..|......|......|......|......|......
..|......|......|......|......|......
..|......|......|......|......|......
..|......|......|......|......|......
..|......|......|......|......|......
..|......|......|......|......|......
..|......|......|......|......|......
..|......|......|......|......|......
..|......|......|......|......|......
..|......|......|......|......|......
..|......|......|......|......|......
..|......|......|......|......|......
..|......|......|......|......|......
..|......|......|......|......|......
..|......|......|......|......|......
..|......|......|C-5.v2|E-5.v2|......
..|......|......|......|......|......
..|......|......|......|......|......
..|......|......|......|......|......
..|......|......|......|......|......
..|......|......|......|......|......
..|......|......|......|......|......
..|......|......|......|......|......
..|......|......|......|......|......
..|......|......|......|......|......
..|......|......|......|......|......
..|......|......|......|......|......
..|......|......|......|......|......
..|......|......|......|......|......
..|......|......|......|......|......
..|......|......|......|......|......
..|......|......|......|......|......
..|......|......|......|......|......
..|......|......|......|......|......
..|......|......|......|......|......
..|......|......|......|......|......
..|......|......|......|......|......
..|......|......|......|......|......
..|......|......|......|......|......
..|......|......|E-5.v2|G-5.v2|......
..|......|......|......|......|......
..|......|......|......|......|......
..|......|......|......|......|......
..|......|......|......|......|......
..|......|......|......|......|......
..|......|......|......|......|......
..|......|......|......|......|......
..|......|......|......|......|......
..|......|......|......|......|......
..|......|......|......|......|......
..|......|......|......|......|......
..|......|......|......|......|......
..|......|......|......|......|......
..|......|......|......|......|......
..|......|......|......|......|......
..|......|......|......|......|......
..|......|......|......|......|......
..|......|......|......|......|......
..|......|......|......|......|......
..|......|......|......|......|......
..|......|......|......|......|......
..|......|......|......|......|......
..|......|......|......|......|......
..|......|......|E-4.v2|F#5.v3|......
..|......|......|......|......|......
..|......|......|......|......|......
..|......|......|F-4.v1|......|......
..|......|......|......|......|......
..|......|......|......|......|......
..|......|......|F#4.v1|......|......
..|......|......|......|......|......
..|......|......|......|......|......
..|......|......|G-4.v1|......|......
..|......|......|......|......|......
..|......|......|......|......|......
..|......|......|G#4.v2|......|......
..|......|......|......|......|......
..|......|......|......|......|......
..|......|......|A-4.v2|......|......
..|......|......|......|......|......
..|......|......|......|......|......
..|......|......|A#4.v2|......|......
..|......|......|......|......|......
..|......|......|......|......|......
..|......|......|B-4.v2|......|......
..|......|......|......|......|......
..|......|......|......|......|......
..|......|......|C-5.v2|......|......
..|......|......|......|......|......
..|......|......|......|......|......
..|......|......|D-5.v2|......|......
..|......|......|......|......|......
..|......|......|......|......|......
..|......|......|D#5.v2|......|......
..|......|......|......|......|......
..|......|......|......|......|......
..|......|......|E-5.v2|......|......
..|......|......|......|......|......
..|......|......|......|......|......
..|......|......|F-5.v2|......|......
..|......|......|......|......|......
..|......|......|......|......|......
..|......|......|===...|......|......
..|......|......|......|......|......
..|......|......|......|......|......
..|......|......|......|G-5.v3|......
..|......|......|......|......|......
..|......|......|......|......|......
..|......|......|......|G#5.v3|......
..|......|......|......|......|......
..|......|......|......|......|......
..|......|......|......|F#5.v3|A-5.v2
..|......|......|......|......|......
..|......|......|......|......|......
..|......|......|......|......|......
..|......|......|......|......|......
..|......|......|......|......|......
..|......|......|......|......|......
..|......|......|......|......|......
..|......|......|......|......|......
..|......|......|......|......|......
..|......|......|......|......|......
..|......|......|......|......|......
..|......|......|......|E-5.v3|G-5.v2
..|......|......|......|......|......
..|......|......|......|......|......
..|......|......|......|......|......
..|......|......|......|......|......
..|......|......|......|......|......
..|......|......|......|......|......
..|......|......|......|......|......
..|......|......|......|......|......
..|......|......|......|......|......
..|......|......|......|......|......
..|......|......|......|......|......
..|......|......|......|D-5.v3|F#5.v2
..|......|......|......|......|......
..|......|......|......|......|......
..|......|......|......|......|......
..|......|......|......|......|......
..|......|......|......|......|......
..|......|......|......|......|......
..|......|......|......|......|......
..|......|......|......|......|......
..|......|......|......|......|......
..|......|......|......|......|......
..|......|......|......|......|......
..|......|......|......|C-5.v2|E-5.v2
..|......|......|......|......|......
..|......|......|......|......|......
..|......|......|......|......|......
..|......|......|......|......|......
..|......|......|......|......|......
..|......|......|......|......|......
..|......|......|......|......|......
..|......|......|......|......|......
..|......|......|......|......|......
..|......|......|......|......|......
..|......|......|......|......|......
..|......|......|......|===...|===...
#join
#inst 5
#unk6 7
#volume 64
..|......|......|......|......|......
..|......|......|......|......|......
..|......|......|......|......|......
..|......|......|......|......|......
..|......|......|......|......|......
..|......|......|......|......|......
..|......|......|......|......|......
..|......|......|......|......|......
..|......|......|......|......|......
..|......|......|......|......|......
..|......|......|......|......|......
..|......|......|......|......|......
..|......|......|......|......|......
..|......|......|......|......|......
..|......|......|......|......|......
..|......|......|......|......|......
..|......|......|......|......|......
..|......|......|......|......|......
..|......|......|......|......|......
..|......|......|......|......|......
..|......|......|......|......|......
..|......|......|......|......|......
..|......|......|......|......|......
..|......|......|......|......|......
..|B-5.v3|D-6.v3|......|......|......
..|......|......|......|......|......
..|......|......|......|......|......
..|......|......|......|......|......
..|......|......|......|......|......
..|......|......|......|......|......
..|===...|===...|......|......|......
..|......|......|......|......|......
..|......|......|......|......|......
..|......|......|......|......|......
..|......|......|......|......|......
..|......|......|......|......|......
..|......|......|......|......|......
..|......|......|......|......|......
..|......|......|......|......|......
..|......|......|......|......|......
..|......|......|......|......|......
..|......|......|......|......|......
..|......|......|......|......|......
..|......|......|......|......|......
..|......|......|......|......|......
..|......|......|......|......|......
..|......|......|......|......|......
..|......|......|......|......|......
..|B-5.v2|D-6.v2|......|......|......
..|......|......|......|......|......
..|......|......|......|......|......
..|......|......|......|......|......
..|......|......|......|......|......
..|......|......|......|......|......
..|......|......|......|......|......
..|......|......|......|......|......
..|......|......|......|......|......
..|......|......|......|......|......
..|......|......|......|......|......
..|......|......|......|......|......
..|......|......|......|......|......
..|......|......|......|......|......
..|......|......|......|......|......
..|......|......|......|......|......
..|......|......|......|......|......
..|......|......|......|......|......
..|B-5.v3|D-6.v3|......|......|......
..|......|......|......|......|......
..|......|......|......|......|......
..|......|......|......|......|......
..|......|......|......|......|......
..|......|......|......|......|......
..|===...|===...|......|......|......
..|......|......|......|......|......
..|......|......|......|......|......
..|......|......|......|......|......
..|......|......|......|......|......
..|......|......|......|......|......
..|......|......|......|......|......
..|......|......|......|......|......
..|......|......|......|......|......
..|......|......|......|......|......
..|......|......|......|......|......
..|......|......|......|......|......
..|......|......|......|......|......
..|......|......|......|......|......
..|......|......|......|......|......
..|......|......|......|......|......
..|......|......|......|......|......
..|......|......|......|......|......
..|......|......|......|......|......
..|......|......|......|......|......
..|......|......|......|......|......
..|......|......|......|......|......
..|......|......|......|......|......
..|......|......|......|......|......
..|......|......|......|......|......
..|......|......|......|......|......
..|......|......|......|......|......
..|......|......|......|......|......
..|......|......|......|......|......
..|......|......|......|......|......
..|......|......|......|......|......
..|......|......|......|......|......
..|......|......|......|......|......
..|......|......|......|......|......
..|......|......|......|......|......
..|......|......|......|......|......
..|......|......|......|......|......
..|......|......|......|......|......
..|......|......|......|......|......
..|......|......|......|......|......
..|......|......|......|......|......
..|......|......|......|......|......
..|......|......|......|......|......
..|......|......|......|......|......
..|......|......|......|......|......
..|......|......|......|......|......
..|......|......|......|......|......
..|......|......|......|......|......
..|A-5.v3|D-6.v3|......|......|......
..|......|......|......|......|......
..|......|......|......|......|......
..|......|......|......|......|......
..|......|......|......|......|......
..|......|......|......|......|......
..|===...|===...|......|......|......
..|......|......|......|......|......
..|......|......|......|......|......
..|......|......|......|......|......
..|......|......|......|......|......
..|......|......|......|......|......
..|......|......|......|......|......
..|......|......|......|......|......
..|......|......|......|......|......
..|......|......|......|......|......
..|......|......|......|......|......
..|......|......|......|......|......
..|......|......|......|......|......
..|......|......|......|......|......
..|......|......|......|......|......
..|......|......|......|......|......
..|......|......|......|......|......
..|......|......|......|......|......
..|A-5.v2|D-6.v2|......|......|......
..|......|......|......|......|......
..|......|......|......|......|......
..|......|......|......|......|......
..|......|......|......|......|......
..|......|......|......|......|......
..|......|......|......|......|......
..|......|......|......|......|......
..|......|......|......|......|......
..|......|......|......|......|......
..|......|......|......|......|......
..|......|......|......|......|......
..|......|......|......|......|......
..|......|......|......|......|......
..|......|......|......|......|......
..|......|......|......|......|......
..|......|......|......|......|......
..|......|......|......|......|......
..|A-5.v3|D-6.v3|......|......|......
..|......|......|......|......|......
..|......|......|......|......|......
..|......|......|......|......|......
..|......|......|......|......|......
..|......|......|......|......|......
..|===...|===...|......|......|......
..|......|......|......|......|......
..|......|......|......|......|......
..|......|......|......|......|......
..|......|......|......|......|......
..|......|......|......|......|......
..|......|......|......|......|......
..|......|......|......|......|......
..|......|......|......|......|......
..|......|......|......|......|......
..|......|......|......|......|......
..|......|......|......|......|......
..|......|......|......|......|......
..|......|......|......|......|......
..|......|......|......|......|......
..|......|......|......|......|......
..|......|......|......|......|......
..|......|......|......|......|......
..|......|......|......|......|......
..|......|......|......|......|......
..|......|......|......|......|......
..|......|......|......|......|......
..|......|......|......|......|......
..|......|......|......|......|......
..|......|......|......|......|......
..|......|......|......|......|......
..|......|......|......|......|......
..|......|......|......|......|......
..|......|......|......|......|......
..|......|......|......|......|......
..|......|......|......|......|......
..|......|......|......|......|......
..|......|......|......|......|......
..|......|......|......|......|......
..|......|......|......|......|......
..|......|......|......|......|......
..|C-6.v3|E-6.v3|......|......|......
..|......|......|......|......|......
..|......|......|......|......|......
..|......|......|......|......|......
..|......|......|......|......|......
..|......|......|......|......|......
..|===...|===...|......|......|......
..|......|......|......|......|......
..|......|......|......|......|......
..|......|......|......|......|......
..|......|......|......|......|......
..|......|......|......|......|......
..|C-6.v3|E-6.v3|......|......|......
..|......|......|......|......|......
..|......|......|......|......|......
..|......|......|......|......|......
..|......|......|......|......|......
..|......|......|......|......|......
..|===...|===...|......|......|......
..|......|......|......|......|......
..|......|......|......|......|......
..|......|......|......|......|......
..|......|......|......|......|......
..|......|......|......|......|......
..|......|......|......|......|......
..|......|......|......|......|......
..|......|......|......|......|......
..|......|......|......|......|......
..|......|......|......|......|......
..|......|......|......|......|......
..|......|......|......|......|......
..|......|......|......|......|......
..|......|......|......|......|......
..|......|......|......|......|......
..|......|......|......|......|......
..|......|......|......|......|......
..|C-6.v3|E-6.v3|......|......|......
..|......|......|......|......|......
..|......|......|......|......|......
..|......|......|......|......|......
..|......|......|......|......|......
..|......|......|......|......|......
..|......|......|......|......|......
..|......|......|......|......|......
..|......|......|......|......|......
..|......|......|......|......|......
..|......|......|......|......|......
..|......|......|......|......|......
..|......|......|......|......|......
..|......|......|......|......|......
..|......|......|......|......|......
..|......|......|......|......|......
..|......|......|......|......|......
..|......|......|......|......|......
..|C-6.v3|E-6.v3|......|......|......
..|......|......|......|......|......
..|......|......|......|......|......
..|......|......|......|......|......
..|......|......|......|......|......
..|......|......|......|......|......
..|===...|===...|......|......|......
..|......|......|......|......|......
..|......|......|......|......|......
..|......|......|......|......|......
..|......|......|......|......|......
..|......|......|......|......|......
..|......|......|......|......|......
..|......|......|......|......|......
..|......|......|......|......|......
..|......|......|......|......|......
..|......|......|......|......|......
..|......|......|......|......|......
..|C-6.v3|E-6.v3|......|......|......
..|......|......|......|......|......
..|......|......|......|......|......
..|......|......|......|......|......
..|......|......|......|......|......
..|......|......|......|......|......
..|===...|===...|......|......|......
..|......|......|......|......|......
..|......|......|......|......|......
..|......|......|......|......|......
..|......|......|......|......|......
..|......|......|......|......|......
..|E-5.v3|......|......|......|......
..|......|......|......|......|......
..|......|......|......|......|......
..|......|......|......|......|......
..|......|......|......|......|......
..|......|......|......|......|......
..|E-5.v3|......|......|......|......
..|......|......|......|......|......
..|......|......|......|......|......
..|......|......|......|......|......
..|......|......|......|......|......
..|......|......|......|......|......
..|E-6.v3|......|......|......|......
..|......|......|......|......|......
..|......|......|......|......|......
..|......|......|......|......|......
..|......|......|......|......|......
..|......|......|......|......|......
..|E-5.v3|......|......|......|......
..|......|......|......|......|......
..|......|......|......|......|......
..|......|......|......|......|......
..|......|......|......|......|......
..|......|......|......|......|......
..|A-5.v3|E-6.v3|......|......|......
..|......|......|......|......|......
..|......|......|......|......|......
..|......|......|......|......|......
..|......|......|......|......|......
..|......|......|......|......|......
..|===...|===...|......|......|......
..|......|......|......|......|......
..|......|......|......|......|......
..|......|......|......|......|......
..|......|......|......|......|......
..|......|......|......|......|......
..|B-5.v3|D#6.v3|......|......|......
..|......|......|......|......|......
..|......|......|......|......|......
..|......|......|......|......|......
..|......|......|......|......|......
..|......|......|......|......|......
..|C-6.v3|E-6.v3|......|......|......
..|......|......|......|......|......
..|......|......|......|......|......
..|......|......|......|......|......
..|......|......|......|......|......
..|......|......|......|......|......
..|E-6.v3|G-6.v3|......|......|......
..|......|......|......|......|......
..|......|......|......|......|......
..|......|......|......|......|......
..|......|......|......|......|......
..|......|......|......|......|......
..|===...|===...|......|......|......
..|......|......|......|......|......
..|......|......|......|......|......
..|......|......|......|......|......
..|......|......|......|......|......
..|......|......|......|......|......
..|C-6.v3|E-6.v3|......|......|......
..|......|......|......|......|......
..|......|......|......|......|......
..|......|......|......|......|......
..|......|......|......|......|......
..|......|......|......|......|......
..|D-6.v3|F#6.v3|......|......|......
..|......|......|......|......|......
..|......|......|......|......|......
..|......|......|......|......|......
..|......|......|......|......|......
..|......|......|......|......|......
..|E-6.v3|G-6.v3|......|......|......
..|......|......|......|......|......
..|......|......|......|......|......
..|......|......|......|......|......
..|......|......|......|......|......
..|......|......|......|......|......
..|A-5.v3|F#6.v3|......|......|......
..|......|......|......|......|......
..|......|......|......|......|......
..|......|......|......|......|......
..|......|......|......|......|......
..|......|......|......|......|......
..|B-5.v3|E-6.v3|......|......|......
..|......|......|......|......|......
..|......|......|......|......|......
..|......|......|......|......|......
..|......|......|......|......|......
..|......|......|......|......|......
..|F#6.v3|D-6.v3|......|......|......
..|......|......|......|......|......
..|......|......|......|......|......
..|......|......|......|......|......
..|......|......|......|......|......
..|......|......|......|......|......
..|===...|===...|......|......|......
#halt
#halt
