#compressed
#unkc
#track 3
#inst 4
#unk6 10
#unk6 7
#pan 80
#volume 55
..|C-6.v3
..|......
..|......
..|......
..|......
..|......
..|===...
..|......
..|......
..|......
..|......
..|......
..|......
..|......
..|......
..|......
..|......
..|......
..|......
..|......
..|......
..|......
..|......
..|......
..|E-6.v3
..|......
..|......
..|......
..|......
..|......
..|===...
..|......
..|......
..|......
..|......
..|......
..|......
..|......
..|......
..|......
..|......
..|......
..|......
..|......
..|......
..|......
..|......
..|......
..|A-5.v3
..|......
..|......
..|......
..|......
..|......
..|......
..|......
..|......
..|......
..|......
..|......
..|......
..|......
..|......
..|......
..|......
..|......
..|......
..|......
..|......
..|......
..|......
..|......
..|......
..|......
..|......
..|......
..|......
..|......
..|......
..|......
..|......
..|......
..|......
..|......
..|......
..|......
..|......
..|......
..|......
..|......
..|......
..|......
..|......
..|......
..|......
..|......
..|===...
..|......
..|......
..|......
..|......
..|......
..|......
..|......
..|......
..|......
..|......
..|......
..|C-6.v3
..|......
..|......
..|......
..|......
..|......
..|......
..|......
..|......
..|......
..|......
..|......
..|D-6.v3
..|......
..|......
..|......
..|......
..|......
..|......
..|......
..|......
..|......
..|......
..|......
..|C-6.v3
..|......
..|......
..|......
..|......
..|......
..|......
..|......
..|......
..|......
..|......
..|......
..|A-5.v3
..|......
..|......
..|......
..|......
..|......
..|......
..|......
..|......
..|......
..|......
..|......
..|C-6.v3
..|......
..|......
..|......
..|......
..|......
..|......
..|......
..|......
..|......
..|......
..|......
..|A-5.v3
..|......
..|......
..|......
..|......
..|......
..|......
..|......
..|......
..|......
..|......
..|......
..|E-5.v3
..|......
..|......
..|......
..|......
..|......
..|......
..|......
..|......
..|......
..|......
..|......
..|D-5.v3
..|......
..|......
..|......
..|......
..|......
..|===...
..|......
..|......
..|......
..|......
..|......
..|......
..|......
..|......
..|......
..|......
..|......
..|......
..|......
..|......
..|......
..|......
..|......
..|G-5.v3
..|......
..|......
..|......
..|......
..|......
..|===...
..|......
..|......
..|......
..|......
..|......
..|......
..|......
..|......
..|......
..|......
..|......
..|......
..|......
..|......
..|......
..|......
..|......
..|E-5.v3
..|......
..|......
..|......
..|......
..|......
..|......
..|......
..|......
..|......
..|......
..|......
..|......
..|......
..|......
..|......
..|......
..|......
..|......
..|......
..|......
..|......
..|......
..|......
..|......
..|......
..|......
..|......
..|......
..|......
..|......
..|......
..|......
..|......
..|......
..|......
..|......
..|......
..|......
..|......
..|......
..|......
..|......
..|......
..|......
..|......
..|......
..|......
..|......
..|......
..|......
..|......
..|......
..|......
..|......
..|......
..|......
..|......
..|......
..|......
..|......
..|......
..|......
..|......
..|......
..|......
..|......
..|......
..|......
..|......
..|......
..|......
..|......
..|......
..|......
..|......
..|......
..|......
..|......
..|......
..|......
..|......
..|......
..|......
..|......
..|......
..|......
..|......
..|......
..|......
..|......
..|......
..|......
..|......
..|......
..|......
..|......
..|......
..|......
..|===...
..|......
..|......
..|......
..|......
..|......
..|......
..|......
..|......
..|......
..|......
..|......
..|......
..|......
..|......
..|......
..|......
..|......
..|......
..|......
..|......
..|......
..|......
..|......
..|......
..|......
..|......
..|......
..|......
..|......
..|......
..|......
..|......
..|......
..|......
..|......
..|......
..|......
..|......
..|......
..|......
..|......
..|......
..|......
..|......
..|C-6.v3
..|......
..|......
..|......
..|......
..|......
..|===...
..|......
..|......
..|......
..|......
..|......
..|......
..|......
..|......
..|......
..|......
..|......
..|......
..|......
..|......
..|......
..|......
..|......
..|E-6.v3
..|......
..|......
..|......
..|......
..|......
..|===...
..|......
..|......
..|......
..|......
..|......
..|......
..|......
..|......
..|......
..|......
..|......
..|......
..|......
..|......
..|......
..|......
..|......
..|A-5.v3
..|......
..|......
..|......
..|......
..|......
..|......
..|......
..|......
..|......
..|......
..|......
..|......
..|......
..|......
..|......
..|......
..|......
..|......
..|......
..|......
..|......
..|......
..|......
..|......
..|......
..|......
..|......
..|......
..|......
..|......
..|......
..|......
..|......
..|......
..|......
..|......
..|......
..|......
..|......
..|......
..|......
..|......
..|......
..|......
..|......
..|......
..|......
..|===...
..|......
..|......
..|......
..|......
..|......
..|......
..|......
..|......
..|......
..|......
..|......
..|C-6.v3
..|......
..|......
..|......
..|......
..|......
..|......
..|......
..|......
..|......
..|......
..|......
..|D-6.v3
..|......
..|......
..|......
..|......
..|......
..|......
..|......
..|......
..|......
..|......
..|......
..|C-6.v3
..|......
..|......
..|......
..|......
..|......
..|......
..|......
..|......
..|......
..|......
..|......
..|A-5.v3
..|......
..|......
..|......
..|......
..|......
..|......
..|......
..|......
..|......
..|......
..|......
..|C-6.v3
..|......
..|......
..|......
..|......
..|......
..|......
..|......
..|......
..|......
..|......
..|......
..|A-5.v3
..|......
..|......
..|......
..|......
..|......
..|......
..|......
..|......
..|......
..|......
..|......
..|E-5.v3
..|......
..|......
..|......
..|......
..|......
..|......
..|......
..|......
..|......
..|......
..|......
..|D-5.v3
..|......
..|......
..|......
..|......
..|......
..|===...
..|......
..|......
..|......
..|......
..|......
..|......
..|......
..|......
..|......
..|......
..|......
..|......
..|......
..|......
..|......
..|......
..|......
..|G-5.v3
..|......
..|......
..|......
..|......
..|......
..|===...
..|......
..|......
..|......
..|......
..|......
..|......
..|......
..|......
..|......
..|......
..|......
..|......
..|......
..|......
..|......
..|......
..|......
..|E-5.v3
..|......
..|......
..|......
..|......
..|......
..|......
..|......
..|......
..|......
..|......
..|......
..|......
..|......
..|......
..|......
..|......
..|......
..|......
..|......
..|......
..|......
..|......
..|......
..|......
..|......
..|......
..|......
..|......
..|......
..|......
..|......
..|......
..|......
..|......
..|......
..|......
..|......
..|......
..|......
..|......
..|......
..|......
..|......
..|......
..|......
..|......
..|......
..|......
..|......
..|......
..|......
..|......
..|......
..|......
..|......
..|......
..|......
..|......
..|......
..|......
..|......
..|......
..|......
..|......
..|......
..|......
..|......
..|......
..|......
..|......
..|......
..|......
..|......
..|......
..|......
..|......
..|......
..|......
..|......
..|......
..|......
..|......
..|......
..|......
..|......
..|......
..|......
..|......
..|......
..|......
..|......
..|......
..|......
..|......
..|......
..|......
..|......
..|......
..|......
..|......
..|......
..|......
..|......
..|......
..|......
..|......
..|......
..|......
..|......
..|......
..|......
..|......
..|......
..|F-5.v2
..|......
..|......
..|F#5.v2
..|......
..|......
..|G-5.v3
..|......
..|......
..|......
..|......
..|......
..|......
..|......
..|......
..|......
..|......
..|......
..|A-5.v3
..|......
..|......
..|......
..|......
..|......
..|......
..|......
..|......
..|......
..|......
..|......
..|C-6.v3
..|......
..|......
..|......
..|......
..|......
..|===...
..|......
..|......
..|......
..|......
..|......
..|......
..|......
..|......
..|......
..|......
..|......
..|......
..|......
..|......
..|......
..|......
..|......
..|E-6.v3
..|......
..|......
..|......
..|......
..|......
..|===...
..|......
..|......
..|......
..|......
..|......
..|......
..|......
..|......
..|......
..|......
..|......
..|......
..|......
..|......
..|......
..|......
..|......
..|A-5.v3
..|......
..|......
..|......
..|......
..|......
..|......
..|......
..|......
..|......
..|......
..|......
..|......
..|......
..|......
..|......
..|......
..|......
..|......
..|......
..|......
..|......
..|......
..|......
..|......
..|......
..|......
..|......
..|......
..|......
..|......
..|......
..|......
..|......
..|......
..|......
..|......
..|......
..|......
..|......
..|......
..|......
..|......
..|......
..|......
..|......
..|......
..|......
..|===...
..|......
..|......
..|......
..|......
..|......
..|......
..|......
..|......
..|......
..|......
..|......
..|C-6.v3
..|......
..|......
..|......
..|......
..|......
..|......
..|......
..|......
..|......
..|......
..|......
..|D-6.v3
..|......
..|......
..|......
..|......
..|......
..|......
..|......
..|......
..|......
..|......
..|......
..|C-6.v3
..|......
..|......
..|......
..|......
..|......
..|......
..|......
..|......
..|......
..|......
..|......
..|A-5.v3
..|......
..|......
..|......
..|......
..|......
..|......
..|......
..|......
..|......
..|......
..|......
..|C-6.v3
..|......
..|......
..|......
..|......
..|......
..|......
..|......
..|......
..|......
..|......
..|......
..|A-5.v3
..|......
..|......
..|......
..|C-6.v3
..|......
..|......
..|......
..|A-5.v3
..|......
..|......
..|......
..|E-5.v3
..|......
..|......
..|......
..|......
..|......
..|......
..|......
..|......
..|......
..|......
..|......
..|D-5.v3
..|......
..|......
..|......
..|......
..|......
..|===...
..|......
..|......
..|......
..|......
..|......
..|......
..|......
..|......
..|......
..|......
..|......
..|......
..|......
..|......
..|......
..|......
..|......
..|G-5.v3
..|......
..|......
..|......
..|......
..|......
..|===...
..|......
..|......
..|......
..|......
..|......
..|......
..|......
..|......
..|......
..|......
..|......
..|......
..|......
..|......
..|......
..|......
..|......
..|E-5.v3
..|......
..|......
..|......
..|......
..|......
..|......
..|......
..|......
..|......
..|......
..|......
..|......
..|......
..|......
..|......
..|......
..|......
..|......
..|......
..|......
..|......
..|......
..|......
..|......
..|......
..|......
..|......
..|......
..|......
..|......
..|......
..|......
..|......
..|......
..|......
..|......
..|......
..|......
..|......
..|......
..|......
..|......
..|......
..|......
..|......
..|......
..|......
..|......
..|......
..|......
..|......
..|......
..|......
..|......
..|......
..|......
..|......
..|......
..|......
..|......
..|......
..|......
..|......
..|......
..|......
..|......
..|......
..|......
..|......
..|......
..|......
..|......
..|......
..|......
..|......
..|......
..|......
..|......
..|......
..|......
..|......
..|......
..|......
..|......
..|......
..|......
..|......
..|......
..|......
..|......
..|......
..|......
..|......
..|......
..|......
..|......
..|......
..|......
..|......
..|......
..|......
..|......
..|......
..|......
..|......
..|......
..|......
..|......
..|......
..|......
..|......
..|......
..|......
..|F-5.v2
..|......
..|......
..|F#5.v2
..|......
..|......
..|G-5.v3
..|......
..|......
..|......
..|......
..|......
..|......
..|......
..|......
..|......
..|......
..|......
..|A-5.v3
..|......
..|......
..|......
..|......
..|......
..|......
..|......
..|......
..|......
..|......
..|......
..|C-6.v3
..|......
..|......
..|......
..|......
..|......
..|===...
..|......
..|......
..|......
..|......
..|......
..|......
..|......
..|......
..|......
..|......
..|......
..|......
..|......
..|......
..|......
..|......
..|......
..|E-6.v3
..|......
..|......
..|......
..|......
..|......
..|===...
..|......
..|......
..|......
..|......
..|......
..|......
..|......
..|......
..|......
..|......
..|......
..|......
..|......
..|......
..|......
..|......
..|......
..|A-5.v3
..|......
..|......
..|......
..|......
..|......
..|......
..|......
..|......
..|......
..|......
..|......
..|......
..|......
..|......
..|......
..|......
..|......
..|......
..|......
..|......
..|......
..|......
..|......
..|......
..|......
..|......
..|......
..|......
..|......
..|......
..|......
..|......
..|......
..|......
..|......
..|......
..|......
..|......
..|......
..|......
..|......
..|......
..|......
..|......
..|......
..|......
..|......
..|===...
..|......
..|......
..|......
..|......
..|......
..|......
..|......
..|......
..|......
..|......
..|......
..|C-6.v3
..|......
..|......
..|......
..|......
..|......
..|......
..|......
..|......
..|......
..|......
..|......
..|D-6.v3
..|......
..|......
..|......
..|......
..|......
..|......
..|......
..|......
..|......
..|......
..|......
..|C-6.v3
..|......
..|......
..|......
..|......
..|......
..|......
..|......
..|......
..|......
..|......
..|......
..|A-5.v3
..|......
..|......
..|......
..|......
..|......
..|......
..|......
..|......
..|......
..|......
..|......
..|C-6.v3
..|......
..|......
..|......
..|......
..|......
..|......
..|......
..|......
..|......
..|......
..|......
..|A-5.v3
..|......
..|......
..|......
..|......
..|......
..|C-6.v3
..|......
..|......
..|......
..|......
..|......
..|A-5.v3
..|......
..|......
..|......
..|......
..|......
..|E-5.v3
..|......
..|......
..|......
..|......
..|......
..|D-5.v3
..|......
..|......
..|......
..|......
..|......
..|===...
..|......
..|......
..|......
..|......
..|......
..|......
..|......
..|......
..|......
..|......
..|......
..|......
..|......
..|......
..|......
..|......
..|......
..|G-5.v3
..|......
..|......
..|......
..|......
..|......
..|===...
..|......
..|......
..|......
..|......
..|......
..|......
..|......
..|......
..|......
..|......
..|......
..|......
..|......
..|......
..|......
..|......
..|......
..|E-5.v3
..|......
..|......
..|......
..|......
..|......
..|......
..|......
..|......
..|......
..|......
..|......
..|......
..|......
..|......
..|......
..|......
..|......
..|......
..|......
..|......
..|......
..|......
..|......
..|......
..|......
..|......
..|......
..|......
..|......
..|......
..|......
..|......
..|......
..|......
..|......
..|......
..|......
..|......
..|......
..|......
..|......
..|......
..|......
..|......
..|......
..|......
..|......
..|===...
..|......
..|......
..|......
..|......
..|......
..|......
..|......
..|......
..|......
..|......
..|......
..|......
..|......
..|......
..|......
..|......
..|......
..|......
..|......
..|......
..|......
..|......
..|......
..|......
..|......
..|......
..|......
..|......
..|......
..|......
..|......
..|......
..|......
..|......
..|......
..|......
..|......
..|......
..|......
..|......
..|......
..|......
..|......
..|......
..|......
..|......
..|......
..|......
..|......
..|......
..|......
..|......
..|......
..|......
..|......
..|......
..|......
..|......
..|......
..|......
..|......
..|......
..|......
..|......
..|......
..|......
..|......
..|......
..|......
..|......
..|......
..|......
..|......
..|......
..|......
..|......
..|......
..|......
..|......
..|......
..|......
..|......
..|......
..|......
..|......
..|......
..|......
..|......
..|......
..|......
..|......
..|......
..|......
..|......
..|......
#inst 0
#unk6 7
#volume 50
..|E-5.v2
..|......
..|......
..|......
..|......
..|......
..|===...
..|......
..|......
..|......
..|......
..|......
..|......
..|......
..|......
..|......
..|......
..|......
..|E-5.v2
..|......
..|......
..|......
..|......
..|......
..|===...
..|......
..|......
..|......
..|......
..|......
..|......
..|......
..|......
..|......
..|......
..|......
..|E-5.v2
..|......
..|......
..|......
..|......
..|......
..|===...
..|......
..|......
..|......
..|......
..|......
..|......
..|......
..|......
..|......
..|......
..|......
..|......
..|......
..|......
..|......
..|......
..|......
..|E-5.v1
..|......
..|......
..|......
..|......
..|......
..|===...
..|......
..|......
..|......
..|......
..|......
..|E-5.v1
..|......
..|......
..|......
..|......
..|......
..|===...
..|......
..|......
..|......
..|......
..|......
..|......
..|......
..|......
..|......
..|......
..|......
..|......
..|......
..|......
..|......
..|......
..|......
..|D-5.v2
..|......
..|......
..|......
..|......
..|......
..|===...
..|......
..|......
..|......
..|......
..|......
..|......
..|......
..|......
..|......
..|......
..|......
..|D-5.v2
..|......
..|......
..|......
..|......
..|......
..|===...
..|......
..|......
..|......
..|......
..|......
..|......
..|......
..|......
..|......
..|......
..|......
..|D-5.v2
..|......
..|......
..|......
..|......
..|......
..|===...
..|......
..|......
..|......
..|......
..|......
..|......
..|......
..|......
..|......
..|......
..|......
..|......
..|......
..|......
..|......
..|......
..|......
..|D-5.v1
..|......
..|......
..|......
..|......
..|......
..|===...
..|......
..|......
..|......
..|......
..|......
..|D-5.v1
..|......
..|......
..|......
..|......
..|......
..|===...
..|......
..|......
..|......
..|......
..|......
..|......
..|......
..|......
..|......
..|......
..|......
..|......
..|......
..|......
..|......
..|......
..|......
..|B-4.v2
..|......
..|......
..|......
..|......
..|......
..|===...
..|......
..|......
..|......
..|......
..|......
..|......
..|......
..|......
..|......
..|......
..|......
..|B-4.v2
..|......
..|......
..|......
..|......
..|......
..|===...
..|......
..|......
..|......
..|......
..|......
..|......
..|......
..|......
..|......
..|......
..|......
..|B-4.v2
..|......
..|......
..|......
..|......
..|......
..|===...
..|......
..|......
..|......
..|......
..|......
..|......
..|......
..|......
..|......
..|......
..|......
..|......
..|......
..|......
..|......
..|......
..|......
..|B-4.v1
..|......
..|......
..|......
..|......
..|......
..|===...
..|......
..|......
..|......
..|......
..|......
..|B-4.v1
..|......
..|......
..|......
..|......
..|......
..|===...
..|......
..|......
..|......
..|......
..|......
..|......
..|......
..|......
..|......
..|......
..|......
..|......
..|......
..|......
..|......
..|......
..|......
..|B-4.v2
..|......
..|......
..|......
..|......
..|......
..|===...
..|......
..|......
..|......
..|......
..|......
..|......
..|......
..|......
..|......
..|......
..|......
..|B-4.v2
..|......
..|......
..|......
..|......
..|......
..|===...
..|......
..|......
..|......
..|......
..|......
..|......
..|......
..|......
..|......
..|......
..|......
..|B-4.v2
..|......
..|......
..|......
..|......
..|......
..|===...
..|......
..|......
..|......
..|......
..|......
..|......
..|......
..|......
..|......
..|......
..|......
..|......
..|......
..|......
..|......
..|......
..|......
..|B-4.v1
..|......
..|......
..|......
..|......
..|......
..|===...
..|......
..|......
..|......
..|......
..|......
..|B-4.v1
..|......
..|......
..|......
..|......
..|......
..|===...
..|......
..|......
..|......
..|......
..|......
..|......
..|......
..|......
..|......
..|......
..|......
..|......
..|......
..|......
..|......
..|......
..|......
..|E-5.v2
..|......
..|......
..|......
..|......
..|......
..|===...
..|......
..|......
..|......
..|......
..|......
..|......
..|......
..|......
..|......
..|......
..|......
..|E-5.v2
..|......
..|......
..|......
..|......
..|......
..|===...
..|......
..|......
..|......
..|......
..|......
..|......
..|......
..|......
..|......
..|......
..|......
..|E-5.v2
..|......
..|......
..|......
..|......
..|......
..|===...
..|......
..|......
..|......
..|......
..|......
..|......
..|......
..|......
..|......
..|......
..|......
..|......
..|......
..|......
..|......
..|......
..|......
..|E-5.v1
..|......
..|......
..|......
..|......
..|......
..|===...
..|......
..|......
..|......
..|......
..|......
..|E-5.v1
..|......
..|......
..|......
..|......
..|......
..|===...
..|......
..|......
..|......
..|......
..|......
..|......
..|......
..|......
..|......
..|......
..|......
..|......
..|......
..|......
..|......
..|......
..|......
..|D-5.v2
..|......
..|......
..|......
..|......
..|......
..|===...
..|......
..|......
..|......
..|......
..|......
..|......
..|......
..|......
..|......
..|......
..|......
..|D-5.v2
..|......
..|......
..|......
..|......
..|......
..|===...
..|......
..|......
..|......
..|......
..|......
..|......
..|......
..|......
..|......
..|......
..|......
..|D-5.v2
..|......
..|......
..|......
..|......
..|......
..|===...
..|......
..|......
..|......
..|......
..|......
..|......
..|......
..|......
..|......
..|......
..|......
..|......
..|......
..|......
..|......
..|......
..|......
..|D-5.v1
..|......
..|......
..|......
..|......
..|......
..|===...
..|......
..|......
..|......
..|......
..|......
..|D-5.v1
..|......
..|......
..|......
..|......
..|......
..|===...
..|......
..|......
..|......
..|......
..|......
..|......
..|......
..|......
..|......
..|......
..|......
..|......
..|......
..|......
..|......
..|......
..|......
..|B-4.v2
..|......
..|......
..|......
..|......
..|......
..|===...
..|......
..|......
..|......
..|......
..|......
..|......
..|......
..|......
..|......
..|......
..|......
..|B-4.v2
..|......
..|......
..|......
..|......
..|......
..|===...
..|......
..|......
..|......
..|......
..|......
..|......
..|......
..|......
..|......
..|......
..|......
..|B-4.v2
..|......
..|......
..|......
..|......
..|......
..|===...
..|......
..|......
..|......
..|......
..|......
..|......
..|......
..|......
..|......
..|......
..|......
..|......
..|......
..|......
..|......
..|......
..|......
..|B-4.v1
..|......
..|......
..|......
..|......
..|......
..|===...
..|......
..|......
..|......
..|......
..|......
..|B-4.v1
..|......
..|......
..|......
..|......
..|......
..|===...
..|......
..|......
..|......
..|......
..|......
..|......
..|......
..|......
..|......
..|......
..|......
..|......
..|......
..|......
..|......
..|......
..|......
..|B-4.v2
..|......
..|......
..|......
..|......
..|......
..|===...
..|......
..|......
..|......
..|......
..|......
..|......
..|......
..|......
..|......
..|......
..|......
..|B-4.v2
..|......
..|......
..|......
..|......
..|......
..|===...
..|......
..|......
..|......
..|......
..|......
..|......
..|......
..|......
..|......
..|......
..|......
..|B-4.v2
..|......
..|......
..|......
..|......
..|......
..|===...
..|......
..|......
..|......
..|......
..|......
..|......
..|......
..|......
..|......
..|......
..|......
..|......
..|......
..|......
..|......
..|......
..|......
..|B-4.v1
..|......
..|......
..|......
..|......
..|......
..|===...
..|......
..|......
..|......
..|......
..|......
..|B-4.v1
..|......
..|......
..|......
..|......
..|......
..|===...
..|......
..|......
..|......
..|......
..|......
..|......
..|......
..|......
..|......
..|......
..|......
..|......
..|......
..|......
..|......
..|......
..|......
#inst 4
#unk6 7
#volume 55
..|......
..|......
..|......
..|......
..|......
..|......
..|D-5.v2
..|......
..|......
..|......
..|......
..|......
..|D-6.v2
..|......
..|......
..|......
..|......
..|......
..|D-5.v2
..|......
..|......
..|......
..|......
..|......
..|F#5.v2
..|......
..|......
..|......
..|......
..|......
..|===...
..|......
..|......
..|......
..|......
..|......
..|A-5.v2
..|......
..|......
..|......
..|......
..|......
..|B-5.v2
..|......
..|......
..|......
..|......
..|......
..|C-6.v2
..|......
..|......
..|......
..|......
..|......
..|===...
..|......
..|......
..|......
..|......
..|......
..|C-6.v2
..|......
..|......
..|......
..|......
..|......
..|===...
..|......
..|......
..|......
..|......
..|......
..|B-5.v3
..|......
..|......
..|......
..|......
..|......
..|===...
..|......
..|......
..|......
..|......
..|......
..|......
..|......
..|......
..|......
..|......
..|......
..|......
..|......
..|......
..|......
..|......
..|......
..|C-5.v2
..|......
..|......
..|......
..|......
..|......
..|C-5.v2
..|......
..|......
..|......
..|......
..|......
..|C-6.v2
..|......
..|......
..|......
..|......
..|......
..|C-5.v2
..|......
..|......
..|......
..|......
..|......
..|E-5.v2
..|......
..|......
..|......
..|......
..|......
..|===...
..|......
..|......
..|......
..|......
..|......
..|G-5.v2
..|......
..|......
..|......
..|......
..|......
..|A-5.v2
..|......
..|......
..|......
..|......
..|......
..|A#5.v2
..|......
..|......
..|......
..|......
..|......
..|===...
..|......
..|......
..|......
..|......
..|......
..|A-5.v2
..|......
..|......
..|......
..|......
..|......
..|A#5.v2
..|......
..|......
..|......
..|......
..|......
..|C-5.v2
..|......
..|......
..|......
..|......
..|......
..|B-4.v2
..|......
..|......
..|......
..|......
..|......
..|C-5.v2
..|......
..|......
..|......
..|......
..|......
..|===...
..|......
..|......
..|......
..|......
..|......
..|A-4.v2
..|......
..|......
..|......
..|......
..|......
..|A-4.v2
..|......
..|......
..|......
..|......
..|......
..|A-5.v2
..|......
..|......
..|......
..|......
..|......
..|A-4.v2
..|......
..|......
..|......
..|......
..|......
..|G-5.v2
..|......
..|......
..|......
..|......
..|......
..|===...
..|......
..|......
..|......
..|......
..|......
..|F#5.v2
..|......
..|......
..|......
..|......
..|......
..|G-5.v2
..|......
..|......
..|......
..|......
..|......
..|A-4.v2
..|......
..|......
..|......
..|......
..|......
..|===...
..|......
..|......
..|......
..|......
..|......
..|A-5.v2
..|......
..|......
..|......
..|......
..|......
..|===...
..|......
..|......
..|......
..|......
..|......
..|A-4.v2
..|......
..|......
..|......
..|......
..|......
..|===...
..|......
..|......
..|......
..|......
..|......
..|......
..|......
..|......
..|......
..|......
..|......
..|......
..|......
..|......
..|......
..|......
..|......
..|A-4.v2
..|......
..|......
..|......
..|......
..|......
..|A-4.v2
..|......
..|......
..|......
..|......
..|......
..|A-5.v2
..|......
..|......
..|......
..|......
..|......
..|A-4.v2
..|......
..|......
..|......
..|......
..|......
..|G-5.v2
..|......
..|......
..|......
..|......
..|......
..|===...
..|......
..|......
..|......
..|......
..|......
..|F#5.v2
..|......
..|......
..|......
..|......
..|......
..|G-5.v2
..|......
..|......
..|......
..|......
..|......
..|A-4.v2
..|......
..|......
..|......
..|......
..|......
..|===...
..|......
..|......
..|......
..|......
..|......
..|A-5.v2
..|......
..|......
..|......
..|......
..|......
..|===...
..|......
..|......
..|......
..|......
..|......
..|A-4.v2
..|......
..|......
..|......
..|......
..|......
..|===...
..|......
..|......
..|......
..|......
..|......
..|F#5.v2
..|......
..|......
..|F-5.v2
..|......
..|......
..|E-5.v2
..|......
..|......
..|D#5.v2
..|......
..|......
..|D-5.v2
..|......
..|......
..|......
..|......
..|......
..|D-5.v2
..|......
..|......
..|......
..|......
..|......
..|D-6.v2
..|......
..|......
..|......
..|......
..|......
..|D-5.v2
..|......
..|......
..|......
..|......
..|......
..|F#5.v2
..|......
..|......
..|......
..|......
..|......
..|===...
..|......
..|......
..|......
..|......
..|......
..|A-5.v2
..|......
..|......
..|......
..|......
..|......
..|B-5.v2
..|......
..|......
..|......
..|......
..|......
..|C-6.v2
..|......
..|......
..|......
..|......
..|......
..|===...
..|......
..|......
..|......
..|......
..|......
..|C-6.v2
..|......
..|......
..|......
..|......
..|......
..|===...
..|......
..|......
..|......
..|......
..|......
..|B-5.v3
..|......
..|......
..|......
..|......
..|......
..|===...
..|......
..|......
..|......
..|......
..|......
..|......
..|......
..|......
..|......
..|......
..|......
..|......
..|......
..|......
..|......
..|......
..|......
..|C-5.v2
..|......
..|......
..|......
..|......
..|......
..|C-5.v2
..|......
..|......
..|......
..|......
..|......
..|C-6.v2
..|......
..|......
..|......
..|......
..|......
..|C-5.v2
..|......
..|......
..|......
..|......
..|......
..|E-5.v2
..|......
..|......
..|......
..|......
..|......
..|===...
..|......
..|......
..|......
..|......
..|......
..|G-5.v2
..|......
..|......
..|......
..|......
..|......
..|A-5.v2
..|......
..|......
..|......
..|......
..|......
..|A#5.v2
..|......
..|......
..|......
..|......
..|......
..|===...
..|......
..|......
..|......
..|......
..|......
..|A-5.v2
..|......
..|......
..|......
..|......
..|......
..|A#5.v2
..|......
..|......
..|......
..|......
..|......
..|C-5.v2
..|......
..|......
..|......
..|......
..|......
..|B-4.v2
..|......
..|......
..|......
..|......
..|......
..|C-5.v2
..|......
..|......
..|......
..|......
..|......
..|===...
..|......
..|......
..|......
..|......
..|......
..|A-4.v2
..|......
..|......
..|......
..|......
..|......
..|A-4.v2
..|......
..|......
..|......
..|......
..|......
..|A-5.v2
..|......
..|......
..|......
..|......
..|......
..|A-4.v2
..|......
..|......
..|......
..|......
..|......
..|G-5.v2
..|......
..|......
..|......
..|......
..|......
..|===...
..|......
..|......
..|......
..|......
..|......
..|F#5.v2
..|......
..|......
..|......
..|......
..|......
..|G-5.v2
..|......
..|......
..|......
..|......
..|......
..|A-4.v2
..|......
..|......
..|......
..|......
..|......
..|===...
..|......
..|......
..|......
..|......
..|......
..|A-5.v2
..|......
..|......
..|......
..|......
..|......
..|===...
..|......
..|......
..|......
..|......
..|......
..|A-4.v2
..|......
..|......
..|......
..|......
..|......
..|===...
#halt
#halt
