#compressed
#unkc
#track 6
#inst 5
#unk6 10
#unk6 7
#pan 40
#volume 5f
..|......|......
..|......|......
..|......|......
..|......|......
..|......|......
..|......|......
..|......|......
..|......|......
..|......|......
..|......|......
..|......|......
..|......|......
..|D-6.v2|C-6.v2
..|......|......
..|......|......
..|===...|===...
..|......|......
..|......|......
..|D-6.v2|C-6.v2
..|......|......
..|......|......
..|===...|===...
..|......|......
..|......|......
..|......|......
..|......|......
..|......|......
..|......|......
..|......|......
..|......|......
..|......|......
..|......|......
..|......|......
..|......|......
..|......|......
..|......|......
..|D-6.v3|C-6.v3
..|......|......
..|......|......
..|===...|===...
..|......|......
..|......|......
..|D-6.v2|C-6.v2
..|......|......
..|......|......
..|===...|===...
..|......|......
..|......|......
..|......|......
..|......|......
..|......|......
..|......|......
..|......|......
..|......|......
..|......|......
..|......|......
..|......|......
..|......|......
..|......|......
..|......|......
..|D-6.v3|C-6.v3
..|......|......
..|......|......
..|===...|===...
..|......|......
..|......|......
..|D-6.v2|C-6.v2
..|......|......
..|......|......
..|===...|===...
..|......|......
..|......|......
..|......|......
..|......|......
..|......|......
..|......|......
..|......|......
..|......|......
..|......|......
..|......|......
..|......|......
..|......|......
..|......|......
..|......|......
..|D-6.v2|C-6.v2
..|......|......
..|......|......
..|===...|===...
..|......|......
..|......|......
..|D-6.v2|C-6.v2
..|......|......
..|......|......
..|===...|===...
..|......|......
..|......|......
..|......|......
..|......|......
..|......|......
..|......|......
..|......|......
..|......|......
..|......|......
..|......|......
..|......|......
..|......|......
..|......|......
..|......|......
..|C-6.v2|A#5.v2
..|......|......
..|......|......
..|===...|===...
..|......|......
..|......|......
..|C-6.v2|A#5.v2
..|......|......
..|......|......
..|===...|===...
..|......|......
..|......|......
..|......|......
..|......|......
..|......|......
..|......|......
..|......|......
..|......|......
..|......|......
..|......|......
..|......|......
..|......|......
..|......|......
..|......|......
..|C-6.v3|A#5.v3
..|......|......
..|......|......
..|===...|===...
..|......|......
..|......|......
..|C-6.v2|A#5.v2
..|......|......
..|......|......
..|===...|===...
..|......|......
..|......|......
..|......|......
..|......|......
..|......|......
..|......|......
..|......|......
..|......|......
..|......|......
..|......|......
..|......|......
..|......|......
..|......|......
..|......|......
..|C-6.v3|A#5.v3
..|......|......
..|......|......
..|===...|===...
..|......|......
..|......|......
..|C-6.v2|A#5.v2
..|......|......
..|......|......
..|===...|===...
..|......|......
..|......|......
..|......|......
..|......|......
..|......|......
..|......|......
..|......|......
..|......|......
..|......|......
..|......|......
..|......|......
..|......|......
..|......|......
..|......|......
..|C-6.v2|A#5.v2
..|......|......
..|......|......
..|===...|===...
..|......|......
..|......|......
..|C-6.v2|A#5.v2
..|......|......
..|......|......
..|===...|===...
..|......|......
..|......|......
..|......|......
..|......|......
..|......|......
..|......|......
..|......|......
..|......|......
..|......|......
..|......|......
..|......|......
..|......|......
..|......|......
..|......|......
..|A-5.v2|G-5.v2
..|......|......
..|......|......
..|===...|===...
..|......|......
..|......|......
..|A-5.v2|G-5.v2
..|......|......
..|......|......
..|===...|===...
..|......|......
..|......|......
..|......|......
..|......|......
..|......|......
..|......|......
..|......|......
..|......|......
..|......|......
..|......|......
..|......|......
..|......|......
..|......|......
..|......|......
..|A-5.v3|G-5.v3
..|......|......
..|......|......
..|===...|===...
..|......|......
..|......|......
..|A-5.v2|G-5.v2
..|......|......
..|......|......
..|===...|===...
..|......|......
..|......|......
..|......|......
..|......|......
..|......|......
..|......|......
..|......|......
..|......|......
..|......|......
..|......|......
..|......|......
..|......|......
..|......|......
..|......|......
..|A-5.v3|G-5.v3
..|......|......
..|......|......
..|===...|===...
..|......|......
..|......|......
..|A-5.v2|G-5.v2
..|......|......
..|......|......
..|===...|===...
..|......|......
..|......|......
..|......|......
..|......|......
..|......|......
..|......|......
..|......|......
..|......|......
..|......|......
..|......|......
..|......|......
..|......|......
..|......|......
..|......|......
..|A-5.v2|G-5.v2
..|......|......
..|......|......
..|===...|===...
..|......|......
..|......|......
..|A-5.v2|G-5.v2
..|......|......
..|......|......
..|===...|===...
..|......|......
..|......|......
..|......|......
..|......|......
..|......|......
..|......|......
..|......|......
..|......|......
..|......|......
..|......|......
..|......|......
..|......|......
..|......|......
..|......|......
..|A-5.v3|G-5.v3
..|......|......
..|......|......
..|===...|===...
..|......|......
..|......|......
..|A-5.v3|G-5.v3
..|......|......
..|......|......
..|===...|===...
..|......|......
..|......|......
..|......|......
..|......|......
..|......|......
..|......|......
..|......|......
..|......|......
..|......|......
..|......|......
..|......|......
..|......|......
..|......|......
..|......|......
..|A-5.v3|G-5.v3
..|......|......
..|......|......
..|===...|===...
..|......|......
..|......|......
..|A-5.v2|G-5.v2
..|......|......
..|......|......
..|===...|===...
..|......|......
..|......|......
..|......|......
..|......|......
..|......|......
..|......|......
..|......|......
..|......|......
..|......|......
..|......|......
..|......|......
..|......|......
..|......|......
..|......|......
..|A-5.v3|G-5.v3
..|......|......
..|......|......
..|===...|===...
..|......|......
..|......|......
..|......|......
..|......|......
..|......|......
..|......|......
..|......|......
..|......|......
..|A-5.v3|G-5.v3
..|......|......
..|......|......
..|===...|===...
..|......|......
..|......|......
..|......|......
..|......|......
..|......|......
..|......|......
..|......|......
..|......|......
..|......|......
..|......|......
..|......|......
..|......|......
..|......|......
..|......|......
..|......|......
..|......|......
..|......|......
..|......|......
..|......|......
..|......|......
..|......|......
..|......|......
..|......|......
..|......|......
..|......|......
..|......|......
..|......|......
..|......|......
..|......|......
..|......|......
..|......|......
..|......|......
..|D-6.v2|C-6.v2
..|......|......
..|......|......
..|===...|===...
..|......|......
..|......|......
..|D-6.v2|C-6.v2
..|......|......
..|......|......
..|===...|===...
..|......|......
..|......|......
..|......|......
..|......|......
..|......|......
..|......|......
..|......|......
..|......|......
..|......|......
..|......|......
..|......|......
..|......|......
..|......|......
..|......|......
..|D-6.v3|C-6.v3
..|......|......
..|......|......
..|===...|===...
..|......|......
..|......|......
..|D-6.v2|C-6.v2
..|......|......
..|......|......
..|===...|===...
..|......|......
..|......|......
..|......|......
..|......|......
..|......|......
..|......|......
..|......|......
..|......|......
..|......|......
..|......|......
..|......|......
..|......|......
..|......|......
..|......|......
..|D-6.v3|C-6.v3
..|......|......
..|......|......
..|===...|===...
..|......|......
..|......|......
..|D-6.v2|C-6.v2
..|......|......
..|......|......
..|===...|===...
..|......|......
..|......|......
..|......|......
..|......|......
..|......|......
..|......|......
..|......|......
..|......|......
..|......|......
..|......|......
..|......|......
..|......|......
..|......|......
..|......|......
..|D-6.v2|C-6.v2
..|......|......
..|......|......
..|===...|===...
..|......|......
..|......|......
..|D-6.v2|C-6.v2
..|......|......
..|......|......
..|===...|===...
..|......|......
..|......|......
..|......|......
..|......|......
..|......|......
..|......|......
..|......|......
..|......|......
..|......|......
..|......|......
..|......|......
..|......|......
..|......|......
..|......|......
..|C-6.v2|A#5.v2
..|......|......
..|......|......
..|===...|===...
..|......|......
..|......|......
..|C-6.v2|A#5.v2
..|......|......
..|......|......
..|===...|===...
..|......|......
..|......|......
..|......|......
..|......|......
..|......|......
..|......|......
..|......|......
..|......|......
..|......|......
..|......|......
..|......|......
..|......|......
..|......|......
..|......|......
..|C-6.v3|A#5.v3
..|......|......
..|......|......
..|===...|===...
..|......|......
..|......|......
..|C-6.v2|A#5.v2
..|......|......
..|......|......
..|===...|===...
..|......|......
..|......|......
..|......|......
..|......|......
..|......|......
..|......|......
..|......|......
..|......|......
..|......|......
..|......|......
..|......|......
..|......|......
..|......|......
..|......|......
..|C-6.v3|A#5.v3
..|......|......
..|......|......
..|===...|===...
..|......|......
..|......|......
..|C-6.v2|A#5.v2
..|......|......
..|......|......
..|===...|===...
..|......|......
..|......|......
..|......|......
..|......|......
..|......|......
..|......|......
..|......|......
..|......|......
..|......|......
..|......|......
..|......|......
..|......|......
..|......|......
..|......|......
..|C-6.v2|A#5.v2
..|......|......
..|......|......
..|===...|===...
..|......|......
..|......|......
..|C-6.v2|A#5.v2
..|......|......
..|......|......
..|===...|===...
..|......|......
..|......|......
..|......|......
..|......|......
..|......|......
..|......|......
..|......|......
..|......|......
..|......|......
..|......|......
..|......|......
..|......|......
..|......|......
..|......|......
..|A-5.v2|G-5.v2
..|......|......
..|......|......
..|===...|===...
..|......|......
..|......|......
..|A-5.v2|G-5.v2
..|......|......
..|......|......
..|===...|===...
..|......|......
..|......|......
..|......|......
..|......|......
..|......|......
..|......|......
..|......|......
..|......|......
..|......|......
..|......|......
..|......|......
..|......|......
..|......|......
..|......|......
..|A-5.v3|G-5.v3
..|......|......
..|......|......
..|===...|===...
..|......|......
..|......|......
..|A-5.v2|G-5.v2
..|......|......
..|......|......
..|===...|===...
..|......|......
..|......|......
..|......|......
..|......|......
..|......|......
..|......|......
..|......|......
..|......|......
..|......|......
..|......|......
..|......|......
..|......|......
..|......|......
..|......|......
..|A-5.v3|G-5.v3
..|......|......
..|......|......
..|===...|===...
..|......|......
..|......|......
..|A-5.v2|G-5.v2
..|......|......
..|......|......
..|===...|===...
..|......|......
..|......|......
..|......|......
..|......|......
..|......|......
..|......|......
..|......|......
..|......|......
..|......|......
..|......|......
..|......|......
..|......|......
..|......|......
..|......|......
..|A-5.v2|G-5.v2
..|......|......
..|......|......
..|===...|===...
..|......|......
..|......|......
..|A-5.v2|G-5.v2
..|......|......
..|......|......
..|===...|===...
..|......|......
..|......|......
..|......|......
..|......|......
..|......|......
..|......|......
..|......|......
..|......|......
..|......|......
..|......|......
..|......|......
..|......|......
..|......|......
..|......|......
..|A-5.v3|G-5.v3
..|......|......
..|......|......
..|===...|===...
..|......|......
..|......|......
..|A-5.v3|G-5.v3
..|......|......
..|......|......
..|===...|===...
..|......|......
..|......|......
..|......|......
..|......|......
..|......|......
..|......|......
..|......|......
..|......|......
..|......|......
..|......|......
..|......|......
..|......|......
..|......|......
..|......|......
..|A-5.v3|G-5.v3
..|......|......
..|......|......
..|===...|===...
..|......|......
..|......|......
..|A-5.v2|G-5.v2
..|......|......
..|......|......
..|===...|===...
..|......|......
..|......|......
..|......|......
..|......|......
..|......|......
..|......|......
..|......|......
..|......|......
..|......|......
..|......|......
..|......|......
..|......|......
..|......|......
..|......|......
..|A-5.v3|G-5.v3
..|......|......
..|......|......
..|===...|===...
..|......|......
..|......|......
..|......|......
..|......|......
..|......|......
..|......|......
..|......|......
..|......|......
..|A-5.v3|G-5.v3
..|......|......
..|......|......
..|===...|===...
..|......|......
..|......|......
..|......|......
..|......|......
..|......|......
..|......|......
..|......|......
..|......|......
..|......|......
..|......|......
..|......|......
..|......|......
..|......|......
..|......|......
..|......|......
..|......|......
..|......|......
..|......|......
..|......|......
..|......|......
..|......|......
..|......|......
..|......|......
..|......|......
..|......|......
..|......|......
..|......|......
..|......|......
..|......|......
..|......|......
..|......|......
..|......|......
..|C-6.v2|A-5.v2
..|......|......
..|......|......
..|===...|===...
..|......|......
..|......|......
..|C-6.v2|A-5.v2
..|......|......
..|......|......
..|===...|===...
..|......|......
..|......|......
..|......|......
..|......|......
..|......|......
..|......|......
..|......|......
..|......|......
..|......|......
..|......|......
..|......|......
..|......|......
..|......|......
..|......|......
..|C-6.v3|A-5.v3
..|......|......
..|......|......
..|===...|===...
..|......|......
..|......|......
..|C-6.v2|A-5.v2
..|......|......
..|......|......
..|===...|===...
..|......|......
..|......|......
..|......|......
..|......|......
..|......|......
..|......|......
..|......|......
..|......|......
..|......|......
..|......|......
..|......|......
..|......|......
..|......|......
..|......|......
..|C-6.v3|A-5.v3
..|......|......
..|......|......
..|===...|===...
..|......|......
..|......|......
..|C-6.v2|A-5.v2
..|......|......
..|......|......
..|===...|===...
..|......|......
..|......|......
..|......|......
..|......|......
..|......|......
..|......|......
..|......|......
..|......|......
..|......|......
..|......|......
..|......|......
..|......|......
..|......|......
..|......|......
..|C-6.v2|A-5.v2
..|......|......
..|......|......
..|===...|===...
..|......|......
..|......|......
..|C-6.v2|A-5.v2
..|......|......
..|......|......
..|===...|===...
..|......|......
..|......|......
..|......|......
..|......|......
..|......|......
..|......|......
..|......|......
..|......|......
..|......|......
..|......|......
..|......|......
..|......|......
..|......|......
..|......|......
..|A#5.v2|G-5.v2
..|......|......
..|......|......
..|===...|===...
..|......|......
..|......|......
..|A#5.v2|G-5.v2
..|......|......
..|......|......
..|===...|===...
..|......|......
..|......|......
..|......|......
..|......|......
..|......|......
..|......|......
..|......|......
..|......|......
..|......|......
..|......|......
..|......|......
..|......|......
..|......|......
..|......|......
..|A#5.v3|G-5.v3
..|......|......
..|......|......
..|===...|===...
..|......|......
..|......|......
..|A#5.v2|G-5.v2
..|......|......
..|......|......
..|===...|===...
..|......|......
..|......|......
..|......|......
..|......|......
..|......|......
..|......|......
..|......|......
..|......|......
..|......|......
..|......|......
..|......|......
..|......|......
..|......|......
..|......|......
..|A#5.v3|G-5.v3
..|......|......
..|......|......
..|===...|===...
..|......|......
..|......|......
..|A#5.v2|G-5.v2
..|......|......
..|......|......
..|===...|===...
..|......|......
..|......|......
..|......|......
..|......|......
..|......|......
..|......|......
..|......|......
..|......|......
..|......|......
..|......|......
..|......|......
..|......|......
..|......|......
..|......|......
..|A#5.v2|G-5.v2
..|......|......
..|......|......
..|===...|===...
..|......|......
..|......|......
..|A#5.v2|G-5.v2
..|......|......
..|......|......
..|===...|===...
..|......|......
..|......|......
..|......|......
..|......|......
..|......|......
..|......|......
..|......|......
..|......|......
..|......|......
..|......|......
..|......|......
..|......|......
..|......|......
..|......|......
..|A-5.v2|E-5.v2
..|......|......
..|......|......
..|===...|===...
..|......|......
..|......|......
..|A-5.v2|E-5.v2
..|......|......
..|......|......
..|===...|===...
..|......|......
..|......|......
..|......|......
..|......|......
..|......|......
..|......|......
..|......|......
..|......|......
..|......|......
..|......|......
..|......|......
..|......|......
..|......|......
..|......|......
..|A-5.v3|E-5.v3
..|......|......
..|......|......
..|===...|===...
..|......|......
..|......|......
..|A-5.v2|E-5.v2
..|......|......
..|......|......
..|===...|===...
..|......|......
..|......|......
..|......|......
..|......|......
..|......|......
..|......|......
..|......|......
..|......|......
..|......|......
..|......|......
..|......|......
..|......|......
..|......|......
..|......|......
..|A-5.v3|F-5.v3
..|......|......
..|......|......
..|===...|===...
..|......|......
..|......|......
..|A-5.v2|F-5.v2
..|......|......
..|......|......
..|===...|===...
..|......|......
..|......|......
..|......|......
..|......|......
..|......|......
..|......|......
..|......|......
..|......|......
..|......|......
..|......|......
..|......|......
..|......|......
..|......|......
..|......|......
..|A-5.v2|F-5.v2
..|......|......
..|......|......
..|===...|===...
..|......|......
..|......|......
..|A-5.v2|F-5.v2
..|......|......
..|......|......
..|===...|===...
..|......|......
..|......|......
..|......|......
..|......|......
..|......|......
..|......|......
..|......|......
..|......|......
..|......|......
..|......|......
..|......|......
..|......|......
..|......|......
..|......|......
..|A#5.v2|G-5.v2
..|......|......
..|......|......
..|===...|===...
..|......|......
..|......|......
..|A#5.v2|G-5.v2
..|......|......
..|......|......
..|===...|===...
..|......|......
..|......|......
..|......|......
..|......|......
..|......|......
..|......|......
..|......|......
..|......|......
..|......|......
..|......|......
..|......|......
..|......|......
..|......|......
..|......|......
..|A#5.v3|G-5.v3
..|......|......
..|......|......
..|===...|===...
..|......|......
..|......|......
..|A#5.v2|G-5.v2
..|......|......
..|......|......
..|===...|===...
..|......|......
..|......|......
..|......|......
..|......|......
..|......|......
..|......|......
..|......|......
..|......|......
..|......|......
..|......|......
..|......|......
..|......|......
..|......|......
..|......|......
..|A-5.v3|D#5.v3
..|......|......
..|......|......
..|===...|===...
..|......|......
..|......|......
..|A-5.v2|D#5.v2
..|......|......
..|......|......
..|===...|===...
..|......|......
..|......|......
..|......|......
..|......|......
..|......|......
..|......|......
..|......|......
..|......|......
..|......|......
..|......|......
..|......|......
..|......|......
..|......|......
..|......|......
..|A-5.v2|E-5.v2
..|......|......
..|......|......
..|===...|===...
..|......|......
..|......|......
..|A-5.v2|E-5.v2
..|......|......
..|......|......
..|===...|===...
..|......|......
..|......|......
..|......|......
..|......|......
..|......|......
..|......|......
..|......|......
..|......|......
..|......|......
..|......|......
..|......|......
..|......|......
..|......|......
..|......|......
..|C-6.v2|A-5.v2
..|......|......
..|......|......
..|===...|===...
..|......|......
..|......|......
..|C-6.v2|A-5.v2
..|......|......
..|......|......
..|===...|===...
..|......|......
..|......|......
..|......|......
..|......|......
..|......|......
..|......|......
..|......|......
..|......|......
..|......|......
..|......|......
..|......|......
..|......|......
..|......|......
..|......|......
..|C-6.v3|A-5.v3
..|......|......
..|......|......
..|===...|===...
..|......|......
..|......|......
..|C-6.v2|A-5.v2
..|......|......
..|......|......
..|===...|===...
..|......|......
..|......|......
..|......|......
..|......|......
..|......|......
..|......|......
..|......|......
..|......|......
..|......|......
..|......|......
..|......|......
..|......|......
..|......|......
..|......|......
..|C-6.v3|A-5.v3
..|......|......
..|......|......
..|===...|===...
..|......|......
..|......|......
..|C-6.v2|A-5.v2
..|......|......
..|......|......
..|===...|===...
..|......|......
..|......|......
..|......|......
..|......|......
..|......|......
..|......|......
..|......|......
..|......|......
..|......|......
..|......|......
..|......|......
..|......|......
..|......|......
..|......|......
..|C-6.v2|A-5.v2
..|......|......
..|......|......
..|===...|===...
..|......|......
..|......|......
..|C-6.v2|A-5.v2
..|......|......
..|......|......
..|===...|===...
..|......|......
..|......|......
..|......|......
..|......|......
..|......|......
..|......|......
..|......|......
..|......|......
..|......|......
..|......|......
..|......|......
..|......|......
..|......|......
..|......|......
..|A#5.v2|G-5.v2
..|......|......
..|......|......
..|===...|===...
..|......|......
..|......|......
..|A#5.v2|G-5.v2
..|......|......
..|......|......
..|===...|===...
..|......|......
..|......|......
..|......|......
..|......|......
..|......|......
..|......|......
..|......|......
..|......|......
..|......|......
..|......|......
..|......|......
..|......|......
..|......|......
..|......|......
..|A#5.v3|G-5.v3
..|......|......
..|......|......
..|===...|===...
..|......|......
..|......|......
..|A#5.v2|G-5.v2
..|......|......
..|......|......
..|===...|===...
..|......|......
..|......|......
..|......|......
..|......|......
..|......|......
..|......|......
..|......|......
..|......|......
..|......|......
..|......|......
..|......|......
..|......|......
..|......|......
..|......|......
..|A#5.v3|G-5.v3
..|......|......
..|......|......
..|===...|===...
..|......|......
..|......|......
..|A#5.v2|G-5.v2
..|......|......
..|......|......
..|===...|===...
..|......|......
..|......|......
..|......|......
..|......|......
..|......|......
..|......|......
..|......|......
..|......|......
..|......|......
..|......|......
..|......|......
..|......|......
..|......|......
..|......|......
..|A#5.v2|G-5.v2
..|......|......
..|......|......
..|===...|===...
..|......|......
..|......|......
..|A#5.v2|G-5.v2
..|......|......
..|......|......
..|===...|===...
..|......|......
..|......|......
..|......|......
..|......|......
..|......|......
..|......|......
..|......|......
..|......|......
..|......|......
..|......|......
..|......|......
..|......|......
..|......|......
..|......|......
..|A-5.v2|E-5.v2
..|......|......
..|......|......
..|===...|===...
..|......|......
..|......|......
..|A-5.v2|E-5.v2
..|......|......
..|......|......
..|===...|===...
..|......|......
..|......|......
..|......|......
..|......|......
..|......|......
..|......|......
..|......|......
..|......|......
..|......|......
..|......|......
..|......|......
..|......|......
..|......|......
..|......|......
..|A-5.v3|E-5.v3
..|......|......
..|......|......
..|===...|===...
..|......|......
..|......|......
..|A-5.v2|E-5.v2
..|......|......
..|......|......
..|===...|===...
..|......|......
..|......|......
..|......|......
..|......|......
..|......|......
..|......|......
..|......|......
..|......|......
..|......|......
..|......|......
..|......|......
..|......|......
..|......|......
..|......|......
..|A-5.v3|F-5.v3
..|......|......
..|......|......
..|===...|===...
..|......|......
..|......|......
..|A-5.v2|F-5.v2
..|......|......
..|......|......
..|===...|===...
..|......|......
..|......|......
..|......|......
..|......|......
..|......|......
..|......|......
..|......|......
..|......|......
..|......|......
..|......|......
..|......|......
..|......|......
..|......|......
..|......|......
..|A-5.v2|F-5.v2
..|......|......
..|......|......
..|===...|===...
..|......|......
..|......|......
..|A-5.v2|F-5.v2
..|......|......
..|......|......
..|===...|===...
..|......|......
..|......|......
..|A-5.v2|A-3.v2
..|......|......
..|......|......
..|......|===...
..|......|......
..|......|......
..|A-5.v2|A-4.v2
..|......|......
..|......|......
..|......|===...
..|......|......
..|......|......
..|A-6.v2|......
..|......|......
..|......|......
..|......|......
..|......|......
..|......|......
..|A-5.v2|......
..|......|......
..|......|......
..|===...|......
..|......|......
..|......|......
..|G-6.v2|......
..|......|......
..|......|......
..|......|......
..|......|......
..|......|......
..|A-5.v2|A-4.v2
..|......|......
..|......|......
..|......|===...
..|......|......
..|......|......
..|F#6.v2|......
..|......|......
..|......|......
..|......|......
..|......|......
..|......|......
..|G-6.v2|A-3.v2
..|......|......
..|......|......
..|......|===...
..|......|......
..|......|......
..|A-6.v2|A-4.v2
..|......|......
..|......|......
..|......|===...
..|......|......
..|......|......
..|A-5.v2|A-4.v2
..|......|......
..|......|......
..|......|===...
..|......|......
..|......|......
..|G-6.v2|A-5.v2
..|......|......
..|......|......
..|......|===...
..|......|......
..|......|......
..|A-6.v2|......
..|......|......
..|......|......
..|......|......
..|......|......
..|......|......
..|E-6.v2|......
..|......|......
..|......|......
..|......|......
..|......|......
..|......|......
..|E-5.v2|A-4.v2
..|......|......
..|......|......
..|......|===...
..|......|......
..|......|......
..|A-4.v2|A-3.v2
..|......|......
..|......|......
..|......|===...
..|......|......
..|......|......
..|===...|......
..|......|......
..|......|......
..|......|......
..|......|......
..|......|......
..|F#5.v3|......
..|......|......
..|......|......
..|......|......
..|......|......
..|......|......
..|===...|......
..|......|......
..|......|......
..|......|......
..|......|......
..|......|......
..|E-6.v2|C-6.v2
..|......|......
..|......|......
..|......|......
..|......|......
..|......|......
..|F#5.v2|===...
..|......|......
..|......|......
..|......|......
..|......|......
..|......|......
..|===...|......
..|......|......
..|......|......
..|......|......
..|......|......
..|......|......
..|E-6.v2|C-6.v2
..|......|......
..|......|......
..|......|......
..|......|......
..|......|......
..|===...|===...
..|......|......
..|......|......
..|......|......
..|......|......
..|......|......
..|F#5.v2|......
..|......|......
..|......|......
..|......|......
..|......|......
..|......|......
..|===...|......
..|......|......
..|......|......
..|......|......
..|......|......
..|......|......
..|E-6.v2|C-6.v2
..|......|......
..|......|......
..|......|......
..|......|......
..|......|......
..|===...|===...
..|......|......
..|......|......
..|......|......
..|......|......
..|......|......
..|F#5.v2|......
..|......|......
..|......|......
..|......|......
..|......|......
..|......|......
..|E-6.v2|C-6.v2
..|......|......
..|......|......
..|......|......
..|......|......
..|......|......
..|......|......
..|......|......
..|......|......
..|......|......
..|......|......
..|......|......
..|F#5.v2|===...
..|......|......
..|......|......
..|......|......
..|......|......
..|......|......
..|===...|......
..|......|......
..|......|......
..|......|......
..|......|......
..|......|......
..|E-5.v3|......
..|......|......
..|......|......
..|......|......
..|......|......
..|......|......
..|===...|......
..|......|......
..|......|......
..|......|......
..|......|......
..|......|......
..|D-6.v2|A#5.v2
..|......|......
..|......|......
..|......|......
..|......|......
..|......|......
..|E-5.v2|===...
..|......|......
..|......|......
..|......|......
..|......|......
..|......|......
..|===...|......
..|......|......
..|......|......
..|......|......
..|......|......
..|......|......
..|D-6.v2|A#5.v2
..|......|......
..|......|......
..|......|......
..|......|......
..|......|......
..|===...|===...
..|......|......
..|......|......
..|......|......
..|......|......
..|......|......
..|E-5.v2|......
..|......|......
..|......|......
..|......|......
..|......|......
..|......|......
..|===...|......
..|......|......
..|......|......
..|......|......
..|......|......
..|......|......
..|D-6.v2|A#5.v2
..|......|......
..|......|......
..|......|......
..|......|......
..|......|......
..|===...|===...
..|......|......
..|......|......
..|......|......
..|......|......
..|......|......
..|E-5.v2|......
..|......|......
..|......|......
..|......|......
..|......|......
..|......|......
..|D-6.v2|A#5.v2
..|......|......
..|......|......
..|......|......
..|......|......
..|......|......
..|......|......
..|......|......
..|......|......
..|......|......
..|......|......
..|......|......
..|E-5.v2|===...
..|......|......
..|......|......
..|......|......
..|......|......
..|......|......
..|===...|......
..|......|......
..|......|......
..|......|......
..|......|......
..|......|......
..|C#5.v3|......
..|......|......
..|......|......
..|......|......
..|......|......
..|......|......
..|===...|......
..|......|......
..|......|......
..|......|......
..|......|......
..|......|......
..|B-5.v2|G-5.v2
..|......|......
..|......|......
..|......|......
..|......|......
..|......|......
..|C#5.v2|===...
..|......|......
..|......|......
..|......|......
..|......|......
..|......|......
..|===...|......
..|......|......
..|......|......
..|......|......
..|......|......
..|......|......
..|B-5.v2|G-5.v2
..|......|......
..|......|......
..|......|......
..|......|......
..|......|......
..|===...|===...
..|......|......
..|......|......
..|......|......
..|......|......
..|......|......
..|C#5.v2|......
..|......|......
..|......|......
..|......|......
..|......|......
..|......|......
..|===...|......
..|......|......
..|......|......
..|......|......
..|......|......
..|......|......
..|B-5.v2|G-5.v2
..|......|......
..|......|......
..|......|......
..|......|......
..|......|......
..|===...|===...
..|......|......
..|......|......
..|......|......
..|......|......
..|......|......
..|C#5.v2|......
..|......|......
..|......|......
..|......|......
..|......|......
..|......|......
..|B-5.v2|G-5.v2
..|......|......
..|......|......
..|......|......
..|......|......
..|......|......
..|......|......
..|......|......
..|......|......
..|......|......
..|......|......
..|......|......
..|C#5.v2|===...
..|......|......
..|......|......
..|......|......
..|......|......
..|......|......
..|===...|......
..|......|......
..|......|......
..|......|......
..|......|......
..|......|......
..|C#5.v3|......
..|......|......
..|......|......
..|......|......
..|......|......
..|......|......
..|===...|......
..|......|......
..|......|......
..|......|......
..|......|......
..|......|......
..|B-5.v2|G-5.v2
..|......|......
..|......|......
..|......|......
..|......|......
..|......|......
..|C#5.v2|===...
..|......|......
..|......|......
..|......|......
..|......|......
..|......|......
..|===...|......
..|......|......
..|......|......
..|......|......
..|......|......
..|......|......
..|B-5.v2|G-5.v2
..|......|......
..|......|......
..|......|......
..|......|......
..|......|......
..|===...|===...
..|......|......
..|......|......
..|......|......
..|......|......
..|......|......
..|C#5.v2|......
..|......|......
..|......|......
..|......|......
..|......|......
..|......|......
..|C#5.v2|......
..|......|......
..|......|......
..|......|......
..|......|......
..|......|......
..|===...|......
..|......|......
..|......|......
..|......|......
..|......|......
..|......|......
..|B-5.v2|G-5.v2
..|......|......
..|......|......
..|......|......
..|......|......
..|......|......
..|===...|===...
..|......|......
..|......|......
..|......|......
..|......|......
..|......|......
..|C#5.v2|......
..|......|......
..|......|......
..|......|......
..|......|......
..|......|......
..|===...|......
..|......|......
..|......|......
..|......|......
..|......|......
..|......|......
..|......|......
..|......|......
..|......|......
..|......|......
..|......|......
..|......|......
..|......|......
..|......|......
..|......|......
..|......|......
..|......|......
..|......|......
..|F#5.v3|......
..|......|......
..|......|......
..|......|......
..|......|......
..|......|......
..|===...|......
..|......|......
..|......|......
..|......|......
..|......|......
..|......|......
..|E-6.v2|C-6.v2
..|......|......
..|......|......
..|......|......
..|......|......
..|......|......
..|F#5.v2|===...
..|......|......
..|......|......
..|......|......
..|......|......
..|......|......
..|===...|......
..|......|......
..|......|......
..|......|......
..|......|......
..|......|......
..|E-6.v2|C-6.v2
..|......|......
..|......|......
..|......|......
..|......|......
..|......|......
..|===...|===...
..|......|......
..|......|......
..|......|......
..|......|......
..|......|......
..|F#5.v2|......
..|......|......
..|......|......
..|......|......
..|......|......
..|......|......
..|===...|......
..|......|......
..|......|......
..|......|......
..|......|......
..|......|......
..|E-6.v2|C-6.v2
..|......|......
..|......|......
..|......|......
..|......|......
..|......|......
..|===...|===...
..|......|......
..|......|......
..|......|......
..|......|......
..|......|......
..|F#5.v2|......
..|......|......
..|......|......
..|......|......
..|......|......
..|......|......
..|E-6.v2|C-6.v2
..|......|......
..|......|......
..|......|......
..|......|......
..|......|......
..|......|......
..|......|......
..|......|......
..|......|......
..|......|......
..|......|......
..|F#5.v2|===...
..|......|......
..|......|......
..|......|......
..|......|......
..|......|......
..|===...|......
..|......|......
..|......|......
..|......|......
..|......|......
..|......|......
..|E-5.v3|......
..|......|......
..|......|......
..|......|......
..|......|......
..|......|......
..|===...|......
..|......|......
..|......|......
..|......|......
..|......|......
..|......|......
..|D-6.v2|A#5.v2
..|......|......
..|......|......
..|......|......
..|......|......
..|......|......
..|E-5.v2|===...
..|......|......
..|......|......
..|......|......
..|......|......
..|......|......
..|===...|......
..|......|......
..|......|......
..|......|......
..|......|......
..|......|......
..|D-6.v2|A#5.v2
..|......|......
..|......|......
..|......|......
..|......|......
..|......|......
..|===...|===...
..|......|......
..|......|......
..|......|......
..|......|......
..|......|......
..|E-5.v2|......
..|......|......
..|......|......
..|......|......
..|......|......
..|......|......
..|===...|......
..|......|......
..|......|......
..|......|......
..|......|......
..|......|......
..|D-6.v2|A#5.v2
..|......|......
..|......|......
..|......|......
..|......|......
..|......|......
..|===...|===...
..|......|......
..|......|......
..|......|......
..|......|......
..|......|......
..|E-5.v2|......
..|......|......
..|......|......
..|......|......
..|......|......
..|......|......
..|D-6.v2|A#5.v2
..|......|......
..|......|......
..|......|......
..|......|......
..|......|......
..|......|......
..|......|......
..|......|......
..|......|......
..|......|......
..|......|......
..|E-5.v2|===...
..|......|......
..|......|......
..|......|......
..|......|......
..|......|......
..|===...|......
..|......|......
..|......|......
..|......|......
..|......|......
..|......|......
..|C#5.v3|......
..|......|......
..|......|......
..|......|......
..|......|......
..|......|......
..|===...|......
..|......|......
..|......|......
..|......|......
..|......|......
..|......|......
..|B-5.v2|G-5.v2
..|......|......
..|......|......
..|......|......
..|......|......
..|......|......
..|C#5.v2|===...
..|......|......
..|......|......
..|......|......
..|......|......
..|......|......
..|===...|......
..|......|......
..|......|......
..|......|......
..|......|......
..|......|......
..|B-5.v2|G-5.v2
..|......|......
..|......|......
..|......|......
..|......|......
..|......|......
..|===...|===...
..|......|......
..|......|......
..|......|......
..|......|......
..|......|......
..|C#5.v2|......
..|......|......
..|......|......
..|......|......
..|......|......
..|......|......
..|===...|......
..|......|......
..|......|......
..|......|......
..|......|......
..|......|......
..|B-5.v2|G-5.v2
..|......|......
..|......|......
..|......|......
..|......|......
..|......|......
..|===...|===...
..|......|......
..|......|......
..|......|......
..|......|......
..|......|......
..|C#5.v2|......
..|......|......
..|......|......
..|......|......
..|......|......
..|......|......
..|B-5.v2|G-5.v2
..|......|......
..|......|......
..|......|......
..|......|......
..|......|......
..|......|......
..|......|......
..|......|......
..|......|......
..|......|......
..|......|......
..|C#5.v2|===...
..|......|......
..|......|......
..|......|......
..|......|......
..|......|......
..|===...|......
..|......|......
..|......|......
..|......|......
..|......|......
..|......|......
..|C#5.v3|......
..|......|......
..|......|......
..|......|......
..|......|......
..|......|......
..|===...|......
..|......|......
..|......|......
..|......|......
..|......|......
..|......|......
..|B-5.v2|G-5.v2
..|......|......
..|......|......
..|......|......
..|......|......
..|......|......
..|C#5.v2|===...
..|......|......
..|......|......
..|......|......
..|......|......
..|......|......
..|===...|......
..|......|......
..|......|......
..|......|......
..|......|......
..|......|......
..|B-5.v2|G-5.v2
..|......|......
..|......|......
..|......|......
..|......|......
..|......|......
..|===...|===...
..|......|......
..|......|......
..|......|......
..|......|......
..|......|......
..|C#5.v2|......
..|......|......
..|......|......
..|......|......
..|......|......
..|......|......
..|C#5.v2|......
..|......|......
..|......|......
..|......|......
..|......|......
..|......|......
..|===...|......
..|......|......
..|......|......
..|......|......
..|......|......
..|......|......
..|B-5.v2|G-5.v2
..|......|......
..|......|......
..|......|......
..|......|......
..|......|......
..|===...|===...
..|......|......
..|......|......
..|......|......
..|......|......
..|......|......
..|C#5.v2|......
..|......|......
..|......|......
..|......|......
..|......|......
..|......|......
..|===...|......
..|......|......
..|......|......
..|......|......
..|......|......
..|......|......
..|......|......
..|......|......
..|......|......
..|......|......
..|......|......
..|......|......
..|......|......
..|......|......
..|......|......
..|......|......
..|......|......
..|......|......
..|F#5.v3|......
..|......|......
..|......|......
..|......|......
..|......|......
..|......|......
..|===...|......
..|......|......
..|......|......
..|......|......
..|......|......
..|......|......
..|E-6.v2|C-6.v2
..|......|......
..|......|......
..|......|......
..|......|......
..|......|......
..|F#5.v2|===...
..|......|......
..|......|......
..|......|......
..|......|......
..|......|......
..|===...|......
..|......|......
..|......|......
..|......|......
..|......|......
..|......|......
..|E-6.v2|C-6.v2
..|......|......
..|......|......
..|......|......
..|......|......
..|......|......
..|===...|===...
..|......|......
..|......|......
..|......|......
..|......|......
..|......|......
..|F#5.v2|......
..|......|......
..|......|......
..|......|......
..|......|......
..|......|......
..|===...|......
..|......|......
..|......|......
..|......|......
..|......|......
..|......|......
..|E-6.v2|C-6.v2
..|......|......
..|......|......
..|......|......
..|......|......
..|......|......
..|===...|===...
..|......|......
..|......|......
..|......|......
..|......|......
..|......|......
..|F#5.v2|......
..|......|......
..|......|......
..|......|......
..|......|......
..|......|......
..|E-6.v2|C-6.v2
..|......|......
..|......|......
..|......|......
..|......|......
..|......|......
..|......|......
..|......|......
..|......|......
..|......|......
..|......|......
..|......|......
..|F#5.v2|===...
..|......|......
..|......|......
..|......|......
..|......|......
..|......|......
..|===...|......
..|......|......
..|......|......
..|......|......
..|......|......
..|......|......
..|E-5.v3|......
..|......|......
..|......|......
..|......|......
..|......|......
..|......|......
..|===...|......
..|......|......
..|......|......
..|......|......
..|......|......
..|......|......
..|D-6.v2|A#5.v2
..|......|......
..|......|......
..|......|......
..|......|......
..|......|......
..|E-5.v2|===...
..|......|......
..|......|......
..|......|......
..|......|......
..|......|......
..|===...|......
..|......|......
..|......|......
..|......|......
..|......|......
..|......|......
..|D-6.v2|A#5.v2
..|......|......
..|......|......
..|......|......
..|......|......
..|......|......
..|===...|===...
..|......|......
..|......|......
..|......|......
..|......|......
..|......|......
..|E-5.v2|......
..|......|......
..|......|......
..|......|......
..|......|......
..|......|......
..|===...|......
..|......|......
..|......|......
..|......|......
..|......|......
..|......|......
..|D-6.v2|A#5.v2
..|......|......
..|......|......
..|......|......
..|......|......
..|......|......
..|===...|===...
..|......|......
..|......|......
..|......|......
..|......|......
..|......|......
..|E-5.v2|......
..|......|......
..|......|......
..|......|......
..|......|......
..|......|......
..|D-6.v2|A#5.v2
..|......|......
..|......|......
..|......|......
..|......|......
..|......|......
..|......|......
..|......|......
..|......|......
..|......|......
..|......|......
..|......|......
..|E-5.v2|===...
..|......|......
..|......|......
..|......|......
..|......|......
..|......|......
..|===...|......
..|......|......
..|......|......
..|......|......
..|......|......
..|......|......
..|C#5.v3|......
..|......|......
..|......|......
..|......|......
..|......|......
..|......|......
..|===...|......
..|......|......
..|......|......
..|......|......
..|......|......
..|......|......
..|B-5.v2|G-5.v2
..|......|......
..|......|......
..|......|......
..|......|......
..|......|......
..|C#5.v2|===...
..|......|......
..|......|......
..|......|......
..|......|......
..|......|......
..|===...|......
..|......|......
..|......|......
..|......|......
..|......|......
..|......|......
..|B-5.v2|G-5.v2
..|......|......
..|......|......
..|......|......
..|......|......
..|......|......
..|===...|===...
..|......|......
..|......|......
..|......|......
..|......|......
..|......|......
..|C#5.v2|......
..|......|......
..|......|......
..|......|......
..|......|......
..|......|......
..|===...|......
..|......|......
..|......|......
..|......|......
..|......|......
..|......|......
..|B-5.v2|G-5.v2
..|......|......
..|......|......
..|......|......
..|......|......
..|......|......
..|===...|===...
..|......|......
..|......|......
..|......|......
..|......|......
..|......|......
..|C#5.v2|......
..|......|......
..|......|......
..|......|......
..|......|......
..|......|......
..|B-5.v2|G-5.v2
..|......|......
..|......|......
..|......|......
..|......|......
..|......|......
..|......|......
..|......|......
..|......|......
..|......|......
..|......|......
..|......|......
..|C#5.v2|===...
..|......|......
..|......|......
..|......|......
..|......|......
..|......|......
..|===...|......
..|......|......
..|......|......
..|......|......
..|......|......
..|......|......
..|C#5.v3|......
..|......|......
..|......|......
..|......|......
..|......|......
..|......|......
..|===...|......
..|......|......
..|......|......
..|......|......
..|......|......
..|......|......
..|B-5.v2|G-5.v2
..|......|......
..|......|......
..|......|......
..|......|......
..|......|......
..|C#5.v2|===...
..|......|......
..|......|......
..|......|......
..|......|......
..|......|......
..|===...|......
..|......|......
..|......|......
..|......|......
..|......|......
..|......|......
..|B-5.v2|G-5.v2
..|......|......
..|......|......
..|......|......
..|......|......
..|......|......
..|===...|===...
..|......|......
..|......|......
..|......|......
..|......|......
..|......|......
..|C#5.v2|......
..|......|......
..|......|......
..|......|......
..|......|......
..|......|......
..|C#5.v2|......
..|......|......
..|......|......
..|......|......
..|......|......
..|......|......
..|===...|......
..|......|......
..|......|......
..|......|......
..|......|......
..|......|......
..|B-5.v2|G-5.v2
..|......|......
..|......|......
..|......|......
..|......|......
..|......|......
..|===...|===...
..|......|......
..|......|......
..|......|......
..|......|......
..|......|......
..|C#5.v2|......
..|......|......
..|......|......
..|......|......
..|......|......
..|......|......
..|===...|......
..|......|......
..|......|......
..|......|......
..|......|......
..|......|......
..|......|......
..|......|......
..|......|......
..|......|......
..|......|......
..|......|......
..|......|......
..|......|......
..|......|......
..|......|......
..|......|......
..|......|......
..|F#5.v3|......
..|......|......
..|......|......
..|......|......
..|......|......
..|......|......
..|===...|......
..|......|......
..|......|......
..|......|......
..|......|......
..|......|......
..|E-6.v2|C-6.v2
..|......|......
..|......|......
..|......|......
..|......|......
..|......|......
..|F#5.v2|===...
..|......|......
..|......|......
..|......|......
..|......|......
..|......|......
..|===...|......
..|......|......
..|......|......
..|......|......
..|......|......
..|......|......
..|E-6.v2|C-6.v2
..|......|......
..|......|......
..|......|......
..|......|......
..|......|......
..|===...|===...
..|......|......
..|......|......
..|......|......
..|......|......
..|......|......
..|F#5.v2|......
..|......|......
..|......|......
..|......|......
..|......|......
..|......|......
..|===...|......
..|......|......
..|......|......
..|......|......
..|......|......
..|......|......
..|E-6.v2|C-6.v2
..|......|......
..|......|......
..|......|......
..|......|......
..|......|......
..|===...|===...
..|......|......
..|......|......
..|......|......
..|......|......
..|......|......
..|F#5.v2|......
..|......|......
..|......|......
..|......|......
..|......|......
..|......|......
..|E-6.v2|C-6.v2
..|......|......
..|......|......
..|......|......
..|......|......
..|......|......
..|......|......
..|......|......
..|......|......
..|......|......
..|......|......
..|......|......
..|F#5.v2|===...
..|......|......
..|......|......
..|......|......
..|......|......
..|......|......
..|===...|......
..|......|......
..|......|......
..|......|......
..|......|......
..|......|......
..|E-5.v3|......
..|......|......
..|......|......
..|......|......
..|......|......
..|......|......
..|===...|......
..|......|......
..|......|......
..|......|......
..|......|......
..|......|......
..|D-6.v2|A#5.v2
..|......|......
..|......|......
..|......|......
..|......|......
..|......|......
..|E-5.v2|===...
..|......|......
..|......|......
..|......|......
..|......|......
..|......|......
..|===...|......
..|......|......
..|......|......
..|......|......
..|......|......
..|......|......
..|D-6.v2|A#5.v2
..|......|......
..|......|......
..|......|......
..|......|......
..|......|......
..|===...|===...
..|......|......
..|......|......
..|......|......
..|......|......
..|......|......
..|E-5.v2|......
..|......|......
..|......|......
..|......|......
..|......|......
..|......|......
..|===...|......
..|......|......
..|......|......
..|......|......
..|......|......
..|......|......
..|D-6.v2|A#5.v2
..|......|......
..|......|......
..|......|......
..|......|......
..|......|......
..|===...|===...
..|......|......
..|......|......
..|......|......
..|......|......
..|......|......
..|E-5.v2|......
..|......|......
..|......|......
..|......|......
..|......|......
..|......|......
..|D-6.v2|A#5.v2
..|......|......
..|......|......
..|......|......
..|......|......
..|......|......
..|......|......
..|......|......
..|......|......
..|......|......
..|......|......
..|......|......
..|E-5.v2|===...
..|......|......
..|......|......
..|......|......
..|......|......
..|......|......
..|===...|......
..|......|......
..|......|......
..|......|......
..|......|......
..|......|......
..|C#5.v3|......
..|......|......
..|......|......
..|......|......
..|......|......
..|......|......
..|===...|......
..|......|......
..|......|......
..|......|......
..|......|......
..|......|......
..|B-5.v2|G-5.v2
..|......|......
..|......|......
..|......|......
..|......|......
..|......|......
..|C#5.v2|===...
..|......|......
..|......|......
..|......|......
..|......|......
..|......|......
..|===...|......
..|......|......
..|......|......
..|......|......
..|......|......
..|......|......
..|B-5.v2|G-5.v2
..|......|......
..|......|......
..|......|......
..|......|......
..|......|......
..|===...|===...
..|......|......
..|......|......
..|......|......
..|......|......
..|......|......
..|C#5.v2|......
..|......|......
..|......|......
..|......|......
..|......|......
..|......|......
..|===...|......
..|......|......
..|......|......
..|......|......
..|......|......
..|......|......
..|B-5.v2|G-5.v2
..|......|......
..|......|......
..|......|......
..|......|......
..|......|......
..|===...|===...
..|......|......
..|......|......
..|......|......
..|......|......
..|......|......
..|C#5.v2|......
..|......|......
..|......|......
..|......|......
..|......|......
..|......|......
..|B-5.v2|G-5.v2
..|......|......
..|......|......
..|......|......
..|......|......
..|......|......
..|......|......
..|......|......
..|......|......
..|......|......
..|......|......
..|......|......
..|C#5.v2|===...
..|......|......
..|......|......
..|......|......
..|......|......
..|......|......
..|===...|......
..|......|......
..|......|......
..|......|......
..|......|......
..|......|......
..|A-5.v2|A-3.v2
..|......|......
..|......|......
..|......|===...
..|......|......
..|......|......
..|A-5.v2|A-4.v2
..|......|......
..|......|......
..|......|===...
..|......|......
..|......|......
..|A-6.v2|......
..|......|......
..|......|......
..|......|......
..|......|......
..|......|......
..|A-5.v2|......
..|......|......
..|......|......
..|===...|......
..|......|......
..|......|......
..|G-6.v2|......
..|......|......
..|......|......
..|......|......
..|......|......
..|......|......
..|A-5.v2|A-4.v2
..|......|......
..|......|......
..|......|===...
..|......|......
..|......|......
..|F#6.v2|......
..|......|......
..|......|......
..|......|......
..|......|......
..|......|......
..|G-6.v2|A-3.v2
..|......|......
..|......|......
..|......|===...
..|......|......
..|......|......
..|A-6.v2|A-4.v2
..|......|......
..|......|......
..|......|===...
..|......|......
..|......|......
..|A-5.v2|A-4.v2
..|......|......
..|......|......
..|......|===...
..|......|......
..|......|......
..|G-6.v2|A-5.v2
..|......|......
..|......|......
..|......|===...
..|......|......
..|......|......
..|A-6.v2|......
..|......|......
..|......|......
..|......|......
..|......|......
..|......|......
..|E-6.v2|......
..|......|......
..|......|......
..|......|......
..|......|......
..|......|......
..|E-5.v2|A-4.v2
..|......|......
..|......|......
..|......|===...
..|......|......
..|......|......
..|A-4.v2|A-3.v2
..|......|......
..|......|......
..|......|===...
..|......|......
..|......|......
..|===...|......
#halt
#halt
